<svg width="474" height="720" viewBox="0 0 474 720" fill="none" xmlns="http://www.w3.org/2000/svg">
<rect width="474" height="720" fill="#FBF6F0"/>
<path d="M246.972 314.715C314.725 314.715 369.65 259.79 369.65 192.037C369.65 124.284 314.725 69.3588 246.972 69.3588C179.218 69.3588 124.294 124.284 124.294 192.037C124.294 259.79 179.218 314.715 246.972 314.715Z" fill="#F9D8AD"/>
<path d="M373.553 336.808H120.39V338.371H373.553V336.808Z" fill="#F9D8AD"/>
<path d="M343.056 260.936H267.819V266.615H343.056V260.936Z" fill="#99583F"/>
<path d="M250.619 132.617L236.175 136.264C235.381 136.465 234.9 137.271 235.1 138.065L238.747 152.51C238.948 153.303 239.754 153.784 240.547 153.584L254.992 149.937C255.786 149.736 256.267 148.93 256.067 148.137L252.42 133.692C252.219 132.898 251.413 132.417 250.619 132.617Z" fill="#E8C395"/>
<path d="M247.895 137.906C247.37 137.738 246.801 137.779 246.306 138.021C245.704 138.349 245.105 139.03 244.681 139.541C244.06 139.294 243.213 138.977 242.528 138.975C241.977 138.996 241.456 139.23 241.075 139.629C240.16 140.534 240.045 141.953 240.526 143.07C241.006 144.187 241.984 145.044 243.036 145.733C244.088 146.423 245.736 147.049 246.759 147.775C247.313 146.65 248.475 145.318 249.067 144.211C249.659 143.105 250.119 141.887 250.012 140.675C249.906 139.464 249.13 138.27 247.895 137.906Z" fill="#F9D8AD"/>
<path d="M249.581 238.382L240.204 239.817C239.688 239.896 239.335 240.378 239.413 240.893L240.848 250.269C240.927 250.784 241.409 251.137 241.924 251.059L251.301 249.624C251.816 249.545 252.17 249.063 252.091 248.548L250.657 239.172C250.578 238.657 250.096 238.304 249.581 238.382Z" fill="#E8C395"/>
<path d="M247.54 241.558C247.218 241.419 246.854 241.41 246.526 241.534C246.124 241.705 245.706 242.1 245.402 242.392C245.023 242.196 244.506 241.944 244.072 241.901C243.722 241.881 243.377 241.997 243.111 242.227C242.477 242.742 242.319 243.637 242.555 244.375C242.792 245.113 243.36 245.715 243.985 246.214C244.609 246.714 245.616 247.213 246.215 247.735C246.636 247.048 247.447 246.281 247.893 245.616C248.339 244.95 248.701 244.207 248.707 243.433C248.712 242.659 248.3 241.863 247.54 241.558Z" fill="#F9D8AD"/>
<path d="M324.201 71.2133L314.89 69.4067C314.379 69.3075 313.883 69.6418 313.784 70.1534L311.977 79.4646C311.878 79.9762 312.212 80.4715 312.724 80.5707L322.035 82.3773C322.547 82.4765 323.042 82.1422 323.141 81.6306L324.948 72.3194C325.047 71.8078 324.713 71.3125 324.201 71.2133Z" fill="#E8C395"/>
<path d="M321.202 73.5299C320.945 73.2903 320.605 73.1598 320.255 73.1661C319.82 73.1901 319.292 73.4218 318.906 73.6019C318.616 73.2914 318.22 72.8796 317.818 72.6926C317.495 72.5564 317.131 72.5509 316.804 72.6771C316.032 72.9516 315.582 73.7375 315.557 74.5113C315.531 75.2851 315.864 76.0435 316.282 76.7246C316.701 77.4058 317.484 78.2139 317.876 78.9088C318.501 78.4113 319.525 77.9549 320.17 77.4796C320.816 77.0043 321.406 76.4244 321.672 75.6986C321.938 74.9728 321.816 74.0738 321.202 73.5299Z" fill="white"/>
<path d="M125.861 197.394L113.995 199.501C113.343 199.617 112.908 200.24 113.024 200.892L115.131 212.758C115.247 213.41 115.87 213.845 116.522 213.729L128.388 211.622C129.04 211.506 129.475 210.883 129.359 210.231L127.252 198.365C127.136 197.713 126.513 197.278 125.861 197.394Z" fill="#F9D8AD"/>
<path d="M123.362 201.494C122.949 201.328 122.487 201.328 122.073 201.494C121.569 201.724 121.044 202.239 120.673 202.629C120.186 202.392 119.522 202.088 118.968 202.047C118.525 202.034 118.095 202.193 117.767 202.49C116.976 203.176 116.803 204.307 117.125 205.235C117.448 206.163 118.187 206.911 118.997 207.529C119.807 208.147 121.099 208.747 121.883 209.392C122.398 208.515 123.403 207.505 123.942 206.647C124.481 205.789 124.925 204.833 124.91 203.849C124.894 202.864 124.338 201.858 123.362 201.494Z" fill="white"/>
<path d="M243.263 207.452L222.26 201.805C221.705 201.656 221.233 201.293 220.946 200.795C220.659 200.298 220.582 199.707 220.731 199.152L226.378 178.15C226.451 177.875 226.578 177.618 226.751 177.392C226.924 177.167 227.14 176.978 227.386 176.836C227.633 176.694 227.904 176.602 228.186 176.565C228.468 176.528 228.754 176.547 229.028 176.621L250.031 182.267C250.586 182.417 251.058 182.78 251.345 183.277C251.632 183.775 251.709 184.365 251.56 184.92L245.915 205.923C245.766 206.477 245.403 206.95 244.905 207.236C244.408 207.523 243.817 207.601 243.263 207.452V207.452Z" fill="#E8C395"/>
<path d="M242.802 187.053C242.255 186.495 241.493 186.078 240.697 186.068C239.697 186.054 238.455 186.498 237.542 186.847C236.926 186.088 236.073 185.08 235.202 184.591C234.515 184.199 233.64 184.179 232.885 184.388C231.073 184.889 229.917 186.619 229.735 188.381C229.553 190.143 230.186 191.936 231.036 193.564C231.885 195.192 233.537 197.167 234.323 198.818C235.833 197.788 238.252 196.903 239.803 195.92C241.354 194.937 242.799 193.71 243.535 192.088C244.271 190.467 244.118 188.391 242.802 187.053Z" fill="white"/>
<path d="M272.63 103.668L239.629 111.914C239.197 112.021 238.749 112.043 238.31 111.978C237.87 111.913 237.447 111.761 237.066 111.533C236.685 111.304 236.353 111.003 236.088 110.645C235.824 110.288 235.632 109.883 235.524 109.451L227.278 76.4484C227.17 76.0174 227.149 75.5693 227.214 75.1298C227.279 74.6903 227.431 74.268 227.659 73.887C227.888 73.506 228.189 73.1738 228.547 72.9094C228.904 72.645 229.309 72.4535 229.74 72.346L262.752 64.0982C263.623 63.8837 264.543 64.0236 265.311 64.4872C266.078 64.9508 266.63 65.7002 266.846 66.5707L275.094 99.572C275.309 100.442 275.17 101.361 274.708 102.129C274.246 102.897 273.499 103.45 272.63 103.668V103.668Z" fill="#E8C395"/>
<path d="M256.496 76.1361C255.322 75.793 253.965 75.793 252.869 76.3883C251.496 77.1313 250.124 78.6823 249.147 79.8508C247.73 79.2829 245.798 78.5536 244.235 78.5451C242.989 78.5451 241.787 79.1696 240.915 80.0292C238.82 82.0882 238.551 85.331 239.642 87.8841C240.733 90.4371 242.96 92.3983 245.359 93.9785C247.757 95.5587 251.517 96.9966 253.847 98.6557C255.122 96.0906 257.762 93.0537 259.135 90.5315C260.507 88.0093 261.551 85.2297 261.314 82.4673C261.077 79.7049 259.32 76.9717 256.496 76.1361Z" fill="white"/>
<path d="M179.792 93.3488C178.79 89.9532 178.902 86.3259 180.11 82.9982C181.319 79.6705 183.562 76.8172 186.509 74.8562C189.457 72.8952 192.955 71.9295 196.491 72.1005C200.028 72.2716 203.416 73.5704 206.161 75.8067C208.906 78.043 210.862 81.0994 211.744 84.5282C212.626 87.957 212.387 91.5781 211.062 94.8612C209.737 98.1443 207.396 100.917 204.381 102.773C201.366 104.629 197.836 105.471 194.308 105.176L190.286 111.375L190.929 104.532C188.289 103.743 185.887 102.306 183.942 100.353C181.997 98.4004 180.571 95.9927 179.792 93.3488V93.3488Z" fill="#FFE9D2"/>
<path d="M332.171 99.5839H292.212C289.91 99.5839 288.044 101.45 288.044 103.752V112.663C288.044 114.965 289.91 116.831 292.212 116.831H332.171C334.472 116.831 336.338 114.965 336.338 112.663V103.752C336.338 101.45 334.472 99.5839 332.171 99.5839Z" fill="#FFE9D2"/>
<path d="M312.191 110.651C313.54 110.651 314.634 109.557 314.634 108.207C314.634 106.858 313.54 105.764 312.191 105.764C310.841 105.764 309.747 106.858 309.747 108.207C309.747 109.557 310.841 110.651 312.191 110.651Z" fill="#E8C395"/>
<path d="M301.216 110.651C302.566 110.651 303.66 109.557 303.66 108.207C303.66 106.858 302.566 105.764 301.216 105.764C299.867 105.764 298.773 106.858 298.773 108.207C298.773 109.557 299.867 110.651 301.216 110.651Z" fill="#E8C395"/>
<path d="M323.164 110.651C324.514 110.651 325.608 109.557 325.608 108.207C325.608 106.858 324.514 105.764 323.164 105.764C321.815 105.764 320.721 106.858 320.721 108.207C320.721 109.557 321.815 110.651 323.164 110.651Z" fill="#E8C395"/>
<path d="M145.108 306.375C147.59 287.967 151.212 269.731 155.953 251.772C156.25 250.648 156.566 249.497 157.261 248.563C158.527 246.863 160.752 246.25 162.811 245.744C162.689 246.238 162.593 246.649 162.468 247.143C161.095 246.86 159.711 247.515 158.693 248.493C157.676 249.471 157.056 250.78 156.602 252.112C156.073 253.656 155.752 255.27 155.432 256.875C154.327 262.403 153.221 267.932 152.115 273.461C149.921 284.442 147.719 295.459 146.817 306.624C146.359 306.562 145.578 306.437 145.108 306.375Z" fill="#357092"/>
<path d="M142.903 308.437C142.7 308.487 142.49 308.494 142.284 308.456C142.079 308.419 141.884 308.338 141.712 308.219C142.419 283.215 142.723 258.204 142.625 233.187C142.826 232.95 143.081 232.603 143.353 232.752C143.541 258.11 143.577 283.088 142.903 308.437Z" fill="#357092"/>
<path d="M138.907 309.274L132.559 261.492C132.387 260.232 132.2 258.918 131.449 257.889C130.697 256.859 129.185 256.279 128.117 256.962C127.869 256.933 127.308 257.017 127.109 257.166C127.027 256.686 126.938 256.207 126.861 255.728C128.619 254.608 131.097 255.581 132.324 257.273C133.55 258.964 133.849 261.126 134.11 263.194C136.069 278.685 138.027 294.177 139.985 309.669C139.528 309.827 139.285 309.573 138.907 309.274Z" fill="#357092"/>
<path d="M153.268 247.7C154.656 248.472 155.55 249.946 155.953 251.475C156.356 253.004 156.327 254.627 156.257 256.214C156.197 257.556 156.068 259.006 155.176 260.011C154.678 257.98 153.091 256.408 151.525 255.035C150.694 254.301 149.824 253.57 148.78 253.184C147.735 252.798 146.484 252.815 145.614 253.501C146.142 254.388 147.436 254.231 148.445 254.448C150.025 254.792 151.098 256.216 152.024 257.537C152.951 258.858 153.911 260.282 153.989 261.883C154.007 262.645 153.887 263.405 153.637 264.125C153.131 265.716 152.3 267.184 151.195 268.435C150.832 265.124 148.898 262.66 146.151 260.778L149.022 268.18C149.432 269.24 149.85 270.35 149.739 271.481C149.553 273.368 147.995 274.77 146.544 275.98C146.391 273.063 145.46 270.194 144.142 267.595C142.502 269.597 142.613 272.818 144.387 274.701C144.902 275.256 145.611 275.903 145.362 276.628C145.235 276.995 144.885 277.234 144.555 277.443C143.983 277.81 143.411 278.177 142.84 278.541C142.607 278.717 142.338 278.839 142.052 278.897C141.685 278.943 141.328 278.785 140.993 278.629C139.278 277.828 137.562 277.018 135.846 276.198C135.607 276.104 135.393 275.955 135.223 275.762C134.933 275.369 135.074 274.792 135.367 274.4C135.661 274.007 136.079 273.729 136.411 273.37C137.582 272.09 137.277 269.767 135.813 268.837C135.748 268.783 135.671 268.745 135.589 268.726C135.506 268.707 135.421 268.706 135.338 268.725C135.234 268.778 135.146 268.859 135.088 268.96C134.248 270.137 133.553 271.41 133.017 272.752C132.164 272.417 131.391 271.908 130.747 271.258C130.493 271.038 130.313 270.745 130.232 270.419C130.206 270.137 130.252 269.854 130.366 269.595C131.586 266.214 134.908 263.962 136.297 260.648C134.612 260.951 132.879 261.459 131.649 262.648C129.916 264.323 129.561 266.927 129.305 269.323C127.802 267.632 126.741 265.595 126.217 263.395C126.128 263.014 126.054 262.607 126.181 262.236C126.322 261.825 126.68 261.531 127.024 261.262L136.205 254.035C136.033 253.64 135.69 253.215 135.282 253.349L130.438 254.973C129.81 255.185 129.172 255.401 128.624 255.773C127.377 256.621 126.79 258.12 126.034 259.426C125.986 259.529 125.908 259.614 125.81 259.671C125.527 259.798 125.296 259.429 125.194 259.133C124.778 257.818 124.357 256.446 124.56 255.082C124.707 254.09 125.176 253.179 125.649 252.295C126.919 249.917 128.271 247.586 129.705 245.303C130.059 244.741 130.429 244.169 130.97 243.785C131.477 243.457 132.053 243.25 132.653 243.179C135.477 242.74 138.737 244.209 139.538 246.954C139.868 245.879 140.329 244.848 140.911 243.886C141.184 243.43 141.529 242.963 142.038 242.807C142.303 242.743 142.577 242.725 142.848 242.752L145.374 242.865C147.105 242.944 149.023 243.104 150.207 244.37C150.984 245.195 152.28 247.151 153.268 247.7Z" fill="#8BC3C0"/>
<path d="M148.838 229.868C148.852 231.166 148.583 232.45 148.049 233.633C147.516 234.816 146.731 235.868 145.749 236.716C144.768 237.564 143.613 238.188 142.365 238.544C141.118 238.901 139.807 238.98 138.526 238.778C139.764 237.782 140.861 236.622 141.786 235.329C140.18 235.611 139.096 237.088 137.692 237.919C137.439 238.093 137.141 238.189 136.834 238.197C136.465 238.178 136.148 237.944 135.848 237.733C133.982 236.44 131.785 235.709 129.516 235.628C131.857 234.414 133.963 232.794 135.736 230.843C134.971 230.556 134.099 230.81 133.406 231.243C132.713 231.675 132.136 232.272 131.477 232.752C130.124 233.74 128.471 234.232 126.797 234.146C125.438 234.07 124.052 232.927 123.3 231.798C122.549 230.669 122.128 229.348 121.725 228.048C122.768 228.412 123.878 228.546 124.978 228.441C126.078 228.336 127.142 227.994 128.097 227.439C126.747 226.739 125.141 227.838 123.626 227.717C122.283 227.61 121.181 226.516 120.654 225.284C120.128 224.052 120.071 222.664 120.02 221.318C119.999 220.804 119.98 220.289 119.961 219.774C122.306 219.818 124.646 219.995 126.97 220.304C127.316 220.329 127.654 220.423 127.964 220.581C128.423 220.853 128.67 221.37 128.892 221.855L130.323 224.999C130.515 225.417 130.99 225.723 131.419 225.889C131.495 225.326 131.57 224.765 131.647 224.203C131.735 223.546 131.803 222.811 131.402 222.284C131.114 221.907 130.58 221.588 130.683 221.123C132.292 221.2 133.83 221.775 135.338 222.344C135.853 222.542 136.398 222.755 136.747 223.185C136.981 223.517 137.149 223.89 137.241 224.285C137.46 225.017 137.681 225.749 137.903 226.481C138.023 226.881 138.174 227.319 138.54 227.511C139.164 226.251 139.535 224.755 139.054 223.434C141.16 223.946 143.2 224.7 145.133 225.68C145.854 226.018 146.519 226.461 147.108 226.996C147.935 227.789 148.824 228.722 148.838 229.868Z" fill="#8BC3C0"/>
<path d="M131.495 259.548C130.237 258.083 128.878 256.549 127.034 255.991C125.594 255.557 124.047 255.78 122.573 256.06C120.169 256.515 117.795 257.116 115.464 257.86C116.367 258.064 117.194 258.832 117.199 259.757C117.204 260.682 116.115 261.507 115.312 261.063C114.702 260.72 114.514 259.924 113.965 259.5C113.278 258.964 112.287 259.196 111.451 259.452C109.334 260.1 106.939 261.006 106.204 263.094C107.879 262.95 109.565 262.989 111.231 263.211C111.907 263.3 112.738 263.582 112.793 264.261C112.853 264.977 111.957 265.392 111.249 265.349C109.571 265.251 108.105 263.901 106.431 264.019C106.142 264.02 105.864 264.123 105.645 264.311C105.412 264.542 105.351 264.891 105.302 265.215C104.979 267.456 104.766 269.709 104.662 271.974C104.651 272.191 104.718 272.426 104.936 272.44C105.919 272.502 106.885 272.178 107.867 272.097C108.848 272.016 109.982 272.253 110.482 273.104C110.584 273.255 110.63 273.437 110.612 273.619C110.569 273.881 110.336 274.065 110.108 274.201C109.486 274.564 108.788 274.777 108.069 274.822C107.351 274.868 106.632 274.745 105.969 274.463C105.42 274.225 104.914 273.875 104.331 273.736C104.253 273.707 104.17 273.697 104.087 273.705C104.005 273.713 103.926 273.74 103.855 273.784C103.742 273.903 103.681 274.062 103.684 274.226C103.443 276.406 102.924 278.546 102.14 280.594C102.006 280.937 101.891 281.398 102.181 281.633C106.705 285.297 113.762 285.11 118.688 282.007C117.787 278.468 116.619 275.002 115.195 271.639C116.833 271.823 118.112 273.092 119.246 274.29C119.745 274.817 120.253 275.355 120.572 276.006C121.279 277.457 120.938 279.176 120.581 280.75C121.669 279.683 123.314 279.224 124.168 277.963C124.868 276.934 124.872 275.58 124.772 274.333C124.572 271.828 124.065 269.358 123.261 266.977C124.156 266.704 124.891 267.718 125.213 268.599C126.023 270.81 126.321 273.176 126.085 275.518C128.483 273.989 130.536 271.975 132.111 269.606C132.559 268.976 132.91 268.282 133.151 267.547C133.543 266.208 133.322 264.767 132.967 263.419C132.665 262.26 132.272 260.454 131.495 259.548Z" fill="#8BC3C0"/>
<path d="M150.883 270.179C150.447 269.875 149.955 269.582 149.425 269.621C148.997 269.654 148.618 269.901 148.278 270.162C146.169 271.777 144.78 274.157 144.413 276.789C144.046 279.42 144.73 282.09 146.317 284.221C148.182 286.726 151.07 288.213 153.539 290.123C155.703 291.798 157.57 293.825 159.064 296.118C159.217 296.351 159.385 296.603 159.649 296.689C160.021 296.811 160.404 296.554 160.687 296.284C161.816 295.21 162.473 293.745 163.103 292.321L165.652 286.546C166.287 285.108 166.936 283.603 166.853 282.033C166.8 280.908 166.377 279.835 165.936 278.797C164.285 274.904 162.26 271.05 159.115 268.221C158.831 267.964 158.515 267.706 158.136 267.645C157.254 267.502 156.603 268.429 156.233 269.24C155.823 270.139 155.287 273.087 154.234 273.015C153.374 272.953 151.671 270.723 150.883 270.179Z" fill="#8BC3C0"/>
<path d="M164.119 242.418C162.674 244.979 159.855 246.616 158.68 249.313C158.048 250.761 157.956 252.379 157.872 253.956C157.81 255.143 157.83 256.53 158.767 257.261C159.598 256.121 159.543 254.591 159.574 253.181C159.604 251.77 159.855 250.176 161.017 249.377C161.478 250.818 161.125 252.386 160.649 253.822C160.174 255.258 159.57 256.689 159.529 258.201C159.488 259.713 160.172 261.373 161.574 261.94C161.86 259.76 162.306 257.605 162.909 255.492C163.038 255.044 163.182 254.579 163.499 254.238C163.817 253.896 164.357 253.723 164.764 253.949C164.665 254.948 164.434 255.928 164.077 256.866C163.42 258.582 162.343 260.159 161.931 261.957C161.519 263.755 162.041 265.992 163.738 266.718C164.028 265.345 164.318 263.973 164.606 262.6C165.4 263.973 165.007 265.689 164.899 267.264C164.791 268.839 165.272 270.793 166.802 271.21C166.61 268.815 166.883 266.405 167.609 264.114C168.638 266.217 169.028 268.369 168.242 270.575C167.988 271.291 167.634 272.001 167.655 272.759C167.698 274.25 169.108 275.285 170.373 276.078C171.001 275.246 171.833 274.583 172.478 273.763C173.123 272.943 173.583 271.864 173.288 270.863C173.132 270.333 172.782 269.882 172.601 269.36C172.366 268.674 172.438 267.94 172.481 267.223C172.61 265.064 172.457 262.898 172.025 260.78C172.647 261.706 173.179 262.69 173.614 263.717C173.938 264.486 174.211 265.327 174.036 266.142C173.947 266.559 173.742 266.945 173.648 267.362C173.399 268.448 173.912 269.549 174.413 270.546C175.68 268.534 176.557 266.301 176.997 263.964C177.214 262.81 176.664 261.391 175.988 260.433L171.184 253.613C173.243 253.531 175.235 255.094 175.645 257.106C175.74 257.564 175.762 258.038 175.887 258.479C176.174 259.508 176.966 260.303 177.728 261.053C178.38 258.935 179.032 256.657 178.363 254.546C177.787 252.722 176.278 251.31 174.58 250.428C172.881 249.547 170.99 249.124 169.122 248.713C170.476 247.568 172.574 247.968 174.098 248.872C175.621 249.776 176.882 251.103 178.495 251.841C177.863 249.674 177.004 247.579 175.934 245.592C175.779 245.307 175.601 245.003 175.3 244.881C175.05 244.804 174.783 244.797 174.528 244.859L168.623 245.767C168.772 244.674 169.832 243.879 170.923 243.708C172.015 243.536 173.116 243.898 174.123 244.344C173.7 243.143 172.653 242.263 171.498 241.745C170.344 241.227 169.074 241.029 167.821 240.839C167.351 240.765 166.643 240.927 166.756 241.391C166.148 242.445 165.641 243.854 165.78 245.063C165.852 245.696 166.03 246.317 166.045 246.951C166.061 247.584 165.874 248.275 165.376 248.666C165.182 247.582 164.989 246.491 165.016 245.389C165.03 244.862 165.093 244.334 165.016 243.812C164.914 243.247 164.591 242.745 164.119 242.418V242.418Z" fill="#8BC3C0"/>
<path d="M166.184 302.562H124.515V311.141H166.184V302.562Z" fill="#99583F"/>
<path d="M163.784 311.141H126.917L131.699 337.221H159.002L163.784 311.141Z" fill="#99583F"/>
<path d="M126.917 311.141L163.401 313.224L163.784 311.141H126.917Z" fill="#5F130D"/>
<path d="M338.438 287.949C338.138 287.019 339.31 284.593 339.639 283.672C340.155 282.2 340.716 280.754 341.323 279.334C341.941 277.888 342.605 276.473 343.313 275.089C343.915 273.914 345.113 272.499 345.473 271.207C344.647 274.184 343.634 277.107 342.441 279.957C341.309 282.646 340.07 285.684 338.438 287.949Z" fill="#357092"/>
<path d="M334.453 281.645C334.372 282.074 332.135 281.935 331.75 281.956C327.314 282.202 322.884 282.545 318.46 282.985C320.81 282.75 323.173 281.813 325.541 281.51C327.711 281.23 329.899 281.105 332.087 281.136C332.445 281.146 334.588 280.914 334.453 281.645Z" fill="#357092"/>
<path d="M312.221 254.092C314.155 254.943 315.942 256.095 317.516 257.504C318.305 258.204 319.29 259.009 319.889 259.968C319.935 260.042 319.977 260.118 320.016 260.196C320.041 260.183 320.069 260.179 320.097 260.183C320.124 260.188 320.15 260.202 320.169 260.222C320.575 260.565 320.975 260.921 321.37 261.289L321.213 260.857L321.385 261.174L321.43 261.346L321.517 261.425L321.385 261.18L319.012 252.235C320.654 255.162 321.633 258.414 321.877 261.761C322.678 262.508 323.455 263.284 324.209 264.089C323.866 262.513 323.797 260.756 323.595 259.139C323.398 257.558 323.399 255.557 322.945 254.064C323.452 255.738 323.82 257.452 324.043 259.188C324.232 260.663 324.558 262.665 324.262 264.144C325.044 264.978 325.804 265.841 326.544 266.734C326.544 266.454 326.604 266.167 326.632 265.898C326.633 265.886 326.633 265.875 326.632 265.864C325.995 265.04 326.879 256.556 326.737 255.644C326.896 256.674 327.778 265.236 326.857 265.889C326.857 265.953 326.848 266.018 326.845 266.082C326.843 266.389 326.815 266.695 326.761 266.998C327.288 267.639 327.803 268.295 328.305 268.966C328.319 268.89 328.331 268.815 328.341 268.739C328.368 268.527 328.394 268.315 328.425 268.104C328.459 264.647 329.123 260.946 329.434 257.527C329.571 259.566 329.529 261.613 329.309 263.645C329.187 264.88 329.202 267.439 328.591 268.604L328.576 268.775C328.562 268.947 328.557 269.118 328.543 269.29C329.202 270.173 329.84 271.078 330.456 272.006C330.484 271.901 330.513 271.8 330.535 271.701C330.551 271.637 330.566 271.574 330.58 271.512C330.408 269.647 331.043 267.152 331.371 265.375C331.577 264.256 331.816 263.149 332.088 262.053C332.284 261.26 332.946 259.882 332.912 259.088C332.997 261.405 332.809 263.723 332.351 265.996C332.16 267.006 331.635 271.105 330.77 271.728L330.76 271.778C330.727 271.949 330.705 272.142 330.671 272.325C331.338 273.338 331.981 274.373 332.599 275.431C332.629 275.323 332.659 275.216 332.687 275.113C332.728 274.956 332.769 274.798 332.812 274.642C332.812 272.336 333.432 269.753 333.842 267.519C334.076 266.253 334.337 264.995 334.624 263.745C334.852 262.753 335.482 261.324 335.482 260.313C335.494 262.976 335.264 265.635 334.796 268.257C334.567 269.561 334.276 270.846 333.922 272.111C333.727 272.819 333.517 274.187 332.98 274.698C332.949 274.87 332.915 275.024 332.879 275.187C332.843 275.35 332.81 275.549 332.766 275.731C333.233 276.532 333.684 277.349 334.121 278.183L334.18 278.294C334.214 278.188 334.248 278.082 334.279 277.979C334.303 277.902 334.325 277.824 334.349 277.749C335.065 272.366 336.631 267.001 338.512 262.094C338.085 263.208 338.09 264.953 337.855 266.171C337.587 267.55 337.276 268.915 336.921 270.266C336.305 272.613 335.597 275.028 334.669 277.234C334.602 277.539 334.524 277.841 334.447 278.142C334.408 278.289 334.373 278.442 334.336 278.596C334.728 279.355 335.108 280.122 335.477 280.899C335.508 280.804 335.537 280.711 335.564 280.621C335.59 280.53 335.617 280.439 335.647 280.35C335.689 279.224 336.204 277.864 336.492 276.785C336.845 275.467 337.222 274.16 337.623 272.864C338.025 271.568 338.453 270.285 338.908 269.016C339.31 267.888 340.109 266.536 340.305 265.342C339.835 268.169 339.193 270.964 338.382 273.712C337.983 275.06 337.547 276.389 337.071 277.697C336.794 278.456 336.498 279.816 335.87 280.319C335.834 280.477 335.796 280.635 335.755 280.793C335.714 280.95 335.683 281.103 335.645 281.259C336.096 282.221 336.527 283.197 336.94 284.186C336.933 284.161 336.926 284.135 336.921 284.109C336.75 283.347 337.546 281.402 337.752 280.647C338.367 278.373 339.118 276.139 340.001 273.955C340.439 272.874 340.908 271.815 341.406 270.776C341.806 269.942 342.716 268.804 342.901 267.885C342.357 270.566 341.654 273.212 340.794 275.808C340.047 278.064 339.177 280.278 338.189 282.44C338.018 282.812 337.421 284.48 337.086 284.392C337.086 284.425 337.076 284.458 337.069 284.488C337.886 286.474 338.629 288.504 339.299 290.578C340.54 287.709 341.82 284.883 343.256 282.155C343.998 280.745 344.771 279.359 345.572 277.998C346.283 276.797 347.46 275.493 347.961 274.153C345.818 279.84 343.059 285.444 339.672 290.152C339.641 290.243 339.617 290.339 339.581 290.428C339.529 290.549 339.471 290.665 339.409 290.782L339.378 290.849C339.77 292.088 340.133 293.34 340.468 294.606C340.53 294.486 340.595 294.368 340.658 294.248C340.722 294.128 340.76 294.047 340.813 293.946C340.504 293.445 341.904 291.652 342.175 291.219C343.477 289.151 344.842 287.15 346.271 285.214C346.984 284.246 347.713 283.296 348.457 282.364C349.064 281.601 350.21 280.686 350.615 279.756C349.571 282.158 348.346 284.477 346.95 286.693C345.747 288.603 344.409 290.424 342.946 292.142C342.652 292.486 341.518 294.135 340.978 294.057C340.924 294.162 340.869 294.265 340.816 294.368C340.727 294.539 340.645 294.73 340.543 294.903C340.772 295.771 340.985 296.644 341.182 297.521C341.274 297.425 341.372 297.333 341.465 297.238C341.557 297.144 341.659 297.031 341.76 296.928C341.74 296.913 341.723 296.896 341.708 296.876C341.443 296.487 343.294 295.279 343.596 295.027C345.25 293.653 346.827 292.19 348.321 290.643C349.742 289.171 351.475 287.575 352.592 285.729C351.361 287.77 349.943 289.692 348.355 291.47C347.006 292.981 345.526 294.369 343.932 295.619C343.646 295.843 342.559 296.871 341.995 296.967C341.858 297.139 341.695 297.286 341.552 297.437C341.448 297.547 341.345 297.666 341.237 297.781C341.501 298.966 341.74 300.159 341.954 301.36C342.772 305.965 343.278 310.736 342.983 315.456C342.964 315.781 342.602 315.776 342.58 315.456C342.287 311.328 341.988 307.2 341.343 303.127C341.065 301.373 340.732 299.635 340.344 297.913C340.173 297.817 339.989 297.695 339.83 297.59L339.734 297.53C336.927 297.611 334.02 297.044 331.208 296.885C329.741 296.8 328.275 296.734 326.809 296.686C325.558 296.645 323.892 296.255 322.667 296.592C325.644 295.77 328.733 295.422 331.819 295.562C332.848 295.608 339.178 296.037 339.788 297.295L339.867 297.336C339.996 297.403 340.132 297.468 340.265 297.539C340.053 296.613 339.824 295.694 339.579 294.781C339.462 294.706 339.346 294.632 339.236 294.565C339.198 295.433 337.217 294.527 336.856 294.431C334.523 293.802 332.182 293.221 329.834 292.686C327.677 292.196 325.213 291.249 323.02 291.271C325.47 291.247 327.926 291.237 330.367 291.497C332.472 291.722 334.576 292.142 336.589 292.952C337 293.124 338.648 293.615 339.109 294.179C339.235 294.225 339.357 294.282 339.473 294.351C339.191 293.321 338.891 292.297 338.572 291.278C338.478 290.974 338.378 290.674 338.28 290.374C337.975 290.319 337.671 290.202 337.376 290.126L337.102 290.053C331.378 289.6 325.419 290.193 319.712 290.202C325.683 287.189 331.673 288.658 337.728 289.993C337.879 290.017 338.033 290.041 338.184 290.073C337.917 289.273 337.636 288.472 337.344 287.671C337.125 287.582 336.899 287.515 336.667 287.47C336.633 287.47 336.597 287.47 336.561 287.47C336.557 287.516 336.548 287.562 336.534 287.606C336.362 288.093 333.915 287.762 333.474 287.759C328.783 287.719 324.089 287.656 319.405 287.644C324.235 286.522 329.218 286.208 334.15 286.715C334.476 286.75 336.093 286.691 336.484 287.191C336.734 287.189 336.983 287.232 337.218 287.318C336.866 286.38 336.498 285.45 336.115 284.528C336.009 284.509 335.904 284.485 335.803 284.47C335.662 284.447 335.521 284.428 335.381 284.403C332.931 284.917 330.062 284.639 327.615 284.784L318.847 285.298C324.262 283.214 330.405 282.608 335.967 284.174C335.306 282.614 334.601 281.085 333.85 279.588C333.281 279.438 332.702 279.329 332.117 279.262C332.019 279.262 331.922 279.252 331.822 279.252C331.637 280.727 327.667 280.307 326.864 280.364C324.671 280.518 322.442 280.837 320.247 280.832C321.55 280.185 331.014 276.695 331.779 278.84C332.446 278.878 333.1 279.037 333.709 279.31C333.095 278.1 332.454 276.913 331.786 275.748C331.419 275.708 331.05 275.689 330.681 275.692C330.611 275.692 330.54 275.692 330.468 275.702C330.746 276.598 328.895 276.69 328.488 276.788C327.315 277.069 326.139 277.337 324.961 277.591C322.519 278.116 320.07 278.579 317.614 278.979C318.602 278.818 319.783 277.91 320.75 277.522C321.806 277.098 322.884 276.731 323.979 276.424C324.88 276.172 329.746 274.537 330.364 275.481H330.583C330.952 275.482 331.32 275.512 331.683 275.571C331.135 274.624 330.571 273.694 329.99 272.782C329.518 272.662 329.025 272.648 328.547 272.74C328.219 274.684 317.665 276.287 316.794 276.922C318.657 275.558 320.686 274.436 322.831 273.583C323.648 273.26 328.061 271.352 328.509 272.421C328.509 272.438 328.521 272.454 328.526 272.469C328.972 272.403 329.428 272.44 329.858 272.576C329.328 271.749 328.783 270.937 328.224 270.139C328.089 269.945 327.95 269.752 327.812 269.559C327.624 269.541 327.437 269.517 327.25 269.503C323.852 272.281 319.014 273.634 315.078 274.47C317.044 273.005 319.024 271.534 321.16 270.508C322.892 269.679 325.151 268.849 327.056 269.227C327.243 269.227 327.43 269.247 327.613 269.287C326.896 268.301 326.153 267.343 325.383 266.413C325.27 266.486 325.146 266.562 325.017 266.629C324.815 267.986 315.953 271.539 315.409 272.173C316.703 270.638 318.241 269.327 319.961 268.293C320.647 267.885 324.264 265.701 324.937 266.392V266.402C325.06 266.37 325.182 266.342 325.295 266.322C324.876 265.814 324.449 265.315 324.017 264.824C323.629 264.97 323.23 265.069 322.835 265.182L322.747 265.208C322.83 265.689 321.256 266.267 320.757 266.488C319.339 267.12 317.927 267.776 316.523 268.458C315.618 268.897 313.148 269.529 312.566 270.462C313.858 268.391 315.75 266.996 317.737 266.118C318.801 265.649 320.968 264.501 322.094 264.8C322.271 264.839 322.44 264.908 322.595 265.004C322.693 264.981 322.789 264.957 322.883 264.932C323.216 264.843 323.547 264.743 323.883 264.675C323.362 264.085 322.831 263.509 322.291 262.945C321.995 263.006 321.696 263.049 321.395 263.074L321.201 263.103C320.702 263.537 320 263.655 319.417 263.765C315.92 264.416 312.405 265.067 308.868 264.995C310.802 263.78 312.95 262.944 315.196 262.532C316.632 262.272 320.344 261.502 321.469 262.798C321.673 262.768 321.881 262.739 322.085 262.727C321.399 262.015 320.703 261.32 319.997 260.644C319.642 260.761 318.403 260.023 318.012 259.843C315.83 258.834 313.685 257.721 311.574 256.504C310.545 255.91 309.524 255.292 308.512 254.649C307.982 254.313 307.455 253.97 306.93 253.62C306.621 253.414 305.854 252.652 305.507 252.65C307.82 252.67 310.104 253.16 312.221 254.092V254.092Z" fill="#357092"/>
<path d="M351.902 281.539C352.152 280.166 350.033 276.941 349.4 275.693C348.391 273.702 347.323 271.757 346.194 269.86C345.05 267.924 343.842 266.041 342.57 264.211C341.494 262.657 339.524 260.874 338.773 259.109C340.506 263.181 342.495 267.139 344.727 270.961C346.825 274.552 349.16 278.641 351.902 281.539Z" fill="#8BC3C0"/>
<path d="M356.372 271.841C356.566 272.433 359.716 271.814 360.265 271.773C366.605 271.285 372.958 270.942 379.324 270.743C375.944 270.851 372.411 269.969 368.993 269.983C365.861 269.996 362.734 270.232 359.635 270.688C359.127 270.748 356.039 270.829 356.372 271.841Z" fill="#8BC3C0"/>
<path d="M382.728 228.54C380.148 230.112 377.831 232.08 375.865 234.374C374.878 235.516 373.634 236.845 372.962 238.32C372.909 238.432 372.863 238.547 372.823 238.663C372.785 238.65 372.745 238.648 372.707 238.66C372.668 238.671 372.635 238.695 372.612 238.727C372.1 239.299 371.596 239.88 371.1 240.47L371.242 239.827L371.071 240.309L371.04 240.554L370.93 240.683L371.071 240.309L372.754 227.168C371.006 231.433 370.218 236.333 370.481 241.228C369.495 242.436 368.538 243.684 367.612 244.97C367.783 242.67 367.567 240.166 367.55 237.831C367.533 235.549 367.152 232.708 367.516 230.505C367.109 232.976 366.911 235.477 366.924 237.982C366.924 240.113 366.857 243.016 367.547 245.061C366.594 246.389 365.679 247.757 364.801 249.164C364.736 248.769 364.609 248.373 364.518 247.995L364.508 247.947C365.256 246.659 362.403 234.784 362.434 233.463C362.399 234.949 362.763 247.273 364.194 248.026C364.213 248.117 364.23 248.198 364.247 248.297C364.307 248.733 364.405 249.163 364.541 249.582C363.913 250.592 363.303 251.622 362.713 252.671C362.68 252.566 362.649 252.461 362.621 252.357C362.542 252.062 362.464 251.765 362.38 251.472C361.68 246.571 360.042 241.445 358.949 236.649C359.139 239.569 359.585 242.468 360.282 245.31C360.687 247.04 361.14 250.672 362.235 252.213C362.252 252.293 362.271 252.384 362.288 252.458C362.339 252.691 362.379 252.933 362.43 253.17C361.663 254.543 360.931 255.955 360.227 257.384C360.169 257.243 360.109 257.103 360.056 256.965C360.023 256.88 359.99 256.794 359.956 256.706C359.839 254.03 358.479 250.607 357.677 248.145C357.174 246.597 356.626 245.071 356.034 243.565C355.607 242.477 354.4 240.648 354.306 239.514C354.58 242.833 355.371 246.086 356.404 249.212C356.864 250.61 358.384 256.331 359.728 257.05C359.736 257.072 359.743 257.096 359.75 257.118C359.831 257.36 359.898 257.633 359.982 257.878C359.226 259.442 358.508 261.032 357.83 262.648C357.767 262.502 357.703 262.356 357.647 262.216C357.559 262 357.475 261.783 357.379 261.571C356.948 258.297 355.579 254.749 354.568 251.657C353.997 249.903 353.389 248.165 352.745 246.443C352.23 245.07 351.067 243.169 350.883 241.731C351.367 245.516 352.193 249.248 353.352 252.884C353.928 254.689 354.586 256.461 355.318 258.187C355.728 259.158 356.284 261.058 357.142 261.682C357.218 261.909 357.298 262.133 357.379 262.356C357.46 262.579 357.55 262.859 357.641 263.108C357.131 264.34 356.645 265.585 356.181 266.843L356.12 267.015C356.051 266.869 355.981 266.725 355.917 266.584C355.871 266.479 355.823 266.377 355.775 266.272C353.745 258.767 350.509 251.449 346.916 244.838C347.733 246.34 348.054 248.817 348.618 250.5C349.259 252.408 349.958 254.288 350.715 256.138C352.031 259.352 353.491 262.645 355.224 265.601C355.378 266.021 355.543 266.437 355.711 266.848C355.794 267.049 355.872 267.26 355.955 267.471C355.542 268.622 355.147 269.783 354.769 270.956C354.709 270.829 354.649 270.702 354.598 270.577C354.546 270.451 354.486 270.33 354.426 270.206C354.153 268.619 353.165 266.783 352.552 265.306C351.804 263.502 351.023 261.719 350.207 259.956C349.391 258.193 348.542 256.454 347.659 254.737C346.875 253.211 345.492 251.444 344.984 249.787C346.184 253.71 347.622 257.555 349.291 261.303C350.109 263.141 350.98 264.944 351.904 266.713C352.437 267.742 353.115 269.612 354.1 270.206C354.182 270.424 354.272 270.642 354.352 270.858C354.433 271.074 354.512 271.284 354.596 271.5C354.138 272.949 353.709 274.415 353.309 275.897C353.309 275.863 353.319 275.827 353.323 275.784C353.419 274.671 351.924 272.059 351.492 271.026C350.188 267.918 348.698 264.89 347.031 261.96C346.205 260.511 345.34 259.095 344.437 257.714C343.713 256.605 342.206 255.162 341.769 253.893C343.047 257.595 344.545 261.218 346.256 264.741C347.741 267.803 349.392 270.781 351.202 273.663C351.514 274.159 352.678 276.409 353.138 276.225C353.148 276.271 353.161 276.315 353.179 276.359C352.393 279.329 351.722 282.364 351.171 285.42C348.869 281.583 346.52 277.812 343.965 274.211C342.645 272.349 341.288 270.528 339.895 268.749C338.66 267.171 336.75 265.548 335.777 263.741C339.895 271.411 344.871 278.84 350.559 284.888C350.62 285.01 350.67 285.142 350.73 285.26C350.826 285.432 350.929 285.578 351.034 285.732L351.091 285.82C350.768 287.65 350.489 289.497 350.253 291.36C350.142 291.2 350.027 291.044 349.91 290.886C349.817 290.756 349.727 290.62 349.634 290.485C349.977 289.716 347.652 287.436 347.184 286.882C344.948 284.193 342.633 281.608 340.24 279.128C339.045 277.889 337.832 276.678 336.601 275.494C335.594 274.526 333.796 273.435 333.046 272.198C334.979 275.411 337.155 278.472 339.554 281.354C341.62 283.837 343.863 286.169 346.264 288.332C346.746 288.766 348.666 290.89 349.419 290.679C349.515 290.818 349.613 290.953 349.706 291.091C349.867 291.326 350.023 291.571 350.195 291.799C350.037 293.072 349.9 294.351 349.783 295.634C349.632 295.516 349.478 295.404 349.328 295.291C349.179 295.178 349.014 295.03 348.85 294.905C348.875 294.88 348.897 294.852 348.913 294.821C349.217 294.218 346.362 292.853 345.885 292.554C343.277 290.917 340.762 289.137 338.351 287.222C336.057 285.403 333.296 283.464 331.364 281.045C333.494 283.71 335.869 286.17 338.457 288.393C340.657 290.284 343.019 291.975 345.518 293.448C345.967 293.712 347.697 294.968 348.522 294.992C348.749 295.21 349.008 295.389 349.239 295.576C349.411 295.713 349.582 295.859 349.754 295.993C349.602 297.726 349.487 299.464 349.411 301.209C349.121 307.9 349.299 314.763 350.612 321.41C350.703 321.865 351.214 321.791 351.185 321.333C350.823 315.417 350.468 309.494 350.615 303.599C350.679 301.058 350.825 298.529 351.051 296.01C351.288 295.838 351.513 295.636 351.737 295.456L351.863 295.351C355.862 294.936 359.882 293.584 363.844 292.827C365.903 292.432 367.971 292.062 370.048 291.715C371.815 291.42 374.118 290.554 375.909 290.801C371.528 290.193 367.078 290.28 362.724 291.058C361.277 291.317 352.369 293.117 351.743 295.021L351.638 295.094C351.466 295.214 351.295 295.33 351.111 295.457C351.24 294.103 351.39 292.755 351.561 291.413C351.713 291.284 351.864 291.159 352.017 291.041C352.237 292.264 354.879 290.607 355.371 290.401C358.564 289.069 361.777 287.803 365.011 286.6C367.977 285.499 371.296 283.684 374.411 283.308C370.93 283.735 367.444 284.183 364.026 285.013C361.082 285.731 358.177 286.729 355.473 288.253C354.918 288.565 352.676 289.579 352.125 290.468C351.955 290.561 351.794 290.67 351.643 290.792C351.848 289.274 352.081 287.764 352.343 286.261C352.42 285.815 352.504 285.368 352.587 284.924C353.009 284.787 353.421 284.569 353.824 284.409L354.2 284.251C362.238 282.536 370.807 282.249 378.907 281.185C369.866 278.035 361.643 281.256 353.302 284.284C353.091 284.348 352.878 284.411 352.669 284.487C352.898 283.294 353.144 282.108 353.409 280.93C353.702 280.762 354.011 280.625 354.332 280.52C354.381 280.506 354.432 280.495 354.483 280.487C354.496 280.552 354.518 280.615 354.548 280.674C354.876 281.336 358.29 280.403 358.916 280.314C365.568 279.375 372.217 278.399 378.874 277.496C375.129 277.137 371.359 277.106 367.608 277.404C364.293 277.666 361.004 278.187 357.77 278.962C357.314 279.07 355.009 279.291 354.548 280.075C354.192 280.12 353.848 280.228 353.53 280.394C353.851 278.994 354.197 277.605 354.57 276.227C354.716 276.179 354.862 276.126 355.003 276.084C355.198 276.028 355.394 275.975 355.588 275.913C359.163 276.174 363.173 275.247 366.682 274.99L379.222 274.067C371.143 272.131 362.312 272.43 354.713 275.702C355.354 273.364 356.068 271.061 356.854 268.792C357.647 268.504 358.424 268.175 359.256 268.003C359.395 267.974 359.532 267.952 359.673 267.934C360.215 269.993 365.769 268.646 366.92 268.576C370.062 268.382 373.284 268.405 376.4 267.991C374.429 267.32 360.339 264.153 359.657 267.341C358.718 267.519 357.82 267.867 357.007 268.37C357.648 266.54 358.335 264.735 359.066 262.954C359.578 262.827 360.098 262.73 360.622 262.662C360.723 262.65 360.824 262.643 360.927 262.638C360.701 263.962 363.346 263.743 363.942 263.805C365.658 263.984 367.377 264.143 369.101 264.282C372.663 264.566 376.226 264.76 379.789 264.863C378.354 264.822 376.508 263.757 375.063 263.388C373.485 262.985 371.886 262.668 370.273 262.439C368.947 262.25 361.734 260.847 361.032 262.303L360.723 262.346C360.2 262.42 359.684 262.534 359.179 262.689C359.776 261.242 360.402 259.816 361.056 258.41C361.702 258.151 362.399 258.038 363.094 258.079C363.928 260.778 379.207 261.061 380.566 261.799C377.664 260.214 374.573 259.003 371.366 258.196C370.146 257.892 363.523 256.023 363.089 257.617C363.083 257.641 363.078 257.664 363.075 257.688C362.429 257.678 361.79 257.816 361.205 258.091C361.802 256.818 362.422 255.56 363.063 254.316C363.219 254.014 363.379 253.714 363.539 253.414C363.801 253.352 364.064 253.283 364.328 253.228C369.672 256.53 376.798 257.537 382.537 257.981C379.471 256.274 376.386 254.558 373.159 253.508C370.544 252.65 367.181 251.904 364.551 252.8C364.284 252.835 364.022 252.898 363.768 252.988C364.602 251.454 365.475 249.955 366.387 248.491C366.558 248.574 366.749 248.663 366.944 248.73C367.488 250.617 380.736 253.989 381.618 254.785C379.492 252.852 377.062 251.282 374.425 250.14C373.372 249.689 367.83 247.271 367.01 248.378C367.006 248.383 367.002 248.389 366.999 248.395C366.817 248.371 366.641 248.357 366.485 248.349C366.983 247.548 367.494 246.759 368.017 245.981C368.593 246.117 369.182 246.182 369.762 246.268L369.89 246.288C369.865 246.974 372.207 247.51 372.956 247.729C375.089 248.357 377.216 249.023 379.339 249.727C380.712 250.178 384.329 250.608 385.331 251.823C383.1 249.128 380.159 247.505 377.172 246.633C375.575 246.168 372.284 244.948 370.74 245.585C370.496 245.675 370.27 245.805 370.069 245.969C369.926 245.955 369.784 245.94 369.645 245.921C369.158 245.856 368.667 245.779 368.178 245.749C368.808 244.815 369.453 243.896 370.112 242.994C370.543 243.025 370.975 243.03 371.407 243.009H371.687C372.478 243.524 373.488 243.57 374.346 243.615C379.432 243.877 384.545 244.14 389.548 243.373C386.577 242.014 383.375 241.231 380.111 241.067C378.025 240.969 372.608 240.566 371.258 242.628C370.963 242.628 370.664 242.628 370.371 242.646C371.208 241.502 372.066 240.385 372.944 239.295C373.469 239.394 375.089 238.112 375.611 237.783C378.514 235.94 381.349 233.956 384.118 231.829C385.469 230.793 386.801 229.723 388.115 228.619C388.802 228.047 389.485 227.461 390.164 226.86C390.566 226.517 391.511 225.285 392 225.217C388.716 225.683 385.561 226.814 382.728 228.54V228.54Z" fill="#8BC3C0"/>
<path d="M366.299 302.562H324.63V311.141H366.299V302.562Z" fill="#99583F"/>
<path d="M363.899 311.141H327.032L331.814 337.221H359.117L363.899 311.141Z" fill="#99583F"/>
<path d="M327.032 311.141L363.516 313.224L363.899 311.141H327.032Z" fill="#5F130D"/>
<path d="M233.431 277.004H163.266C161.186 277.004 159.191 275.081 158.805 272.715L133.773 118.238C133.389 115.867 134.763 113.948 136.841 113.948H207.006C209.086 113.948 211.081 115.872 211.467 118.238L236.5 272.708C236.883 275.081 235.509 277.004 233.431 277.004Z" fill="#357092"/>
<path d="M194.472 119.096L192.537 123.166C192.323 123.642 191.974 124.046 191.535 124.329C191.095 124.611 190.582 124.759 190.059 124.754H157.288C156.207 124.754 155.094 124.162 154.296 123.166L151.036 119.096H141.383C139.238 119.096 137.821 121.081 138.217 123.529L161.535 267.418C161.931 269.866 163.992 271.852 166.138 271.852H228.889C231.034 271.852 232.451 269.866 232.055 267.418L208.737 123.535C208.341 121.086 206.28 119.101 204.134 119.101L194.472 119.096Z" fill="#8BC3C0"/>
<path d="M159.746 121.518C160.464 121.124 160.648 120.08 160.158 119.187C159.667 118.294 158.687 117.891 157.968 118.286C157.25 118.681 157.066 119.724 157.556 120.617C158.047 121.51 159.027 121.913 159.746 121.518Z" fill="#113C54"/>
<path d="M189.296 120.618H164.681C164.316 120.618 163.962 120.275 163.895 119.861C163.827 119.442 164.067 119.103 164.436 119.103H189.051C189.416 119.103 189.769 119.446 189.836 119.861C189.905 120.275 189.66 120.618 189.296 120.618Z" fill="#113C54"/>
<path d="M221.795 241.391H163.358L148.478 149.556H206.912L221.795 241.391Z" fill="#FFE9D2"/>
<path d="M200.521 194.523H199.711V207.596H200.521V194.523Z" fill="white"/>
<path d="M184.295 239.418L222.687 240.963C223.97 241.014 225.3 241.059 226.486 240.564C226.686 240.5 226.86 240.372 226.983 240.201C227.067 240.021 227.098 239.822 227.074 239.626C227.016 238.336 226.69 237.075 226.364 235.825C225.019 230.656 223.735 225.387 222.39 220.212L218.871 220.97C218.801 220.558 218.73 220.145 218.658 219.733L217.318 220.934C216.935 220.591 216.553 220.248 216.172 219.905L216.321 220.934C215.453 220.791 214.608 220.53 213.811 220.157L214.195 220.819L211.793 220.081C211.817 220.315 211.843 220.546 211.869 220.78C210.908 220.872 209.939 220.766 209.021 220.469C208.258 220.6 207.519 220.847 206.831 221.202C207.085 220.815 207.216 220.361 207.209 219.898C206.019 220.183 204.854 220.562 203.724 221.03C203.968 220.59 204.212 220.149 204.457 219.707C203.033 220.254 201.728 221.069 200.613 222.11C194.891 221.904 188.786 222.19 183.157 223.242L184.295 239.418Z" fill="#357092"/>
<path d="M199.577 217.532C202.326 222.505 203.75 228.103 203.712 233.785C203.712 234.545 203.669 235.321 203.405 236.035C202.768 237.751 200.953 238.749 199.179 239.224C198.067 239.523 196.876 239.676 195.771 239.355C194.356 238.945 193.246 237.799 192.551 236.5C191.856 235.201 191.521 233.754 191.188 232.31C190.214 228.066 189.241 223.823 188.272 219.58C188.211 219.316 188.158 219.009 188.326 218.796L199.577 217.532Z" fill="#FF966C"/>
<path d="M151.271 196.99C153.571 194.938 156.213 193.305 159.078 192.166C162.919 190.639 167.154 190.002 170.645 187.794C173.993 190.12 178.245 191.678 182.208 192.627C183.951 193.044 185.76 193.329 187.338 194.18C189.469 195.331 190.941 197.382 192.273 199.406C196.023 205.111 199.24 211.15 201.881 217.446C198.254 219.572 194.594 221.296 190.59 222.574C190.054 229.794 189.202 237.119 188.404 244.317C187.785 244.331 187.171 244.42 186.573 244.581C178.725 246.33 170.696 247.137 162.657 246.983C162.221 246.983 161.729 246.935 161.456 246.597L151.271 196.99Z" fill="#FFBA55"/>
<path d="M177.562 189.182C177.788 191.414 177.864 193.659 177.788 195.901C177.761 196.718 177.617 197.68 176.898 198.056C176.417 198.306 175.831 198.2 175.324 198.01C174.268 197.611 173.363 196.881 172.598 196.052C171.769 195.153 171.087 194.132 170.407 193.116L168.587 190.393C168.429 190.189 168.312 189.956 168.243 189.707C168.159 189.28 168.364 188.849 168.551 188.463C169.57 186.305 170.225 183.993 170.488 181.62C171.474 182.492 172.547 183.286 173.528 184.156L174.672 185.165C175.228 185.69 175.836 186.157 176.488 186.557L177.562 189.182Z" fill="#FF966C"/>
<path d="M170.615 220.709C167.665 215.079 164.784 209.417 161.972 203.723C164.287 206.313 166.189 209.244 167.612 212.412C168.341 214.033 169.189 215.934 170.922 216.327C171.951 216.561 173.003 216.173 173.971 215.763C176.265 214.794 178.488 213.665 180.624 212.384L170.615 220.709Z" fill="#C27D56"/>
<path d="M177.562 189.182L176.491 186.552C175.84 186.152 175.231 185.685 174.676 185.16L173.531 184.151C172.682 183.403 171.776 182.707 170.911 181.974C171.232 183.745 171.658 185.495 172.19 187.214C172.785 189.143 173.542 191.078 174.89 192.581C175.678 193.47 176.683 194.139 177.807 194.523C177.821 192.74 177.739 190.957 177.562 189.182V189.182Z" fill="#C27D56"/>
<path d="M185.35 178.704C186.737 181.758 187.492 185.061 187.57 188.415C187.587 189.177 187.541 190.012 187.029 190.577C186.571 191.092 185.852 191.244 185.182 191.378C182.721 191.869 180.23 192.361 177.723 192.236C177.162 192.209 176.577 192.142 176.107 191.831C175.669 191.541 175.386 191.074 175.122 190.62C172.926 186.848 171.012 182.919 169.396 178.865C168.962 178.673 168.518 178.625 168.084 178.433C167.078 175.916 166.025 173.586 165.019 171.068C164.615 170.053 164.206 168.915 164.608 167.899C164.994 166.921 166.008 166.369 166.946 165.895C170.357 164.18 173.773 162.45 177.327 161.045C177.817 160.849 178.332 160.657 178.859 160.69C179.3 160.74 179.728 160.876 180.117 161.091C181.926 161.971 183.57 163.156 184.976 164.595C185.415 165.044 185.844 165.545 185.993 166.156C186.13 166.719 186.012 167.313 185.842 167.872C185.434 169.198 184.734 170.413 184.039 171.616L182.544 174.203L185.35 178.704Z" fill="#5F130D"/>
<path d="M169.585 169.946C170.379 171.349 171.399 172.61 172.605 173.678C172.09 175.125 171.467 176.544 170.47 177.712C171.018 179.412 171.917 180.977 173.108 182.307C174.3 183.638 175.757 184.702 177.387 185.433C176.977 184.352 176.831 183.05 176.657 181.909C179.488 181.262 182.481 181.461 185.375 181.681C185.688 182.695 186.089 183.628 186.405 184.642C186.269 179.441 185.041 174.327 182.802 169.631C178.574 167.458 173.847 167.824 169.585 169.946Z" fill="#FF966C"/>
<path d="M167.902 176.832C167.594 176.506 167.212 176.26 166.788 176.114C166.358 175.994 165.841 176.089 165.57 176.442C165.414 176.677 165.327 176.952 165.321 177.235C165.253 178.019 165.368 178.809 165.658 179.541C165.947 180.273 166.403 180.928 166.989 181.454C167.576 181.979 168.276 182.361 169.035 182.569C169.795 182.778 170.592 182.806 171.364 182.653C171.289 182.669 170.038 179.872 169.913 179.582C169.431 178.541 168.747 177.607 167.902 176.832Z" fill="#FF966C"/>
<path d="M166.933 179.812C166.878 179.355 166.824 178.897 166.771 178.44C166.966 178.713 167.222 178.938 167.519 179.095C167.487 179.378 167.24 179.61 167.262 179.901C167.284 180.193 167.552 180.37 167.792 180.514C168.216 180.771 168.684 181.039 169.177 180.974L167.869 179.864C167.843 179.845 167.822 179.818 167.809 179.788C167.79 179.73 167.835 179.67 167.876 179.617L168.427 179.014C168.381 179.066 166.986 177.928 166.54 178.175C165.958 178.501 166.523 179.579 166.933 179.812Z" fill="#FC571E"/>
<path d="M178.075 176.048C178.176 175.864 178.318 175.668 178.528 175.653C178.7 175.663 178.861 175.74 178.977 175.867C179.389 176.223 179.782 176.646 179.904 177.177C179.886 177.208 179.861 177.236 179.832 177.258C179.802 177.28 179.768 177.296 179.733 177.304C179.697 177.312 179.66 177.313 179.624 177.307C179.588 177.3 179.553 177.286 179.523 177.266C179.405 177.173 179.308 177.056 179.24 176.923C179.091 176.697 178.901 176.501 178.679 176.346C178.649 176.319 178.614 176.299 178.576 176.287C178.537 176.276 178.497 176.273 178.457 176.279C178.423 176.297 178.392 176.321 178.367 176.35C178.342 176.38 178.323 176.414 178.312 176.451C178.183 176.746 178.083 177.911 177.752 177.652C177.318 177.319 177.896 176.37 178.075 176.048Z" fill="#5F130D"/>
<path d="M183.654 175.624C183.673 175.517 183.715 175.415 183.778 175.327C183.84 175.238 183.921 175.163 184.015 175.109C184.109 175.078 184.211 175.074 184.307 175.098C184.404 175.122 184.492 175.173 184.56 175.245C184.696 175.39 184.793 175.567 184.842 175.759C184.94 176.051 184.977 176.359 184.952 176.665C184.951 176.682 184.947 176.698 184.941 176.713C184.912 176.789 184.799 176.794 184.737 176.744C184.68 176.687 184.641 176.613 184.627 176.533L184.483 176.003C184.457 175.836 184.374 175.682 184.25 175.567C184.213 175.535 184.165 175.519 184.116 175.523C183.992 175.536 183.958 175.694 183.944 175.818C183.944 176.02 184.02 177.141 183.684 177.019C183.33 176.895 183.594 175.866 183.654 175.624Z" fill="#5F130D"/>
<path d="M183.364 181.078C183.157 179.785 182.876 178.504 182.524 177.242C183.053 177.846 183.48 178.533 183.788 179.275C183.937 179.598 184.013 179.949 184.013 180.305C183.998 180.651 183.677 180.917 183.364 181.078Z" fill="#FC571E"/>
<path d="M184.684 182.837L180.479 183.18C180.933 183.607 181.336 184.021 181.875 184.333C182.14 184.499 182.429 184.62 182.733 184.692C183.041 184.764 183.364 184.717 183.639 184.561C183.927 184.39 184.101 184.069 184.262 183.769C184.397 183.527 184.548 183.087 184.684 182.837Z" fill="#B62C43"/>
<path d="M175.436 171.787C176.232 171.423 177.104 171.256 177.979 171.3C178.031 171.184 178.036 171.051 177.992 170.931C177.922 170.78 177.721 170.76 177.555 170.76C176.769 170.799 176.011 171.249 175.436 171.787Z" fill="#5F130D"/>
<path d="M183.854 171.182C183.28 170.981 182.663 170.943 182.069 171.072C182.072 170.933 182.091 170.795 182.126 170.66C182.132 170.625 182.152 170.593 182.181 170.571C182.209 170.557 182.242 170.552 182.273 170.557C182.728 170.586 183.455 170.959 183.854 171.182Z" fill="#5F130D"/>
<path d="M202.046 225.292C203.155 227.901 203.764 230.694 203.841 233.528C203.866 234.478 203.827 235.45 203.497 236.34C202.813 238.149 200.984 239.35 199.096 239.784C197.209 240.218 195.229 240.046 193.294 239.881C182.093 238.927 170.848 238.598 159.611 238.895C160.145 236.805 159.229 234.355 160.428 232.562C161.239 231.349 162.77 230.865 164.203 230.573C166.567 230.093 168.981 229.909 171.381 229.666C179.791 228.81 188.107 227.199 196.228 224.851L202.046 225.292Z" fill="#FF966C"/>
<path d="M190.174 201.194C190.696 199.437 191.291 197.705 191.959 195.997C192.156 195.482 192.371 194.968 192.757 194.585C193.059 194.307 193.401 194.075 193.772 193.899L196.983 192.195C197.078 192.129 197.193 192.098 197.309 192.106C197.497 192.14 197.585 192.36 197.597 192.55C197.64 193.293 197.038 193.909 196.432 194.341C195.826 194.774 195.133 195.175 194.828 195.855C194.629 196.294 194.623 196.795 194.508 197.263C194.374 197.809 194.093 198.307 193.695 198.704L190.174 201.194Z" fill="#FF966C"/>
<path d="M200.172 196.652C199.289 196.652 198.418 196.447 197.628 196.052C196.839 195.658 196.151 195.085 195.62 194.38C195.09 193.674 194.73 192.854 194.571 191.986C194.411 191.118 194.456 190.224 194.701 189.376L195.96 185.018H204.384L205.644 189.376C205.889 190.224 205.933 191.118 205.773 191.986C205.614 192.854 205.254 193.674 204.724 194.38C204.193 195.085 203.506 195.658 202.716 196.052C201.926 196.447 201.055 196.652 200.172 196.652V196.652Z" fill="white"/>
<path d="M203.712 192.258L204.865 191.98C205.074 191.481 205.236 190.879 204.85 190.501C204.551 190.211 204.076 190.251 203.664 190.311L196.801 191.308L203.712 192.258Z" fill="#B62C43"/>
<path d="M198.762 190.289C197.703 189.982 196.605 189.831 195.502 189.839C195.336 190.544 195.332 191.278 195.49 191.985C195.647 192.692 195.963 193.354 196.413 193.922C196.863 194.49 197.435 194.949 198.087 195.264C198.74 195.579 199.455 195.743 200.179 195.743C201.273 195.744 202.334 195.371 203.187 194.687C204.04 194.003 204.635 193.048 204.872 191.98C204.539 191.941 204.209 191.884 203.885 191.817C202.135 191.452 200.481 190.754 198.762 190.289Z" fill="#F83B4F"/>
<path d="M196.5 207.597C196.5 206.923 198.118 206.379 200.116 206.379C202.113 206.379 203.729 206.921 203.729 207.597C203.729 208.273 202.111 208.816 200.116 208.816C198.12 208.816 196.5 208.27 196.5 207.597Z" fill="white"/>
<path d="M161.372 237.502H223.706L224.413 242.855H162.484L161.372 237.502Z" fill="#C27D56"/>
<path d="M167.942 156.477L149.926 175.523C148.838 174.656 148.052 173.468 147.682 172.127C150.667 169.008 153.797 165.607 154.5 161.355C154.672 160.364 154.694 159.334 155.082 158.409C155.451 158.267 155.989 158.439 156.341 158.615C155.655 161.152 154.964 163.69 154.269 166.228C156.526 164.806 158.628 163.15 160.54 161.288C161.291 160.558 162.031 159.765 162.388 158.78C162.657 158.037 162.781 157.102 163.498 156.769L167.942 156.477Z" fill="#C27D56"/>
<path d="M148.375 158.205C149.826 159.154 151.391 159.995 153.102 160.283C154.812 160.571 156.693 160.24 157.979 159.082C158.145 158.898 158.35 158.752 158.578 158.657C158.793 158.609 159.017 158.613 159.23 158.667C161.349 159.048 163.691 159.645 165.529 158.518C165.762 158.342 166.022 158.207 166.299 158.116C166.653 158.037 167.017 158.156 167.361 158.265C168.918 158.756 170.578 159.079 172.179 158.761C173.78 158.444 175.307 157.377 175.8 155.82C177.396 155.812 178.969 155.434 180.394 154.715C181.408 154.201 182.438 153.331 182.4 152.195C182.39 151.867 182.304 151.488 182.532 151.253C182.691 151.125 182.885 151.049 183.088 151.035C183.823 150.898 184.547 150.589 185.046 150.035C185.545 149.481 185.775 148.648 185.492 147.959C184.977 146.691 183.251 146.576 181.889 146.655C172.427 147.203 162.941 147.203 153.479 146.655C150.562 146.483 147.553 146.275 144.789 147.229L148.375 158.205Z" fill="#357092"/>
<path d="M193.194 166.191C192.601 166.124 192 166.203 191.444 166.421C190.887 166.639 190.393 166.989 190.003 167.441C190.003 167.26 189.766 167.685 189.948 167.69C190.567 167.699 191.18 167.569 191.741 167.309C192.303 167.05 192.8 166.668 193.194 166.191Z" fill="#8BC3C0"/>
<path d="M193.309 162.623C192.946 162.319 192.708 161.89 192.643 161.42C192.577 160.951 192.688 160.473 192.954 160.081C193.342 160.238 193.525 160.787 193.489 161.206C193.453 161.625 193.316 162.203 193.309 162.623Z" fill="#357092"/>
<path d="M203.283 163.655C203.179 163.327 203.172 162.976 203.262 162.644C203.352 162.312 203.536 162.013 203.791 161.783C204.047 161.552 204.363 161.4 204.703 161.344C205.042 161.289 205.39 161.332 205.706 161.469C205.182 162.483 204.287 163.121 203.283 163.655Z" fill="#8BC3C0"/>
<path d="M197.442 152.967C196.95 152.912 196.44 152.869 195.969 153.022C195.497 153.175 195.069 153.569 195.032 154.063C195.665 154.058 196.897 153.296 197.442 152.967Z" fill="#357092"/>
<path d="M206.009 176.209C205.562 176.02 205.063 175.989 204.597 176.123C204.13 176.257 203.723 176.547 203.444 176.945C204.259 177.163 205.273 176.631 206.009 176.209Z" fill="#357092"/>
<path d="M160.556 184.464C160.396 184.013 160.398 183.52 160.562 183.071C160.725 182.621 161.04 182.242 161.452 182C161.534 182.933 161.166 183.758 160.556 184.464Z" fill="#357092"/>
<path d="M190.705 180.687C190.429 180.39 190.26 180.009 190.226 179.604C190.192 179.2 190.294 178.796 190.516 178.457C191.072 179.181 190.899 179.802 190.705 180.687Z" fill="#357092"/>
<path d="M162.959 172.167C162.625 171.868 162.19 171.707 161.742 171.718C161.294 171.729 160.867 171.909 160.548 172.223C161.087 172.635 162.312 172.371 162.959 172.167Z" fill="#8BC3C0"/>
<path d="M159.237 226.387C169.649 218.867 181.199 211.074 189.759 201.498C190.305 200.887 190.377 200.084 190.778 199.367C191.327 198.387 191.914 197.365 192.868 196.771C194.299 195.88 196.128 196.186 197.808 195.99C200.224 195.709 202.362 194.355 204.427 193.073C206.143 192.008 204.427 194.606 203.957 195.088C203.031 196.055 201.856 196.747 200.562 197.09C201.154 197.142 201.557 197.32 202.147 197.37C202.265 197.371 202.382 197.397 202.49 197.445C202.746 197.581 202.797 197.941 202.696 198.212C202.569 198.472 202.408 198.713 202.217 198.931C201.531 199.887 201.512 201.18 200.922 202.2C200.236 203.373 198.925 203.994 197.686 204.547L193.74 206.309C192.106 209.246 180.451 229.259 175.187 233.54C174.122 234.398 172.926 235.216 171.56 235.383C170.57 235.505 169.57 235.275 168.624 234.956C164.719 233.636 160.992 230.103 159.237 226.387Z" fill="#FF966C"/>
<path d="M152.69 144.538C153.845 143.903 154.142 142.225 153.353 140.79C152.564 139.355 150.988 138.706 149.833 139.341C148.678 139.976 148.381 141.654 149.17 143.089C149.959 144.524 151.535 145.173 152.69 144.538Z" fill="#FFBA55"/>
<path d="M161.367 144.536C162.522 143.901 162.819 142.223 162.031 140.788C161.242 139.353 159.666 138.704 158.511 139.339C157.356 139.974 157.059 141.652 157.848 143.087C158.636 144.522 160.212 145.171 161.367 144.536Z" fill="#F83B4F"/>
<path d="M170.043 144.537C171.199 143.902 171.495 142.224 170.707 140.789C169.918 139.354 168.342 138.706 167.187 139.341C166.032 139.976 165.735 141.654 166.524 143.088C167.313 144.523 168.888 145.172 170.043 144.537Z" fill="#357092"/>
<path d="M198.365 261.777C201.207 260.215 201.937 256.086 199.996 252.555C198.055 249.024 194.178 247.429 191.336 248.991C188.495 250.553 187.765 254.682 189.706 258.212C191.647 261.743 195.524 263.339 198.365 261.777Z" fill="#357092"/>
<path d="M176.803 261.778C179.644 260.216 180.374 256.087 178.433 252.556C176.492 249.026 172.615 247.43 169.773 248.992C166.932 250.554 166.202 254.683 168.143 258.214C170.084 261.744 173.961 263.34 176.803 261.778Z" fill="#FFBA55"/>
<path d="M219.929 261.777C222.77 260.215 223.5 256.086 221.559 252.555C219.618 249.024 215.741 247.428 212.899 248.991C210.058 250.553 209.328 254.681 211.269 258.212C213.21 261.743 217.087 263.339 219.929 261.777Z" fill="#F83B4F"/>
<path d="M237.24 337.221H327.147C329.81 337.221 332.368 334.757 332.86 331.717L364.934 133.788C365.426 130.748 363.667 128.284 361.003 128.284H271.096C268.433 128.284 265.875 130.748 265.382 133.788L233.309 331.717C232.817 334.757 234.575 337.221 237.24 337.221Z" fill="#8BC3C0"/>
<path d="M287.157 134.886L289.636 140.1C289.911 140.711 290.358 141.229 290.922 141.59C291.486 141.952 292.142 142.141 292.812 142.135H334.799C336.185 142.135 337.611 141.379 338.634 140.1L342.803 134.886H355.184C357.929 134.886 359.748 137.429 359.24 140.567L329.363 324.938C328.849 328.076 326.213 330.619 323.465 330.619H243.058C240.313 330.619 238.494 328.076 239.002 324.938L268.879 140.567C269.394 137.429 272.029 134.886 274.778 134.886H287.157Z" fill="#357092"/>
<path d="M334.468 136.845C335.097 135.701 334.861 134.363 333.94 133.857C333.019 133.35 331.762 133.868 331.133 135.012C330.504 136.156 330.741 137.494 331.662 138.001C332.582 138.507 333.839 137.99 334.468 136.845Z" fill="#113C54"/>
<path d="M293.792 136.828H325.33C325.8 136.828 326.251 136.394 326.339 135.857C326.425 135.322 326.114 134.886 325.652 134.886H294.106C293.636 134.886 293.185 135.322 293.097 135.857C293.011 136.403 293.322 136.828 293.792 136.828Z" fill="#113C54"/>
<path d="M252.149 291.588H327.025L346.094 173.917H271.218L252.149 291.588Z" fill="#8BC3C0"/>
<path d="M293.397 248.768L292.136 245.93C291.736 245.032 291.337 244.135 290.909 243.25C290.141 241.654 289.262 240.075 287.981 238.852C287.396 238.294 286.737 237.823 286.134 237.28C284.77 236.059 283.716 234.53 283.061 232.819C282.959 232.552 282.82 232.239 282.536 232.195C282.204 232.143 281.965 232.509 281.85 232.828C281.524 233.814 281.548 234.882 281.917 235.853C282.186 236.555 282.641 237.236 282.569 237.984C282.528 238.416 282.313 238.809 282.13 239.202C281.761 239.993 281.502 240.889 281.708 241.736C282.144 243.528 281.625 245.339 281.433 247.167C280.878 246.995 280.294 246.941 279.717 247.007C280.172 247.647 280.805 248.138 281.447 248.589C283.924 250.329 286.669 251.654 289.573 252.511L293.397 248.768Z" fill="#C27D56"/>
<path d="M288.576 244.029H284.612C283.561 244.029 282.553 243.611 281.81 242.868C281.067 242.124 280.649 241.116 280.649 240.065C280.649 239.014 281.067 238.006 281.81 237.262C282.553 236.519 283.561 236.102 284.612 236.102H288.576V244.029ZM284.612 237.073C283.819 237.073 283.058 237.388 282.497 237.949C281.935 238.51 281.62 239.271 281.62 240.065C281.62 240.859 281.935 241.62 282.497 242.181C283.058 242.742 283.819 243.057 284.612 243.057H287.605V237.073H284.612Z" fill="white"/>
<path d="M328.384 204.162C329.413 202.994 330.856 202.294 332.309 201.75C333.584 201.271 334.919 200.892 336.281 200.892C337.644 200.892 339.047 201.323 340.013 202.282C340.554 202.857 340.984 203.527 341.283 204.257C342.004 205.868 342.429 207.596 342.535 209.358C342.752 212.87 341.703 216.32 341.153 219.797C340.248 225.51 340.751 231.605 343.555 236.661C343.776 237.059 344.016 237.469 344.039 237.922C344.032 238.295 343.949 238.663 343.797 239.003C342.163 243.425 340.482 247.925 337.52 251.599C336.834 252.457 335.767 253.349 334.732 252.952C334.187 252.743 333.831 252.228 333.509 251.741L330.432 247.083C329.029 244.957 327.607 242.793 326.862 240.355C325.455 235.752 326.625 230.791 327.962 226.167C329.298 221.543 330.815 216.763 330.076 212.007L328.384 204.162Z" fill="#5F130D"/>
<path d="M329.077 228.238C334.94 236.066 338.793 245.212 340.298 254.876C340.893 258.731 341.108 262.636 341.223 266.543C341.328 270.1 341.35 273.662 341.118 277.212C340.847 281.357 340.23 285.472 339.274 289.514C336.516 287.992 333.172 288.117 330.129 287.301C328.193 286.786 326.385 285.88 324.612 284.945C322.589 283.876 320.561 282.731 318.979 281.079C317.017 279.03 315.865 276.316 315.241 273.549C314.382 269.73 314.453 265.76 315.447 261.974L329.077 228.238Z" fill="#F83B4F"/>
<path d="M329.667 262.856C333.432 252.688 332.817 241.791 330.829 230.695C330.268 229.865 329.688 229.045 329.086 228.243L315.456 261.974C314.461 265.76 314.391 269.73 315.25 273.549C315.874 276.316 317.025 279.039 318.988 281.079C320.57 282.731 322.591 283.876 324.621 284.945C326.394 285.88 328.202 286.781 330.137 287.301C332.793 288.013 335.678 288.009 338.202 289.016C333.741 282.526 329.623 276.17 325.781 269.271C328.295 268.092 328.881 265.181 329.667 262.856Z" fill="#B62C43"/>
<path d="M253.735 261.88H305.969L339.368 282.364L332.98 288.752H250.53L253.735 261.88Z" fill="#C27D56"/>
<path d="M313.865 235.62C309.34 242.255 305.394 249.267 302.071 256.579C298.622 253.594 295.449 250.305 292.589 246.751C291.48 249.14 289.577 251.07 287.205 252.215C288.779 255.432 290.038 258.625 291.611 261.842C293.706 266.131 296.072 270.699 300.352 272.823C301.412 273.349 302.582 273.706 303.771 273.634C305.695 273.518 307.386 272.296 308.692 270.879C311.355 267.991 312.841 264.22 313.978 260.461C315.116 256.701 315.974 252.829 317.635 249.269L313.865 235.62Z" fill="#B62C43"/>
<path d="M320.86 226.885C322.243 224.522 324.12 222.492 325.901 220.419C327.682 218.347 329.429 216.173 330.479 213.646C331.529 211.118 331.827 208.155 330.709 205.666C329.314 202.553 325.994 200.69 322.662 199.974C317.413 198.837 308.697 201.625 306.677 204.607C308.621 207.22 309.808 210.318 310.109 213.562C310.267 215.415 310.128 217.319 310.67 219.098C311.332 221.272 312.935 223.014 314.491 224.673L320.86 226.885Z" fill="#5F130D"/>
<path d="M318.885 223.317C319.637 223.606 320.452 223.117 321.056 222.585C321.828 221.899 322.533 221.049 322.681 220.028C322.828 219.007 322.222 217.829 321.207 217.655C320.755 217.608 320.299 217.67 319.877 217.836C318.855 218.162 317.876 218.609 316.96 219.167C316.505 218.24 315.613 217.451 314.858 216.753C314.243 216.217 313.74 215.564 313.378 214.833C312.863 213.702 312.889 212.385 313.206 211.182C313.523 209.979 314.098 208.867 314.673 207.766L315.63 205.928C312.647 205.328 309.696 204.977 306.676 204.603C305.641 205.776 304.86 207.149 304.382 208.637C303.893 210.159 303.732 211.775 303.181 213.27C302.753 214.421 302.103 215.477 301.268 216.377C300.787 216.892 300.2 217.537 300.439 218.201C300.686 218.887 301.64 219.013 302.114 219.574C302.057 220.008 302.005 220.459 301.954 220.915C302.579 221.118 303.22 221.265 303.871 221.355C304.317 221.418 304.767 221.444 305.217 221.434C305.09 221.854 304.656 222.098 304.245 222.254C303.45 222.553 302.603 222.689 301.755 222.653C301.736 222.813 301.715 222.971 301.697 223.125C301.556 224.241 301.429 225.442 301.964 226.43C302.374 227.187 303.133 227.712 303.948 227.988C304.763 228.264 305.638 228.316 306.497 228.31C308.118 228.297 309.73 228.091 311.302 227.694C312.003 228.609 312.75 229.42 313.45 230.335C313.487 230.395 313.542 230.442 313.608 230.469C313.654 230.474 313.701 230.47 313.745 230.456C313.79 230.442 313.831 230.42 313.867 230.39C316.36 228.782 319.417 228.283 322.018 226.857L318.885 223.317Z" fill="#FF966C"/>
<path d="M305.212 221.446C304.762 221.456 304.311 221.43 303.865 221.367C303.215 221.277 302.573 221.13 301.949 220.927C301.882 221.511 301.736 222.76 301.667 223.329C302.515 223.388 303.364 223.232 304.135 222.875C304.761 222.559 305.085 221.866 305.212 221.446Z" fill="#B62C43"/>
<path d="M321.462 224.956C317.799 226.396 314.062 227.873 311.056 230.421C310.541 230.855 310.044 231.33 309.726 231.924C309.409 232.517 309.299 233.255 309.577 233.868C309.948 234.683 310.912 235.131 311.207 235.976C311.454 236.688 311.173 237.548 311.581 238.181C311.96 238.77 312.811 238.892 313.469 238.656C314.126 238.421 314.654 237.919 315.184 237.455C317.233 235.643 319.594 234.218 322.152 233.25C323.684 232.672 325.282 232.26 326.761 231.557C327.619 231.145 328.554 230.433 328.477 229.479C328.425 228.863 327.962 228.37 327.471 227.984C327.005 227.61 326.503 227.283 325.971 227.008C325.654 226.845 325.309 226.684 325.124 226.377C325.025 226.168 324.947 225.949 324.891 225.725C324.338 224.206 322.622 224.5 321.462 224.956Z" fill="#FFBA55"/>
<path d="M306.573 260.387C306.125 260.009 305.446 260.157 304.905 260.387C302.839 261.237 301.187 262.861 300.301 264.913C299.416 266.965 299.368 269.281 300.168 271.368C300.449 272.102 300.971 272.891 301.757 272.922C302.323 272.945 302.814 272.559 303.239 272.186C304.484 271.097 305.669 269.941 306.787 268.722L306.573 260.387Z" fill="#FF966C"/>
<path d="M281.088 235.855C280.489 235.497 279.843 235.224 279.17 235.041C278.841 234.948 278.492 234.948 278.163 235.041C277.571 235.246 277.238 235.934 277.317 236.553C277.396 237.172 277.816 237.708 278.328 238.066C278.855 238.402 279.429 238.658 280.031 238.826C281.203 239.229 282.404 239.544 283.622 239.768C284.029 239.837 284.52 239.858 284.774 239.533C285.875 238.123 281.879 236.292 281.088 235.855Z" fill="#FF966C"/>
<path d="M279.261 239.921C278.575 239.921 277.739 240.115 277.513 240.779C277.459 240.971 277.452 241.174 277.493 241.37C277.534 241.566 277.62 241.749 277.746 241.904C277.999 242.214 278.302 242.479 278.643 242.687C278.414 242.829 278.227 243.031 278.102 243.271C277.978 243.511 277.921 243.781 277.938 244.05C277.954 244.32 278.043 244.581 278.195 244.804C278.348 245.027 278.558 245.205 278.803 245.319C278.922 245.355 279.027 245.426 279.105 245.523C279.191 245.667 279.119 245.851 279.079 246.015C278.968 246.492 279.18 247 279.513 247.361C279.863 247.703 280.27 247.983 280.714 248.188C281.675 248.69 282.677 249.171 283.756 249.281C284.004 249.322 284.258 249.293 284.489 249.196C284.892 248.996 285.043 248.464 284.93 248.028C284.817 247.592 284.503 247.237 284.17 246.933C283.817 246.652 283.493 246.337 283.202 245.991C283.428 246.12 283.686 246.181 283.945 246.167C284.204 246.152 284.454 246.063 284.664 245.911C284.874 245.758 285.035 245.548 285.129 245.306C285.222 245.063 285.244 244.799 285.191 244.545C285.019 243.687 284.079 243.222 283.248 242.918C283.935 243.169 284.204 242.707 284.124 242.081C284.021 241.28 283.521 240.717 282.783 240.419C281.756 239.991 280.363 239.914 279.261 239.921Z" fill="#FF966C"/>
<path d="M285.774 235.326H300.499V240.096C300.499 242.05 299.723 243.923 298.342 245.304C296.96 246.686 295.087 247.462 293.133 247.462C291.18 247.462 289.306 246.686 287.925 245.304C286.543 243.923 285.767 242.05 285.767 240.096V235.326H285.774Z" fill="#F9D8AD"/>
<path d="M282.473 278.19C289.659 278.19 295.484 275.93 295.484 273.142C295.484 270.354 289.659 268.094 282.473 268.094C275.287 268.094 269.462 270.354 269.462 273.142C269.462 275.93 275.287 278.19 282.473 278.19Z" fill="#E8C395"/>
<path d="M282.473 275.278C285.513 275.278 287.977 274.322 287.977 273.142C287.977 271.962 285.513 271.006 282.473 271.006C279.433 271.006 276.969 271.962 276.969 273.142C276.969 274.322 279.433 275.278 282.473 275.278Z" fill="#F9D8AD"/>
<path d="M290.434 170.013H253.54V216.561H290.434V170.013Z" fill="#99583F"/>
<path d="M286.565 170.013H253.54V211.681H286.565V170.013Z" fill="#8BC3C0"/>
<path d="M286.567 177.582V183.69H276.064C277.094 183.022 278.822 183.379 279.976 182.973C280.469 182.801 280.92 182.446 281.442 182.458C281.925 182.458 282.354 182.784 282.833 182.849C283.133 182.882 283.436 182.816 283.696 182.661C283.955 182.506 284.157 182.271 284.271 181.991C284.317 181.799 284.396 181.617 284.504 181.452C284.72 181.204 285.112 181.214 285.398 181.047C285.942 180.735 285.925 179.965 285.901 179.332C285.877 178.699 285.946 177.667 286.567 177.582Z" fill="white"/>
<path d="M286.565 183.69H252.893V186.02H286.565V183.69Z" fill="#99583F"/>
<path d="M286.567 202.553V211.681H268.098C268.596 211.18 269.45 210.902 270.157 210.907C270.606 210.907 271.068 211.027 271.497 210.899C271.864 210.789 272.156 210.516 272.501 210.35C273.015 210.102 273.595 210.099 274.158 210.132C275.262 210.199 276.356 210.388 277.418 210.696C278.06 210.883 278.724 211.115 279.378 210.979C279.957 210.859 280.477 210.464 281.069 210.48C281.471 210.497 281.862 210.715 282.258 210.639C282.655 210.564 282.945 210.211 283.192 209.879C283.597 209.36 283.966 208.813 284.297 208.243C284.646 207.56 284.939 206.85 285.173 206.12C285.4 205.478 285.628 204.818 285.597 204.138C285.585 203.855 285.529 203.565 285.597 203.291C285.666 203.016 286.29 202.481 286.567 202.553Z" fill="white"/>
<path d="M275.246 176.578C275.246 176.525 275.232 176.471 275.224 176.418C275.215 176.365 275.184 176.324 275.164 176.276C275.128 176.206 275.076 176.147 275.011 176.104C274.974 176.069 274.929 176.043 274.879 176.029C274.833 176.002 274.781 175.987 274.728 175.988C274.676 175.972 274.62 175.972 274.568 175.988C274.515 175.988 274.463 176.002 274.417 176.029C274.344 176.053 274.278 176.095 274.225 176.152L274.133 176.272L274.072 176.415C274.072 176.468 274.059 176.521 274.05 176.574C274.042 176.628 274.066 176.679 274.072 176.732C274.079 176.785 274.112 176.828 274.133 176.875C274.168 176.945 274.221 177.004 274.287 177.046C274.323 177.083 274.368 177.11 274.417 177.123C274.489 177.161 274.569 177.179 274.649 177.175H274.706C274.779 177.177 274.852 177.161 274.917 177.127C274.982 177.104 275.041 177.065 275.088 177.014L275.174 176.904C275.223 176.82 275.249 176.725 275.248 176.628L275.246 176.578Z" fill="white"/>
<path d="M278.868 172.837L278.784 172.793C278.711 172.751 278.628 172.729 278.544 172.729C278.461 172.729 278.378 172.751 278.305 172.793C278.233 172.835 278.174 172.895 278.132 172.967C278.091 173.04 278.069 173.121 278.068 173.205C278.069 173.288 278.09 173.369 278.132 173.441C278.174 173.513 278.233 173.573 278.305 173.615C278.378 173.657 278.46 173.68 278.544 173.68C278.629 173.68 278.711 173.657 278.784 173.615L278.868 173.572C278.932 173.534 278.985 173.481 279.022 173.416C279.059 173.352 279.078 173.279 279.078 173.205C279.078 173.13 279.059 173.057 279.022 172.993C278.985 172.929 278.932 172.875 278.868 172.837Z" fill="white"/>
<path d="M280.831 176.724C279.716 176.724 279.712 178.458 280.831 178.458C281.95 178.458 281.95 176.724 280.831 176.724Z" fill="white"/>
<path d="M268.945 179.237C268.863 179.237 268.784 179.27 268.726 179.328C268.668 179.386 268.635 179.465 268.635 179.548C268.635 179.63 268.668 179.709 268.726 179.767C268.784 179.826 268.863 179.858 268.945 179.858C269.028 179.858 269.107 179.826 269.165 179.767C269.223 179.709 269.256 179.63 269.256 179.548C269.256 179.465 269.223 179.386 269.165 179.328C269.107 179.27 269.028 179.237 268.945 179.237V179.237Z" fill="white"/>
<path d="M267.456 175.797C267.456 175.772 267.438 175.744 267.427 175.717C267.417 175.689 267.398 175.646 267.383 175.612C267.356 175.562 267.317 175.519 267.269 175.488C267.243 175.462 267.21 175.442 267.173 175.432C267.12 175.405 267.061 175.392 267.002 175.394L266.885 175.41L266.78 175.454C266.73 175.481 266.688 175.52 266.657 175.567C266.618 175.609 266.591 175.661 266.578 175.717C266.568 175.744 266.557 175.772 266.549 175.797C266.527 175.879 266.527 175.966 266.549 176.048C266.57 176.126 266.611 176.198 266.669 176.255C266.759 176.342 266.878 176.391 267.002 176.393C267.126 176.388 267.244 176.34 267.335 176.255C267.392 176.198 267.434 176.126 267.455 176.048C267.478 175.966 267.478 175.879 267.456 175.797V175.797Z" fill="white"/>
<path d="M264.371 177.681L264.344 177.647C264.328 177.623 264.311 177.601 264.294 177.578C264.267 177.531 264.228 177.493 264.181 177.466C264.134 177.439 264.081 177.424 264.026 177.424C263.944 177.424 263.865 177.457 263.806 177.516C263.748 177.574 263.715 177.653 263.714 177.736C263.715 177.791 263.73 177.845 263.757 177.892C263.784 177.938 263.823 177.977 263.869 178.004L263.937 178.054L263.968 178.078C264.019 178.112 264.079 178.128 264.14 178.126C264.214 178.124 264.285 178.093 264.337 178.041C264.39 177.988 264.42 177.917 264.421 177.842C264.42 177.785 264.403 177.729 264.371 177.681V177.681Z" fill="white"/>
<path d="M276.526 180.974C276.504 180.894 276.461 180.821 276.402 180.763C276.311 180.673 276.187 180.624 276.059 180.624C275.995 180.62 275.932 180.634 275.876 180.665C275.817 180.684 275.764 180.718 275.721 180.763C275.676 180.805 275.642 180.858 275.624 180.917C275.593 180.973 275.579 181.037 275.582 181.101C275.582 181.144 275.593 181.186 275.599 181.228C275.622 181.307 275.663 181.38 275.721 181.439C275.813 181.528 275.936 181.578 276.064 181.579C276.129 181.581 276.192 181.567 276.25 181.538C276.307 181.516 276.359 181.482 276.403 181.439C276.446 181.395 276.48 181.343 276.502 181.286C276.531 181.229 276.545 181.165 276.543 181.101L276.526 180.974Z" fill="white"/>
<path d="M284.868 172.735C284.262 172.735 284.262 173.675 284.868 173.675C285.474 173.675 285.474 172.735 284.868 172.735Z" fill="white"/>
<path d="M273.822 170.404C273.807 170.363 273.789 170.322 273.771 170.283C273.741 170.24 273.709 170.198 273.674 170.159C273.634 170.115 273.582 170.081 273.525 170.063C273.472 170.035 273.413 170.022 273.354 170.024L273.218 170.032C273.141 170.054 273.071 170.095 273.014 170.152C272.978 170.19 272.946 170.232 272.918 170.276C272.875 170.353 272.851 170.44 272.849 170.528C272.848 170.538 272.848 170.549 272.849 170.559C272.847 170.624 272.862 170.689 272.892 170.748C272.911 170.809 272.946 170.864 272.993 170.907C273.037 170.954 273.091 170.988 273.151 171.008C273.21 171.039 273.275 171.054 273.342 171.051L273.472 171.032C273.554 171.01 273.629 170.967 273.69 170.907L273.767 170.808C273.811 170.732 273.834 170.646 273.834 170.559V170.528C273.834 170.492 273.827 170.449 273.822 170.404Z" fill="white"/>
<path d="M283.856 192.589C283.805 192.406 283.707 192.239 283.573 192.104L283.35 191.932C283.181 191.835 282.99 191.783 282.795 191.783C282.648 191.776 282.502 191.809 282.372 191.877C282.235 191.921 282.113 192 282.016 192.106C281.912 192.202 281.834 192.324 281.79 192.459C281.721 192.589 281.688 192.736 281.696 192.883C281.708 192.981 281.721 193.078 281.735 193.175C281.785 193.358 281.882 193.526 282.016 193.66L282.239 193.832C282.408 193.931 282.6 193.983 282.795 193.983C282.942 193.989 283.089 193.956 283.219 193.888C283.415 193.801 283.582 193.661 283.702 193.483C283.822 193.305 283.888 193.097 283.895 192.883L283.856 192.589Z" fill="white"/>
<path d="M273.904 189.208C273.885 189.151 273.852 189.1 273.808 189.058C273.768 189.014 273.716 188.981 273.659 188.962C273.606 188.936 273.547 188.922 273.487 188.923C273.365 188.923 273.248 188.972 273.161 189.058C273.118 189.101 273.084 189.152 273.06 189.209C273.037 189.265 273.025 189.325 273.026 189.386C273.026 189.422 273.026 189.458 273.026 189.496C273.024 189.556 273.037 189.615 273.065 189.668C273.101 189.749 273.159 189.818 273.232 189.867C273.306 189.917 273.392 189.945 273.481 189.947C273.54 189.947 273.6 189.935 273.655 189.912C273.711 189.89 273.761 189.856 273.803 189.813L273.875 189.722C273.916 189.653 273.937 189.573 273.937 189.493C273.937 189.455 273.937 189.419 273.937 189.383C273.941 189.323 273.93 189.262 273.904 189.208V189.208Z" fill="white"/>
<path d="M280.453 187.821C280.429 187.734 280.382 187.655 280.318 187.591C280.254 187.528 280.175 187.481 280.088 187.456C279.967 187.43 279.842 187.432 279.723 187.464C279.602 187.503 279.493 187.569 279.403 187.658C279.329 187.733 279.275 187.826 279.248 187.928C279.221 188.029 279.221 188.137 279.249 188.238V188.249C279.276 188.347 279.328 188.437 279.401 188.509C279.473 188.581 279.562 188.633 279.661 188.66C279.764 188.688 279.872 188.688 279.975 188.66C280.073 188.633 280.162 188.581 280.234 188.509C280.314 188.438 280.369 188.343 280.392 188.238C280.429 188.176 280.454 188.108 280.464 188.036C280.475 187.964 280.471 187.891 280.453 187.821V187.821Z" fill="white"/>
<path d="M285.314 187.128C285.229 187.045 285.116 186.998 284.997 186.996C284.937 186.993 284.878 187.007 284.825 187.036C284.77 187.052 284.72 187.084 284.681 187.128C284.625 187.184 284.585 187.254 284.565 187.331C284.545 187.407 284.545 187.488 284.566 187.564C284.566 187.597 284.583 187.631 284.594 187.665L284.635 187.765C284.661 187.813 284.698 187.853 284.743 187.883C284.769 187.908 284.801 187.926 284.836 187.936C284.885 187.962 284.941 187.974 284.997 187.972L285.109 187.957L285.21 187.916C285.257 187.891 285.298 187.853 285.326 187.808C285.363 187.767 285.389 187.718 285.402 187.665C285.402 187.631 285.419 187.597 285.429 187.564C285.45 187.488 285.451 187.407 285.431 187.331C285.411 187.254 285.37 187.184 285.314 187.128V187.128Z" fill="white"/>
<path d="M277.798 195.141C277.798 195.03 277.768 194.921 277.712 194.825C277.662 194.67 277.573 194.531 277.453 194.422L277.201 194.226L276.9 194.099L276.568 194.055L276.235 194.099L275.936 194.226C275.796 194.303 275.678 194.414 275.593 194.549C275.515 194.625 275.46 194.72 275.432 194.825C275.353 194.973 275.316 195.14 275.324 195.307C275.32 195.541 275.379 195.771 275.495 195.973C275.568 196.112 275.675 196.23 275.806 196.316C275.921 196.422 276.063 196.496 276.216 196.531L276.537 196.575C276.657 196.574 276.777 196.555 276.892 196.519H276.904L276.935 196.507C276.981 196.49 277.026 196.47 277.07 196.448L277.204 196.393C277.344 196.317 277.462 196.206 277.547 196.071C277.624 195.994 277.68 195.899 277.709 195.795C277.765 195.699 277.795 195.59 277.794 195.479C277.826 195.369 277.827 195.252 277.798 195.141V195.141Z" fill="white"/>
<path d="M265.705 202.289V202.27C265.676 202.165 265.62 202.069 265.543 201.992C265.466 201.914 265.371 201.858 265.265 201.829H265.247C265.13 201.796 265.008 201.796 264.891 201.829C264.793 201.856 264.702 201.905 264.625 201.973C264.549 202.041 264.489 202.125 264.45 202.22C264.411 202.315 264.395 202.417 264.402 202.519C264.409 202.621 264.439 202.72 264.491 202.808C264.542 202.897 264.613 202.972 264.698 203.029C264.783 203.085 264.88 203.122 264.982 203.135C265.083 203.148 265.186 203.137 265.283 203.104C265.38 203.071 265.468 203.017 265.54 202.944C265.622 202.864 265.682 202.762 265.712 202.651C265.743 202.532 265.741 202.406 265.705 202.289V202.289Z" fill="white"/>
<path d="M267.772 192.615L267.705 192.457C267.664 192.382 267.605 192.317 267.533 192.27C267.492 192.23 267.441 192.202 267.386 192.186C267.308 192.144 267.219 192.124 267.13 192.128L266.959 192.152L266.799 192.219C266.656 192.312 266.548 192.452 266.495 192.615C266.486 192.647 266.481 192.68 266.48 192.713C266.461 192.801 266.465 192.893 266.492 192.979C266.493 192.986 266.493 192.994 266.492 193.001L266.506 193.053L266.571 193.207C266.613 193.278 266.672 193.337 266.742 193.379C266.782 193.418 266.831 193.447 266.885 193.461C266.96 193.502 267.046 193.522 267.132 193.518L267.303 193.494L267.458 193.429C267.533 193.388 267.595 193.329 267.64 193.257C267.696 193.195 267.735 193.119 267.755 193.037L267.768 192.986C267.768 192.978 267.768 192.971 267.768 192.964C267.768 192.904 267.784 192.845 267.791 192.792C267.792 192.733 267.786 192.673 267.772 192.615V192.615Z" fill="white"/>
<path d="M268.736 188.489C268.716 188.413 268.676 188.343 268.62 188.288C268.564 188.232 268.495 188.191 268.419 188.17C268.34 188.149 268.256 188.149 268.177 188.17H268.138H268.117C268.053 188.185 267.994 188.216 267.945 188.261C267.908 188.282 267.878 188.313 267.856 188.35C267.839 188.365 267.825 188.384 267.815 188.405C267.792 188.447 267.773 188.491 267.76 188.537L267.745 188.578C267.722 188.66 267.722 188.747 267.745 188.829C267.767 188.907 267.809 188.979 267.866 189.036C267.924 189.094 267.996 189.136 268.074 189.158C268.156 189.18 268.243 189.18 268.325 189.158L268.361 189.144C268.406 189.128 268.45 189.11 268.493 189.089C268.553 189.058 268.604 189.012 268.642 188.956C268.672 188.925 268.694 188.887 268.705 188.846C268.718 188.826 268.728 188.805 268.733 188.782C268.732 188.775 268.732 188.767 268.733 188.76C268.734 188.746 268.734 188.731 268.733 188.717C268.754 188.643 268.755 188.564 268.736 188.489Z" fill="white"/>
<path d="M272.188 195.584C272.169 195.541 272.152 195.498 272.133 195.453C272.101 195.391 272.052 195.338 271.993 195.3C271.94 195.253 271.876 195.219 271.807 195.203L271.692 195.182C271.596 195.155 271.494 195.155 271.397 195.18C271.299 195.206 271.211 195.257 271.14 195.328L271.052 195.443C271.002 195.53 270.974 195.629 270.974 195.729C270.971 195.805 270.988 195.88 271.023 195.947C271.046 196.018 271.086 196.081 271.14 196.131C271.21 196.2 271.296 196.25 271.39 196.277C271.489 196.304 271.594 196.304 271.692 196.277L271.807 196.256L271.938 196.201C272 196.168 272.052 196.12 272.091 196.061C272.124 196.027 272.148 195.985 272.161 195.939C272.195 195.875 272.211 195.802 272.207 195.729C272.204 195.681 272.197 195.632 272.188 195.584Z" fill="white"/>
<path d="M269.702 199.84C269.652 199.753 269.579 199.681 269.492 199.63C269.405 199.58 269.306 199.553 269.205 199.553C269.104 199.553 269.005 199.58 268.918 199.63C268.83 199.681 268.758 199.753 268.707 199.84C268.655 199.928 268.627 200.028 268.628 200.13C268.628 200.233 268.655 200.334 268.707 200.422L268.73 200.463C268.758 200.514 268.793 200.56 268.832 200.602C268.879 200.653 268.938 200.69 269.004 200.71C269.066 200.743 269.136 200.759 269.207 200.757L269.346 200.738C269.433 200.713 269.513 200.667 269.577 200.602C269.617 200.56 269.652 200.513 269.682 200.463C269.682 200.45 269.696 200.436 269.704 200.422C269.755 200.333 269.782 200.233 269.783 200.13C269.782 200.028 269.754 199.928 269.702 199.84V199.84Z" fill="white"/>
<path d="M278.654 201.649C277.942 201.649 277.94 202.755 278.654 202.755C279.367 202.755 279.367 201.649 278.654 201.649Z" fill="white"/>
<path d="M284.59 197.497C284.559 197.388 284.5 197.289 284.419 197.21L284.286 197.107C284.186 197.05 284.073 197.019 283.957 197.018C283.869 197.014 283.782 197.034 283.705 197.075C283.624 197.101 283.552 197.147 283.495 197.21C283.433 197.267 283.387 197.339 283.36 197.419C283.319 197.497 283.3 197.584 283.305 197.672C283.305 197.728 283.32 197.787 283.327 197.843C283.359 197.952 283.418 198.051 283.499 198.13L283.631 198.233C283.731 198.291 283.845 198.322 283.96 198.322C284.048 198.326 284.134 198.306 284.211 198.265C284.292 198.239 284.364 198.192 284.422 198.13C284.484 198.073 284.531 198.001 284.556 197.92C284.597 197.844 284.616 197.757 284.612 197.67L284.59 197.497Z" fill="white"/>
<path d="M283.446 203.871C283.421 203.781 283.373 203.7 283.307 203.634C283.205 203.534 283.068 203.478 282.926 203.476C282.854 203.472 282.782 203.488 282.718 203.522C282.652 203.544 282.593 203.582 282.547 203.634C282.481 203.7 282.433 203.781 282.408 203.871C282.384 203.965 282.384 204.063 282.408 204.157C282.412 204.186 282.417 204.215 282.425 204.243L282.476 204.367C282.508 204.427 282.554 204.478 282.612 204.514C282.643 204.546 282.683 204.57 282.727 204.581C282.788 204.614 282.858 204.629 282.928 204.626L283.067 204.607L283.192 204.555C283.251 204.523 283.301 204.477 283.338 204.42C283.383 204.371 283.415 204.312 283.432 204.248C283.432 204.221 283.442 204.19 283.447 204.162C283.474 204.067 283.473 203.966 283.446 203.871V203.871Z" fill="white"/>
<path d="M274.345 206.033C274.269 205.8 274.115 205.6 273.91 205.467C273.764 205.381 273.599 205.337 273.431 205.338C273.334 205.334 273.237 205.347 273.144 205.377C273.024 205.406 272.914 205.465 272.823 205.549C272.721 205.615 272.638 205.706 272.582 205.813C272.551 205.889 272.518 205.962 272.487 206.038C272.448 206.159 272.442 206.289 272.47 206.414C272.47 206.497 272.492 206.578 272.533 206.65C272.571 206.767 272.639 206.872 272.729 206.954L272.92 207.1C273.009 207.153 273.107 207.19 273.21 207.21C273.365 207.249 273.528 207.249 273.683 207.21L273.91 207.114C274.052 207.031 274.17 206.913 274.253 206.771C274.321 206.665 274.359 206.544 274.364 206.419C274.394 206.291 274.387 206.157 274.345 206.033V206.033Z" fill="white"/>
<path d="M275.5 200.058C275.466 199.998 275.416 199.947 275.355 199.912C275.295 199.877 275.227 199.859 275.157 199.859C275.087 199.859 275.019 199.877 274.958 199.912C274.898 199.947 274.848 199.998 274.814 200.058C274.777 200.118 274.758 200.187 274.759 200.257C274.759 200.327 274.778 200.396 274.814 200.456C274.814 200.468 274.831 200.482 274.841 200.494C274.859 200.521 274.879 200.547 274.899 200.571L274.972 200.628C275.027 200.66 275.09 200.676 275.153 200.676L275.248 200.664C275.264 200.661 275.279 200.655 275.292 200.645C275.337 200.631 275.377 200.606 275.409 200.571L275.464 200.498L275.495 200.456C275.53 200.396 275.549 200.327 275.548 200.257C275.551 200.188 275.534 200.119 275.5 200.058V200.058Z" fill="white"/>
<path d="M268.604 207.719L268.537 207.56C268.497 207.484 268.438 207.419 268.366 207.373C268.302 207.313 268.224 207.271 268.139 207.253L268.093 207.239C267.977 207.207 267.855 207.206 267.738 207.236C267.621 207.266 267.515 207.326 267.429 207.41C267.393 207.455 267.357 207.501 267.323 207.548C267.261 207.652 267.228 207.77 267.228 207.891C267.225 207.982 267.245 208.073 267.288 208.153C267.315 208.238 267.363 208.314 267.429 208.373C267.515 208.457 267.621 208.518 267.738 208.548C267.855 208.578 267.977 208.577 268.093 208.545L268.139 208.531L268.299 208.464C268.375 208.424 268.439 208.365 268.486 208.292C268.527 208.252 268.558 208.201 268.573 208.145C268.614 208.065 268.634 207.977 268.63 207.887L268.604 207.719Z" fill="white"/>
<path d="M262.304 207.966L262.232 207.795C262.188 207.714 262.125 207.645 262.048 207.594C261.979 207.532 261.896 207.488 261.806 207.467L261.76 207.453C261.636 207.418 261.505 207.417 261.38 207.45C261.255 207.483 261.142 207.548 261.051 207.64L260.938 207.788C260.872 207.899 260.838 208.026 260.839 208.155C260.834 208.252 260.856 208.349 260.9 208.435C260.929 208.525 260.981 208.606 261.051 208.67C261.142 208.761 261.256 208.826 261.38 208.859C261.505 208.892 261.636 208.891 261.76 208.857L261.806 208.843L261.978 208.771C262.059 208.727 262.128 208.664 262.179 208.587C262.221 208.543 262.253 208.489 262.269 208.43C262.314 208.345 262.335 208.25 262.331 208.155L262.304 207.966Z" fill="white"/>
<path d="M281.111 208.776C280.407 208.776 280.407 209.868 281.111 209.868C281.814 209.868 281.818 208.776 281.111 208.776Z" fill="white"/>
<path d="M326.357 169.516H303.809V192.687H326.357V169.516Z" fill="#C27D56"/>
<path d="M323.204 172.755H306.96V189.448H323.204V172.755Z" fill="#F9D8AD"/>
<path d="M318.612 177.473H311.554V184.728H318.612V177.473Z" fill="#8BC3C0"/>
<path d="M317.391 208.193C317.796 207.919 318.22 207.675 318.66 207.464C318.885 207.354 319.213 207.292 319.335 207.501C319.439 207.688 319.283 207.913 319.29 208.126C319.302 208.469 319.721 208.649 320.054 208.591C320.387 208.532 320.671 208.321 320.991 208.21C322.612 207.637 324.343 209.667 325.942 209.035C326.442 208.84 326.948 208.39 327.437 208.61C327.646 208.704 327.812 208.913 328.041 208.917C328.591 208.917 328.497 207.923 328.989 207.676C329.119 207.627 329.262 207.623 329.395 207.665C329.528 207.707 329.642 207.794 329.719 207.91C329.867 208.146 329.949 208.418 329.957 208.697C330.054 209.706 329.961 210.724 329.681 211.698C329.554 212.139 329.262 212.654 328.806 212.606C328.907 212.357 328.942 212.087 328.907 211.821C328.872 211.555 328.768 211.303 328.606 211.089C328.444 210.876 328.229 210.708 327.983 210.603C327.736 210.497 327.466 210.458 327.2 210.488C326.67 210.543 326.188 210.868 325.656 210.868C325.038 210.868 324.518 210.439 323.962 210.171C323.214 209.812 322.362 209.732 321.56 209.946C320.975 210.106 320.423 210.42 319.819 210.447C319.215 210.475 318.513 210.047 318.57 209.444L316.627 210.826C316.513 210.936 316.36 210.997 316.202 210.998C315.872 210.95 315.848 210.483 315.932 210.159C316.287 208.773 316.923 207.474 317.801 206.343C317.578 206.937 317.439 207.56 317.391 208.193V208.193Z" fill="#99583F"/>
<path d="M305.181 214.059C305.09 214.515 304.79 214.84 304.509 214.785C304.227 214.73 304.075 214.315 304.166 213.858C304.256 213.402 304.555 213.078 304.836 213.134C305.118 213.191 305.271 213.613 305.181 214.059Z" fill="#5F130D"/>
<path d="M306.9 208.685C306.272 208.44 305.634 208.225 304.984 208.04C305.079 207.885 305.227 207.77 305.401 207.717C305.575 207.663 305.762 207.675 305.928 207.75C306.3 207.898 306.628 208.39 306.9 208.685Z" fill="#5F130D"/>
<path d="M317.003 230.932C314.333 233.456 312.59 236.798 311.169 240.184C309.416 244.347 308.07 248.67 307.149 253.093C306.544 256 306.092 259.033 304.509 261.547C303.761 262.736 302.793 263.762 301.966 264.903C300.501 266.943 299.536 269.403 299.581 271.915C299.626 274.427 300.768 276.968 302.825 278.409C304.45 279.55 306.482 279.938 308.458 280.125C309.541 280.225 310.648 280.269 311.701 280.008C313.571 279.545 315.09 278.167 316.251 276.632C317.217 275.354 317.993 273.943 318.741 272.528C323.564 263.404 327.466 253.823 330.389 243.926C331.247 240.993 332.04 237.967 331.808 234.92C331.606 232.252 330.093 227.585 326.901 227.269C323.262 226.903 319.606 228.47 317.003 230.932Z" fill="#F83B4F"/>
<path d="M320.695 218.657C320.74 218.634 320.791 218.625 320.841 218.632C320.894 218.652 320.937 218.691 320.963 218.741C321.175 219.062 321.313 219.426 321.366 219.807C321.17 219.569 320.913 219.388 320.623 219.282C320.302 219.662 319.954 220.019 319.582 220.351C319.656 220.66 319.971 220.874 320.018 221.188C320.027 221.306 320.007 221.425 319.959 221.534C319.912 221.642 319.837 221.737 319.743 221.809C319.554 221.952 319.343 222.062 319.117 222.133C319.023 222.072 319.043 221.921 319.117 221.83C319.191 221.739 319.288 221.679 319.349 221.581C319.52 221.305 319.259 220.965 319.017 220.745C318.887 220.63 318.758 220.514 318.63 220.402C318.564 220.356 318.518 220.286 318.503 220.207C318.468 219.551 320.26 218.837 320.695 218.657Z" fill="#FC571E"/>
<path d="M319.143 223.34C319.098 223.569 318.986 223.78 318.821 223.945C318.656 224.111 318.446 224.224 318.217 224.27C317.988 224.316 317.75 224.293 317.534 224.204C317.318 224.115 317.134 223.964 317.004 223.77C316.873 223.576 316.804 223.348 316.804 223.114C316.803 222.881 316.872 222.652 317.002 222.458C317.132 222.263 317.316 222.112 317.532 222.022C317.748 221.933 317.985 221.91 318.214 221.955C318.521 222.016 318.791 222.195 318.965 222.455C319.139 222.715 319.203 223.033 319.143 223.34Z" fill="white"/>
<path d="M345.214 165.641C346.225 163.803 345.845 161.653 344.365 160.84C342.885 160.026 340.866 160.857 339.856 162.695C338.845 164.534 339.225 166.684 340.705 167.497C342.185 168.311 344.204 167.48 345.214 165.641Z" fill="#F83B4F"/>
<path d="M334.095 165.642C335.105 163.804 334.725 161.654 333.245 160.84C331.766 160.027 329.747 160.858 328.736 162.696C327.725 164.535 328.105 166.685 329.585 167.498C331.065 168.312 333.084 167.481 334.095 165.642Z" fill="#8BC3C0"/>
<path d="M317.101 164.159C316.775 166.17 317.938 167.8 319.702 167.8C321.466 167.8 323.156 166.17 323.477 164.159C323.798 162.148 322.638 160.518 320.876 160.518C319.113 160.518 317.427 162.148 317.101 164.159Z" fill="#FFBA55"/>
<path d="M293.274 313.162C295.761 308.637 294.827 303.346 291.186 301.345C287.546 299.344 282.578 301.389 280.091 305.914C277.603 310.439 278.538 315.729 282.178 317.731C285.819 319.732 290.786 317.686 293.274 313.162Z" fill="#FFBA55"/>
<path d="M320.904 313.163C323.392 308.638 322.457 303.348 318.817 301.347C315.176 299.345 310.208 301.391 307.721 305.916C305.233 310.44 306.168 315.731 309.808 317.732C313.449 319.734 318.417 317.688 320.904 313.163Z" fill="#F83B4F"/>
<path d="M265.641 313.162C268.128 308.637 267.194 303.347 263.553 301.345C259.913 299.344 254.945 301.39 252.458 305.914C249.97 310.439 250.905 315.73 254.545 317.731C258.185 319.732 263.153 317.687 265.641 313.162Z" fill="#8BC3C0"/>
</svg>
