<svg xmlns="http://www.w3.org/2000/svg" xmlns:xlink="http://www.w3.org/1999/xlink" viewBox="0 0 4000 2333.33"><defs><style>.cls-1{fill:url(#linear-gradient);}.cls-2{fill:url(#linear-gradient-2);}.cls-3{fill:#ff6462;}.cls-4,.cls-9{fill:#e3f6ff;}.cls-5{fill:#145075;}.cls-6{fill:#80d3fa;}.cls-7{fill:#0772b3;}.cls-8{fill:#2d80b3;}.cls-8,.cls-9{opacity:0.5;}</style><linearGradient id="linear-gradient" x1="4152.11" y1="215.21" x2="-271.38" y2="2170.86" gradientUnits="userSpaceOnUse"><stop offset="0" stop-color="#70b6ff"/><stop offset="1" stop-color="#3361b0"/></linearGradient><linearGradient id="linear-gradient-2" x1="4273.44" y1="543.06" x2="1683.55" y2="1688.07" gradientUnits="userSpaceOnUse"><stop offset="0" stop-color="#abd4ff"/><stop offset="1" stop-color="#52a1f7"/></linearGradient></defs><title>home2</title><g id="Layer_2" data-name="Layer 2"><g id="Layer_3" data-name="Layer 3"><rect class="cls-1" width="4000" height="2333.33"/><path class="cls-2" d="M4000,0V2333.33H2835l-892-515c-119.43-69-217.16-238.23-217.16-376.13V0Z"/></g><g id="Layer_1-2" data-name="Layer 1"><path class="cls-3" d="M3405.34,1234.63l-2,697.75c0,7.33-2.63,12.5-6.83,14.94l17.38-10.09,17.37-10.1c4.19-2.44,6.8-7.61,6.82-14.94l2-697.75Z"/><path class="cls-4" d="M3416.85,1174.2l-1049.61-606c-6.46-3.72-12.32-4.05-16.57-1.58l-34.74,20.19c4.25-2.47,10.11-2.14,16.57,1.58l1049.61,606c12.81,7.4,23.27,25.51,23.23,40.24l34.74-20.19C3440.12,1199.71,3429.67,1181.6,3416.85,1174.2Z"/><path class="cls-5" d="M3382.11,1194.39c12.81,7.4,23.27,25.51,23.23,40.24l-2,697.75c0,14.76-10.57,20.75-23.39,13.35l-1049.61-606c-12.81-7.4-23.27-25.51-23.23-40.26l2-697.76c0-14.73,10.56-20.73,23.39-13.33Z"/><path class="cls-3" d="M3310.59,1247.81c0,14.52,10.19,32.18,22.77,39.44s22.77,1.37,22.77-13.15-10.2-32.17-22.77-39.43S3310.59,1233.29,3310.59,1247.81Z"/><path class="cls-6" d="M3239.44,1206.73c0,14.52,10.2,32.18,22.77,39.44S3285,1247.54,3285,1233s-10.19-32.17-22.77-39.43S3239.44,1192.22,3239.44,1206.73Z"/><path class="cls-4" d="M3168.3,1165.66c0,14.52,10.19,32.18,22.76,39.43s22.77,1.38,22.77-13.14-10.19-32.18-22.76-39.44S3168.3,1151.14,3168.3,1165.66Z"/><polygon class="cls-4" points="3078.99 1141.83 2343.14 716.98 2343.14 657.83 3078.99 1082.68 3078.99 1141.83"/><polygon class="cls-6" points="2760.24 1007.1 2343.14 766.27 2343.14 749.84 2760.24 990.67 2760.24 1007.1"/><path class="cls-3" d="M2078.31,1156.4c-16.51-9.53-29.89-10.22-29.89,11.46,0-21.68-13.39-36.45-29.9-46s-29.9.31-29.9,22c0,32.62,43.6,107.6,59.8,117s59.79-17.16,59.79-47.91C2108.21,1191.23,2094.83,1165.94,2078.31,1156.4Z"/><path class="cls-3" d="M3430.1,1517.7l-.44,154.91c0,8.23-3,14-7.67,16.77l20.83-12.1c4.71-2.74,7.64-8.54,7.67-16.77l.43-154.92Z"/><path class="cls-4" d="M3424.81,1460.35,3094.6,1269.71c-7.25-4.19-13.85-4.56-18.62-1.78l-20.84,12.1c4.78-2.77,11.38-2.4,18.63,1.79L3404,1472.46c14.42,8.32,26.17,28.68,26.13,45.24l20.82-12.11C3451,1489,3439.22,1468.67,3424.81,1460.35Z"/><path class="cls-6" d="M3404,1472.46c14.42,8.32,26.17,28.68,26.13,45.24l-.44,154.91c0,16.57-11.88,23.31-26.29,15L3073.16,1497c-14.41-8.31-26.17-28.68-26.12-45.23l.44-154.92c.05-16.56,11.88-23.3,26.29-15Z"/><polygon class="cls-7" points="3219.55 1554.57 3069.01 1467.66 3069.01 1314.1 3219.55 1401.01 3219.55 1554.57"/><polygon class="cls-3" points="3410.02 1542 3238.24 1441.03 3238.25 1416.73 3410.03 1517.7 3410.02 1542"/><polygon class="cls-8" points="3381.64 1560.65 3238.24 1477.47 3238.24 1465.32 3381.64 1548.5 3381.64 1560.65"/><polygon class="cls-8" points="3341.12 1597.62 3238.25 1538.24 3238.24 1526.08 3341.12 1585.47 3341.12 1597.62"/><polygon class="cls-8" points="3341.12 1568.3 3238.25 1508.92 3238.24 1496.76 3341.12 1556.15 3341.12 1568.3"/><polygon class="cls-3" points="3402.29 1658.7 3381.64 1631.13 3360.99 1634.86 3360.99 1588.31 3402.29 1612.17 3402.29 1658.7"/><path class="cls-4" d="M3295.23,979.75c0,26-23,34-51.15,17.72L2478.91,555.7c-28.14-16.24-51.17-50.8-51.16-76.8s23-34,51.16-17.72L3244.08,903C3272.21,919.2,3295.23,953.76,3295.23,979.75Z"/><path class="cls-3" d="M2913.81,1213l-1.58,557.38c0,8.57-3.07,14.62-8,17.47L2924.6,1776l6.78-4c4.91-2.84,8-8.89,8-17.47l1.58-557.37Z"/><path class="cls-4" d="M2913.73,1150.1,2245.06,765.72c-7.55-4.36-14.43-4.75-19.4-1.86q-13.57,7.88-27.13,15.77c5-2.89,11.85-2.51,19.4,1.86l668.66,384.37c15,8.68,27.27,29.9,27.22,47.15l27.14-15.76C2941,1180,2928.75,1158.77,2913.73,1150.1Z"/><path class="cls-7" d="M2886.59,1165.86c15,8.68,27.27,29.9,27.22,47.15l-1.58,557.38c0,17.26-12.37,24.28-27.39,15.61l-668.67-384.38c-15-8.66-27.26-29.88-27.21-47.14l1.58-557.38c.05-17.25,12.37-24.28,27.39-15.61Z"/><path class="cls-9" d="M2714.57,1385.08c0,104.64-73.46,147-164.08,94.72s-164.08-179.54-164.08-284.17,73.46-147,164.08-94.72S2714.57,1280.46,2714.57,1385.08Z"/><path class="cls-4" d="M2625.7,1312.64l-96.46-120.94c-4.66-5.86-9.08-9.9-13-12.17-4.16-2.39-7.75-2.79-10.48-1.2l-18.22,10.59c2.73-1.59,6.32-1.19,10.47,1.21,3.92,2.26,8.34,6.31,13,12.15l96.45,121c13.4,16.78,15.5,31.9,6.34,37.22l18.24-10.6C2641.2,1344.54,2639.09,1329.42,2625.7,1312.64Z"/><path class="cls-3" d="M2498,1190.13c3.92,2.26,8.34,6.31,13,12.15l96.45,121c15.94,20,15.9,37.59-.11,39.14l-96.82,9.33a21.64,21.64,0,0,1-13-2.87c-9.47-5.47-16-17.94-15.93-33l.38-131.21C2482,1189.59,2488.54,1184.66,2498,1190.13Z"/><polygon class="cls-5" points="3649.36 1380.1 3649.37 1588.17 3531.1 1519.89 3531.09 1311.82 3649.36 1380.1"/><polygon class="cls-4" points="3634.54 1522.74 3545.93 1471.59 3545.93 1377.23 3634.54 1428.39 3634.54 1522.74"/><polygon class="cls-4" points="3634.54 1539.87 3634.54 1579.62 3545.92 1528.45 3545.92 1488.7 3634.54 1539.87"/><polygon class="cls-4" points="3634.54 1371.54 3634.54 1411.2 3545.92 1360.03 3545.92 1320.38 3634.54 1371.54"/><path class="cls-4" d="M2198.53,691.79c0,6.88-4.88,9.7-10.85,6.25L2061.13,625c-6-3.45-10.85-11.9-10.85-18.79V526.34c0-6.9,4.89-9.71,10.86-6.27l126.55,73.07c6,3.45,10.85,11.9,10.85,18.79Z"/><path class="cls-3" d="M2113.79,580.22c-4.26-5.34-7.75-5.05-7.74.65v35.18c0,5.7,3.49,10,7.75,9.58l25.78-2.57c4.25-.43,4.25-5.15,0-10.49Z"/><path class="cls-5" d="M2168.68,710.7c1.75,3.8.74,5.5-2.24,3.78l-84.07-48.54c-3-1.72-4-4.58-2.25-6.37l5.4-5.52c1.75-1.78,5.62-1.83,8.6-.11l60.56,35c3,1.73,6.86,6.25,8.6,10.05Z"/><path class="cls-5" d="M2056.57,844.62c-1.21-4.21-4.16-8.23-7.44-10.12l-72.82-42c-2-1.17-4-1.4-5.47-.66-9.36,4.73-13.28,30-18.2,67.91-1.17,9.1-2.59,20-4.11,28.69a39.7,39.7,0,0,0-8.31-6.53c-11.1-6.41-20.1-3-20.1,7.62s9,24.42,20.1,30.83c5.47,3.16,10.42,3.92,14,2.63a3.91,3.91,0,0,0,3.3-1.28c4.9-5.48,7.34-22.67,10.92-50.27,2.5-19.33,6.54-50.49,11.71-58.24l55.63,32.12c-4.26,11.71-7.09,31.29-10.35,56.47-1.18,9.1-2.59,20-4.12,28.69a39.72,39.72,0,0,0-8.3-6.53c-11.11-6.41-20.1-3-20.1,7.62s9,24.42,20.1,30.83c5.48,3.17,10.44,3.93,14.06,2.62a4,4,0,0,0,3.27-1.25c4.91-5.49,7.34-22.69,10.92-50.29,2.75-21.25,7.36-56.82,13.3-59.81C2057,852.41,2057.77,848.84,2056.57,844.62Z"/><path class="cls-6" d="M3230,1019.57c-28.18-16.27-51-55.85-50.95-88.21.05-16.09,5.75-27.42,14.93-32.76l-13,7.57c-9.18,5.33-14.88,16.67-14.92,32.76-.1,32.36,22.76,71.94,50.94,88.21,14.19,8.19,27.06,8.93,36.36,3.53l13-7.56C3257,1028.51,3244.16,1027.76,3230,1019.57Z"/><polygon class="cls-6" points="3268.62 1042.01 3281.64 1034.45 3328.26 1115.28 3315.25 1122.84 3268.62 1042.01"/><path class="cls-6" d="M3171.67,890.22l13-7.56c11.68-6.79,27.85-5.85,45.67,4.43,35.4,20.45,64.1,70.17,64,110.85-.05,16.37-4.76,28.82-12.7,36.51l-13,7.56c7.94-7.68,12.66-20.14,12.7-36.51.12-40.68-28.59-90.4-64-110.84C3199.51,884.38,3183.35,883.44,3171.67,890.22Z"/><path class="cls-7" d="M3268.62,1042l46.63,80.83L3302.8,1130l-46.48-80.58c-10.93,3.44-24.6,1.38-39.41-7.17-35.4-20.44-64.11-70.16-64-110.84s29-57.15,64.41-36.71,64.11,70.16,64,110.84C3281.28,1021.87,3276.56,1034.33,3268.62,1042ZM3217,1027.14c28.19,16.27,51.19,3.16,51.28-29.2s-22.76-72-50.95-88.24-51.18-3.16-51.27,29.23,22.76,71.94,50.94,88.21Z"/><path class="cls-6" d="M3403.79,1759.3l-397.42-229.46L2985.54,1542,3383,1771.4c38.89,22.45,62.29,67.57,62.21,96.35-.07,23.12-.07,23.71-.07,23.74l-.11,39.76,20.83-12.1.11-39.77s0-.62.07-23.74C3466.09,1826.86,3442.69,1781.75,3403.79,1759.3Z"/><path class="cls-4" d="M3383,1771.4c38.89,22.45,62.29,67.57,62.21,96.35-.07,23.12-.07,23.71-.07,23.74l-.11,39.76c-.93-2.53-18.59-50.56-75.34-83.32l-322-185.91c-40.57-23.42-62.3-58.17-62.19-96.36.06-23.11.07-23.68.07-23.71Z"/><path class="cls-3" d="M3046.77,1618.05c0,12.5-8.78,17.57-19.61,11.32s-19.61-21.46-19.61-34,8.77-17.58,19.6-11.32S3046.77,1605.53,3046.77,1618.05Z"/><polygon class="cls-7" points="3185.79 1687.12 3056.43 1612.43 3056.43 1603.65 3185.79 1678.32 3185.79 1687.12"/><polygon class="cls-8" points="3405.73 1843.45 3056.43 1641.79 3056.43 1628.99 3405.73 1830.67 3405.73 1843.45"/><path class="cls-6" d="M3451.57,2111.56l-397.43-229.45-20.83,12.1,397.43,229.46c38.89,22.45,62.29,67.56,62.21,96.34-.07,23.12-.07,23.71-.07,23.74l-.11,39.77,20.83-12.11.11-39.76s0-.62.07-23.74C3513.86,2179.12,3490.46,2134,3451.57,2111.56Z"/><path class="cls-4" d="M3430.74,2123.67c38.89,22.45,62.29,67.56,62.21,96.34-.07,23.12-.07,23.71-.07,23.74l-.11,39.77c-.93-2.54-18.59-50.57-75.34-83.33l-322-185.9c-40.57-23.42-62.3-58.18-62.19-96.37.06-23.12.07-23.68.07-23.71Z"/><path class="cls-3" d="M3094.54,1970.31c0,12.5-8.78,17.57-19.61,11.32s-19.61-21.46-19.61-34,8.77-17.58,19.6-11.32S3094.54,1957.8,3094.54,1970.31Z"/><polygon class="cls-7" points="3233.56 2039.38 3104.2 1964.7 3104.2 1955.91 3233.56 2030.59 3233.56 2039.38"/><polygon class="cls-8" points="3453.51 2195.71 3104.2 1994.05 3104.2 1981.25 3453.51 2182.93 3453.51 2195.71"/><path class="cls-6" d="M3064.34,1736.94c-20.48-11.82-36.71-12.43-47.5-6.16l-20.83,12.1c10.79-6.27,27-5.66,47.5,6.17l361.71,208.83s0,.62-.06,23.74c0,17.4-4.61,28.86-13.4,34l20.82-12.11c8.8-5.1,13.36-16.57,13.41-34,.06-23.11.06-23.7.06-23.73Z"/><path class="cls-4" d="M3043.51,1749.05c-38.89-22.46-62.48-4.47-62.55,24.34-.07,23.11-.07,23.7-.07,23.74l-.12,39.72.19-.27-.19.27,19.84-11.52c11.8-2,29.65.3,55.73,15.36L3342.63,2006c40.57,23.43,62.42,13.84,62.53-24.35.06-23.12.06-23.7.06-23.74Zm-59.42,84c-.38.34-.72.68-1,1C2983.37,1833.73,2983.71,1833.39,2984.09,1833.05Zm-2.71,3c-.14.18-.25.34-.34.47C2981.13,1836.34,2981.24,1836.18,2981.38,1836Zm1.46-1.72c-.24.25-.45.5-.66.72Zm-.8.89-.59.73C2981.62,1835.68,2981.81,1835.44,2982,1835.17Zm5.16-4.6c.52-.36,1.09-.72,1.69-1.07C2988.29,1829.85,2987.72,1830.21,2987.2,1830.57Zm-3,2.39c.34-.32.73-.65,1.13-1C2984.91,1832.31,2984.52,1832.64,2984.18,1833Zm1.5-1.27c.39-.3.8-.62,1.25-.93C2986.48,1831.07,2986.07,1831.39,2985.68,1831.69Z"/><path class="cls-3" d="M3045.2,1794.38c0,12.21-8.56,17.15-19.12,11s-19.12-20.92-19.12-33.12,8.56-17.14,19.12-11S3045.2,1782.19,3045.2,1794.38Z"/><polygon class="cls-7" points="3195.87 1866.94 3054.63 1785.52 3054.63 1776.95 3195.87 1858.36 3195.87 1866.94"/><polygon class="cls-8" points="3352.18 1985.81 3054.63 1814.15 3054.63 1801.67 3352.19 1973.33 3352.18 1985.81"/><path class="cls-4" d="M2177.82,1460.55c0,32.79-23,46.08-51.42,29.69S2075,1434,2075,1401.18s23-46.08,51.41-29.68S2177.82,1427.76,2177.82,1460.55Z"/><path class="cls-6" d="M2367.89,1560.26l-20.56-25.76a10.82,10.82,0,0,0-2.78-2.61,2.21,2.21,0,0,0-2.24-.25l-8.62,5a2.24,2.24,0,0,1,2.24.26,10.76,10.76,0,0,1,2.79,2.6l20.56,25.77c2.85,3.59,3.29,6.8,1.34,7.94l8.61-5C2371.18,1567.07,2370.75,1563.85,2367.89,1560.26Z"/><path class="cls-5" d="M2335.93,1536.9a10.76,10.76,0,0,1,2.79,2.6l20.56,25.77c3.39,4.26,3.38,8,0,8.36l-20.64,2a4.64,4.64,0,0,1-2.79-.62c-2-1.17-3.41-3.82-3.41-7l.09-28C2332.52,1536.78,2333.92,1535.74,2335.93,1536.9Z"/><path class="cls-6" d="M2382.53,1550.08a2.27,2.27,0,0,0-2.31-.22l-8.62,5a2.29,2.29,0,0,1,2.32.22,7.22,7.22,0,0,1,3.25,5.63l-.11,38.07a2.32,2.32,0,0,1-.95,2.1l8.61-5a2.28,2.28,0,0,0,1-2.09l.11-38.08A7.18,7.18,0,0,0,2382.53,1550.08Z"/><path class="cls-5" d="M2373.92,1555.08a7.22,7.22,0,0,1,3.25,5.63l-.11,38.07c0,2.07-1.48,2.91-3.27,1.87a7.17,7.17,0,0,1-3.24-5.63l.1-38.08C2370.66,1554.88,2372.13,1554.05,2373.92,1555.08Z"/><path class="cls-6" d="M2264.12,1481.71a2.3,2.3,0,0,0-2.31-.22l-8.61,5a2.26,2.26,0,0,1,2.31.24,7.11,7.11,0,0,1,3.23,5.6l-.11,38.08a2.29,2.29,0,0,1-1,2.1l8.61-5a2.3,2.3,0,0,0,.95-2.11l.11-38.08A7.14,7.14,0,0,0,2264.12,1481.71Z"/><path class="cls-5" d="M2255.51,1486.73a7.11,7.11,0,0,1,3.23,5.6l-.11,38.08c0,2.06-1.45,2.91-3.25,1.87a7.13,7.13,0,0,1-3.24-5.63l.1-38.07C2252.25,1486.52,2253.71,1485.68,2255.51,1486.73Z"/><path class="cls-6" d="M2302.08,1507.38a4.63,4.63,0,0,0-2.79-.62l-20.63,2a3.35,3.35,0,0,0-1.36.41l-8.62,5a3.45,3.45,0,0,1,1.37-.42l20.63-2a4.7,4.7,0,0,1,2.79.62c2,1.17,3.39,3.81,3.39,7l-.08,28c0,1.79-.45,2.91-1.19,3.34l8.61-5c.74-.43,1.18-1.56,1.19-3.35l.08-28C2305.48,1511.18,2304.09,1508.55,2302.08,1507.38Z"/><path class="cls-5" d="M2293.47,1512.38c2,1.17,3.39,3.81,3.39,7l-.08,28c0,3.19-1.4,4.25-3.41,3.09a10.83,10.83,0,0,1-2.79-2.61L2270,1522.1c-3.38-4.26-3.38-8,0-8.36l20.63-2A4.7,4.7,0,0,1,2293.47,1512.38Z"/><path class="cls-6" d="M2224.38,1462.52l-20.15-11.63c-1.8-1-3.45-1.14-4.63-.45l-8.62,5c1.19-.69,2.83-.6,4.64.45l20.15,11.62a14.34,14.34,0,0,1,6.47,11.22l-.06,23.15c0,2-.74,3.47-1.9,4.16l8.61-5c1.17-.68,1.89-2.11,1.9-4.16l.07-23.15A14.34,14.34,0,0,0,2224.38,1462.52Z"/><path class="cls-5" d="M2215.77,1467.52a14.34,14.34,0,0,1,6.47,11.22l-.06,23.15c0,4.1-2.95,5.78-6.52,3.71L2195.51,1494a14.35,14.35,0,0,1-6.49-11.22l.07-23.15c0-4.1,2.94-5.78,6.53-3.7Z"/><path class="cls-6" d="M2122.27,1393.65c-2.13-1.23-4.05-1.34-5.44-.53l-8.62,5c1.39-.81,3.32-.7,5.44.53,4.19,2.41,7.62,8.34,7.6,13.16l-.11,40.37c0,2.39-.86,4.07-2.23,4.88l8.61-5c1.37-.8,2.23-2.49,2.23-4.88l.12-40.36A16.81,16.81,0,0,0,2122.27,1393.65Z"/><path class="cls-5" d="M2113.65,1398.65c4.19,2.41,7.62,8.34,7.6,13.16l-.11,40.37c0,4.82-3.45,6.77-7.65,4.36s-7.63-8.36-7.62-13.18L2106,1403C2106,1398.18,2109.44,1396.22,2113.65,1398.65Z"/><path class="cls-6" d="M2146.8,1407.81c-2.12-1.23-4.05-1.34-5.44-.53l-8.61,5c1.39-.8,3.32-.69,5.44.54a16.81,16.81,0,0,1,7.6,13.16l-.11,40.36c0,2.39-.87,4.09-2.23,4.88l8.61-5c1.37-.79,2.22-2.49,2.23-4.88l.11-40.37C2154.42,1416.16,2151,1410.23,2146.8,1407.81Z"/><path class="cls-5" d="M2138.19,1412.82a16.81,16.81,0,0,1,7.6,13.16l-.11,40.36c0,4.82-3.46,6.79-7.66,4.36s-7.63-8.36-7.61-13.17l.11-40.37C2130.53,1412.34,2134,1410.38,2138.19,1412.82Z"/><path class="cls-6" d="M2967.91,1881.87l-520.73-299.8c-8.14-4.7-15.44-5.38-20.16-2.63-1.86,1.07-3.72,2.16-5.58,3.24l-1.39.81-7,4c4.73-2.74,12-2.06,20.16,2.63L2954,1890c14.12,8.15,25.65,25.44,25.61,38.41,0,5.51-2.11,9.39-5.59,11.41l13.94-8.11c3.49-2,5.58-5.9,5.59-11.4C2993.55,1907.3,2982,1890,2967.91,1881.87Z"/><path class="cls-5" d="M2954,1890c14.12,8.15,25.65,25.44,25.61,38.41s-11.62,16.93-25.74,8.79L2433.1,1637.36c-14.12-8.14-25.65-25.43-25.61-38.42s11.63-16.92,25.74-8.77Z"/><polygon class="cls-3" points="2428.33 1607.38 2426.05 1606.06 2426.04 1614.54 2644.47 1740.65 2644.47 1732.17 2428.33 1607.38"/><path class="cls-4" d="M2955.48,1910.9,2643.7,1731.73a2.84,2.84,0,0,0-4.43,2.57,6.26,6.26,0,0,0,2.91,5L2954,1918.48a3.33,3.33,0,0,0,1.72.5,2.77,2.77,0,0,0,2.72-3A6.21,6.21,0,0,0,2955.48,1910.9Z"/><path class="cls-5" d="M3566.9,1759.85v87.8c0,7.57,5.24,16.8,11.65,20.49l135.94,78.49c6.41,3.7,11.65.53,11.65-7.05v-87.79Z"/><path class="cls-5" d="M3720.63,1809.68l-26.8-7.14-7.93-2.08-19.46-5.18-7.89-2.1L3639,1788l-7.93-2.09-19.43-5.2-7.93-2.08-19.46-5.19-7.93-2.12-9.46-2.49-3.64-17.67c-1.71-8.34,2-13.77,8.14-12.11l9.87,2.66,7.93,2.07,19.47,5.19,7.93,2.12,19.43,5.16,7.92,2.09,19.51,5.2,7.93,2.13,19.42,5.15,7.94,2.09,3.9,1c6.18,1.64,12.66,9.76,14.37,18.1Z"/><polygon class="cls-4" points="3712.9 1931.62 3577.74 1853.58 3577.74 1781.48 3712.9 1859.52 3712.9 1931.62"/><polygon class="cls-4" points="3698.75 1772.89 3693.84 1802.54 3685.9 1800.46 3690.81 1770.8 3698.75 1772.89"/><polygon class="cls-4" points="3671.39 1765.65 3666.44 1795.28 3658.55 1793.18 3663.46 1763.52 3671.39 1765.65"/><polygon class="cls-4" points="3643.95 1758.32 3639.04 1787.98 3631.11 1785.89 3636.03 1756.23 3643.95 1758.32"/><polygon class="cls-4" points="3616.59 1751.07 3611.68 1780.69 3603.75 1778.61 3608.66 1748.95 3616.59 1751.07"/><polygon class="cls-4" points="3589.2 1743.76 3584.29 1773.42 3576.36 1771.3 3581.27 1741.69 3589.2 1743.76"/></g></g></svg>