<svg width="1336" height="720" viewBox="0 0 1336 720" fill="none" xmlns="http://www.w3.org/2000/svg">
<rect width="1336" height="720" fill="#FBF6F0"/>
<path d="M830.452 522.168C930.216 522.168 1011.09 441.293 1011.09 341.529C1011.09 241.765 930.216 160.891 830.452 160.891C730.688 160.891 649.813 241.765 649.813 341.529C649.813 441.293 730.688 522.168 830.452 522.168Z" fill="#F9D8AD"/>
<path d="M1016.84 554.698H644.065V557H1016.84V554.698Z" fill="#F9D8AD"/>
<path d="M971.931 442.98H861.148V451.342H971.931V442.98Z" fill="#99583F"/>
<path d="M835.822 254.036L814.553 259.406C813.384 259.702 812.676 260.888 812.971 262.057L818.341 283.327C818.636 284.496 819.823 285.204 820.992 284.909L842.261 279.539C843.43 279.243 844.138 278.057 843.843 276.888L838.473 255.618C838.178 254.45 836.991 253.741 835.822 254.036Z" fill="#E8C395"/>
<path d="M831.811 261.823C831.039 261.576 830.2 261.636 829.472 261.993C828.585 262.475 827.703 263.478 827.079 264.231C826.165 263.867 824.917 263.4 823.909 263.397C823.097 263.429 822.33 263.774 821.769 264.36C820.422 265.694 820.253 267.783 820.96 269.428C821.668 271.073 823.108 272.333 824.656 273.349C826.205 274.365 828.633 275.287 830.139 276.355C830.955 274.698 832.665 272.738 833.537 271.108C834.408 269.479 835.085 267.685 834.929 265.901C834.772 264.117 833.63 262.359 831.811 261.823Z" fill="#F9D8AD"/>
<path d="M834.294 409.771L820.486 411.884C819.727 412 819.207 412.709 819.323 413.468L821.435 427.273C821.551 428.031 822.26 428.552 823.019 428.436L836.827 426.323C837.585 426.207 838.106 425.498 837.99 424.74L835.878 410.934C835.761 410.176 835.052 409.655 834.294 409.771Z" fill="#E8C395"/>
<path d="M831.288 414.447C830.814 414.242 830.278 414.229 829.795 414.411C829.204 414.664 828.587 415.245 828.14 415.675C827.582 415.387 826.821 415.015 826.182 414.952C825.666 414.922 825.159 415.094 824.767 415.432C823.833 416.19 823.6 417.509 823.949 418.595C824.297 419.681 825.134 420.568 826.053 421.303C826.973 422.039 828.456 422.774 829.338 423.542C829.957 422.531 831.152 421.402 831.808 420.422C832.465 419.441 832.998 418.347 833.006 417.208C833.014 416.069 832.407 414.896 831.288 414.447Z" fill="#F9D8AD"/>
<path d="M944.169 163.621L930.459 160.961C929.706 160.815 928.976 161.307 928.83 162.061L926.17 175.771C926.024 176.524 926.516 177.254 927.27 177.4L940.98 180.06C941.733 180.206 942.462 179.714 942.609 178.96L945.269 165.25C945.415 164.497 944.923 163.767 944.169 163.621Z" fill="#E8C395"/>
<path d="M939.752 167.032C939.375 166.68 938.875 166.487 938.358 166.497C937.719 166.532 936.941 166.873 936.372 167.138C935.945 166.681 935.362 166.075 934.77 165.799C934.294 165.599 933.759 165.591 933.277 165.777C932.14 166.181 931.478 167.338 931.441 168.477C931.403 169.617 931.893 170.734 932.509 171.737C933.126 172.74 934.278 173.929 934.856 174.953C935.776 174.22 937.284 173.548 938.234 172.848C939.184 172.148 940.053 171.294 940.445 170.226C940.836 169.157 940.657 167.833 939.752 167.032Z" fill="white"/>
<path d="M652.121 349.417L634.649 352.52C633.689 352.691 633.048 353.607 633.219 354.568L636.322 372.04C636.492 373 637.409 373.64 638.369 373.47L655.842 370.367C656.802 370.196 657.442 369.28 657.272 368.319L654.169 350.847C653.998 349.887 653.081 349.247 652.121 349.417Z" fill="#F9D8AD"/>
<path d="M648.441 355.455C647.833 355.21 647.153 355.21 646.544 355.455C645.801 355.794 645.028 356.551 644.483 357.125C643.765 356.776 642.787 356.329 641.971 356.269C641.32 356.25 640.686 356.483 640.203 356.92C639.038 357.931 638.783 359.596 639.258 360.963C639.733 362.329 640.822 363.431 642.014 364.34C643.207 365.25 645.109 366.134 646.264 367.084C647.022 365.793 648.502 364.305 649.295 363.042C650.089 361.779 650.743 360.371 650.72 358.921C650.697 357.471 649.879 355.991 648.441 355.455Z" fill="white"/>
<path d="M824.99 364.227L794.064 355.912C793.248 355.693 792.552 355.158 792.13 354.425C791.708 353.693 791.594 352.823 791.813 352.006L800.128 321.081C800.236 320.676 800.423 320.298 800.678 319.966C800.933 319.634 801.251 319.356 801.613 319.146C801.975 318.937 802.376 318.802 802.79 318.747C803.205 318.693 803.627 318.721 804.031 318.83L834.957 327.144C835.773 327.364 836.469 327.898 836.891 328.631C837.313 329.363 837.427 330.233 837.208 331.05L828.896 361.976C828.676 362.792 828.142 363.488 827.409 363.91C826.677 364.332 825.807 364.446 824.99 364.227V364.227Z" fill="#E8C395"/>
<path d="M824.313 334.19C823.507 333.369 822.385 332.755 821.213 332.74C819.74 332.72 817.911 333.374 816.567 333.887C815.66 332.77 814.404 331.285 813.121 330.565C812.11 329.989 810.822 329.958 809.71 330.267C807.042 331.004 805.339 333.551 805.072 336.146C804.804 338.74 805.736 341.38 806.987 343.778C808.237 346.175 810.67 349.083 811.827 351.514C814.05 349.998 817.613 348.694 819.897 347.247C822.18 345.799 824.308 343.993 825.392 341.605C826.475 339.218 826.251 336.161 824.313 334.19Z" fill="white"/>
<path d="M868.232 211.409L819.639 223.551C819.004 223.71 818.344 223.742 817.697 223.646C817.049 223.55 816.427 223.327 815.866 222.99C815.305 222.653 814.816 222.209 814.426 221.684C814.036 221.158 813.754 220.56 813.596 219.925L801.454 171.33C801.295 170.695 801.263 170.035 801.359 169.388C801.455 168.741 801.678 168.119 802.015 167.558C802.351 166.997 802.795 166.508 803.321 166.119C803.847 165.729 804.444 165.447 805.079 165.289L853.687 153.145C854.969 152.829 856.325 153.035 857.455 153.717C858.585 154.4 859.398 155.503 859.715 156.785L871.86 205.378C872.176 206.659 871.972 208.013 871.292 209.143C870.612 210.274 869.512 211.088 868.232 211.409V211.409Z" fill="#E8C395"/>
<path d="M844.476 170.87C842.748 170.365 840.749 170.365 839.135 171.241C837.114 172.335 835.093 174.619 833.655 176.34C831.568 175.503 828.724 174.43 826.422 174.417C824.588 174.417 822.817 175.337 821.534 176.602C818.449 179.634 818.052 184.409 819.659 188.168C821.266 191.928 824.545 194.815 828.077 197.142C831.609 199.469 837.144 201.586 840.575 204.029C842.452 200.252 846.34 195.78 848.362 192.067C850.383 188.353 851.919 184.26 851.57 180.192C851.221 176.125 848.634 172.1 844.476 170.87Z" fill="white"/>
<path d="M731.533 196.215C730.057 191.215 730.221 185.874 732.001 180.974C733.781 176.074 737.083 171.873 741.423 168.985C745.764 166.098 750.915 164.676 756.122 164.928C761.329 165.18 766.318 167.092 770.36 170.385C774.401 173.678 777.282 178.178 778.581 183.227C779.879 188.276 779.527 193.608 777.576 198.442C775.625 203.276 772.177 207.359 767.738 210.092C763.299 212.825 758.101 214.064 752.906 213.63L746.984 222.757L747.932 212.682C744.043 211.519 740.507 209.404 737.643 206.529C734.78 203.653 732.679 200.108 731.533 196.215V196.215Z" fill="#FFE9D2"/>
<path d="M955.904 205.396H897.066C893.677 205.396 890.929 208.143 890.929 211.533V224.655C890.929 228.044 893.677 230.791 897.066 230.791H955.904C959.293 230.791 962.04 228.044 962.04 224.655V211.533C962.04 208.143 959.293 205.396 955.904 205.396Z" fill="#FFE9D2"/>
<path d="M926.484 221.691C928.471 221.691 930.081 220.081 930.081 218.094C930.081 216.107 928.471 214.496 926.484 214.496C924.497 214.496 922.886 216.107 922.886 218.094C922.886 220.081 924.497 221.691 926.484 221.691Z" fill="#E8C395"/>
<path d="M910.325 221.691C912.312 221.691 913.922 220.081 913.922 218.094C913.922 216.107 912.312 214.496 910.325 214.496C908.338 214.496 906.727 216.107 906.727 218.094C906.727 220.081 908.338 221.691 910.325 221.691Z" fill="#E8C395"/>
<path d="M942.643 221.691C944.629 221.691 946.24 220.081 946.24 218.094C946.24 216.107 944.629 214.496 942.643 214.496C940.656 214.496 939.045 216.107 939.045 218.094C939.045 220.081 940.656 221.691 942.643 221.691Z" fill="#E8C395"/>
<path d="M680.461 509.887C684.116 482.782 689.449 455.931 696.431 429.487C696.868 427.832 697.333 426.136 698.356 424.762C700.22 422.258 703.497 421.356 706.529 420.611C706.349 421.339 706.208 421.943 706.023 422.67C704.002 422.253 701.963 423.218 700.465 424.659C698.967 426.099 698.055 428.026 697.386 429.987C696.607 432.261 696.135 434.638 695.663 437C694.036 445.14 692.408 453.281 690.779 461.423C687.548 477.592 684.306 493.814 682.977 510.253C682.303 510.163 681.153 509.978 680.461 509.887Z" fill="#357092"/>
<path d="M677.215 512.924C676.916 512.998 676.606 513.007 676.304 512.952C676.001 512.897 675.714 512.778 675.461 512.603C676.502 475.785 676.95 438.957 676.805 402.12C677.101 401.772 677.478 401.261 677.877 401.481C678.155 438.819 678.208 475.599 677.215 512.924Z" fill="#357092"/>
<path d="M671.331 514.157L661.983 443.799C661.73 441.944 661.455 440.009 660.349 438.493C659.242 436.977 657.016 436.123 655.442 437.129C655.078 437.086 654.252 437.21 653.959 437.43C653.838 436.722 653.707 436.017 653.593 435.312C656.182 433.663 659.831 435.095 661.637 437.586C663.443 440.077 663.883 443.261 664.267 446.305C667.152 469.115 670.036 491.926 672.917 514.738C672.245 514.97 671.887 514.596 671.331 514.157Z" fill="#357092"/>
<path d="M692.477 423.491C694.521 424.628 695.837 426.798 696.431 429.049C697.024 431.3 696.981 433.69 696.878 436.027C696.789 438.003 696.6 440.138 695.286 441.618C694.554 438.627 692.217 436.313 689.91 434.292C688.687 433.21 687.406 432.134 685.868 431.566C684.329 430.997 682.487 431.023 681.207 432.033C681.985 433.339 683.89 433.107 685.375 433.428C687.702 433.933 689.281 436.03 690.645 437.975C692.009 439.921 693.424 442.018 693.538 444.375C693.564 445.497 693.389 446.616 693.02 447.677C692.276 450.019 691.051 452.18 689.425 454.023C688.889 449.147 686.042 445.519 681.997 442.748L686.224 453.647C686.828 455.208 687.444 456.843 687.28 458.507C687.007 461.287 684.713 463.351 682.576 465.132C682.351 460.837 680.979 456.613 679.039 452.785C676.624 455.733 676.788 460.476 679.4 463.25C680.158 464.066 681.201 465.018 680.835 466.087C680.648 466.627 680.133 466.979 679.648 467.287C678.806 467.827 677.963 468.366 677.121 468.904C676.779 469.163 676.382 469.341 675.962 469.427C675.421 469.495 674.896 469.262 674.403 469.033C671.876 467.854 669.35 466.66 666.824 465.453C666.471 465.315 666.157 465.095 665.907 464.811C665.48 464.232 665.687 463.383 666.119 462.805C666.551 462.226 667.167 461.817 667.655 461.289C669.38 459.404 668.931 455.984 666.776 454.614C666.679 454.535 666.566 454.479 666.445 454.451C666.323 454.422 666.197 454.422 666.076 454.45C665.922 454.527 665.793 454.647 665.707 454.796C664.471 456.529 663.447 458.403 662.658 460.38C661.403 459.886 660.264 459.137 659.315 458.179C658.942 457.855 658.677 457.423 658.557 456.944C658.519 456.529 658.587 456.112 658.754 455.731C660.551 450.751 665.442 447.437 667.488 442.556C665.007 443.003 662.455 443.751 660.644 445.501C658.092 447.967 657.569 451.802 657.193 455.329C654.979 452.84 653.417 449.841 652.645 446.6C652.514 446.04 652.405 445.441 652.592 444.895C652.799 444.289 653.327 443.857 653.833 443.46L667.352 432.819C667.099 432.238 666.594 431.611 665.992 431.808L658.86 434.201C657.936 434.512 656.996 434.83 656.19 435.378C654.353 436.626 653.489 438.834 652.375 440.757C652.305 440.908 652.19 441.034 652.047 441.118C651.63 441.305 651.289 440.762 651.14 440.325C650.526 438.39 649.907 436.368 650.205 434.36C650.422 432.9 651.112 431.558 651.809 430.257C653.679 426.755 655.669 423.324 657.782 419.962C658.302 419.133 658.848 418.292 659.644 417.726C660.391 417.243 661.238 416.938 662.122 416.834C666.28 416.187 671.081 418.35 672.26 422.392C672.746 420.809 673.425 419.292 674.282 417.875C674.683 417.203 675.191 416.516 675.941 416.286C676.332 416.192 676.735 416.165 677.134 416.205L680.853 416.372C683.402 416.488 686.226 416.723 687.97 418.588C689.114 419.803 691.022 422.683 692.477 423.491Z" fill="#8BC3C0"/>
<path d="M685.953 397.234C685.974 399.145 685.578 401.036 684.793 402.778C684.007 404.519 682.852 406.069 681.406 407.318C679.961 408.567 678.26 409.485 676.423 410.01C674.586 410.534 672.657 410.652 670.77 410.354C672.593 408.888 674.208 407.179 675.57 405.276C673.205 405.69 671.608 407.865 669.542 409.088C669.17 409.345 668.731 409.487 668.279 409.497C667.735 409.47 667.268 409.126 666.826 408.815C664.08 406.91 660.844 405.834 657.504 405.715C660.95 403.928 664.05 401.542 666.662 398.669C665.535 398.247 664.252 398.621 663.231 399.258C662.21 399.895 661.361 400.774 660.391 401.481C658.398 402.936 655.964 403.66 653.499 403.533C651.498 403.421 649.457 401.739 648.35 400.076C647.244 398.414 646.625 396.469 646.031 394.554C647.567 395.09 649.201 395.288 650.821 395.133C652.441 394.978 654.008 394.475 655.414 393.657C653.426 392.626 651.061 394.246 648.83 394.066C646.852 393.909 645.23 392.298 644.455 390.484C643.679 388.67 643.596 386.626 643.52 384.645C643.489 383.887 643.462 383.129 643.434 382.371C646.886 382.435 650.332 382.696 653.754 383.152C654.264 383.188 654.762 383.327 655.217 383.559C655.894 383.96 656.258 384.721 656.584 385.436L658.691 390.064C658.974 390.681 659.674 391.13 660.305 391.375C660.416 390.547 660.528 389.721 660.641 388.892C660.77 387.924 660.871 386.843 660.28 386.067C659.856 385.512 659.07 385.042 659.221 384.357C661.591 384.471 663.855 385.317 666.076 386.156C666.834 386.446 667.637 386.76 668.15 387.394C668.494 387.882 668.742 388.432 668.877 389.013C669.201 390.091 669.526 391.169 669.853 392.247C670.029 392.836 670.252 393.48 670.79 393.763C671.71 391.909 672.255 389.706 671.548 387.76C674.649 388.514 677.652 389.624 680.499 391.067C681.559 391.565 682.54 392.218 683.407 393.005C684.625 394.172 685.933 395.547 685.953 397.234Z" fill="#8BC3C0"/>
<path d="M660.417 440.936C658.565 438.779 656.564 436.52 653.848 435.699C651.728 435.06 649.449 435.388 647.279 435.8C643.74 436.471 640.244 437.356 636.812 438.45C638.141 438.751 639.359 439.883 639.366 441.245C639.374 442.606 637.77 443.821 636.587 443.167C635.691 442.662 635.413 441.49 634.604 440.866C633.594 440.077 632.133 440.418 630.903 440.795C627.785 441.75 624.259 443.084 623.177 446.158C625.644 445.946 628.126 446.004 630.58 446.33C631.575 446.462 632.798 446.876 632.879 447.876C632.967 448.93 631.648 449.541 630.605 449.478C628.134 449.334 625.976 447.346 623.511 447.52C623.086 447.521 622.676 447.674 622.354 447.95C622.01 448.291 621.922 448.804 621.848 449.281C621.373 452.581 621.059 455.898 620.906 459.233C620.891 459.553 620.989 459.9 621.31 459.92C622.758 460.011 624.18 459.533 625.625 459.415C627.07 459.296 628.74 459.644 629.476 460.898C629.626 461.12 629.694 461.388 629.668 461.655C629.604 462.042 629.261 462.312 628.925 462.512C628.009 463.047 626.982 463.36 625.924 463.427C624.866 463.494 623.807 463.313 622.831 462.898C622.023 462.547 621.277 462.032 620.418 461.827C620.304 461.785 620.182 461.77 620.06 461.782C619.939 461.794 619.822 461.834 619.719 461.898C619.552 462.074 619.461 462.308 619.466 462.55C619.112 465.759 618.348 468.91 617.192 471.925C616.995 472.431 616.826 473.11 617.253 473.456C623.915 478.85 634.306 478.575 641.559 474.007C640.232 468.796 638.513 463.692 636.416 458.74C638.828 459.01 640.711 460.88 642.38 462.643C643.116 463.419 643.863 464.212 644.333 465.17C645.374 467.307 644.872 469.839 644.346 472.155C645.948 470.584 648.371 469.909 649.629 468.052C650.66 466.537 650.665 464.543 650.518 462.706C650.224 459.019 649.476 455.381 648.292 451.876C649.611 451.474 650.692 452.967 651.167 454.263C652.359 457.519 652.798 461.003 652.451 464.452C655.982 462.2 659.004 459.234 661.324 455.746C661.984 454.819 662.5 453.796 662.855 452.714C663.433 450.744 663.107 448.622 662.584 446.636C662.14 444.931 661.561 442.27 660.417 440.936Z" fill="#8BC3C0"/>
<path d="M688.965 456.59C688.323 456.143 687.598 455.711 686.818 455.769C686.188 455.817 685.63 456.181 685.13 456.565C682.024 458.943 679.979 462.448 679.439 466.323C678.898 470.197 679.905 474.129 682.242 477.266C684.988 480.955 689.24 483.145 692.876 485.957C696.062 488.424 698.812 491.408 701.011 494.784C701.236 495.128 701.483 495.499 701.872 495.626C702.421 495.805 702.984 495.426 703.401 495.029C705.063 493.448 706.031 491.29 706.958 489.193L710.712 480.689C711.647 478.572 712.602 476.357 712.481 474.045C712.403 472.388 711.779 470.809 711.129 469.28C708.699 463.548 705.718 457.873 701.087 453.707C700.667 453.328 700.203 452.949 699.644 452.858C698.346 452.649 697.388 454.013 696.842 455.208C696.239 456.532 695.45 460.872 693.899 460.766C692.633 460.675 690.125 457.391 688.965 456.59Z" fill="#8BC3C0"/>
<path d="M708.454 415.713C706.327 419.485 702.176 421.895 700.445 425.866C699.515 427.999 699.379 430.381 699.255 432.703C699.164 434.451 699.195 436.492 700.574 437.569C701.797 435.891 701.716 433.638 701.761 431.561C701.807 429.484 702.176 427.137 703.886 425.96C704.566 428.082 704.045 430.391 703.346 432.506C702.646 434.62 701.756 436.727 701.696 438.953C701.635 441.179 702.643 443.624 704.707 444.458C705.128 441.249 705.785 438.076 706.673 434.964C706.862 434.304 707.075 433.62 707.542 433.117C708.009 432.614 708.805 432.359 709.404 432.693C709.258 434.163 708.919 435.607 708.393 436.988C707.426 439.514 705.839 441.836 705.233 444.483C704.626 447.131 705.394 450.426 707.893 451.494C708.321 449.473 708.747 447.452 709.171 445.431C710.341 447.452 709.763 449.978 709.603 452.298C709.444 454.617 710.152 457.494 712.405 458.108C712.122 454.581 712.525 451.033 713.593 447.659C715.109 450.756 715.682 453.925 714.525 457.174C714.151 458.227 713.631 459.273 713.661 460.39C713.724 462.585 715.801 464.109 717.663 465.276C718.587 464.051 719.813 463.075 720.763 461.868C721.713 460.66 722.39 459.071 721.955 457.598C721.725 456.817 721.21 456.153 720.945 455.385C720.598 454.374 720.705 453.293 720.768 452.237C720.958 449.059 720.732 445.87 720.096 442.75C721.011 444.115 721.794 445.563 722.435 447.076C722.913 448.207 723.314 449.445 723.057 450.645C722.925 451.259 722.625 451.828 722.486 452.442C722.119 454.041 722.875 455.663 723.612 457.131C725.478 454.168 726.769 450.88 727.417 447.439C727.736 445.739 726.927 443.65 725.932 442.24L718.858 432.197C721.889 432.076 724.823 434.378 725.426 437.341C725.565 438.016 725.598 438.713 725.783 439.362C726.205 440.878 727.372 442.048 728.493 443.152C729.454 440.034 730.414 436.679 729.428 433.572C728.579 430.886 726.359 428.807 723.857 427.508C721.356 426.21 718.572 425.588 715.821 424.982C717.814 423.297 720.904 423.886 723.148 425.217C725.391 426.548 727.248 428.501 729.623 429.588C728.692 426.397 727.428 423.313 725.851 420.386C725.623 419.967 725.361 419.52 724.919 419.341C724.55 419.227 724.157 419.216 723.782 419.308L715.086 420.644C715.306 419.035 716.867 417.865 718.474 417.612C720.081 417.36 721.702 417.893 723.185 418.55C722.561 416.781 721.02 415.485 719.32 414.722C717.62 413.959 715.75 413.669 713.906 413.388C713.214 413.28 712.17 413.517 712.337 414.202C711.443 415.753 710.695 417.827 710.9 419.608C711.006 420.541 711.268 421.455 711.291 422.387C711.314 423.32 711.038 424.338 710.306 424.914C710.02 423.317 709.735 421.71 709.775 420.088C709.795 419.313 709.889 418.535 709.775 417.767C709.624 416.934 709.149 416.195 708.454 415.713V415.713Z" fill="#8BC3C0"/>
<path d="M711.496 504.273H650.139V516.906H711.496V504.273Z" fill="#99583F"/>
<path d="M707.961 516.906H653.676L660.717 555.307H700.92L707.961 516.906Z" fill="#99583F"/>
<path d="M653.676 516.906L707.398 519.973L707.961 516.906H653.676Z" fill="#5F130D"/>
<path d="M965.133 482.756C964.691 481.387 966.416 477.814 966.901 476.458C967.661 474.29 968.487 472.161 969.38 470.071C970.291 467.942 971.268 465.859 972.31 463.821C973.197 462.09 974.961 460.006 975.491 458.103C974.274 462.487 972.783 466.791 971.027 470.988C969.359 474.947 967.535 479.421 965.133 482.756Z" fill="#357092"/>
<path d="M959.264 473.474C959.145 474.106 955.851 473.901 955.285 473.931C948.753 474.293 942.23 474.799 935.715 475.447C939.176 475.101 942.655 473.722 946.142 473.274C949.337 472.863 952.558 472.679 955.78 472.724C956.308 472.739 959.463 472.398 959.264 473.474Z" fill="#357092"/>
<path d="M926.529 432.902C929.376 434.156 932.008 435.852 934.325 437.927C935.488 438.958 936.938 440.143 937.819 441.555C937.887 441.664 937.95 441.776 938.006 441.891C938.043 441.872 938.085 441.865 938.125 441.872C938.166 441.879 938.203 441.899 938.231 441.929C938.829 442.434 939.419 442.958 940 443.501L939.77 442.864L940.022 443.331L940.088 443.584L940.217 443.7L940.022 443.339L936.528 430.169C938.947 434.478 940.387 439.267 940.748 444.195C941.927 445.295 943.071 446.438 944.181 447.624C943.676 445.302 943.575 442.715 943.276 440.335C942.986 438.006 942.988 435.06 942.319 432.862C943.067 435.327 943.607 437.851 943.936 440.406C944.214 442.578 944.694 445.527 944.259 447.705C945.41 448.932 946.53 450.203 947.619 451.517C947.619 451.105 947.708 450.683 947.748 450.287C947.75 450.27 947.75 450.253 947.748 450.236C946.811 449.023 948.112 436.53 947.902 435.189C948.137 436.705 949.436 449.311 948.079 450.274C948.079 450.367 948.067 450.463 948.062 450.557C948.059 451.009 948.018 451.461 947.938 451.906C948.714 452.851 949.472 453.817 950.212 454.804C950.232 454.693 950.249 454.581 950.265 454.47C950.305 454.157 950.343 453.846 950.388 453.536C950.439 448.445 951.417 442.995 951.874 437.96C952.077 440.963 952.015 443.978 951.689 446.969C951.51 448.788 951.533 452.555 950.633 454.271L950.611 454.523C950.59 454.776 950.583 455.029 950.563 455.281C951.533 456.582 952.472 457.915 953.38 459.281C953.42 459.126 953.463 458.977 953.496 458.831C953.519 458.737 953.541 458.644 953.562 458.553C953.309 455.807 954.244 452.133 954.726 449.516C955.029 447.869 955.381 446.238 955.782 444.625C956.07 443.458 957.045 441.429 956.995 440.259C957.121 443.67 956.844 447.084 956.169 450.431C955.888 451.919 955.115 457.954 953.842 458.871L953.827 458.945C953.779 459.197 953.746 459.48 953.695 459.751C954.677 461.241 955.624 462.765 956.535 464.323C956.578 464.164 956.624 464.008 956.664 463.856C956.725 463.623 956.785 463.391 956.848 463.161C956.848 459.766 957.76 455.963 958.364 452.674C958.71 450.81 959.094 448.957 959.516 447.116C959.852 445.656 960.78 443.551 960.78 442.063C960.797 445.985 960.459 449.9 959.769 453.76C959.432 455.68 959.003 457.572 958.483 459.435C958.195 460.478 957.887 462.492 957.096 463.245C957.051 463.497 957 463.725 956.947 463.965C956.894 464.205 956.846 464.498 956.78 464.765C957.467 465.944 958.133 467.148 958.776 468.376L958.862 468.54C958.913 468.383 958.963 468.227 959.008 468.075C959.044 467.961 959.077 467.848 959.112 467.737C960.166 459.811 962.472 451.911 965.241 444.686C964.612 446.325 964.62 448.894 964.274 450.688C963.879 452.719 963.421 454.73 962.899 456.719C961.992 460.175 960.949 463.73 959.582 466.979C959.483 467.428 959.37 467.873 959.256 468.315C959.198 468.532 959.147 468.757 959.092 468.985C959.67 470.101 960.23 471.231 960.772 472.375C960.817 472.235 960.86 472.099 960.901 471.966C960.939 471.832 960.979 471.698 961.022 471.567C961.085 469.909 961.843 467.906 962.268 466.317C962.786 464.376 963.341 462.452 963.932 460.544C964.524 458.636 965.154 456.747 965.825 454.877C966.416 453.217 967.593 451.226 967.881 449.468C967.19 453.63 966.244 457.746 965.049 461.792C964.463 463.778 963.82 465.734 963.119 467.661C962.712 468.777 962.275 470.781 961.35 471.521C961.297 471.754 961.242 471.986 961.181 472.218C961.121 472.451 961.075 472.676 961.02 472.906C961.683 474.322 962.319 475.759 962.927 477.216C962.916 477.178 962.906 477.14 962.899 477.102C962.647 475.98 963.819 473.115 964.122 472.004C965.027 468.656 966.133 465.366 967.434 462.151C968.079 460.559 968.769 458.998 969.503 457.469C970.092 456.241 971.431 454.566 971.704 453.212C970.903 457.16 969.867 461.056 968.601 464.879C967.501 468.201 966.221 471.461 964.766 474.644C964.514 475.192 963.634 477.648 963.142 477.519C963.142 477.567 963.127 477.615 963.116 477.66C964.319 480.584 965.414 483.573 966.401 486.627C968.227 482.402 970.112 478.241 972.227 474.224C973.32 472.148 974.457 470.107 975.637 468.103C976.683 466.334 978.416 464.414 979.154 462.441C975.999 470.816 971.936 479.067 966.949 486C966.904 486.134 966.868 486.275 966.815 486.407C966.739 486.584 966.653 486.755 966.562 486.927L966.517 487.026C967.093 488.85 967.628 490.694 968.121 492.559C968.212 492.382 968.308 492.207 968.402 492.031C968.495 491.854 968.551 491.735 968.629 491.586C968.174 490.848 970.236 488.208 970.635 487.571C972.552 484.526 974.562 481.579 976.666 478.729C977.717 477.304 978.789 475.905 979.884 474.533C980.779 473.408 982.466 472.062 983.063 470.692C981.526 474.229 979.722 477.644 977.666 480.907C975.894 483.718 973.924 486.4 971.769 488.931C971.337 489.436 969.667 491.864 968.872 491.75C968.793 491.904 968.712 492.056 968.634 492.207C968.503 492.46 968.382 492.74 968.232 492.996C968.569 494.274 968.883 495.559 969.172 496.851C969.309 496.709 969.453 496.573 969.589 496.434C969.726 496.295 969.875 496.128 970.024 495.977C969.995 495.955 969.969 495.93 969.948 495.901C969.556 495.328 972.282 493.549 972.727 493.178C975.163 491.155 977.485 489 979.685 486.723C981.777 484.555 984.328 482.205 985.973 479.487C984.162 482.493 982.073 485.323 979.735 487.94C977.749 490.165 975.569 492.209 973.222 494.049C972.8 494.38 971.201 495.893 970.37 496.035C970.168 496.288 969.928 496.505 969.718 496.727C969.564 496.889 969.412 497.063 969.253 497.232C969.642 498.977 969.994 500.734 970.309 502.503C971.514 509.283 972.26 516.309 971.825 523.26C971.797 523.737 971.264 523.729 971.231 523.26C970.799 517.181 970.36 511.102 969.41 505.105C969 502.523 968.51 499.963 967.939 497.427C967.687 497.285 967.416 497.106 967.181 496.952L967.04 496.864C962.907 496.982 958.627 496.149 954.486 495.914C952.327 495.789 950.168 495.691 948.008 495.621C946.167 495.56 943.714 494.986 941.91 495.482C946.294 494.272 950.842 493.76 955.386 493.966C956.901 494.034 966.221 494.666 967.121 496.517L967.237 496.578C967.427 496.677 967.626 496.773 967.823 496.876C967.51 495.514 967.173 494.16 966.813 492.816C966.641 492.705 966.469 492.596 966.307 492.498C966.252 493.776 963.334 492.442 962.803 492.301C959.367 491.375 955.92 490.518 952.463 489.731C949.287 489.009 945.659 487.614 942.43 487.647C946.038 487.612 949.653 487.597 953.248 487.981C956.348 488.312 959.446 488.931 962.409 490.123C963.015 490.376 965.441 491.098 966.12 491.929C966.306 491.997 966.486 492.082 966.656 492.182C966.242 490.666 965.8 489.158 965.33 487.657C965.191 487.21 965.044 486.768 964.9 486.326C964.45 486.245 964.003 486.073 963.569 485.962L963.164 485.853C954.736 485.186 945.962 486.061 937.559 486.073C946.351 481.637 955.171 483.799 964.087 485.765C964.309 485.8 964.536 485.836 964.759 485.884C964.365 484.705 963.952 483.526 963.521 482.347C963.199 482.216 962.866 482.117 962.525 482.051C962.475 482.051 962.422 482.051 962.369 482.051C962.363 482.119 962.349 482.186 962.328 482.251C962.076 482.968 958.473 482.481 957.824 482.476C950.916 482.418 944.004 482.324 937.107 482.306C944.219 480.654 951.556 480.193 958.819 480.94C959.299 480.99 961.679 480.904 962.255 481.639C962.624 481.638 962.99 481.701 963.336 481.826C962.817 480.445 962.276 479.076 961.712 477.718C961.555 477.691 961.401 477.655 961.252 477.632C961.045 477.6 960.838 477.572 960.63 477.534C957.023 478.292 952.799 477.883 949.196 478.095L936.286 478.853C944.259 475.783 953.304 474.891 961.494 477.198C960.521 474.901 959.482 472.65 958.377 470.445C957.539 470.224 956.686 470.063 955.825 469.965C955.681 469.965 955.537 469.95 955.391 469.95C955.118 472.122 949.272 471.503 948.089 471.587C944.861 471.814 941.579 472.284 938.347 472.276C940.265 471.324 954.201 466.185 955.328 469.343C956.309 469.399 957.273 469.633 958.17 470.036C957.265 468.254 956.321 466.505 955.338 464.791C954.797 464.731 954.254 464.704 953.711 464.707C953.607 464.707 953.503 464.707 953.397 464.723C953.807 466.041 951.081 466.178 950.482 466.322C948.754 466.736 947.022 467.13 945.288 467.504C941.692 468.277 938.086 468.958 934.469 469.548C935.925 469.31 937.663 467.974 939.088 467.403C940.642 466.778 942.229 466.238 943.842 465.786C945.169 465.415 952.334 463.007 953.243 464.397H953.567C954.109 464.398 954.651 464.443 955.186 464.53C954.379 463.136 953.548 461.767 952.692 460.423C951.997 460.246 951.272 460.225 950.568 460.362C950.085 463.224 934.545 465.584 933.262 466.519C936.006 464.511 938.993 462.859 942.152 461.602C943.355 461.127 949.853 458.318 950.512 459.892C950.512 459.917 950.53 459.94 950.537 459.963C951.194 459.866 951.865 459.919 952.498 460.119C951.718 458.902 950.916 457.706 950.093 456.532C949.893 456.246 949.689 455.961 949.486 455.678C949.209 455.65 948.933 455.615 948.658 455.595C943.655 459.685 936.531 461.678 930.735 462.909C933.631 460.751 936.546 458.586 939.692 457.075C942.241 455.855 945.568 454.632 948.372 455.188C948.648 455.188 948.924 455.218 949.193 455.276C948.137 453.824 947.043 452.414 945.909 451.044C945.742 451.153 945.56 451.264 945.371 451.363C945.073 453.361 932.024 458.593 931.223 459.526C933.128 457.266 935.393 455.336 937.926 453.813C938.936 453.212 944.262 449.996 945.252 451.014V451.029C945.434 450.981 945.613 450.941 945.78 450.911C945.162 450.163 944.535 449.428 943.898 448.705C943.327 448.92 942.738 449.066 942.157 449.233L942.028 449.271C942.15 449.978 939.833 450.83 939.098 451.156C937.009 452.085 934.931 453.052 932.863 454.056C931.531 454.703 927.893 455.632 927.037 457.007C928.939 453.957 931.726 451.903 934.651 450.61C936.218 449.92 939.409 448.23 941.066 448.67C941.327 448.727 941.576 448.829 941.804 448.97C941.948 448.937 942.09 448.901 942.228 448.864C942.718 448.733 943.206 448.586 943.701 448.485C942.933 447.618 942.151 446.769 941.356 445.939C940.921 446.028 940.481 446.091 940.038 446.128L939.752 446.171C939.017 446.81 937.984 446.985 937.125 447.146C931.976 448.104 926.799 449.064 921.592 448.958C924.44 447.168 927.602 445.937 930.91 445.33C933.024 444.948 938.489 443.814 940.146 445.721C940.447 445.678 940.753 445.635 941.053 445.618C940.043 444.568 939.018 443.546 937.979 442.551C937.456 442.722 935.632 441.636 935.056 441.371C931.844 439.885 928.684 438.246 925.576 436.454C924.061 435.58 922.557 434.67 921.067 433.723C920.287 433.228 919.51 432.723 918.737 432.208C918.283 431.904 917.153 430.783 916.643 430.78C920.048 430.809 923.412 431.531 926.529 432.902V432.902Z" fill="#357092"/>
<path d="M984.957 473.317C985.326 471.296 982.206 466.547 981.274 464.71C979.788 461.778 978.214 458.914 976.552 456.12C974.868 453.27 973.089 450.498 971.216 447.803C969.632 445.514 966.732 442.889 965.625 440.29C968.177 446.286 971.105 452.115 974.392 457.742C977.482 463.03 980.92 469.05 984.957 473.317Z" fill="#8BC3C0"/>
<path d="M991.539 459.038C991.824 459.91 996.463 458.998 997.271 458.937C1006.61 458.219 1015.96 457.714 1025.33 457.421C1020.36 457.58 1015.16 456.282 1010.12 456.302C1005.51 456.321 1000.91 456.668 996.344 457.34C995.596 457.429 991.049 457.547 991.539 459.038Z" fill="#8BC3C0"/>
<path d="M1030.35 395.279C1026.55 397.593 1023.14 400.492 1020.24 403.869C1018.79 405.551 1016.96 407.507 1015.97 409.679C1015.89 409.844 1015.82 410.013 1015.76 410.185C1015.71 410.164 1015.65 410.163 1015.59 410.18C1015.54 410.196 1015.49 410.231 1015.45 410.278C1014.7 411.12 1013.96 411.976 1013.23 412.845L1013.44 411.898L1013.18 412.607L1013.14 412.969L1012.98 413.158L1013.18 412.607L1015.66 393.258C1013.09 399.538 1011.93 406.754 1012.31 413.962C1010.86 415.74 1009.45 417.577 1008.09 419.472C1008.34 416.084 1008.02 412.398 1008 408.959C1007.97 405.599 1007.41 401.415 1007.95 398.171C1007.35 401.811 1007.06 405.494 1007.08 409.182C1007.08 412.319 1006.98 416.594 1007.99 419.606C1006.59 421.561 1005.24 423.575 1003.95 425.646C1003.86 425.065 1003.67 424.482 1003.53 423.926L1003.52 423.855C1004.62 421.958 1000.42 404.472 1000.46 402.527C1000.41 404.715 1000.95 422.862 1003.06 423.971C1003.08 424.105 1003.11 424.224 1003.14 424.37C1003.22 425.013 1003.37 425.646 1003.57 426.263C1002.64 427.75 1001.75 429.266 1000.88 430.81C1000.83 430.655 1000.78 430.501 1000.74 430.348C1000.62 429.913 1000.51 429.476 1000.39 429.044C999.356 421.829 996.943 414.28 995.334 407.219C995.614 411.519 996.271 415.786 997.297 419.972C997.893 422.519 998.56 427.867 1000.17 430.136C1000.2 430.254 1000.22 430.388 1000.25 430.497C1000.33 430.841 1000.38 431.197 1000.46 431.545C999.33 433.567 998.252 435.646 997.216 437.75C997.13 437.543 997.041 437.336 996.963 437.134C996.915 437.008 996.867 436.881 996.817 436.752C996.645 432.811 994.641 427.771 993.461 424.146C992.72 421.867 991.914 419.619 991.041 417.403C990.412 415.801 988.636 413.108 988.497 411.438C988.901 416.324 990.066 421.114 991.587 425.717C992.264 427.776 994.502 436.199 996.481 437.258C996.493 437.291 996.503 437.326 996.513 437.359C996.632 437.715 996.731 438.117 996.854 438.478C995.741 440.78 994.685 443.121 993.686 445.501C993.593 445.287 993.499 445.072 993.416 444.865C993.287 444.546 993.163 444.228 993.022 443.915C992.388 439.094 990.372 433.87 988.884 429.317C988.041 426.735 987.146 424.176 986.198 421.639C985.44 419.618 983.727 416.819 983.457 414.702C984.169 420.274 985.386 425.771 987.092 431.124C987.941 433.781 988.909 436.391 989.988 438.933C990.591 440.363 991.41 443.159 992.673 444.079C992.784 444.412 992.903 444.743 993.022 445.072C993.141 445.4 993.275 445.812 993.408 446.178C992.657 447.992 991.941 449.826 991.258 451.678L991.168 451.931C991.066 451.716 990.963 451.504 990.869 451.297C990.801 451.143 990.73 450.991 990.66 450.837C987.671 439.787 982.906 429.011 977.616 419.277C978.818 421.488 979.291 425.136 980.122 427.614C981.065 430.424 982.094 433.191 983.209 435.916C985.147 440.648 987.297 445.496 989.849 449.849C990.076 450.468 990.319 451.08 990.566 451.686C990.687 451.982 990.804 452.292 990.925 452.603C990.317 454.298 989.735 456.008 989.179 457.734C989.091 457.547 989.002 457.36 988.927 457.176C988.851 456.992 988.762 456.812 988.674 456.63C988.272 454.293 986.817 451.59 985.915 449.415C984.814 446.759 983.662 444.133 982.461 441.537C981.261 438.942 980.01 436.38 978.71 433.852C977.555 431.606 975.519 429.004 974.771 426.563C976.537 432.34 978.655 438.003 981.112 443.521C982.317 446.227 983.599 448.883 984.96 451.486C985.746 453.002 986.744 455.756 988.194 456.63C988.315 456.951 988.447 457.272 988.565 457.59C988.684 457.909 988.8 458.217 988.924 458.535C988.25 460.669 987.619 462.828 987.029 465.01C987.029 464.96 987.044 464.907 987.049 464.844C987.191 463.204 984.99 459.359 984.354 457.838C982.433 453.261 980.24 448.803 977.785 444.488C976.569 442.354 975.296 440.27 973.965 438.235C972.899 436.603 970.681 434.479 970.037 432.609C971.919 438.061 974.125 443.395 976.643 448.584C978.831 453.092 981.262 457.477 983.927 461.721C984.387 462.451 986.1 465.763 986.777 465.493C986.791 465.56 986.812 465.626 986.837 465.69C985.68 470.063 984.692 474.532 983.881 479.032C980.491 473.383 977.032 467.83 973.27 462.527C971.327 459.785 969.329 457.104 967.278 454.485C965.459 452.161 962.647 449.771 961.214 447.111C967.278 458.404 974.604 469.343 982.979 478.249C983.07 478.428 983.144 478.623 983.232 478.797C983.374 479.05 983.525 479.264 983.679 479.492L983.763 479.621C983.288 482.315 982.877 485.035 982.53 487.778C982.365 487.543 982.196 487.314 982.024 487.081C981.888 486.889 981.754 486.69 981.618 486.49C982.123 485.358 978.7 482.001 978.01 481.184C974.717 477.225 971.309 473.419 967.786 469.768C966.025 467.944 964.239 466.16 962.427 464.417C960.944 462.992 958.296 461.385 957.192 459.563C960.039 464.294 963.242 468.801 966.775 473.044C969.818 476.702 973.12 480.136 976.656 483.319C977.366 483.958 980.193 487.086 981.302 486.775C981.443 486.98 981.587 487.18 981.724 487.382C981.961 487.728 982.191 488.089 982.444 488.425C982.211 490.3 982.009 492.182 981.837 494.072C981.615 493.897 981.388 493.733 981.168 493.566C980.948 493.4 980.706 493.182 980.463 492.998C980.501 492.962 980.532 492.92 980.557 492.874C981.004 491.987 976.8 489.976 976.097 489.537C972.257 487.126 968.554 484.505 965.004 481.685C961.626 479.007 957.561 476.152 954.716 472.59C957.853 476.514 961.349 480.137 965.161 483.41C968.399 486.194 971.878 488.684 975.557 490.853C976.219 491.242 978.765 493.091 979.981 493.127C980.314 493.448 980.695 493.71 981.037 493.986C981.289 494.188 981.542 494.403 981.794 494.6C981.57 497.151 981.402 499.712 981.289 502.28C980.862 512.133 981.125 522.239 983.058 532.026C983.192 532.696 983.944 532.587 983.902 531.912C983.368 523.201 982.845 514.48 983.063 505.799C983.157 502.059 983.371 498.334 983.704 494.625C984.053 494.372 984.384 494.074 984.715 493.809L984.899 493.655C990.789 493.043 996.708 491.053 1002.54 489.939C1005.57 489.357 1008.62 488.812 1011.68 488.301C1014.28 487.867 1017.67 486.591 1020.31 486.955C1013.86 486.06 1007.3 486.188 1000.89 487.334C998.762 487.715 985.645 490.365 984.723 493.17L984.569 493.276C984.316 493.453 984.063 493.625 983.793 493.812C983.983 491.817 984.204 489.832 984.455 487.857C984.68 487.667 984.902 487.483 985.127 487.309C985.45 489.11 989.341 486.669 990.066 486.366C994.767 484.406 999.498 482.54 1004.26 480.77C1008.63 479.148 1013.51 476.475 1018.1 475.922C1012.98 476.551 1007.84 477.21 1002.81 478.433C998.474 479.489 994.197 480.96 990.215 483.203C989.399 483.663 986.097 485.156 985.286 486.465C985.035 486.602 984.798 486.762 984.576 486.942C984.878 484.707 985.221 482.483 985.607 480.27C985.721 479.613 985.844 478.956 985.966 478.302C986.587 478.1 987.193 477.779 987.787 477.544L988.34 477.311C1000.18 474.785 1012.79 474.363 1024.72 472.797C1011.41 468.158 999.3 472.9 987.019 477.359C986.708 477.453 986.395 477.546 986.087 477.658C986.424 475.901 986.787 474.155 987.176 472.42C987.607 472.173 988.063 471.971 988.535 471.817C988.608 471.797 988.682 471.781 988.757 471.769C988.777 471.864 988.809 471.957 988.853 472.044C989.336 473.019 994.363 471.645 995.286 471.513C1005.08 470.131 1014.87 468.694 1024.67 467.365C1019.16 466.836 1013.61 466.79 1008.08 467.229C1003.2 467.615 998.36 468.382 993.598 469.523C992.926 469.682 989.533 470.008 988.853 471.162C988.33 471.228 987.823 471.388 987.355 471.632C987.827 469.571 988.337 467.525 988.886 465.495C989.101 465.425 989.316 465.346 989.523 465.286C989.811 465.202 990.099 465.124 990.384 465.033C995.649 465.417 1001.55 464.053 1006.72 463.674L1025.19 462.315C1013.29 459.465 1000.29 459.904 989.096 464.722C990.041 461.28 991.092 457.888 992.249 454.548C993.416 454.124 994.56 453.639 995.786 453.386C995.99 453.343 996.193 453.311 996.4 453.285C997.198 456.317 1005.38 454.334 1007.07 454.23C1011.7 453.945 1016.44 453.978 1021.03 453.369C1018.13 452.381 997.38 447.717 996.377 452.411C994.994 452.673 993.671 453.187 992.474 453.927C993.419 451.232 994.429 448.573 995.505 445.951C996.261 445.765 997.026 445.622 997.797 445.522C997.946 445.504 998.095 445.494 998.247 445.486C997.913 447.437 1001.81 447.113 1002.69 447.204C1005.21 447.469 1007.74 447.703 1010.28 447.907C1015.53 448.326 1020.77 448.611 1026.02 448.763C1023.91 448.702 1021.19 447.133 1019.06 446.59C1016.74 445.998 1014.38 445.531 1012.01 445.193C1010.06 444.915 999.434 442.849 998.401 444.994L997.946 445.057C997.176 445.165 996.416 445.334 995.672 445.562C996.551 443.431 997.473 441.331 998.436 439.261C999.388 438.879 1000.41 438.712 1001.44 438.774C1002.67 442.748 1025.16 443.164 1027.16 444.251C1022.89 441.917 1018.34 440.134 1013.62 438.945C1011.82 438.498 1002.07 435.747 1001.43 438.094C1001.42 438.128 1001.41 438.163 1001.41 438.198C1000.46 438.183 999.517 438.386 998.656 438.791C999.535 436.917 1000.45 435.064 1001.39 433.233C1001.62 432.788 1001.86 432.346 1002.09 431.904C1002.48 431.813 1002.86 431.712 1003.25 431.631C1011.12 436.492 1021.62 437.975 1030.07 438.63C1025.55 436.116 1021.01 433.589 1016.26 432.043C1012.41 430.78 1007.46 429.681 1003.58 431C1003.19 431.052 1002.8 431.145 1002.43 431.278C1003.66 429.019 1004.94 426.812 1006.29 424.656C1006.54 424.777 1006.82 424.909 1007.11 425.007C1007.91 427.786 1027.41 432.751 1028.71 433.923C1025.58 431.077 1022 428.766 1018.12 427.084C1016.57 426.419 1008.41 422.86 1007.2 424.489C1007.2 424.497 1007.19 424.505 1007.19 424.514C1006.92 424.479 1006.66 424.459 1006.43 424.446C1007.16 423.267 1007.92 422.105 1008.69 420.96C1009.53 421.159 1010.4 421.255 1011.26 421.382L1011.44 421.412C1011.41 422.423 1014.86 423.211 1015.96 423.534C1019.1 424.459 1022.23 425.439 1025.36 426.475C1027.38 427.139 1032.7 427.773 1034.18 429.562C1030.9 425.593 1026.57 423.203 1022.17 421.92C1019.81 421.235 1014.97 419.439 1012.7 420.376C1012.34 420.509 1012 420.7 1011.71 420.942C1011.5 420.922 1011.29 420.899 1011.08 420.871C1010.37 420.775 1009.64 420.662 1008.92 420.619C1009.85 419.243 1010.8 417.89 1011.77 416.561C1012.41 416.607 1013.04 416.614 1013.68 416.584H1014.09C1015.25 417.342 1016.74 417.41 1018.01 417.476C1025.49 417.862 1033.02 418.249 1040.39 417.12C1036.01 415.118 1031.3 413.966 1026.49 413.724C1023.42 413.58 1015.45 412.986 1013.46 416.023C1013.02 416.023 1012.58 416.023 1012.15 416.048C1013.38 414.364 1014.65 412.719 1015.94 411.114C1016.71 411.261 1019.1 409.374 1019.87 408.889C1024.14 406.175 1028.32 403.253 1032.39 400.122C1034.38 398.596 1036.34 397.02 1038.28 395.395C1039.29 394.553 1040.3 393.69 1041.3 392.805C1041.89 392.3 1043.28 390.486 1044 390.385C1039.16 391.072 1034.52 392.737 1030.35 395.279V395.279Z" fill="#8BC3C0"/>
<path d="M1006.16 504.273H944.8V516.906H1006.16V504.273Z" fill="#99583F"/>
<path d="M1002.62 516.906H948.337L955.378 555.307H995.581L1002.62 516.906Z" fill="#99583F"/>
<path d="M948.337 516.906L1002.06 519.973L1002.62 516.906H948.337Z" fill="#5F130D"/>
<path d="M810.513 466.64H707.198C704.136 466.64 701.198 463.808 700.63 460.324L663.772 232.863C663.206 229.372 665.229 226.547 668.289 226.547H771.604C774.666 226.547 777.604 229.379 778.173 232.863L815.033 460.314C815.597 463.808 813.573 466.64 810.513 466.64Z" fill="#357092"/>
<path d="M753.149 234.126L750.299 240.119C749.983 240.821 749.471 241.416 748.823 241.831C748.175 242.247 747.42 242.465 746.651 242.458H698.396C696.804 242.458 695.165 241.587 693.99 240.119L689.19 234.126H674.976C671.818 234.126 669.731 237.049 670.315 240.655L704.649 452.525C705.233 456.13 708.267 459.053 711.427 459.053H803.826C806.984 459.053 809.071 456.13 808.487 452.525L774.153 240.662C773.57 237.057 770.535 234.134 767.375 234.134L753.149 234.126Z" fill="#8BC3C0"/>
<path d="M702.015 237.694C703.072 237.112 703.344 235.575 702.621 234.261C701.899 232.946 700.456 232.352 699.398 232.934C698.34 233.515 698.069 235.052 698.791 236.366C699.514 237.681 700.957 238.275 702.015 237.694Z" fill="#113C54"/>
<path d="M745.526 236.367H709.282C708.744 236.367 708.224 235.862 708.125 235.253C708.024 234.637 708.378 234.136 708.921 234.136H745.165C745.703 234.136 746.224 234.642 746.322 235.253C746.423 235.862 746.062 236.367 745.526 236.367Z" fill="#113C54"/>
<path d="M793.379 414.202H707.335L685.423 278.978H771.465L793.379 414.202Z" fill="#FFE9D2"/>
<path d="M762.054 345.19H760.862V364.439H762.054V345.19Z" fill="white"/>
<path d="M738.162 411.296L794.693 413.57C796.583 413.646 798.541 413.712 800.287 412.984C800.582 412.888 800.839 412.701 801.019 412.448C801.143 412.184 801.189 411.891 801.153 411.602C801.067 409.702 800.587 407.845 800.107 406.006C798.127 398.394 796.237 390.635 794.256 383.016L789.075 384.132C788.971 383.526 788.867 382.917 788.761 382.311L786.788 384.079C786.224 383.574 785.661 383.069 785.1 382.563L785.32 384.079C784.042 383.869 782.798 383.484 781.624 382.935L782.19 383.91L778.653 382.824C778.688 383.167 778.726 383.508 778.764 383.852C777.35 383.988 775.922 383.832 774.57 383.395C773.447 383.588 772.36 383.951 771.347 384.473C771.72 383.903 771.914 383.235 771.902 382.553C770.151 382.973 768.435 383.531 766.771 384.221C767.13 383.572 767.49 382.923 767.85 382.273C765.754 383.077 763.832 384.278 762.191 385.81C753.765 385.507 744.776 385.929 736.487 387.477L738.162 411.296Z" fill="#357092"/>
<path d="M760.665 379.069C764.713 386.393 766.81 394.634 766.753 403.002C766.753 404.121 766.69 405.263 766.301 406.314C765.364 408.841 762.691 410.311 760.078 411.011C758.441 411.45 756.688 411.675 755.061 411.203C752.977 410.599 751.342 408.911 750.319 406.999C749.296 405.086 748.803 402.957 748.313 400.829C746.878 394.581 745.446 388.333 744.018 382.086C743.93 381.697 743.851 381.245 744.099 380.931L760.665 379.069Z" fill="#FF966C"/>
<path d="M689.536 348.823C692.922 345.8 696.813 343.396 701.031 341.719C706.688 339.47 712.923 338.533 718.064 335.281C722.993 338.707 729.254 341.001 735.09 342.398C737.657 343.012 740.32 343.432 742.644 344.685C745.782 346.38 747.949 349.399 749.91 352.38C755.432 360.781 760.168 369.673 764.058 378.943C758.717 382.073 753.328 384.612 747.431 386.494C746.643 397.126 745.388 407.911 744.213 418.509C743.302 418.531 742.397 418.661 741.517 418.898C729.961 421.474 718.139 422.661 706.301 422.435C705.66 422.435 704.935 422.365 704.533 421.867L689.536 348.823Z" fill="#FFBA55"/>
<path d="M728.248 337.325C728.582 340.612 728.693 343.917 728.582 347.219C728.542 348.421 728.329 349.839 727.271 350.392C726.563 350.761 725.699 350.604 724.954 350.324C723.398 349.738 722.066 348.661 720.94 347.441C719.719 346.117 718.714 344.614 717.713 343.118L715.033 339.109C714.8 338.808 714.629 338.465 714.528 338.098C714.404 337.469 714.704 336.835 714.98 336.267C716.481 333.089 717.445 329.684 717.832 326.191C719.285 327.475 720.864 328.645 722.309 329.925L723.994 331.411C724.812 332.184 725.708 332.871 726.667 333.46L728.248 337.325Z" fill="#FF966C"/>
<path d="M718.019 383.748C713.675 375.458 709.433 367.121 705.293 358.737C708.701 362.55 711.502 366.865 713.598 371.53C714.671 373.918 715.92 376.717 718.471 377.296C719.987 377.639 721.536 377.068 722.961 376.465C726.339 375.038 729.613 373.375 732.758 371.49L718.019 383.748Z" fill="#C27D56"/>
<path d="M728.248 337.325L726.672 333.452C725.713 332.863 724.817 332.177 723.999 331.403L722.314 329.918C721.063 328.816 719.729 327.791 718.456 326.712C718.927 329.319 719.556 331.896 720.338 334.428C721.215 337.267 722.329 340.117 724.315 342.33C725.475 343.639 726.955 344.624 728.61 345.19C728.63 342.564 728.509 339.939 728.248 337.325V337.325Z" fill="#C27D56"/>
<path d="M739.716 321.897C741.758 326.394 742.87 331.258 742.985 336.196C743.01 337.318 742.942 338.548 742.189 339.379C741.515 340.137 740.456 340.362 739.468 340.559C735.845 341.282 732.177 342.007 728.486 341.822C727.66 341.782 726.798 341.683 726.106 341.226C725.462 340.799 725.045 340.112 724.656 339.443C721.422 333.889 718.604 328.104 716.225 322.134C715.586 321.851 714.932 321.78 714.292 321.497C712.812 317.791 711.261 314.36 709.78 310.654C709.184 309.158 708.583 307.483 709.174 305.988C709.742 304.548 711.236 303.734 712.617 303.037C717.64 300.51 722.67 297.964 727.902 295.895C728.625 295.607 729.383 295.324 730.158 295.372C730.809 295.445 731.438 295.646 732.01 295.963C734.674 297.258 737.095 299.003 739.165 301.122C739.812 301.784 740.443 302.522 740.663 303.421C740.865 304.25 740.691 305.124 740.441 305.947C739.84 307.9 738.809 309.689 737.786 311.46L735.585 315.27L739.716 321.897Z" fill="#5F130D"/>
<path d="M716.503 309.002C717.671 311.067 719.174 312.923 720.949 314.497C720.191 316.627 719.274 318.716 717.807 320.436C718.613 322.939 719.936 325.244 721.691 327.203C723.445 329.161 725.591 330.729 727.991 331.805C727.387 330.214 727.172 328.296 726.917 326.616C731.085 325.664 735.491 325.957 739.754 326.28C740.213 327.773 740.805 329.147 741.269 330.641C741.069 322.982 739.261 315.452 735.964 308.537C729.739 305.339 722.779 305.877 716.503 309.002Z" fill="#FF966C"/>
<path d="M714.025 319.14C713.571 318.661 713.009 318.299 712.385 318.084C711.751 317.907 710.99 318.046 710.591 318.567C710.361 318.913 710.234 319.318 710.225 319.734C710.124 320.889 710.294 322.051 710.72 323.13C711.146 324.208 711.818 325.172 712.681 325.946C713.544 326.72 714.575 327.282 715.694 327.589C716.812 327.895 717.986 327.938 719.123 327.712C719.012 327.735 717.17 323.617 716.986 323.19C716.276 321.658 715.27 320.281 714.025 319.14Z" fill="#FF966C"/>
<path d="M712.597 323.529C712.516 322.855 712.437 322.181 712.36 321.508C712.646 321.911 713.024 322.242 713.461 322.473C713.413 322.89 713.05 323.231 713.082 323.66C713.115 324.09 713.509 324.35 713.863 324.562C714.487 324.941 715.177 325.335 715.902 325.239L713.977 323.604C713.937 323.577 713.907 323.538 713.888 323.493C713.861 323.407 713.926 323.319 713.987 323.241L714.798 322.354C714.73 322.43 712.676 320.755 712.019 321.118C711.162 321.599 711.993 323.185 712.597 323.529Z" fill="#FC571E"/>
<path d="M729.004 317.986C729.153 317.715 729.363 317.427 729.671 317.405C729.924 317.419 730.162 317.532 730.333 317.72C730.939 318.243 731.518 318.867 731.697 319.648C731.67 319.695 731.634 319.736 731.591 319.768C731.547 319.8 731.498 319.823 731.445 319.835C731.392 319.848 731.338 319.849 731.285 319.84C731.232 319.83 731.181 319.809 731.136 319.779C730.962 319.643 730.82 319.471 730.719 319.274C730.5 318.941 730.22 318.653 729.893 318.425C729.85 318.385 729.798 318.355 729.742 318.338C729.685 318.321 729.625 318.317 729.567 318.327C729.516 318.352 729.471 318.388 729.434 318.431C729.397 318.474 729.369 318.525 729.352 318.579C729.163 319.014 729.016 320.729 728.529 320.348C727.89 319.858 728.741 318.461 729.004 317.986Z" fill="#5F130D"/>
<path d="M737.22 317.362C737.247 317.204 737.309 317.055 737.401 316.924C737.493 316.793 737.612 316.684 737.75 316.604C737.889 316.558 738.039 316.552 738.181 316.587C738.323 316.623 738.452 316.698 738.554 316.803C738.753 317.017 738.896 317.278 738.968 317.561C739.112 317.99 739.167 318.444 739.13 318.895C739.128 318.919 739.123 318.943 739.114 318.966C739.072 319.077 738.905 319.085 738.814 319.011C738.729 318.927 738.673 318.818 738.652 318.701L738.44 317.92C738.401 317.674 738.28 317.448 738.096 317.278C738.042 317.232 737.971 317.208 737.899 317.213C737.717 317.233 737.667 317.465 737.647 317.647C737.647 317.945 737.758 319.595 737.263 319.416C736.742 319.234 737.131 317.718 737.22 317.362Z" fill="#5F130D"/>
<path d="M736.793 325.393C736.487 323.488 736.073 321.602 735.555 319.744C736.334 320.634 736.963 321.645 737.417 322.738C737.635 323.213 737.748 323.731 737.748 324.254C737.725 324.764 737.252 325.156 736.793 325.393Z" fill="#FC571E"/>
<path d="M738.735 327.983L732.543 328.488C733.213 329.117 733.806 329.726 734.6 330.186C734.989 330.43 735.416 330.608 735.863 330.714C736.316 330.82 736.792 330.751 737.197 330.522C737.621 330.269 737.876 329.797 738.114 329.355C738.313 328.998 738.536 328.352 738.735 327.983Z" fill="#B62C43"/>
<path d="M725.118 311.713C726.29 311.176 727.575 310.93 728.862 310.995C728.939 310.823 728.946 310.629 728.882 310.452C728.779 310.23 728.483 310.199 728.238 310.199C727.081 310.257 725.964 310.919 725.118 311.713Z" fill="#5F130D"/>
<path d="M737.513 310.821C736.669 310.525 735.759 310.469 734.885 310.659C734.889 310.454 734.917 310.251 734.969 310.053C734.979 310.001 735.007 309.954 735.049 309.921C735.092 309.901 735.139 309.894 735.186 309.901C735.855 309.944 736.927 310.492 737.513 310.821Z" fill="#5F130D"/>
<path d="M764.3 390.496C765.934 394.337 766.83 398.451 766.943 402.623C766.981 404.023 766.923 405.453 766.438 406.764C765.43 409.427 762.736 411.195 759.957 411.834C757.178 412.474 754.263 412.221 751.413 411.978C734.921 410.574 718.363 410.089 701.817 410.526C702.603 407.449 701.254 403.841 703.02 401.201C704.215 399.415 706.468 398.702 708.578 398.273C712.059 397.565 715.614 397.295 719.148 396.936C731.531 395.676 743.776 393.303 755.733 389.847L764.3 390.496Z" fill="#FF966C"/>
<path d="M746.82 355.013C747.588 352.426 748.464 349.875 749.447 347.36C749.738 346.602 750.054 345.844 750.622 345.281C751.068 344.871 751.572 344.531 752.118 344.27L756.845 341.762C756.985 341.665 757.155 341.619 757.325 341.63C757.603 341.681 757.732 342.004 757.749 342.285C757.812 343.379 756.926 344.286 756.034 344.922C755.142 345.559 754.121 346.15 753.672 347.151C753.379 347.797 753.371 348.535 753.202 349.225C753.004 350.028 752.59 350.762 752.004 351.347L746.82 355.013Z" fill="#FF966C"/>
<path d="M761.541 348.325C760.241 348.325 758.959 348.023 757.796 347.442C756.633 346.861 755.62 346.018 754.839 344.979C754.058 343.94 753.529 342.733 753.294 341.454C753.058 340.176 753.124 338.86 753.484 337.611L755.339 331.194H767.744L769.598 337.611C769.959 338.86 770.024 340.176 769.789 341.454C769.554 342.733 769.025 343.94 768.243 344.979C767.462 346.018 766.45 346.861 765.287 347.442C764.124 348.023 762.841 348.325 761.541 348.325V348.325Z" fill="white"/>
<path d="M766.753 341.855L768.451 341.446C768.759 340.711 768.997 339.824 768.428 339.268C767.989 338.841 767.289 338.899 766.683 338.988L756.577 340.456L766.753 341.855Z" fill="#B62C43"/>
<path d="M759.465 338.955C757.905 338.504 756.288 338.281 754.664 338.293C754.42 339.331 754.414 340.412 754.646 341.453C754.879 342.494 755.343 343.469 756.006 344.305C756.668 345.141 757.511 345.817 758.471 346.281C759.432 346.745 760.485 346.987 761.551 346.986C763.162 346.987 764.724 346.439 765.981 345.431C767.237 344.424 768.112 343.018 768.461 341.446C767.971 341.388 767.486 341.304 767.009 341.206C764.432 340.668 761.996 339.64 759.465 338.955Z" fill="#F83B4F"/>
<path d="M756.135 364.441C756.135 363.449 758.517 362.648 761.458 362.648C764.399 362.648 766.779 363.446 766.779 364.441C766.779 365.437 764.396 366.235 761.458 366.235C758.52 366.235 756.135 365.432 756.135 364.441Z" fill="white"/>
<path d="M704.409 408.474H796.194L797.235 416.357H706.046L704.409 408.474Z" fill="#C27D56"/>
<path d="M714.083 289.169L687.555 317.212C685.953 315.937 684.796 314.187 684.251 312.213C688.647 307.62 693.255 302.612 694.291 296.352C694.544 294.892 694.576 293.376 695.147 292.014C695.691 291.804 696.484 292.057 697.002 292.317C695.991 296.053 694.974 299.789 693.95 303.527C697.274 301.433 700.369 298.995 703.184 296.253C704.29 295.177 705.379 294.01 705.905 292.56C706.301 291.466 706.483 290.089 707.539 289.599L714.083 289.169Z" fill="#C27D56"/>
<path d="M685.271 291.713C687.409 293.111 689.713 294.348 692.232 294.773C694.75 295.197 697.519 294.71 699.414 293.004C699.658 292.733 699.959 292.519 700.296 292.378C700.613 292.308 700.941 292.314 701.256 292.393C704.376 292.954 707.825 293.833 710.53 292.173C710.874 291.915 711.257 291.716 711.665 291.582C712.185 291.466 712.721 291.64 713.229 291.802C715.52 292.524 717.966 292.999 720.323 292.532C722.68 292.065 724.929 290.493 725.654 288.202C728.004 288.19 730.32 287.633 732.419 286.575C733.912 285.817 735.428 284.536 735.373 282.863C735.358 282.381 735.231 281.822 735.567 281.476C735.801 281.288 736.087 281.176 736.386 281.156C737.467 280.953 738.533 280.499 739.268 279.683C740.004 278.867 740.342 277.641 739.925 276.626C739.167 274.759 736.626 274.589 734.62 274.706C720.687 275.513 706.72 275.513 692.787 274.706C688.493 274.453 684.061 274.147 679.991 275.552L685.271 291.713Z" fill="#357092"/>
<path d="M751.266 303.471C750.392 303.373 749.508 303.489 748.689 303.81C747.87 304.131 747.142 304.647 746.567 305.313C746.567 305.045 746.219 305.672 746.486 305.68C747.398 305.693 748.3 305.501 749.127 305.119C749.955 304.737 750.686 304.174 751.266 303.471Z" fill="#8BC3C0"/>
<path d="M751.436 298.219C750.901 297.77 750.551 297.139 750.455 296.447C750.358 295.756 750.521 295.053 750.913 294.475C751.484 294.707 751.754 295.516 751.701 296.132C751.648 296.749 751.446 297.6 751.436 298.219Z" fill="#357092"/>
<path d="M766.122 299.737C765.969 299.254 765.958 298.738 766.091 298.249C766.224 297.76 766.494 297.32 766.87 296.981C767.246 296.642 767.712 296.418 768.212 296.336C768.712 296.254 769.225 296.317 769.689 296.519C768.919 298.012 767.6 298.952 766.122 299.737Z" fill="#8BC3C0"/>
<path d="M757.522 284C756.797 283.919 756.046 283.856 755.352 284.081C754.657 284.306 754.028 284.887 753.972 285.615C754.905 285.607 756.719 284.485 757.522 284Z" fill="#357092"/>
<path d="M770.136 318.223C769.478 317.944 768.743 317.9 768.056 318.097C767.369 318.294 766.77 318.721 766.359 319.307C767.559 319.628 769.052 318.845 770.136 318.223Z" fill="#357092"/>
<path d="M703.209 330.378C702.973 329.714 702.976 328.989 703.216 328.327C703.457 327.665 703.921 327.107 704.528 326.75C704.649 328.124 704.106 329.339 703.209 330.378Z" fill="#357092"/>
<path d="M747.601 324.817C747.195 324.379 746.946 323.818 746.896 323.223C746.846 322.627 746.996 322.033 747.323 321.533C748.142 322.599 747.886 323.513 747.601 324.817Z" fill="#357092"/>
<path d="M706.746 312.271C706.255 311.831 705.614 311.595 704.955 311.61C704.295 311.626 703.667 311.892 703.196 312.354C703.99 312.961 705.794 312.572 706.746 312.271Z" fill="#8BC3C0"/>
<path d="M701.266 392.108C716.597 381.035 733.604 369.56 746.209 355.46C747.012 354.561 747.118 353.378 747.709 352.322C748.518 350.88 749.382 349.374 750.787 348.5C752.894 347.189 755.587 347.638 758.06 347.35C761.617 346.936 764.765 344.943 767.807 343.055C770.333 341.486 767.807 345.311 767.115 346.021C765.751 347.445 764.021 348.465 762.115 348.97C762.987 349.046 763.58 349.308 764.449 349.382C764.624 349.384 764.796 349.422 764.955 349.493C765.331 349.692 765.407 350.223 765.258 350.622C765.07 351.004 764.833 351.36 764.553 351.681C763.542 353.088 763.515 354.993 762.646 356.493C761.635 358.221 759.705 359.136 757.881 359.95L752.07 362.544C749.665 366.869 732.503 396.338 724.752 402.641C723.183 403.904 721.422 405.109 719.411 405.354C717.953 405.534 716.48 405.195 715.088 404.725C709.338 402.782 703.851 397.581 701.266 392.108Z" fill="#FF966C"/>
<path d="M691.626 271.588C693.327 270.653 693.764 268.183 692.602 266.07C691.441 263.957 689.12 263.002 687.419 263.937C685.719 264.872 685.281 267.343 686.443 269.456C687.605 271.569 689.925 272.523 691.626 271.588Z" fill="#FFBA55"/>
<path d="M704.403 271.585C706.104 270.65 706.541 268.18 705.379 266.067C704.218 263.954 701.897 262.999 700.197 263.934C698.496 264.869 698.059 267.34 699.22 269.453C700.382 271.566 702.702 272.52 704.403 271.585Z" fill="#F83B4F"/>
<path d="M717.178 271.587C718.879 270.652 719.316 268.181 718.154 266.069C716.993 263.956 714.672 263.001 712.972 263.936C711.271 264.871 710.834 267.342 711.995 269.455C713.157 271.567 715.477 272.522 717.178 271.587Z" fill="#357092"/>
<path d="M758.881 444.219C763.065 441.918 764.14 435.839 761.282 430.64C758.424 425.441 752.715 423.091 748.53 425.391C744.346 427.692 743.271 433.771 746.13 438.97C748.988 444.169 754.697 446.519 758.881 444.219Z" fill="#357092"/>
<path d="M727.13 444.22C731.315 441.92 732.389 435.841 729.531 430.642C726.673 425.443 720.964 423.093 716.78 425.393C712.596 427.694 711.521 433.773 714.379 438.972C717.237 444.171 722.946 446.521 727.13 444.22Z" fill="#FFBA55"/>
<path d="M790.632 444.218C794.816 441.918 795.891 435.839 793.033 430.64C790.175 425.441 784.466 423.091 780.282 425.391C776.097 427.691 775.023 433.771 777.881 438.97C780.739 444.169 786.448 446.518 790.632 444.218Z" fill="#F83B4F"/>
<path d="M816.122 555.307H948.506C952.427 555.307 956.194 551.679 956.919 547.202L1004.15 255.76C1004.87 251.283 1002.28 247.655 998.358 247.655H865.973C862.052 247.655 858.285 251.283 857.56 255.76L810.334 547.202C809.609 551.679 812.199 555.307 816.122 555.307Z" fill="#8BC3C0"/>
<path d="M889.623 257.377L893.274 265.055C893.678 265.954 894.336 266.716 895.166 267.248C895.997 267.781 896.964 268.059 897.95 268.051H959.774C961.815 268.051 963.915 266.937 965.421 265.055L971.56 257.377H989.79C993.833 257.377 996.511 261.121 995.763 265.742L951.77 537.22C951.012 541.841 947.132 545.585 943.085 545.585H824.689C820.647 545.585 817.969 541.841 818.717 537.22L862.709 265.742C863.467 261.121 867.348 257.377 871.395 257.377H889.623Z" fill="#357092"/>
<path d="M959.287 260.262C960.213 258.577 959.865 256.607 958.509 255.861C957.153 255.116 955.302 255.877 954.376 257.562C953.45 259.247 953.798 261.217 955.154 261.963C956.51 262.708 958.36 261.947 959.287 260.262Z" fill="#113C54"/>
<path d="M899.393 260.237H945.831C946.523 260.237 947.188 259.598 947.316 258.807C947.443 258.019 946.985 257.377 946.306 257.377H899.855C899.163 257.377 898.498 258.019 898.37 258.807C898.243 259.61 898.701 260.237 899.393 260.237Z" fill="#113C54"/>
<path d="M838.074 488.115H948.327L976.406 314.848H866.153L838.074 488.115Z" fill="#8BC3C0"/>
<path d="M898.812 425.063L896.955 420.884C896.366 419.563 895.777 418.241 895.148 416.938C894.016 414.588 892.723 412.264 890.836 410.463C889.974 409.642 889.004 408.947 888.117 408.148C886.108 406.35 884.557 404.098 883.593 401.58C883.441 401.186 883.236 400.726 882.819 400.66C882.329 400.584 881.978 401.122 881.809 401.592C881.329 403.044 881.364 404.617 881.907 406.046C882.304 407.08 882.974 408.083 882.867 409.184C882.807 409.821 882.491 410.399 882.221 410.978C881.677 412.143 881.296 413.462 881.599 414.71C882.241 417.347 881.478 420.015 881.195 422.706C880.378 422.453 879.518 422.373 878.669 422.471C879.338 423.413 880.27 424.136 881.215 424.8C884.863 427.363 888.905 429.313 893.18 430.575L898.812 425.063Z" fill="#C27D56"/>
<path d="M891.712 418.085H885.876C884.328 418.085 882.844 417.47 881.75 416.375C880.655 415.281 880.04 413.797 880.04 412.249C880.04 410.701 880.655 409.217 881.75 408.122C882.844 407.028 884.328 406.413 885.876 406.413H891.712V418.085ZM885.876 407.843C884.708 407.843 883.587 408.307 882.761 409.133C881.934 409.959 881.47 411.08 881.47 412.249C881.47 413.417 881.934 414.538 882.761 415.364C883.587 416.191 884.708 416.655 885.876 416.655H890.282V407.843H885.876Z" fill="white"/>
<path d="M950.328 359.384C951.843 357.663 953.968 356.632 956.108 355.832C957.985 355.127 959.951 354.568 961.957 354.568C963.963 354.568 966.029 355.202 967.452 356.615C968.247 357.462 968.881 358.447 969.321 359.523C970.383 361.895 971.008 364.439 971.165 367.034C971.484 372.205 969.94 377.286 969.129 382.404C967.798 390.817 968.538 399.791 972.666 407.237C972.992 407.823 973.346 408.426 973.379 409.093C973.368 409.643 973.247 410.184 973.022 410.685C970.617 417.196 968.141 423.822 963.781 429.231C962.77 430.495 961.199 431.808 959.675 431.225C958.872 430.917 958.349 430.159 957.874 429.441L953.344 422.582C951.278 419.452 949.183 416.266 948.087 412.676C946.015 405.898 947.738 398.594 949.706 391.785C951.674 384.976 953.908 377.938 952.819 370.934L950.328 359.384Z" fill="#5F130D"/>
<path d="M951.348 394.834C959.982 406.36 965.655 419.828 967.871 434.057C968.748 439.734 969.063 445.484 969.233 451.237C969.387 456.474 969.42 461.719 969.079 466.946C968.679 473.049 967.771 479.108 966.363 485.06C962.303 482.819 957.379 483.004 952.897 481.801C950.047 481.043 947.384 479.709 944.775 478.332C941.796 476.758 938.81 475.073 936.48 472.64C933.59 469.624 931.895 465.627 930.975 461.552C929.711 455.928 929.815 450.084 931.278 444.509L951.348 394.834Z" fill="#F83B4F"/>
<path d="M952.218 445.807C957.761 430.836 956.856 414.79 953.928 398.452C953.102 397.229 952.248 396.022 951.361 394.842L931.291 444.509C929.827 450.084 929.723 455.928 930.988 461.552C931.908 465.627 933.603 469.636 936.493 472.64C938.823 475.073 941.799 476.758 944.787 478.332C947.397 479.709 950.06 481.036 952.91 481.801C956.821 482.85 961.068 482.845 964.784 484.328C958.215 474.77 952.152 465.412 946.495 455.254C950.196 453.518 951.06 449.231 952.218 445.807Z" fill="#B62C43"/>
<path d="M840.411 444.37H917.323L966.502 474.533L957.096 483.938H835.692L840.411 444.37Z" fill="#C27D56"/>
<path d="M928.949 405.703C922.286 415.473 916.476 425.799 911.583 436.566C906.505 432.17 901.833 427.326 897.622 422.094C895.988 425.611 893.187 428.454 889.694 430.138C892.011 434.875 893.865 439.577 896.182 444.314C899.266 450.63 902.75 457.355 909.051 460.483C910.613 461.259 912.336 461.784 914.086 461.678C916.918 461.506 919.41 459.707 921.332 457.621C925.253 453.369 927.441 447.816 929.116 442.28C930.791 436.745 932.054 431.043 934.5 425.8L928.949 405.703Z" fill="#B62C43"/>
<path d="M939.249 392.841C941.286 389.362 944.049 386.373 946.672 383.321C949.294 380.269 951.866 377.068 953.412 373.347C954.958 369.626 955.398 365.263 953.751 361.597C951.697 357.014 946.808 354.27 941.902 353.217C934.174 351.542 921.339 355.647 918.366 360.038C921.228 363.886 922.976 368.448 923.419 373.223C923.651 375.952 923.446 378.756 924.245 381.376C925.22 384.577 927.58 387.141 929.871 389.584L939.249 392.841Z" fill="#5F130D"/>
<path d="M936.341 387.589C937.448 388.013 938.648 387.293 939.537 386.51C940.674 385.499 941.713 384.249 941.93 382.745C942.147 381.242 941.255 379.507 939.76 379.251C939.095 379.182 938.424 379.273 937.802 379.517C936.298 379.998 934.856 380.656 933.507 381.477C932.837 380.113 931.524 378.951 930.412 377.923C929.506 377.133 928.765 376.172 928.232 375.095C927.474 373.431 927.512 371.49 927.979 369.719C928.446 367.948 929.293 366.311 930.139 364.689L931.549 361.983C927.155 361.099 922.81 360.584 918.363 360.033C916.84 361.759 915.69 363.781 914.986 365.973C914.266 368.213 914.028 370.593 913.217 372.794C912.588 374.489 911.63 376.044 910.4 377.369C909.693 378.127 908.829 379.077 909.18 380.055C909.544 381.065 910.948 381.25 911.646 382.076C911.562 382.715 911.487 383.38 911.411 384.052C912.331 384.35 913.275 384.567 914.233 384.698C914.89 384.791 915.553 384.83 916.216 384.815C916.029 385.434 915.39 385.792 914.784 386.022C913.614 386.463 912.367 386.663 911.118 386.611C911.09 386.846 911.06 387.078 911.032 387.306C910.825 388.948 910.638 390.716 911.426 392.172C912.03 393.286 913.146 394.059 914.346 394.465C915.547 394.872 916.835 394.948 918.101 394.94C920.486 394.921 922.861 394.617 925.175 394.033C926.208 395.38 927.307 396.575 928.338 397.922C928.392 398.011 928.474 398.08 928.57 398.119C928.638 398.126 928.707 398.12 928.773 398.1C928.838 398.08 928.899 398.047 928.952 398.002C932.623 395.635 937.125 394.9 940.955 392.801L936.341 387.589Z" fill="#FF966C"/>
<path d="M916.209 384.832C915.545 384.848 914.882 384.809 914.225 384.716C913.267 384.584 912.323 384.368 911.403 384.069C911.305 384.928 911.09 386.767 910.989 387.606C912.237 387.693 913.487 387.462 914.622 386.937C915.544 386.472 916.022 385.451 916.209 384.832Z" fill="#B62C43"/>
<path d="M940.136 390.001C934.742 392.121 929.24 394.296 924.814 398.048C924.056 398.687 923.323 399.387 922.856 400.261C922.388 401.135 922.226 402.221 922.636 403.123C923.181 404.323 924.601 404.983 925.036 406.228C925.4 407.277 924.985 408.543 925.587 409.475C926.145 410.341 927.398 410.521 928.366 410.175C929.333 409.828 930.111 409.088 930.892 408.406C933.908 405.737 937.385 403.639 941.152 402.214C943.408 401.362 945.76 400.756 947.938 399.72C949.201 399.114 950.578 398.065 950.464 396.661C950.388 395.754 949.706 395.029 948.984 394.46C948.297 393.909 947.558 393.427 946.776 393.023C946.308 392.783 945.8 392.545 945.528 392.093C945.382 391.785 945.267 391.464 945.184 391.133C944.371 388.897 941.844 389.329 940.136 390.001Z" fill="#FFBA55"/>
<path d="M918.212 442.172C917.553 441.616 916.552 441.833 915.756 442.172C912.714 443.424 910.281 445.815 908.978 448.836C907.674 451.857 907.604 455.268 908.781 458.341C909.195 459.422 909.963 460.584 911.12 460.63C911.954 460.662 912.677 460.094 913.303 459.546C915.136 457.942 916.881 456.239 918.528 454.445L918.212 442.172Z" fill="#FF966C"/>
<path d="M880.687 406.049C879.805 405.523 878.854 405.12 877.862 404.852C877.378 404.714 876.864 404.714 876.379 404.852C875.508 405.152 875.018 406.165 875.134 407.077C875.25 407.989 875.869 408.778 876.622 409.306C877.399 409.8 878.244 410.177 879.131 410.425C880.856 411.018 882.624 411.482 884.419 411.812C885.017 411.913 885.74 411.943 886.114 411.466C887.736 409.389 881.852 406.693 880.687 406.049Z" fill="#FF966C"/>
<path d="M877.996 412.037C876.986 412.037 875.755 412.322 875.422 413.3C875.343 413.583 875.333 413.882 875.393 414.17C875.453 414.458 875.58 414.728 875.766 414.957C876.138 415.413 876.584 415.803 877.087 416.109C876.749 416.319 876.473 416.616 876.29 416.97C876.107 417.323 876.024 417.72 876.048 418.117C876.072 418.514 876.203 418.898 876.427 419.227C876.652 419.555 876.961 419.817 877.322 419.985C877.497 420.038 877.651 420.143 877.766 420.285C877.893 420.498 877.787 420.768 877.729 421.01C877.564 421.713 877.878 422.461 878.368 422.991C878.883 423.495 879.482 423.907 880.136 424.209C881.551 424.949 883.026 425.657 884.616 425.818C884.98 425.879 885.354 425.837 885.694 425.694C886.288 425.399 886.51 424.616 886.344 423.974C886.177 423.332 885.715 422.809 885.224 422.362C884.705 421.948 884.227 421.484 883.8 420.975C884.132 421.165 884.511 421.254 884.893 421.233C885.275 421.212 885.642 421.081 885.952 420.856C886.261 420.631 886.499 420.322 886.636 419.965C886.774 419.608 886.806 419.22 886.728 418.845C886.475 417.582 885.091 416.897 883.868 416.45C884.878 416.819 885.275 416.14 885.156 415.217C885.005 414.038 884.269 413.209 883.183 412.769C881.67 412.14 879.618 412.026 877.996 412.037Z" fill="#FF966C"/>
<path d="M887.587 405.271H909.268V412.294C909.268 415.171 908.126 417.93 906.092 419.964C904.058 421.998 901.299 423.14 898.422 423.14C895.546 423.14 892.787 421.998 890.753 419.964C888.719 417.93 887.577 415.171 887.577 412.294V405.271H887.587Z" fill="#F9D8AD"/>
<path d="M882.726 468.386C893.306 468.386 901.884 465.058 901.884 460.953C901.884 456.848 893.306 453.52 882.726 453.52C872.145 453.52 863.568 456.848 863.568 460.953C863.568 465.058 872.145 468.386 882.726 468.386Z" fill="#E8C395"/>
<path d="M882.726 464.099C887.202 464.099 890.831 462.69 890.831 460.953C890.831 459.216 887.202 457.808 882.726 457.808C878.25 457.808 874.621 459.216 874.621 460.953C874.621 462.69 878.25 464.099 882.726 464.099Z" fill="#F9D8AD"/>
<path d="M894.448 309.1H840.123V377.639H894.448V309.1Z" fill="#99583F"/>
<path d="M888.751 309.1H840.123V370.454H888.751V309.1Z" fill="#8BC3C0"/>
<path d="M888.754 320.244V329.238H873.29C874.805 328.256 877.349 328.781 879.05 328.182C879.775 327.93 880.439 327.407 881.207 327.424C881.92 327.424 882.551 327.904 883.256 328C883.699 328.049 884.145 327.952 884.527 327.724C884.909 327.496 885.206 327.149 885.373 326.737C885.441 326.455 885.557 326.186 885.717 325.944C886.035 325.578 886.611 325.593 887.033 325.348C887.834 324.888 887.809 323.753 887.773 322.821C887.738 321.889 887.839 320.371 888.754 320.244Z" fill="white"/>
<path d="M888.751 329.238H839.17V332.669H888.751V329.238Z" fill="#99583F"/>
<path d="M888.754 357.014V370.454H861.559C862.292 369.717 863.55 369.307 864.591 369.315C865.253 369.315 865.932 369.492 866.564 369.302C867.105 369.141 867.534 368.739 868.042 368.494C868.8 368.13 869.654 368.125 870.483 368.173C872.108 368.272 873.718 368.551 875.283 369.004C876.228 369.28 877.205 369.621 878.168 369.421C879.022 369.244 879.787 368.663 880.659 368.686C881.25 368.711 881.826 369.032 882.41 368.921C882.993 368.81 883.42 368.289 883.784 367.802C884.381 367.036 884.925 366.231 885.411 365.391C885.925 364.386 886.357 363.341 886.702 362.266C887.036 361.321 887.372 360.349 887.326 359.348C887.309 358.931 887.225 358.504 887.326 358.1C887.427 357.696 888.347 356.908 888.754 357.014Z" fill="white"/>
<path d="M872.085 318.766C872.085 318.688 872.064 318.61 872.052 318.531C872.039 318.453 871.994 318.392 871.963 318.322C871.911 318.22 871.834 318.133 871.739 318.069C871.684 318.016 871.617 317.978 871.544 317.958C871.477 317.918 871.4 317.897 871.322 317.897C871.245 317.875 871.163 317.875 871.087 317.897C871.009 317.897 870.932 317.918 870.864 317.958C870.756 317.993 870.659 318.056 870.581 318.14L870.445 318.317L870.357 318.526C870.357 318.605 870.336 318.683 870.324 318.761C870.311 318.84 870.346 318.915 870.357 318.994C870.367 319.072 870.415 319.135 870.445 319.203C870.497 319.306 870.576 319.393 870.672 319.456C870.725 319.511 870.791 319.55 870.864 319.57C870.969 319.625 871.087 319.651 871.205 319.646H871.289C871.397 319.649 871.504 319.625 871.6 319.575C871.696 319.541 871.783 319.484 871.852 319.408L871.979 319.246C872.051 319.123 872.088 318.983 872.087 318.84L872.085 318.766Z" fill="white"/>
<path d="M877.418 313.259L877.294 313.193C877.187 313.132 877.065 313.099 876.941 313.099C876.818 313.099 876.696 313.132 876.589 313.193C876.483 313.255 876.396 313.344 876.334 313.45C876.273 313.556 876.241 313.677 876.24 313.799C876.241 313.922 876.273 314.042 876.334 314.148C876.395 314.254 876.483 314.342 876.589 314.403C876.696 314.466 876.818 314.499 876.941 314.499C877.065 314.499 877.187 314.466 877.294 314.403L877.418 314.34C877.512 314.285 877.59 314.206 877.645 314.111C877.699 314.016 877.728 313.909 877.728 313.799C877.728 313.69 877.699 313.583 877.645 313.488C877.59 313.393 877.512 313.314 877.418 313.259Z" fill="white"/>
<path d="M880.308 318.981C878.666 318.981 878.661 321.535 880.308 321.535C881.955 321.535 881.955 318.981 880.308 318.981Z" fill="white"/>
<path d="M862.807 322.682C862.686 322.682 862.57 322.73 862.484 322.816C862.398 322.902 862.35 323.018 862.35 323.14C862.35 323.261 862.398 323.377 862.484 323.463C862.57 323.549 862.686 323.597 862.807 323.597C862.929 323.597 863.045 323.549 863.131 323.463C863.216 323.377 863.265 323.261 863.265 323.14C863.265 323.018 863.216 322.902 863.131 322.816C863.045 322.73 862.929 322.682 862.807 322.682V322.682Z" fill="white"/>
<path d="M860.615 317.617C860.615 317.579 860.587 317.539 860.572 317.498C860.557 317.458 860.529 317.395 860.506 317.344C860.467 317.27 860.41 317.207 860.339 317.162C860.3 317.123 860.251 317.094 860.198 317.079C860.12 317.039 860.033 317.02 859.945 317.023L859.773 317.046L859.619 317.112C859.545 317.151 859.483 317.208 859.437 317.278C859.38 317.34 859.34 317.416 859.321 317.498C859.306 317.539 859.291 317.579 859.278 317.617C859.245 317.738 859.245 317.865 859.278 317.986C859.309 318.102 859.37 318.207 859.455 318.292C859.587 318.418 859.762 318.491 859.945 318.494C860.128 318.487 860.302 318.416 860.435 318.292C860.52 318.207 860.581 318.102 860.612 317.986C860.646 317.865 860.647 317.738 860.615 317.617V317.617Z" fill="white"/>
<path d="M856.072 320.391L856.032 320.34C856.009 320.305 855.984 320.272 855.958 320.239C855.918 320.17 855.86 320.113 855.791 320.073C855.722 320.034 855.644 320.012 855.564 320.012C855.442 320.013 855.326 320.061 855.24 320.147C855.154 320.233 855.105 320.35 855.104 320.472C855.106 320.552 855.128 320.631 855.167 320.702C855.207 320.769 855.264 320.826 855.332 320.866L855.433 320.939L855.478 320.975C855.553 321.025 855.641 321.049 855.731 321.045C855.84 321.043 855.945 320.998 856.022 320.92C856.099 320.842 856.143 320.738 856.145 320.628C856.144 320.544 856.119 320.461 856.072 320.391V320.391Z" fill="white"/>
<path d="M873.969 325.239C873.937 325.121 873.874 325.014 873.787 324.928C873.652 324.797 873.471 324.724 873.282 324.724C873.188 324.718 873.094 324.739 873.012 324.784C872.925 324.813 872.847 324.862 872.784 324.928C872.718 324.99 872.668 325.069 872.64 325.156C872.595 325.238 872.574 325.332 872.58 325.426C872.58 325.489 872.595 325.552 872.605 325.613C872.637 325.73 872.699 325.837 872.784 325.924C872.92 326.055 873.101 326.129 873.29 326.131C873.384 326.134 873.478 326.113 873.563 326.07C873.647 326.038 873.723 325.988 873.787 325.924C873.851 325.86 873.901 325.783 873.934 325.699C873.977 325.614 873.998 325.521 873.995 325.426L873.969 325.239Z" fill="white"/>
<path d="M886.253 313.107C885.361 313.107 885.361 314.492 886.253 314.492C887.144 314.492 887.144 313.107 886.253 313.107Z" fill="white"/>
<path d="M869.988 309.676C869.965 309.616 869.94 309.555 869.912 309.497C869.868 309.434 869.821 309.373 869.77 309.315C869.711 309.249 869.635 309.201 869.551 309.173C869.473 309.132 869.386 309.112 869.298 309.115L869.098 309.128C868.985 309.16 868.881 309.221 868.798 309.305C868.745 309.361 868.697 309.422 868.656 309.487C868.593 309.6 868.558 309.728 868.555 309.858C868.554 309.873 868.554 309.889 868.555 309.904C868.552 310 868.573 310.096 868.618 310.182C868.646 310.272 868.698 310.353 868.767 310.416C868.831 310.485 868.911 310.536 869 310.566C869.086 310.611 869.183 310.632 869.28 310.629L869.472 310.601C869.593 310.568 869.704 310.505 869.793 310.416L869.907 310.27C869.971 310.158 870.005 310.032 870.005 309.904V309.858C870.005 309.805 869.995 309.742 869.988 309.676Z" fill="white"/>
<path d="M884.762 342.343C884.687 342.073 884.543 341.827 884.345 341.628L884.017 341.375C883.769 341.231 883.487 341.156 883.201 341.155C882.984 341.146 882.769 341.194 882.577 341.294C882.376 341.359 882.196 341.475 882.054 341.63C881.9 341.773 881.785 341.952 881.72 342.151C881.619 342.343 881.571 342.558 881.581 342.775C881.599 342.919 881.619 343.063 881.639 343.204C881.713 343.475 881.856 343.721 882.054 343.919L882.382 344.172C882.63 344.318 882.913 344.395 883.201 344.394C883.417 344.404 883.632 344.356 883.825 344.255C884.113 344.127 884.359 343.92 884.536 343.658C884.712 343.397 884.81 343.09 884.82 342.775L884.762 342.343Z" fill="white"/>
<path d="M870.109 337.363C870.08 337.28 870.032 337.204 869.967 337.143C869.908 337.078 869.832 337.029 869.747 337.002C869.669 336.962 869.582 336.943 869.495 336.944C869.315 336.944 869.142 337.016 869.015 337.143C868.951 337.206 868.9 337.282 868.866 337.365C868.832 337.447 868.815 337.536 868.815 337.626C868.815 337.679 868.815 337.732 868.815 337.788C868.812 337.876 868.832 337.963 868.873 338.04C868.926 338.16 869.011 338.262 869.119 338.335C869.228 338.408 869.354 338.448 869.485 338.452C869.573 338.452 869.66 338.435 869.742 338.401C869.823 338.367 869.897 338.318 869.96 338.255L870.066 338.121C870.126 338.018 870.157 337.902 870.157 337.783C870.157 337.727 870.157 337.674 870.157 337.621C870.163 337.532 870.146 337.444 870.109 337.363V337.363Z" fill="white"/>
<path d="M879.752 335.322C879.715 335.194 879.647 335.078 879.553 334.983C879.458 334.889 879.342 334.821 879.214 334.784C879.036 334.745 878.852 334.749 878.676 334.796C878.499 334.853 878.337 334.95 878.206 335.082C878.096 335.192 878.018 335.328 877.978 335.478C877.938 335.628 877.938 335.786 877.979 335.936V335.951C878.019 336.096 878.096 336.228 878.202 336.334C878.308 336.44 878.44 336.517 878.585 336.557C878.736 336.598 878.896 336.598 879.047 336.557C879.191 336.517 879.323 336.441 879.429 336.335C879.547 336.23 879.628 336.09 879.661 335.936C879.716 335.845 879.752 335.743 879.768 335.638C879.784 335.533 879.778 335.425 879.752 335.322V335.322Z" fill="white"/>
<path d="M886.91 334.301C886.784 334.179 886.617 334.11 886.442 334.107C886.354 334.103 886.267 334.123 886.19 334.165C886.108 334.189 886.034 334.237 885.977 334.301C885.895 334.384 885.836 334.487 885.806 334.599C885.777 334.712 885.777 334.831 885.808 334.943C885.808 334.991 885.833 335.042 885.849 335.092L885.909 335.239C885.947 335.309 886.002 335.369 886.068 335.413C886.107 335.449 886.154 335.476 886.205 335.491C886.278 335.529 886.36 335.547 886.442 335.544L886.607 335.522L886.756 335.461C886.826 335.424 886.885 335.369 886.927 335.302C886.982 335.243 887.02 335.17 887.039 335.092C887.039 335.042 887.064 334.991 887.079 334.943C887.11 334.831 887.111 334.712 887.081 334.599C887.051 334.487 886.992 334.384 886.91 334.301V334.301Z" fill="white"/>
<path d="M875.842 346.1C875.842 345.936 875.798 345.776 875.715 345.635C875.642 345.407 875.511 345.202 875.334 345.041L874.962 344.753L874.52 344.566L874.03 344.5L873.54 344.566L873.1 344.753C872.894 344.866 872.72 345.029 872.595 345.228C872.481 345.34 872.399 345.48 872.358 345.635C872.242 345.853 872.187 346.098 872.199 346.345C872.193 346.688 872.281 347.027 872.451 347.325C872.558 347.529 872.716 347.703 872.908 347.83C873.079 347.986 873.287 348.095 873.512 348.146L873.985 348.212C874.162 348.21 874.338 348.182 874.508 348.128H874.525L874.571 348.111C874.639 348.086 874.706 348.057 874.77 348.025L874.967 347.944C875.173 347.831 875.347 347.667 875.473 347.469C875.586 347.356 875.668 347.216 875.71 347.062C875.793 346.921 875.837 346.761 875.837 346.597C875.883 346.435 875.884 346.263 875.842 346.1V346.1Z" fill="white"/>
<path d="M858.035 356.625V356.597C857.993 356.442 857.911 356.301 857.797 356.187C857.684 356.073 857.543 355.991 857.388 355.948H857.361C857.19 355.9 857.009 355.9 856.838 355.948C856.692 355.987 856.558 356.06 856.446 356.16C856.333 356.26 856.245 356.384 856.188 356.523C856.131 356.663 856.106 356.813 856.117 356.963C856.127 357.114 856.172 357.26 856.248 357.39C856.323 357.52 856.428 357.631 856.553 357.714C856.679 357.798 856.822 357.851 856.971 357.87C857.12 357.89 857.272 357.874 857.414 357.826C857.557 357.777 857.686 357.696 857.793 357.59C857.914 357.471 858.001 357.322 858.045 357.158C858.092 356.983 858.088 356.798 858.035 356.625V356.625Z" fill="white"/>
<path d="M861.079 342.381L860.981 342.148C860.921 342.037 860.834 341.942 860.728 341.873C860.667 341.814 860.592 341.772 860.511 341.749C860.396 341.687 860.265 341.657 860.134 341.663L859.882 341.699L859.647 341.797C859.435 341.935 859.277 342.141 859.199 342.381C859.185 342.428 859.178 342.476 859.177 342.525C859.148 342.655 859.154 342.79 859.194 342.916C859.196 342.927 859.196 342.938 859.194 342.949L859.215 343.025L859.311 343.252C859.373 343.356 859.459 343.443 859.563 343.505C859.621 343.563 859.694 343.605 859.773 343.626C859.884 343.687 860.01 343.716 860.137 343.71L860.389 343.674L860.617 343.578C860.727 343.519 860.819 343.432 860.885 343.326C860.967 343.234 861.025 343.123 861.054 343.002L861.074 342.927C861.073 342.916 861.073 342.905 861.074 342.894C861.074 342.805 861.097 342.719 861.107 342.641C861.109 342.554 861.1 342.466 861.079 342.381V342.381Z" fill="white"/>
<path d="M862.499 336.305C862.47 336.193 862.41 336.091 862.328 336.009C862.246 335.927 862.144 335.867 862.032 335.835C861.915 335.805 861.793 335.805 861.676 335.835H861.618H861.587C861.493 335.858 861.406 335.904 861.335 335.969C861.28 336 861.235 336.046 861.203 336.1C861.178 336.123 861.158 336.15 861.143 336.181C861.108 336.243 861.081 336.308 861.062 336.375L861.039 336.436C861.006 336.557 861.006 336.684 861.039 336.805C861.072 336.921 861.133 337.026 861.218 337.111C861.303 337.196 861.409 337.257 861.524 337.29C861.645 337.323 861.772 337.323 861.893 337.29L861.946 337.27C862.012 337.247 862.077 337.22 862.141 337.189C862.229 337.142 862.304 337.075 862.36 336.992C862.405 336.947 862.438 336.891 862.454 336.83C862.473 336.802 862.487 336.77 862.494 336.737C862.493 336.726 862.493 336.715 862.494 336.704C862.496 336.683 862.496 336.662 862.494 336.641C862.525 336.531 862.527 336.415 862.499 336.305Z" fill="white"/>
<path d="M867.582 346.752C867.555 346.688 867.529 346.625 867.501 346.559C867.453 346.468 867.382 346.39 867.294 346.335C867.217 346.264 867.123 346.215 867.021 346.191L866.852 346.16C866.71 346.121 866.559 346.12 866.416 346.158C866.274 346.196 866.143 346.271 866.039 346.375L865.91 346.544C865.835 346.672 865.795 346.818 865.794 346.966C865.79 347.078 865.815 347.188 865.867 347.287C865.9 347.391 865.959 347.484 866.039 347.557C866.141 347.659 866.268 347.733 866.408 347.772C866.553 347.813 866.707 347.813 866.852 347.772L867.021 347.742L867.213 347.661C867.305 347.612 867.382 347.541 867.438 347.454C867.487 347.404 867.523 347.342 867.542 347.274C867.593 347.18 867.616 347.073 867.61 346.966C867.605 346.896 867.595 346.822 867.582 346.752Z" fill="white"/>
<path d="M863.922 353.02C863.847 352.891 863.741 352.784 863.612 352.71C863.483 352.636 863.338 352.597 863.189 352.597C863.041 352.597 862.895 352.636 862.766 352.71C862.638 352.784 862.531 352.891 862.456 353.02C862.379 353.148 862.339 353.296 862.34 353.447C862.339 353.598 862.379 353.746 862.456 353.876L862.489 353.937C862.531 354.011 862.582 354.079 862.641 354.141C862.71 354.216 862.797 354.271 862.893 354.3C862.985 354.349 863.088 354.372 863.192 354.369L863.396 354.341C863.525 354.305 863.643 354.236 863.737 354.141C863.796 354.079 863.847 354.01 863.891 353.937C863.891 353.916 863.912 353.896 863.924 353.876C863.999 353.745 864.039 353.597 864.04 353.447C864.039 353.296 863.998 353.149 863.922 353.02V353.02Z" fill="white"/>
<path d="M877.102 355.682C876.054 355.682 876.051 357.312 877.102 357.312C878.153 357.312 878.153 355.682 877.102 355.682Z" fill="white"/>
<path d="M885.843 349.568C885.798 349.408 885.711 349.263 885.591 349.147L885.396 348.995C885.248 348.911 885.081 348.866 884.911 348.864C884.782 348.858 884.654 348.886 884.54 348.947C884.421 348.985 884.315 349.054 884.232 349.147C884.14 349.231 884.071 349.337 884.032 349.455C883.972 349.569 883.944 349.697 883.951 349.826C883.951 349.91 883.974 349.995 883.984 350.079C884.03 350.239 884.117 350.385 884.237 350.501L884.431 350.652C884.578 350.738 884.746 350.784 884.916 350.784C885.044 350.789 885.172 350.761 885.285 350.7C885.404 350.661 885.511 350.593 885.596 350.501C885.688 350.417 885.756 350.311 885.793 350.192C885.853 350.079 885.882 349.952 885.876 349.824L885.843 349.568Z" fill="white"/>
<path d="M884.158 358.954C884.121 358.822 884.051 358.702 883.954 358.605C883.803 358.459 883.603 358.375 883.393 358.373C883.286 358.367 883.181 358.391 883.087 358.441C882.99 358.473 882.903 358.529 882.834 358.605C882.737 358.702 882.666 358.822 882.63 358.954C882.594 359.092 882.594 359.238 882.63 359.376C882.636 359.419 882.644 359.461 882.655 359.502L882.731 359.684C882.777 359.773 882.846 359.848 882.93 359.901C882.977 359.949 883.035 359.983 883.1 360C883.19 360.048 883.293 360.071 883.395 360.066L883.6 360.038L883.784 359.962C883.872 359.915 883.946 359.846 883.999 359.763C884.065 359.691 884.113 359.604 884.138 359.51C884.138 359.469 884.153 359.424 884.161 359.384C884.199 359.243 884.198 359.094 884.158 358.954V358.954Z" fill="white"/>
<path d="M870.758 362.137C870.646 361.795 870.419 361.5 870.116 361.304C869.903 361.178 869.659 361.113 869.412 361.114C869.269 361.108 869.126 361.128 868.99 361.172C868.813 361.214 868.65 361.301 868.517 361.425C868.367 361.522 868.244 361.656 868.161 361.814C868.116 361.925 868.068 362.034 868.022 362.145C867.965 362.324 867.956 362.515 867.997 362.698C867.997 362.821 868.03 362.941 868.09 363.047C868.146 363.219 868.245 363.373 868.378 363.494L868.659 363.709C868.791 363.787 868.935 363.841 869.086 363.871C869.315 363.929 869.554 363.929 869.783 363.871L870.116 363.729C870.326 363.607 870.5 363.433 870.622 363.224C870.722 363.069 870.778 362.89 870.786 362.706C870.829 362.518 870.82 362.321 870.758 362.137V362.137Z" fill="white"/>
<path d="M872.458 353.34C872.408 353.251 872.334 353.177 872.245 353.125C872.157 353.073 872.056 353.046 871.953 353.046C871.85 353.046 871.75 353.073 871.661 353.125C871.572 353.177 871.499 353.251 871.448 353.34C871.394 353.429 871.366 353.53 871.367 353.633C871.367 353.737 871.395 353.838 871.448 353.927C871.448 353.944 871.473 353.964 871.488 353.982C871.515 354.022 871.543 354.06 871.574 354.096L871.68 354.179C871.762 354.226 871.854 354.25 871.948 354.25L872.087 354.232C872.111 354.228 872.133 354.218 872.153 354.204C872.218 354.184 872.278 354.146 872.324 354.096L872.405 353.987L872.451 353.927C872.503 353.838 872.53 353.736 872.529 353.633C872.533 353.531 872.508 353.43 872.458 353.34V353.34Z" fill="white"/>
<path d="M862.305 364.621L862.206 364.386C862.147 364.274 862.06 364.179 861.954 364.111C861.86 364.023 861.745 363.962 861.62 363.934L861.552 363.913C861.381 363.866 861.201 363.865 861.029 363.909C860.858 363.953 860.701 364.042 860.574 364.166C860.521 364.232 860.468 364.3 860.418 364.368C860.327 364.521 860.279 364.696 860.279 364.874C860.273 365.008 860.304 365.141 860.367 365.26C860.406 365.384 860.478 365.496 860.574 365.583C860.701 365.708 860.858 365.796 861.029 365.841C861.201 365.885 861.381 365.883 861.552 365.836L861.62 365.816L861.855 365.717C861.967 365.658 862.062 365.571 862.13 365.465C862.192 365.405 862.236 365.33 862.259 365.247C862.32 365.13 862.348 365 862.343 364.868L862.305 364.621Z" fill="white"/>
<path d="M853.028 364.985L852.922 364.732C852.857 364.613 852.764 364.511 852.651 364.436C852.55 364.345 852.428 364.281 852.295 364.249L852.227 364.229C852.044 364.177 851.851 364.176 851.667 364.224C851.484 364.272 851.317 364.369 851.183 364.505L851.017 364.722C850.919 364.885 850.869 365.072 850.87 365.263C850.864 365.405 850.895 365.547 850.961 365.674C851.004 365.807 851.08 365.926 851.183 366.02C851.317 366.155 851.485 366.251 851.668 366.299C851.851 366.347 852.044 366.346 852.227 366.296L852.295 366.276L852.548 366.169C852.667 366.105 852.768 366.012 852.843 365.899C852.906 365.834 852.952 365.754 852.977 365.667C853.042 365.542 853.074 365.403 853.068 365.263L853.028 364.985Z" fill="white"/>
<path d="M880.72 366.177C879.684 366.177 879.684 367.784 880.72 367.784C881.756 367.784 881.761 366.177 880.72 366.177Z" fill="white"/>
<path d="M947.344 308.368H914.142V342.487H947.344V308.368Z" fill="#C27D56"/>
<path d="M942.7 313.138H918.783V337.717H942.7V313.138Z" fill="#F9D8AD"/>
<path d="M935.94 320.085H925.546V330.767H935.94V320.085Z" fill="#8BC3C0"/>
<path d="M934.141 365.318C934.737 364.915 935.362 364.556 936.011 364.244C936.342 364.083 936.824 363.992 937.003 364.3C937.158 364.575 936.928 364.906 936.938 365.219C936.955 365.725 937.572 365.99 938.062 365.904C938.552 365.818 938.972 365.508 939.441 365.343C941.829 364.499 944.378 367.488 946.733 366.558C947.468 366.27 948.213 365.609 948.933 365.932C949.241 366.071 949.487 366.379 949.823 366.384C950.634 366.384 950.495 364.921 951.22 364.558C951.411 364.484 951.622 364.478 951.817 364.541C952.012 364.603 952.18 364.73 952.293 364.901C952.512 365.249 952.633 365.65 952.645 366.061C952.788 367.546 952.65 369.045 952.238 370.479C952.051 371.129 951.621 371.887 950.949 371.816C951.098 371.45 951.15 371.052 951.098 370.661C951.047 370.269 950.894 369.898 950.655 369.583C950.417 369.269 950.1 369.022 949.737 368.866C949.374 368.711 948.977 368.653 948.585 368.698C947.804 368.779 947.094 369.257 946.311 369.257C945.401 369.257 944.636 368.625 943.817 368.231C942.715 367.702 941.461 367.585 940.28 367.9C939.419 368.135 938.605 368.597 937.716 368.638C936.827 368.678 935.793 368.049 935.877 367.16L933.017 369.196C932.848 369.357 932.624 369.448 932.39 369.449C931.905 369.378 931.87 368.691 931.994 368.213C932.516 366.172 933.453 364.259 934.745 362.595C934.416 363.469 934.213 364.386 934.141 365.318V365.318Z" fill="#99583F"/>
<path d="M916.163 373.956C916.029 374.628 915.587 375.105 915.173 375.025C914.758 374.944 914.534 374.332 914.667 373.66C914.801 372.988 915.241 372.511 915.655 372.594C916.07 372.678 916.294 373.299 916.163 373.956Z" fill="#5F130D"/>
<path d="M918.694 366.043C917.77 365.683 916.829 365.366 915.872 365.093C916.012 364.865 916.231 364.696 916.486 364.617C916.742 364.539 917.018 364.556 917.262 364.666C917.81 364.884 918.293 365.609 918.694 366.043Z" fill="#5F130D"/>
<path d="M933.57 398.801C929.639 402.517 927.072 407.439 924.98 412.423C922.399 418.554 920.416 424.92 919.061 431.432C918.169 435.712 917.504 440.178 915.173 443.88C914.071 445.63 912.646 447.141 911.428 448.821C909.271 451.825 907.851 455.448 907.917 459.147C907.982 462.845 909.665 466.587 912.694 468.709C915.087 470.389 918.078 470.96 920.988 471.236C922.583 471.382 924.212 471.448 925.763 471.064C928.517 470.382 930.753 468.353 932.463 466.092C933.886 464.21 935.028 462.133 936.129 460.049C943.231 446.615 948.976 432.506 953.281 417.933C954.544 413.616 955.711 409.159 955.37 404.672C955.072 400.744 952.844 393.872 948.145 393.407C942.786 392.869 937.403 395.175 933.57 398.801Z" fill="#F83B4F"/>
<path d="M939.007 380.727C939.073 380.692 939.148 380.679 939.222 380.689C939.299 380.72 939.362 380.777 939.401 380.85C939.713 381.323 939.916 381.859 939.995 382.419C939.705 382.069 939.328 381.802 938.901 381.646C938.427 382.206 937.915 382.732 937.367 383.22C937.476 383.675 937.941 383.991 938.009 384.453C938.023 384.627 937.994 384.802 937.923 384.962C937.853 385.122 937.743 385.261 937.605 385.368C937.327 385.578 937.015 385.739 936.683 385.845C936.544 385.754 936.574 385.532 936.683 385.398C936.791 385.264 936.935 385.176 937.024 385.032C937.276 384.625 936.892 384.125 936.536 383.801C936.344 383.632 936.155 383.46 935.965 383.296C935.868 383.228 935.801 383.124 935.778 383.008C935.728 382.043 938.365 380.992 939.007 380.727Z" fill="#FC571E"/>
<path d="M936.72 387.621C936.654 387.959 936.489 388.269 936.247 388.513C936.004 388.757 935.695 388.923 935.357 388.991C935.02 389.059 934.67 389.025 934.352 388.894C934.034 388.763 933.762 388.541 933.571 388.255C933.379 387.969 933.277 387.633 933.276 387.289C933.276 386.945 933.378 386.609 933.569 386.323C933.759 386.037 934.031 385.813 934.349 385.682C934.666 385.55 935.016 385.515 935.354 385.582C935.805 385.672 936.203 385.936 936.459 386.319C936.716 386.701 936.809 387.17 936.72 387.621Z" fill="white"/>
<path d="M975.11 302.663C976.598 299.956 976.038 296.79 973.859 295.592C971.68 294.395 968.708 295.618 967.219 298.325C965.731 301.032 966.291 304.198 968.47 305.396C970.649 306.593 973.622 305.37 975.11 302.663Z" fill="#F83B4F"/>
<path d="M958.737 302.664C960.225 299.957 959.665 296.792 957.486 295.594C955.307 294.396 952.335 295.619 950.846 298.326C949.358 301.033 949.918 304.199 952.097 305.397C954.276 306.595 957.249 305.371 958.737 302.664Z" fill="#8BC3C0"/>
<path d="M933.714 300.48C933.234 303.441 934.947 305.841 937.544 305.841C940.141 305.841 942.63 303.441 943.102 300.48C943.575 297.519 941.867 295.119 939.272 295.119C936.677 295.119 934.194 297.519 933.714 300.48Z" fill="#FFBA55"/>
<path d="M898.63 519.881C902.292 513.218 900.916 505.428 895.556 502.481C890.195 499.534 882.881 502.546 879.218 509.209C875.555 515.872 876.931 523.662 882.292 526.608C887.652 529.555 894.967 526.543 898.63 519.881Z" fill="#FFBA55"/>
<path d="M939.314 519.883C942.977 513.22 941.601 505.43 936.24 502.483C930.88 499.536 923.565 502.549 919.903 509.211C916.24 515.874 917.616 523.664 922.976 526.611C928.337 529.557 935.651 526.545 939.314 519.883Z" fill="#F83B4F"/>
<path d="M857.941 519.881C861.604 513.218 860.228 505.428 854.867 502.481C849.507 499.534 842.192 502.547 838.53 509.209C834.867 515.872 836.243 523.662 841.603 526.609C846.964 529.555 854.278 526.543 857.941 519.881Z" fill="#8BC3C0"/>
</svg>
