<svg width="2000" height="725" viewBox="0 0 2000 725" fill="none" xmlns="http://www.w3.org/2000/svg">
<g clip-path="url(#clip0_33_1903)">
<rect x="1327" width="673" height="725" fill="white"/>
<path d="M2000 0H0V725H2000V0Z" fill="url(#paint0_linear_33_1903)"/>
<path d="M1992.67 3V728H1453.92L1041.43 567.982C986.198 546.543 941 493.96 941 451.113V3H1992.67Z" fill="url(#paint1_linear_33_1903)" fill-opacity="0.5"/>
<path d="M1431.6 365.971L1441.4 558.06C1441.51 560.077 1440.86 561.541 1439.74 562.271L1444.37 559.236L1449.01 556.201C1450.13 555.484 1450.77 554.008 1450.66 551.986L1440.87 359.897L1431.6 365.971Z" fill="#FF6462"/>
<path d="M1433.89 349.164L1135.85 197.921C1134.02 196.994 1132.4 196.99 1131.27 197.731L1122 203.814C1123.13 203.069 1124.75 203.074 1126.59 204.004L1424.62 355.247C1428.26 357.094 1431.41 361.924 1431.62 365.98L1440.88 359.897C1440.68 355.834 1437.53 351.011 1433.89 349.164Z" fill="#E3F6FF"/>
<path d="M1424.62 355.237C1428.26 357.084 1431.41 361.914 1431.62 365.97L1441.41 558.059C1441.63 562.12 1438.81 563.928 1435.17 562.081L1137.13 410.837C1133.49 408.99 1130.34 404.16 1130.13 400.098L1120.34 208.009C1120.12 203.954 1122.94 202.147 1126.58 203.994L1424.62 355.237Z" fill="#145075"/>
<path d="M1405.72 371.004C1405.93 375 1409 379.696 1412.57 381.52C1416.15 383.345 1418.86 381.56 1418.65 377.58C1418.43 373.601 1415.37 368.888 1411.8 367.063C1408.22 365.238 1405.5 367.008 1405.72 371.004Z" fill="#FF6462"/>
<path d="M1385.52 360.752C1385.73 364.748 1388.8 369.444 1392.37 371.269C1395.94 373.094 1398.66 371.308 1398.45 367.328C1398.23 363.349 1395.17 358.636 1391.59 356.811C1388.02 354.987 1385.3 356.756 1385.52 360.752Z" fill="#80D3FA"/>
<path d="M1365.31 350.497C1365.53 354.496 1368.6 359.189 1372.17 361.014C1375.74 362.838 1378.46 361.056 1378.24 357.073C1378.03 353.091 1374.96 348.381 1371.39 346.556C1367.82 344.732 1365.1 346.501 1365.31 350.497Z" fill="#E3F6FF"/>
<path d="M1340.37 345.263L1131.42 239.229L1130.54 222.948L1339.49 328.982L1340.37 345.263Z" fill="#E3F6FF"/>
<path d="M1250.59 312.905L1132.15 252.799L1131.91 248.276L1250.34 308.382L1250.59 312.905Z" fill="#80D3FA"/>
<path d="M1065 364.111C1060.31 361.735 1056.61 361.74 1056.94 367.708C1056.61 361.74 1052.71 357.874 1048.02 355.495C1043.33 353.117 1039.79 356.02 1040.11 361.988C1040.6 370.966 1053.71 390.958 1058.31 393.292C1062.91 395.626 1074.54 387.698 1074.09 379.218C1073.77 373.254 1069.69 366.49 1065 364.111Z" fill="#FF6462"/>
<path d="M1442.63 443.52L1444.8 486.165C1444.93 488.431 1444.2 490.074 1442.94 490.897L1448.5 487.254C1449.77 486.43 1450.48 484.792 1450.36 482.528L1448.19 439.877L1442.63 443.52Z" fill="#FF6462"/>
<path d="M1440.32 427.811L1346.56 380.232C1344.5 379.187 1342.68 379.183 1341.41 380.017L1335.85 383.657C1337.12 382.823 1338.94 382.833 1341 383.872L1434.76 431.454C1438.86 433.533 1442.4 438.96 1442.64 443.513L1448.2 439.87C1447.95 435.32 1444.41 429.89 1440.32 427.811Z" fill="#E3F6FF"/>
<path d="M1434.76 431.454C1438.86 433.533 1442.4 438.96 1442.64 443.513L1444.82 486.158C1445.06 490.717 1441.89 492.75 1437.8 490.674L1344.03 443.092C1339.94 441.013 1336.4 435.587 1336.16 431.034L1333.98 388.386C1333.74 383.83 1336.91 381.796 1341 383.872L1434.76 431.454Z" fill="#80D3FA"/>
<path d="M1385.19 456.788L1342.44 435.1L1340.17 392.829L1382.91 414.52L1385.19 456.788Z" fill="#0772B3"/>
<path d="M1437.46 450.506L1388.66 425.258L1388.3 418.57L1437.1 443.818L1437.46 450.506Z" fill="#FF6462"/>
<path opacity="0.5" d="M1429.92 456.062L1389.2 435.29L1389.02 431.946L1429.74 452.715L1429.92 456.062Z" fill="#2D80B3"/>
<path opacity="0.5" d="M1419.31 466.836L1390.1 452.017L1389.92 448.67L1419.13 463.492L1419.31 466.836Z" fill="#2D80B3"/>
<path opacity="0.5" d="M1418.87 458.766L1389.66 443.947L1389.48 440.599L1418.69 455.422L1418.87 458.766Z" fill="#2D80B3"/>
<path d="M1437.06 482.745L1430.96 475.459L1425.33 476.794L1424.64 463.98L1436.37 469.935L1437.06 482.745Z" fill="#FF6462"/>
<path d="M1397.52 297.444C1397.9 304.597 1391.68 307.137 1383.69 303.08L1166.43 192.822C1158.44 188.768 1151.59 179.598 1151.2 172.445C1150.82 165.291 1157.04 162.752 1165.03 166.809L1382.29 277.064C1390.28 281.121 1397.13 290.291 1397.52 297.444Z" fill="#E3F6FF"/>
<path d="M1295.94 367.305L1303.77 520.749C1303.89 523.11 1303.13 524.82 1301.83 525.679L1307.25 522.121L1309.06 520.937C1310.37 520.078 1311.12 518.369 1311 516.007L1303.18 362.563L1295.94 367.305Z" fill="#FF6462"/>
<path d="M1294.98 349.99L1105.15 254.099C1103 253.012 1101.1 253.002 1099.77 253.875L1092.52 258.621C1093.85 257.752 1095.76 257.757 1097.89 258.845L1287.74 354.725C1292 356.89 1295.69 362.549 1295.93 367.299L1303.17 362.557C1302.93 357.813 1299.24 352.155 1294.98 349.99Z" fill="#E3F6FF"/>
<path d="M1287.74 354.732C1292 356.897 1295.69 362.555 1295.93 367.305L1303.76 520.749C1304.01 525.502 1300.71 527.618 1296.45 525.452L1106.61 429.572C1102.34 427.406 1098.65 421.748 1098.41 416.998L1090.59 263.554C1090.33 258.805 1093.64 256.686 1097.89 258.848L1287.74 354.732Z" fill="#0772B3"/>
<path opacity="0.5" d="M1243.61 417.624C1245.16 446.424 1225.56 459.186 1199.82 446.128C1174.09 433.07 1151.98 399.139 1150.43 370.342C1148.87 341.545 1168.48 328.77 1194.21 341.838C1219.94 354.906 1242.06 388.824 1243.61 417.624Z" fill="#E3F6FF"/>
<path d="M1218.06 398.998L1189.71 367.14C1188.34 365.598 1187.06 364.55 1185.94 363.986C1184.77 363.392 1183.77 363.331 1183.04 363.814L1178.18 366.999C1178.91 366.523 1179.9 366.578 1181.08 367.171C1182.2 367.735 1183.47 368.783 1184.84 370.326L1213.2 402.186C1217.14 406.606 1217.93 410.738 1215.5 412.338L1220.36 409.149C1222.8 407.552 1222 403.411 1218.06 398.998Z" fill="#E3F6FF"/>
<path d="M1181.08 367.181C1182.2 367.745 1183.47 368.793 1184.84 370.336L1213.2 402.196C1217.89 407.456 1218.13 412.307 1213.75 412.97L1187.22 416.974C1185.98 417.162 1184.71 416.954 1183.59 416.378C1180.89 415.012 1178.93 411.675 1178.72 407.534L1176.88 371.415C1176.67 367.261 1178.39 365.805 1181.08 367.181Z" fill="#FF6462"/>
<path d="M1500.98 402.393L1504.06 459.666L1470.48 442.625L1467.39 385.353L1500.98 402.393Z" fill="#145075"/>
<path d="M1499.01 441.878L1473.85 429.108L1472.45 403.137L1497.61 415.904L1499.01 441.878Z" fill="#E3F6FF"/>
<path d="M1499.26 446.591L1499.85 457.531L1474.68 444.761L1474.1 433.821L1499.26 446.591Z" fill="#E3F6FF"/>
<path d="M1496.77 400.258L1497.35 411.175L1472.19 398.405L1471.6 387.488L1496.77 400.258Z" fill="#E3F6FF"/>
<path d="M1091.22 234.439C1091.32 236.336 1090.02 237.184 1088.33 236.323L1052.39 218.079C1050.7 217.22 1049.23 214.964 1049.12 213.071L1047.94 191.097C1047.84 189.2 1049.14 188.352 1050.84 189.213L1086.77 207.448C1088.46 208.309 1089.94 210.562 1090.04 212.459L1091.22 234.439Z" fill="#E3F6FF"/>
<path d="M1066.23 204.986C1064.98 203.578 1064.02 203.712 1064.11 205.281L1064.63 214.963C1064.71 216.532 1065.74 217.669 1066.9 217.488L1073.96 216.395C1075.13 216.214 1075.06 214.917 1073.81 213.51L1066.23 204.986Z" fill="#FF6462"/>
<path d="M1083.28 240.09C1083.82 241.109 1083.57 241.592 1082.72 241.161L1058.85 229.048C1058 228.617 1057.68 227.846 1058.13 227.329L1059.54 225.729C1059.99 225.211 1061.06 225.141 1061.91 225.568L1079.1 234.297C1079.95 234.728 1081.08 235.915 1081.62 236.934L1083.28 240.09Z" fill="#145075"/>
<path d="M1054.39 278.613C1054.01 277.483 1053.23 276.532 1052.19 275.935L1031.51 265.443C1031.29 265.302 1031.03 265.219 1030.77 265.201C1030.51 265.183 1030.24 265.231 1030 265.341C1027.49 266.79 1026.78 273.785 1025.99 284.303C1025.8 286.826 1025.58 289.841 1025.29 292.261C1024.57 291.601 1023.76 291.038 1022.9 290.586C1019.74 288.989 1017.31 290.059 1017.47 292.984C1017.63 295.909 1020.31 299.575 1023.47 301.172C1025.02 301.959 1026.39 302.095 1027.37 301.688C1027.54 301.694 1027.71 301.661 1027.86 301.592C1028.02 301.522 1028.15 301.419 1028.26 301.288C1029.53 299.706 1029.94 294.937 1030.52 287.285C1030.92 281.929 1031.58 273.294 1032.88 271.082L1048.68 279.101C1047.68 282.384 1047.18 287.817 1046.66 294.796C1046.47 297.319 1046.25 300.333 1045.96 302.757C1045.24 302.095 1044.44 301.531 1043.57 301.082C1040.41 299.481 1037.99 300.555 1038.14 303.476C1038.3 306.398 1040.99 310.064 1044.14 311.665C1045.69 312.455 1047.07 312.591 1048.05 312.177C1048.22 312.185 1048.38 312.156 1048.54 312.091C1048.69 312.026 1048.82 311.926 1048.93 311.801C1050.2 310.218 1050.62 305.446 1051.19 297.797C1051.64 291.907 1052.38 282.048 1053.97 281.135C1054.62 280.748 1054.78 279.757 1054.39 278.613Z" fill="#145075"/>
<path d="M1380.13 309.374C1372.13 305.311 1365.25 294.757 1364.8 285.849C1364.56 281.418 1365.97 278.231 1368.42 276.611L1364.95 278.887C1362.5 280.491 1361.1 283.693 1361.32 288.122C1361.78 297.033 1368.66 307.588 1376.66 311.65C1380.69 313.694 1384.24 313.709 1386.73 312.094L1390.2 309.821C1387.72 311.433 1384.16 311.418 1380.13 309.374Z" fill="#80D3FA"/>
<path d="M1391.11 314.975L1394.59 312.702L1408.62 334.261L1405.15 336.533L1391.11 314.975Z" fill="#80D3FA"/>
<path d="M1362.16 274.632L1365.63 272.356C1368.75 270.316 1373.22 270.335 1378.28 272.901C1388.33 278.003 1396.97 291.275 1397.54 302.462C1397.78 306.969 1396.66 310.469 1394.59 312.702L1391.11 314.975C1393.18 312.745 1394.3 309.246 1394.07 304.738C1393.5 293.538 1384.86 280.269 1374.8 275.18C1369.74 272.605 1365.28 272.592 1362.16 274.632Z" fill="#80D3FA"/>
<path d="M1391.11 314.975L1405.15 336.534L1401.83 338.683L1387.83 317.192C1384.87 318.3 1381.08 317.936 1376.87 315.811C1366.82 310.709 1358.18 297.437 1357.61 286.25C1357.04 275.062 1364.75 270.098 1374.8 275.193C1384.85 280.289 1393.5 293.568 1394.07 304.752C1394.3 309.246 1393.18 312.732 1391.11 314.975ZM1376.66 311.65C1384.66 315.71 1390.8 311.76 1390.35 302.853C1389.9 293.945 1383.02 283.387 1375.01 279.318C1367.01 275.249 1360.87 279.208 1361.32 288.122C1361.77 297.036 1368.66 307.588 1376.66 311.65Z" fill="#0772B3"/>
<path d="M1438.96 510.409L1326.11 453.143L1320.55 456.786L1433.41 514.049C1444.45 519.653 1451.56 531.726 1451.97 539.657C1452.29 546.025 1452.3 546.186 1452.3 546.209L1452.86 557.154L1458.41 553.514L1457.86 542.566C1457.86 542.566 1457.85 542.396 1457.52 536.014C1457.12 528.083 1450.01 516.016 1438.96 510.409Z" fill="#80D3FA"/>
<path d="M1433.41 514.049C1444.45 519.653 1451.57 531.726 1451.97 539.657C1452.3 546.025 1452.3 546.186 1452.31 546.209L1452.86 557.153C1452.57 556.469 1446.99 543.512 1430.88 535.343L1339.45 488.949C1327.93 483.101 1321.43 473.859 1320.89 463.341C1320.55 456.98 1320.54 456.823 1320.54 456.816L1433.41 514.049Z" fill="#E3F6FF"/>
<path d="M1338.55 476.824C1338.73 480.266 1336.39 481.792 1333.32 480.229C1330.24 478.667 1327.6 474.625 1327.41 471.169C1327.23 467.714 1329.57 466.201 1332.64 467.763C1335.72 469.326 1338.36 473.378 1338.55 476.824Z" fill="#FF6462"/>
<path d="M1377.86 493.773L1341.13 475.135L1341 472.717L1377.73 491.352L1377.86 493.773Z" fill="#0772B3"/>
<path opacity="0.5" d="M1440.75 533.544L1341.56 483.215L1341.37 479.691L1440.56 530.026L1440.75 533.544Z" fill="#2D80B3"/>
<path d="M1457.34 606.664L1344.49 549.398L1338.93 553.038L1451.79 610.304C1462.83 615.908 1469.94 627.978 1470.35 635.912C1470.67 642.277 1470.68 642.441 1470.68 642.464L1471.24 653.412L1476.79 649.769L1476.24 638.824C1476.24 638.824 1476.23 638.654 1475.9 632.272C1475.5 624.338 1468.38 612.268 1457.34 606.664Z" fill="#80D3FA"/>
<path d="M1451.79 610.304C1462.83 615.908 1469.94 627.978 1470.35 635.912C1470.67 642.277 1470.68 642.441 1470.68 642.464L1471.24 653.412C1470.94 652.728 1465.37 639.771 1449.26 631.601L1357.82 585.204C1346.3 579.36 1339.8 570.115 1339.27 559.596C1338.94 553.231 1338.94 553.074 1338.94 553.067L1451.79 610.304Z" fill="#E3F6FF"/>
<path d="M1356.92 573.076C1357.11 576.518 1354.77 578.043 1351.69 576.484C1348.62 574.925 1345.97 570.88 1345.79 567.424C1345.6 563.969 1347.94 562.456 1351.02 564.015C1354.09 565.574 1356.74 569.633 1356.92 573.076Z" fill="#FF6462"/>
<path d="M1396.23 590.028L1359.5 571.39L1359.37 568.969L1396.1 587.611L1396.23 590.028Z" fill="#0772B3"/>
<path opacity="0.5" d="M1459.12 629.799L1359.94 579.47L1359.75 575.946L1458.93 626.278L1459.12 629.799Z" fill="#2D80B3"/>
<path d="M1345.15 509.287C1339.33 506.338 1334.86 506.409 1331.98 508.295L1326.42 511.935C1329.3 510.048 1333.78 509.978 1339.59 512.93L1442.31 565.05C1442.31 565.05 1442.32 565.22 1442.66 571.601C1442.92 576.389 1441.82 579.612 1439.47 581.15L1445.03 577.507C1447.37 575.972 1448.46 572.75 1448.22 567.961C1447.89 561.596 1447.88 561.432 1447.88 561.409L1345.15 509.287Z" fill="#80D3FA"/>
<path d="M1339.6 512.93C1328.56 507.326 1322.33 512.624 1322.74 520.555C1323.08 526.919 1323.07 527.081 1323.07 527.107L1323.63 538.042L1323.68 537.964L1323.63 538.042L1328.92 534.574C1332.14 533.845 1337.09 534.219 1344.5 537.976L1425.79 579.23C1437.31 585.074 1443.19 582.11 1442.65 571.598C1442.31 565.234 1442.3 565.074 1442.3 565.047L1339.6 512.93ZM1324.46 536.932C1324.36 537.032 1324.27 537.129 1324.19 537.223C1324.28 537.131 1324.37 537.034 1324.46 536.932ZM1323.76 537.785L1323.67 537.921L1323.76 537.785ZM1324.14 537.292L1323.97 537.498L1324.14 537.292ZM1323.93 537.549C1323.87 537.625 1323.82 537.696 1323.78 537.758C1323.85 537.695 1323.88 537.624 1323.94 537.549L1323.93 537.549ZM1325.28 536.205C1325.42 536.096 1325.57 535.989 1325.73 535.885C1325.58 535.989 1325.43 536.095 1325.29 536.205L1325.28 536.205ZM1324.49 536.905C1324.58 536.811 1324.68 536.714 1324.78 536.62C1324.69 536.717 1324.59 536.814 1324.5 536.908L1324.49 536.905ZM1324.88 536.532C1324.98 536.445 1325.09 536.35 1325.2 536.259C1325.09 536.353 1324.99 536.447 1324.89 536.535L1324.88 536.532Z" fill="#E3F6FF"/>
<path d="M1340.73 525.384C1340.91 528.745 1338.63 530.231 1335.63 528.707C1332.63 527.184 1330.05 523.233 1329.87 519.875C1329.69 516.518 1331.97 515.029 1334.97 516.552C1337.98 518.076 1340.55 522.027 1340.73 525.384Z" fill="#FF6462"/>
<path d="M1383.3 543.121L1343.19 522.805L1343.07 520.443L1383.17 540.759L1383.3 543.121Z" fill="#0772B3"/>
<path opacity="0.5" d="M1428.11 573.524L1343.62 530.685L1343.43 527.249L1427.92 570.088L1428.11 573.524Z" fill="#2D80B3"/>
<path d="M1096.91 446.353C1097.4 455.377 1091.25 459.377 1083.19 455.304C1075.13 451.231 1068.19 440.577 1067.71 431.554C1067.23 422.53 1073.37 418.527 1081.43 422.619C1089.5 426.712 1096.42 437.326 1096.91 446.353Z" fill="#E3F6FF"/>
<path d="M1150.73 470.973L1144.69 464.187C1144.46 463.917 1144.19 463.688 1143.88 463.511C1143.79 463.451 1143.69 463.416 1143.58 463.41C1143.47 463.403 1143.36 463.426 1143.26 463.475L1140.96 464.979C1141.06 464.929 1141.17 464.907 1141.28 464.914C1141.39 464.922 1141.5 464.959 1141.59 465.021C1141.89 465.194 1142.17 465.422 1142.39 465.693L1148.44 472.48C1149.27 473.42 1149.44 474.305 1148.92 474.648L1151.22 473.141C1151.76 472.804 1151.57 471.914 1150.73 470.973Z" fill="#80D3FA"/>
<path d="M1141.59 465.027C1141.89 465.201 1142.17 465.429 1142.39 465.7L1148.44 472.486C1149.43 473.612 1149.48 474.641 1148.56 474.779L1142.9 475.629C1142.64 475.671 1142.36 475.626 1142.13 475.5C1141.81 475.303 1141.54 475.026 1141.36 474.696C1141.18 474.366 1141.08 473.995 1141.09 473.618L1140.69 465.913C1140.64 465.042 1141.01 464.736 1141.59 465.027Z" fill="#145075"/>
<path d="M1154.61 467.962C1154.52 467.901 1154.41 467.866 1154.3 467.861C1154.18 467.856 1154.07 467.881 1153.97 467.934L1151.67 469.441C1151.77 469.387 1151.89 469.362 1152 469.366C1152.11 469.37 1152.22 469.405 1152.32 469.466C1152.59 469.621 1152.82 469.838 1152.99 470.098C1153.16 470.359 1153.26 470.657 1153.29 470.967L1153.83 481.449C1153.84 481.559 1153.83 481.671 1153.79 481.774C1153.75 481.878 1153.68 481.969 1153.6 482.04L1155.89 480.533C1155.98 480.464 1156.05 480.373 1156.09 480.269C1156.13 480.166 1156.14 480.053 1156.12 479.943L1155.59 469.46C1155.56 469.151 1155.45 468.855 1155.28 468.594C1155.11 468.334 1154.88 468.117 1154.61 467.962V467.962Z" fill="#80D3FA"/>
<path d="M1152.32 469.466C1152.59 469.621 1152.82 469.837 1152.99 470.098C1153.16 470.359 1153.26 470.657 1153.29 470.967L1153.83 481.449C1153.86 482.016 1153.47 482.27 1152.95 482.012C1152.68 481.857 1152.45 481.639 1152.28 481.378C1152.11 481.116 1152.01 480.818 1151.98 480.508L1151.44 470.025C1151.41 469.458 1151.81 469.207 1152.32 469.466Z" fill="#145075"/>
<path d="M1121 450.894C1120.9 450.834 1120.79 450.799 1120.68 450.795C1120.57 450.791 1120.46 450.816 1120.36 450.869L1118.06 452.372C1118.16 452.319 1118.28 452.294 1118.39 452.3C1118.5 452.305 1118.61 452.341 1118.7 452.404C1118.97 452.559 1119.2 452.775 1119.37 453.035C1119.54 453.295 1119.64 453.591 1119.67 453.899L1120.21 464.381C1120.23 464.492 1120.21 464.605 1120.17 464.709C1120.13 464.813 1120.07 464.905 1119.98 464.975L1122.28 463.468C1122.36 463.398 1122.43 463.307 1122.47 463.202C1122.51 463.098 1122.52 462.985 1122.51 462.875L1121.97 452.392C1121.94 452.083 1121.83 451.786 1121.67 451.526C1121.5 451.266 1121.27 451.049 1121 450.894V450.894Z" fill="#80D3FA"/>
<path d="M1118.69 452.407C1118.96 452.563 1119.19 452.779 1119.36 453.039C1119.53 453.298 1119.63 453.594 1119.66 453.902L1120.2 464.385C1120.23 464.952 1119.84 465.206 1119.33 464.947C1119.06 464.792 1118.83 464.576 1118.66 464.315C1118.49 464.054 1118.39 463.756 1118.35 463.446L1117.82 452.964C1117.79 452.397 1118.18 452.146 1118.69 452.407Z" fill="#145075"/>
<path d="M1131.83 457.4C1131.59 457.278 1131.31 457.233 1131.05 457.271L1125.4 458.12C1125.26 458.139 1125.14 458.185 1125.03 458.255L1122.73 459.762C1122.84 459.692 1122.96 459.646 1123.09 459.627L1128.75 458.777C1129.02 458.737 1129.29 458.782 1129.53 458.906C1129.85 459.104 1130.11 459.381 1130.29 459.71C1130.47 460.039 1130.57 460.41 1130.56 460.786L1130.96 468.49C1130.98 468.985 1130.88 469.303 1130.68 469.431L1132.98 467.925C1133.17 467.796 1133.28 467.478 1133.25 466.984L1132.86 459.279C1132.87 458.903 1132.77 458.532 1132.59 458.203C1132.41 457.874 1132.15 457.597 1131.83 457.4Z" fill="#80D3FA"/>
<path d="M1129.53 458.906C1129.85 459.104 1130.11 459.381 1130.29 459.71C1130.47 460.039 1130.57 460.41 1130.56 460.785L1130.96 468.49C1131 469.371 1130.64 469.683 1130.06 469.392C1129.75 469.218 1129.48 468.989 1129.26 468.716L1123.21 461.943C1122.22 460.824 1122.17 459.792 1123.09 459.65L1128.75 458.801C1129.01 458.752 1129.28 458.789 1129.53 458.906V458.906Z" fill="#145075"/>
<path d="M1109.76 446.204L1104.04 443.302C1103.85 443.179 1103.63 443.109 1103.41 443.099C1103.18 443.089 1102.96 443.14 1102.76 443.246L1100.46 444.753C1100.66 444.647 1100.88 444.596 1101.11 444.606C1101.33 444.616 1101.55 444.686 1101.74 444.809L1107.46 447.71C1108 448.02 1108.46 448.453 1108.8 448.973C1109.14 449.493 1109.35 450.086 1109.41 450.703L1109.74 457.074C1109.77 457.293 1109.75 457.517 1109.67 457.722C1109.58 457.928 1109.45 458.109 1109.28 458.246L1111.57 456.739C1111.75 456.603 1111.88 456.423 1111.96 456.217C1112.04 456.011 1112.07 455.787 1112.03 455.568L1111.71 449.196C1111.64 448.58 1111.43 447.987 1111.09 447.468C1110.75 446.948 1110.3 446.515 1109.76 446.204V446.204Z" fill="#80D3FA"/>
<path d="M1107.46 447.71C1108 448.02 1108.46 448.453 1108.8 448.973C1109.14 449.493 1109.35 450.086 1109.41 450.703L1109.74 457.074C1109.8 458.201 1109.01 458.707 1108 458.193L1102.28 455.291C1101.74 454.981 1101.28 454.548 1100.94 454.027C1100.6 453.507 1100.39 452.914 1100.32 452.296L1100 445.924C1099.94 444.794 1100.72 444.289 1101.74 444.809L1107.46 447.71Z" fill="#145075"/>
<path d="M1080.62 428.76C1080.02 428.464 1079.48 428.45 1079.11 428.693L1076.81 430.196C1077.19 429.953 1077.72 429.957 1078.32 430.263C1078.95 430.627 1079.49 431.135 1079.88 431.744C1080.28 432.354 1080.53 433.049 1080.61 433.773L1081.18 444.885C1081.21 445.54 1081 446.021 1080.63 446.261L1082.93 444.757C1083.3 444.518 1083.51 444.04 1083.47 443.381L1082.91 432.266C1082.83 431.543 1082.58 430.848 1082.18 430.239C1081.78 429.63 1081.25 429.123 1080.62 428.76V428.76Z" fill="#80D3FA"/>
<path d="M1078.32 430.266C1078.95 430.63 1079.49 431.138 1079.88 431.748C1080.28 432.358 1080.53 433.053 1080.61 433.776L1081.18 444.888C1081.25 446.198 1080.32 446.806 1079.13 446.203C1078.5 445.838 1077.97 445.33 1077.57 444.719C1077.17 444.108 1076.92 443.412 1076.84 442.687L1076.27 431.576C1076.21 430.249 1077.13 429.657 1078.32 430.266Z" fill="#145075"/>
<path d="M1087.58 432.297C1086.98 432.001 1086.45 431.987 1086.08 432.23L1083.78 433.737C1084.15 433.493 1084.68 433.494 1085.29 433.8C1085.92 434.164 1086.45 434.672 1086.85 435.282C1087.25 435.891 1087.5 436.586 1087.58 437.31L1088.14 448.422C1088.18 449.077 1087.97 449.561 1087.6 449.798L1089.9 448.294C1090.26 448.058 1090.47 447.577 1090.44 446.918L1089.87 435.807C1089.8 435.083 1089.55 434.388 1089.15 433.778C1088.75 433.168 1088.22 432.661 1087.58 432.297Z" fill="#80D3FA"/>
<path d="M1085.29 433.8C1085.92 434.164 1086.45 434.672 1086.85 435.282C1087.25 435.892 1087.5 436.587 1087.58 437.31L1088.14 448.422C1088.22 449.752 1087.29 450.343 1086.1 449.737C1085.47 449.372 1084.93 448.864 1084.53 448.254C1084.14 447.644 1083.89 446.949 1083.81 446.224L1083.24 435.109C1083.17 433.786 1084.09 433.194 1085.29 433.8Z" fill="#145075"/>
<path d="M1320.74 550.611L1172.89 475.792C1170.58 474.619 1168.55 474.541 1167.3 475.367L1165.81 476.34L1165.44 476.587L1163.58 477.804C1164.85 476.977 1166.86 477.056 1169.17 478.229L1317.02 553.032C1321.03 555.066 1324.46 559.651 1324.64 563.221C1324.72 564.741 1324.2 565.84 1323.27 566.445L1326.99 564.008C1327.92 563.403 1328.43 562.288 1328.36 560.788C1328.19 557.23 1324.75 552.645 1320.74 550.611Z" fill="#80D3FA"/>
<path d="M1317.02 553.048C1321.03 555.082 1324.46 559.667 1324.64 563.238C1324.82 566.808 1321.69 568.071 1317.68 566.04L1169.83 491.221C1165.82 489.19 1162.39 484.602 1162.21 481.025C1162.03 477.447 1165.16 476.195 1169.17 478.229L1317.02 553.048Z" fill="#145075"/>
<path d="M1168.08 483.057L1167.42 482.725L1167.55 485.06L1229.58 516.534L1229.45 514.202L1168.08 483.057Z" fill="#FF6462"/>
<path d="M1317.75 558.783L1229.24 514.091C1229.11 514.015 1228.97 513.975 1228.82 513.977C1228.67 513.979 1228.53 514.023 1228.41 514.104C1228.28 514.184 1228.18 514.298 1228.12 514.432C1228.06 514.566 1228.04 514.715 1228.06 514.861C1228.08 515.139 1228.18 515.407 1228.33 515.64C1228.48 515.874 1228.69 516.068 1228.93 516.204L1317.45 560.895C1317.59 560.976 1317.76 561.014 1317.93 561.007C1318.03 561 1318.14 560.97 1318.23 560.92C1318.32 560.871 1318.41 560.802 1318.47 560.72C1318.54 560.637 1318.58 560.541 1318.61 560.439C1318.64 560.337 1318.64 560.23 1318.63 560.126C1318.6 559.848 1318.51 559.581 1318.35 559.347C1318.2 559.113 1318 558.92 1317.75 558.783V558.783Z" fill="#E3F6FF"/>
<path d="M1483.89 508.145L1485.19 532.311C1485.3 534.394 1486.89 536.858 1488.7 537.781L1527.31 557.383C1529.13 558.307 1530.52 557.358 1530.41 555.272L1529.11 531.083L1483.89 508.145Z" fill="#145075"/>
<path d="M1526.97 519.58L1519.48 518.012L1517.26 517.56L1511.83 516.42L1509.62 515.958L1504.17 514.819L1501.96 514.36L1496.53 513.217L1494.31 512.761L1488.88 511.622L1486.66 511.156L1484.02 510.608L1482.76 505.802C1482.16 503.534 1483.1 501.98 1484.82 502.347L1487.58 502.931L1489.79 503.387L1495.23 504.526L1497.45 504.991L1502.87 506.125L1505.09 506.58L1510.54 507.723L1512.75 508.191L1518.2 509.334L1520.41 509.789L1521.5 510.023C1523.23 510.383 1525.13 512.521 1525.73 514.792L1526.97 519.58Z" fill="#145075"/>
<path d="M1526.65 553.26L1488.27 533.784L1487.2 513.939L1525.58 533.415L1526.65 553.26Z" fill="#E3F6FF"/>
<path d="M1520.39 509.777L1519.48 518.012L1517.27 517.56L1518.18 509.321L1520.39 509.777Z" fill="#E3F6FF"/>
<path d="M1512.75 508.191L1511.83 516.42L1509.62 515.957L1510.54 507.722L1512.75 508.191Z" fill="#E3F6FF"/>
<path d="M1505.09 506.58L1504.18 514.819L1501.96 514.36L1502.87 506.125L1505.09 506.58Z" fill="#E3F6FF"/>
<path d="M1497.45 504.991L1496.53 513.217L1494.32 512.761L1495.23 504.526L1497.45 504.991Z" fill="#E3F6FF"/>
<path d="M1489.79 503.386L1488.88 511.621L1486.67 511.156L1487.58 502.931L1489.79 503.386Z" fill="#E3F6FF"/>
</g>
<defs>
<linearGradient id="paint0_linear_33_1903" x1="2035.73" y1="14.3053" x2="133.707" y2="1120.15" gradientUnits="userSpaceOnUse">
<stop stop-color="#2EBEDD"/>
<stop offset="1" stop-color="white"/>
</linearGradient>
<linearGradient id="paint1_linear_33_1903" x1="2075.07" y1="134.628" x2="1001.94" y2="687.218" gradientUnits="userSpaceOnUse">
<stop stop-color="#4DCCDA"/>
<stop offset="0.9999" stop-color="#43D0CA"/>
<stop offset="1" stop-color="#52A1F7"/>
</linearGradient>
<clipPath id="clip0_33_1903">
<rect width="2000" height="725" fill="white"/>
</clipPath>
</defs>
</svg>
