<svg width="362" height="402" viewBox="0 0 362 402" fill="none" xmlns="http://www.w3.org/2000/svg">
<rect width="362" height="402" fill="#80DFDB"/>
<path d="M313.497 155.827L316.417 246.338C316.449 247.288 316.19 247.986 315.749 248.343L317.572 246.86L319.396 245.376C319.836 245.026 320.093 244.322 320.062 243.369L317.143 152.859L313.497 155.827Z" fill="#FF6462"/>
<path d="M314.179 145.466L214.142 79.2902C213.527 78.885 212.98 78.8996 212.594 79.2508L209.439 82.1335C209.825 81.7808 210.373 81.766 210.988 82.1728L311.024 148.348C312.247 149.157 313.29 151.336 313.344 153.192L316.498 150.309C316.445 148.451 315.402 146.274 314.179 145.466Z" fill="#E3F6FF"/>
<path d="M312.087 149.518C313.322 150.339 314.375 152.552 314.429 154.436L316.984 243.665C317.042 245.551 316.072 246.422 314.838 245.601L213.801 178.405C212.566 177.585 211.513 175.371 211.459 173.485L208.904 84.2556C208.846 82.3721 209.816 81.5019 211.05 82.3225L312.087 149.518Z" fill="#145075"/>
<path d="M304.697 158.224C304.754 160.081 305.783 162.234 306.994 163.045C308.206 163.856 309.141 162.997 309.084 161.147C309.027 159.298 308 157.137 306.788 156.326C305.576 155.515 304.64 156.366 304.697 158.224Z" fill="#FF6462"/>
<path d="M297.917 153.41C297.974 155.267 299.003 157.42 300.213 158.231C301.424 159.043 302.361 158.183 302.304 156.334C302.248 154.484 301.22 152.324 300.008 151.512C298.796 150.701 297.86 151.553 297.917 153.41Z" fill="#80D3FA"/>
<path d="M291.137 148.595C291.194 150.454 292.223 152.605 293.434 153.416C294.646 154.228 295.581 153.37 295.524 151.519C295.467 149.668 294.44 147.509 293.228 146.697C292.016 145.886 291.08 146.738 291.137 148.595Z" fill="#E3F6FF"/>
<path d="M282.794 144.333L212.592 97.8135L212.362 90.3452L282.564 136.864L282.794 144.333Z" fill="#E3F6FF"/>
<path d="M252.688 129.929L212.92 103.605L212.856 101.533L252.624 127.858L252.688 129.929Z" fill="#80D3FA"/>
<path d="M190.742 155.275C189.154 154.22 187.894 154.262 187.979 157.032C187.894 154.262 186.578 152.506 184.989 151.449C183.4 150.393 182.182 151.78 182.268 154.551C182.396 158.719 186.786 167.874 188.344 168.911C189.902 169.948 193.9 166.139 193.779 162.202C193.694 159.433 192.331 156.332 190.742 155.275Z" fill="#FF6462"/>
<path d="M317.245 192.361L317.847 212.416C317.882 213.482 317.61 214.263 317.15 214.664L319.183 212.889C319.647 212.487 319.911 211.708 319.879 210.644L319.276 190.586L317.245 192.361Z" fill="#FF6462"/>
<path d="M316.457 184.245L284.965 163.39C284.273 162.931 283.658 162.949 283.224 163.345L281.331 165.073C281.763 164.677 282.381 164.662 283.072 165.118L314.563 185.974C315.939 186.885 317.113 189.338 317.177 191.425L319.069 189.695C319.005 187.61 317.831 185.156 316.457 184.245Z" fill="#E3F6FF"/>
<path d="M314.824 186.249C316.208 187.17 317.39 189.651 317.455 191.761L318.021 211.526C318.086 213.639 316.996 214.616 315.614 213.696L283.906 192.603C282.522 191.681 281.339 189.2 281.274 187.09L280.709 167.323C280.644 165.212 281.733 164.235 283.115 165.155L314.824 186.249Z" fill="#80D3FA"/>
<path d="M297.986 198.259L283.419 188.592L282.812 168.892L297.379 178.561L297.986 198.259Z" fill="#0772B3"/>
<path d="M315.474 195.204L299.062 184.088L298.967 181.013L315.381 192.128L315.474 195.204Z" fill="#FF6462"/>
<path opacity="0.5" d="M312.961 197.904L299.277 188.787L299.23 187.252L312.914 196.368L312.961 197.904Z" fill="#2D80B3"/>
<path opacity="0.5" d="M309.425 203.094L299.605 196.584L299.558 195.046L309.378 201.558L309.425 203.094Z" fill="#2D80B3"/>
<path opacity="0.5" d="M309.267 199.287L299.447 192.777L299.399 191.239L309.219 197.751L309.267 199.287Z" fill="#2D80B3"/>
<path d="M315.394 210.72L313.331 207.382L311.392 208.065L311.208 202.09L315.21 204.746L315.394 210.72Z" fill="#FF6462"/>
<path d="M301.889 121.498C301.99 124.777 299.877 126.006 297.193 124.228L224.221 75.8952C221.537 74.1183 219.259 69.9816 219.157 66.7031C219.056 63.4246 221.169 62.1947 223.853 63.9731L296.825 112.304C299.509 114.083 301.788 118.22 301.889 121.498Z" fill="#E3F6FF"/>
<path d="M268.092 156.592L270.415 228.889C270.453 230.002 270.15 230.817 269.637 231.237L271.765 229.498L272.475 228.919C272.988 228.499 273.288 227.685 273.252 226.572L270.929 154.275L268.092 156.592Z" fill="#FF6462"/>
<path d="M267.677 146.919L203.945 104.949C203.225 104.473 202.583 104.488 202.132 104.902L199.663 107.153C200.115 106.74 200.761 106.723 201.477 107.199L265.211 149.165C266.644 150.113 267.866 152.667 267.929 154.842L270.393 152.593C270.33 150.422 269.108 147.867 267.677 146.919Z" fill="#E3F6FF"/>
<path d="M266.05 149.971C267.5 150.934 268.737 153.531 268.8 155.741L270.845 227.136C270.913 229.347 269.775 230.367 268.328 229.403L203.82 186.745C202.372 185.781 201.134 183.184 201.071 180.974L199.026 109.58C198.958 107.37 200.096 106.348 201.543 107.311L266.05 149.971Z" fill="#0772B3"/>
<path opacity="0.5" d="M250.694 179.731C251.105 193.116 244.361 199.261 235.631 193.457C226.901 187.652 219.493 172.096 219.081 158.713C218.668 145.329 225.413 139.178 234.142 144.987C242.871 150.797 250.283 166.346 250.694 179.731Z" fill="#E3F6FF"/>
<path d="M241.988 171.318L232.45 156.806C231.989 156.103 231.558 155.629 231.18 155.379C230.781 155.115 230.442 155.097 230.192 155.329L228.52 156.861C228.771 156.632 229.109 156.647 229.51 156.911C229.887 157.161 230.318 157.635 230.779 158.338L240.317 172.852C241.642 174.865 241.896 176.778 241.059 177.548L242.732 176.014C243.571 175.246 243.313 173.329 241.988 171.318Z" fill="#E3F6FF"/>
<path d="M229.539 156.893C229.917 157.144 230.348 157.619 230.81 158.322L240.365 172.855C241.944 175.254 242.009 177.51 240.508 177.865L231.432 180.009C231.006 180.11 230.573 180.026 230.194 179.77C229.276 179.162 228.62 177.63 228.566 175.704L228.084 158.909C228.029 156.977 228.626 156.281 229.539 156.893Z" fill="#FF6462"/>
<path d="M336.958 172.766L337.788 199.557L326.225 191.933L325.394 165.143L336.958 172.766Z" fill="#145075"/>
<path d="M336.067 191.249L327.487 185.555L327.114 173.448L335.693 179.141L336.067 191.249Z" fill="#E3F6FF"/>
<path d="M336.218 193.573L336.375 198.639L327.871 192.983L327.716 187.917L336.218 193.573Z" fill="#E3F6FF"/>
<path d="M335.31 171.717L335.465 176.772L326.961 171.115L326.806 166.06L335.31 171.717Z" fill="#E3F6FF"/>
<path d="M199.22 93.7202C199.247 94.6009 198.8 95.0091 198.226 94.6264L186.047 86.5226C185.474 86.1414 184.98 85.108 184.953 84.2288L184.64 74.0247C184.613 73.144 185.061 72.7356 185.635 73.1183L197.813 81.2177C198.385 81.6005 198.879 82.6324 198.906 83.513L199.22 93.7202Z" fill="#E3F6FF"/>
<path d="M190.806 80.2698C190.384 79.6278 190.057 79.7 190.079 80.4296L190.217 84.9317C190.24 85.6612 190.585 86.1799 190.984 86.0833L193.4 85.5C193.8 85.4034 193.781 84.8003 193.359 84.1582L190.806 80.2698Z" fill="#FF6462"/>
<path d="M196.566 96.5497C196.744 97.0126 196.656 97.2375 196.371 97.0483L188.346 91.7269C188.062 91.5376 187.956 91.1865 188.112 90.9439L188.594 90.1936C188.75 89.951 189.11 89.9075 189.395 90.0952L195.176 93.9295C195.461 94.1187 195.839 94.6529 196.017 95.1158L196.566 96.5497Z" fill="#145075"/>
<path d="M187.126 114.851C187 114.33 186.737 113.896 186.387 113.629L179.374 108.966C179.298 108.903 179.211 108.867 179.121 108.861C179.031 108.856 178.941 108.881 178.858 108.934C177.996 109.635 177.726 112.897 177.413 117.798C177.337 118.974 177.248 120.379 177.139 121.508C176.896 121.208 176.624 120.955 176.33 120.754C175.261 120.044 174.428 120.567 174.469 121.926C174.511 123.285 175.412 124.963 176.482 125.672C177.008 126.022 177.476 126.071 177.812 125.871C177.87 125.872 177.927 125.855 177.98 125.821C178.033 125.787 178.08 125.738 178.117 125.676C178.556 124.927 178.717 122.704 178.946 119.138C179.105 116.642 179.363 112.618 179.818 111.575L185.176 115.139C184.821 116.676 184.628 119.21 184.424 122.462C184.348 123.637 184.259 125.042 184.15 126.173C183.908 125.872 183.636 125.619 183.341 125.419C182.271 124.707 181.439 125.232 181.48 126.59C181.522 127.947 182.423 129.624 183.493 130.336C184.02 130.687 184.489 130.736 184.825 130.533C184.882 130.535 184.939 130.52 184.991 130.488C185.044 130.456 185.091 130.408 185.128 130.349C185.568 129.599 185.729 127.375 185.957 123.81C186.132 121.065 186.426 116.471 186.972 116.029C187.196 115.843 187.256 115.38 187.126 114.851Z" fill="#145075"/>
<path d="M296.005 128.962C293.288 127.155 290.98 122.313 290.862 118.171C290.798 116.11 291.295 114.611 292.138 113.831L290.942 114.927C290.099 115.7 289.607 117.206 289.666 119.266C289.784 123.41 292.091 128.252 294.809 130.059C296.177 130.968 297.392 130.937 298.247 130.159L299.442 129.064C298.587 129.841 297.372 129.871 296.005 128.962Z" fill="#80D3FA"/>
<path d="M299.729 131.861L300.929 130.765L305.645 140.667L304.447 141.763L299.729 131.861Z" fill="#80D3FA"/>
<path d="M289.966 113.008L291.161 111.912C292.234 110.929 293.76 110.891 295.477 112.032C298.89 114.301 301.787 120.388 301.937 125.59C302.001 127.686 301.602 129.327 300.885 130.389L299.69 131.483C300.405 130.423 300.801 128.782 300.74 126.687C300.591 121.479 297.696 115.392 294.282 113.13C292.564 111.984 291.039 112.025 289.966 113.008Z" fill="#80D3FA"/>
<path d="M299.766 131.581L304.484 141.484L303.338 142.522L298.633 132.649C297.616 133.197 296.318 133.068 294.888 132.121C291.466 129.849 288.561 123.752 288.412 118.542C288.263 113.332 290.924 110.935 294.345 113.205C297.766 115.475 300.67 121.574 300.819 126.783C300.88 128.876 300.484 130.513 299.766 131.581ZM294.831 130.184C297.555 131.992 299.672 130.085 299.554 125.937C299.437 121.789 297.124 116.938 294.4 115.126C291.676 113.313 289.559 115.224 289.677 119.376C289.794 123.527 292.107 128.374 294.831 130.184Z" fill="#0772B3"/>
<path d="M316.254 223.36L278.232 198.095L276.333 199.836L314.355 225.099C318.075 227.572 320.438 233.073 320.543 236.731C320.627 239.669 320.63 239.743 320.63 239.753L320.774 244.802L322.672 243.063L322.528 238.013C322.528 238.013 322.525 237.934 322.441 234.991C322.337 231.332 319.976 225.834 316.254 223.36Z" fill="#80D3FA"/>
<path d="M314.381 225.092C318.102 227.566 320.465 233.068 320.57 236.727C320.654 239.666 320.657 239.74 320.657 239.75L320.801 244.8C320.704 244.487 318.867 238.56 313.436 234.955L282.626 214.481C278.745 211.901 276.579 207.7 276.44 202.846C276.35 199.911 276.347 199.839 276.347 199.836L314.381 225.092Z" fill="#E3F6FF"/>
<path d="M282.424 208.073C282.473 209.673 281.668 210.407 280.624 209.713C279.58 209.018 278.695 207.165 278.646 205.559C278.597 203.953 279.403 203.224 280.446 203.919C281.489 204.614 282.375 206.471 282.424 208.073Z" fill="#FF6462"/>
<path d="M295.591 215.79L283.252 207.617L283.218 206.508L295.556 214.68L295.591 215.79Z" fill="#0772B3"/>
<path opacity="0.5" d="M316.708 233.966L283.406 211.927L283.356 210.313L316.658 232.356L316.708 233.966Z" fill="#2D80B3"/>
<path d="M322.562 268.751L284.539 243.486L282.641 245.225L320.664 270.49C324.384 272.963 326.745 278.462 326.851 282.122C326.935 285.058 326.937 285.134 326.937 285.144L327.083 290.194L328.981 288.454L328.837 283.405C328.837 283.405 328.834 283.327 328.749 280.383C328.644 276.723 326.282 271.224 322.562 268.751Z" fill="#80D3FA"/>
<path d="M320.689 270.484C324.41 272.957 326.772 278.458 326.877 282.119C326.961 285.056 326.963 285.131 326.964 285.142L327.109 290.193C327.011 289.88 325.174 283.953 319.744 280.348L288.934 259.873C285.051 257.294 282.886 253.091 282.746 248.238C282.663 245.301 282.661 245.228 282.66 245.225L320.689 270.484Z" fill="#E3F6FF"/>
<path d="M288.732 253.462C288.781 255.062 287.975 255.797 286.932 255.104C285.889 254.411 285.003 252.556 284.954 250.95C284.904 249.344 285.709 248.616 286.752 249.309C287.796 250.002 288.683 251.862 288.732 253.462Z" fill="#FF6462"/>
<path d="M301.898 261.181L289.56 253.008L289.525 251.898L301.864 260.073L301.898 261.181Z" fill="#0772B3"/>
<path opacity="0.5" d="M323.015 279.357L289.714 257.318L289.664 255.704L322.966 277.745L323.015 279.357Z" fill="#2D80B3"/>
<path d="M284.723 224.273C282.769 222.979 281.254 223.058 280.273 223.954L278.38 225.685C279.361 224.788 280.876 224.709 282.829 226.005L317.347 248.883C317.347 248.883 317.349 248.961 317.44 251.889C317.507 254.087 317.122 255.579 316.324 256.31L318.217 254.579C319.016 253.849 319.396 252.357 319.333 250.159C319.249 247.238 319.247 247.162 319.247 247.152L284.723 224.273Z" fill="#80D3FA"/>
<path d="M282.865 225.995C279.155 223.537 277.028 226.035 277.133 229.673C277.223 232.593 277.218 232.667 277.219 232.679L277.363 237.695L277.38 237.659L277.363 237.695L279.166 236.047C280.257 235.679 281.93 235.799 284.417 237.448L311.731 255.547C315.601 258.112 317.6 256.689 317.462 251.867C317.372 248.947 317.369 248.874 317.369 248.862L282.865 225.995ZM277.65 237.177C277.616 237.224 277.585 237.269 277.557 237.313C277.587 237.27 277.618 237.225 277.65 237.177ZM277.408 237.576L277.378 237.639L277.408 237.576ZM277.538 237.345L277.48 237.442L277.538 237.345ZM277.467 237.466C277.447 237.501 277.429 237.535 277.415 237.563C277.438 237.534 277.45 237.501 277.471 237.465L277.467 237.466ZM277.929 236.834C277.977 236.783 278.029 236.732 278.083 236.683C278.032 236.732 277.98 236.782 277.933 236.834L277.929 236.834ZM277.658 237.164C277.688 237.12 277.722 237.075 277.759 237.03C277.726 237.076 277.691 237.121 277.662 237.165L277.658 237.164ZM277.793 236.989C277.827 236.948 277.865 236.903 277.9 236.86C277.864 236.905 277.831 236.949 277.796 236.99L277.793 236.989Z" fill="#E3F6FF"/>
<path d="M283.233 230.982C283.281 232.544 282.494 233.26 281.478 232.582C280.461 231.905 279.597 230.094 279.549 228.533C279.501 226.973 280.286 226.256 281.304 226.933C282.322 227.611 283.185 229.422 283.233 230.982Z" fill="#FF6462"/>
<path d="M297.491 239.037L284.021 230.133L283.988 229.05L297.458 237.955L297.491 239.037Z" fill="#0772B3"/>
<path opacity="0.5" d="M312.542 252.964L284.171 234.201L284.123 232.627L312.493 251.39L312.542 252.964Z" fill="#2D80B3"/>
<path d="M201.509 193.859C201.638 198.053 199.524 199.979 196.79 198.169C194.055 196.359 191.731 191.475 191.603 187.281C191.476 183.087 193.587 181.16 196.323 182.979C199.059 184.798 201.38 189.664 201.509 193.859Z" fill="#E3F6FF"/>
<path d="M219.529 205.542L217.5 202.454C217.423 202.331 217.332 202.227 217.228 202.148C217.197 202.121 217.161 202.106 217.124 202.104C217.087 202.103 217.05 202.114 217.016 202.138L216.227 202.861C216.261 202.837 216.298 202.825 216.336 202.828C216.373 202.83 216.409 202.846 216.44 202.874C216.543 202.951 216.635 203.054 216.711 203.178L218.742 206.266C219.023 206.694 219.077 207.103 218.898 207.268L219.686 206.544C219.871 206.381 219.811 205.97 219.529 205.542Z" fill="#80D3FA"/>
<path d="M216.45 202.867C216.554 202.945 216.646 203.048 216.722 203.172L218.759 206.267C219.094 206.781 219.107 207.259 218.792 207.333L216.856 207.788C216.765 207.811 216.673 207.793 216.592 207.736C216.483 207.648 216.394 207.522 216.333 207.37C216.272 207.219 216.241 207.047 216.244 206.871L216.142 203.289C216.127 202.884 216.255 202.738 216.45 202.867Z" fill="#145075"/>
<path d="M220.863 204.181C220.83 204.153 220.791 204.138 220.751 204.137C220.712 204.136 220.672 204.149 220.637 204.175L219.821 204.907C219.856 204.881 219.896 204.868 219.936 204.869C219.975 204.869 220.014 204.884 220.047 204.912C220.142 204.982 220.221 205.081 220.28 205.202C220.339 205.323 220.375 205.461 220.385 205.607L220.529 210.525C220.534 210.576 220.528 210.629 220.514 210.678C220.499 210.727 220.476 210.77 220.445 210.805L221.26 210.072C221.291 210.039 221.315 209.995 221.33 209.946C221.344 209.897 221.349 209.844 221.344 209.793L221.2 204.874C221.189 204.73 221.154 204.591 221.095 204.471C221.037 204.35 220.957 204.251 220.863 204.181V204.181Z" fill="#80D3FA"/>
<path d="M220.072 204.893C220.17 204.963 220.253 205.063 220.314 205.184C220.375 205.305 220.412 205.444 220.423 205.59L220.572 210.521C220.581 210.787 220.436 210.912 220.25 210.796C220.152 210.725 220.068 210.625 220.007 210.504C219.946 210.383 219.909 210.244 219.899 210.098L219.749 205.166C219.742 204.9 219.886 204.777 220.072 204.893Z" fill="#145075"/>
<path d="M209.581 196.167C209.548 196.14 209.509 196.125 209.47 196.124C209.43 196.123 209.391 196.136 209.356 196.162L208.541 196.893C208.576 196.867 208.616 196.854 208.656 196.855C208.695 196.857 208.733 196.872 208.766 196.901C208.86 196.971 208.939 197.07 208.998 197.19C209.056 197.31 209.092 197.448 209.102 197.592L209.246 202.511C209.251 202.562 209.247 202.616 209.232 202.665C209.217 202.715 209.193 202.758 209.162 202.792L209.978 202.06C210.009 202.026 210.033 201.982 210.048 201.933C210.062 201.883 210.067 201.83 210.062 201.778L209.918 196.86C209.907 196.715 209.872 196.577 209.813 196.457C209.754 196.336 209.675 196.237 209.581 196.167V196.167Z" fill="#80D3FA"/>
<path d="M208.788 196.884C208.885 196.954 208.968 197.053 209.028 197.174C209.089 197.294 209.126 197.433 209.137 197.577L209.286 202.509C209.294 202.775 209.151 202.899 208.966 202.783C208.868 202.713 208.785 202.613 208.723 202.492C208.662 202.371 208.625 202.232 208.614 202.087L208.465 197.155C208.458 196.889 208.602 196.766 208.788 196.884Z" fill="#145075"/>
<path d="M213.221 199.223C213.14 199.169 213.047 199.151 212.956 199.171L211.027 199.626C210.982 199.636 210.939 199.658 210.9 199.692L210.111 200.417C210.149 200.383 210.192 200.36 210.236 200.35L212.168 199.896C212.259 199.874 212.351 199.892 212.432 199.947C212.54 200.036 212.629 200.162 212.689 200.313C212.75 200.464 212.78 200.635 212.777 200.81L212.88 204.387C212.887 204.616 212.849 204.765 212.781 204.827L213.571 204.103C213.638 204.041 213.677 203.892 213.669 203.662L213.567 200.085C213.57 199.91 213.54 199.739 213.479 199.588C213.419 199.437 213.33 199.311 213.221 199.223Z" fill="#80D3FA"/>
<path d="M212.446 199.937C212.555 200.025 212.644 200.151 212.704 200.303C212.765 200.454 212.795 200.625 212.792 200.8L212.895 204.383C212.908 204.793 212.781 204.942 212.586 204.812C212.482 204.735 212.389 204.631 212.314 204.506L210.277 201.417C209.943 200.906 209.929 200.427 210.245 200.351L212.18 199.896C212.271 199.87 212.364 199.884 212.446 199.937V199.937Z" fill="#145075"/>
<path d="M205.809 193.953L203.865 192.662C203.8 192.606 203.726 192.576 203.649 192.574C203.571 192.572 203.494 192.598 203.426 192.649L202.634 193.375C202.702 193.324 202.779 193.298 202.857 193.3C202.934 193.302 203.008 193.332 203.073 193.388L205.017 194.679C205.199 194.818 205.354 195.014 205.467 195.253C205.581 195.492 205.651 195.766 205.671 196.053L205.756 199.017C205.767 199.119 205.757 199.223 205.729 199.32C205.7 199.417 205.653 199.502 205.593 199.568L206.384 198.842C206.445 198.777 206.492 198.691 206.52 198.594C206.549 198.498 206.558 198.393 206.547 198.291L206.463 195.326C206.442 195.04 206.372 194.766 206.259 194.528C206.145 194.289 205.991 194.092 205.809 193.953V193.953Z" fill="#80D3FA"/>
<path d="M205.034 194.668C205.217 194.807 205.371 195.004 205.485 195.243C205.599 195.482 205.669 195.756 205.689 196.044L205.775 199.012C205.791 199.537 205.519 199.781 205.174 199.552L203.226 198.259C203.042 198.12 202.887 197.923 202.773 197.684C202.659 197.445 202.589 197.17 202.568 196.883L202.483 193.914C202.467 193.388 202.738 193.144 203.086 193.375L205.034 194.668Z" fill="#145075"/>
<path d="M196.029 185.781C195.821 185.649 195.635 185.648 195.504 185.766L194.694 186.496C194.825 186.378 195.011 186.374 195.22 186.511C195.439 186.675 195.624 186.907 195.761 187.189C195.897 187.471 195.981 187.795 196.005 188.133L196.157 193.341C196.167 193.648 196.09 193.876 195.961 193.992L196.771 193.262C196.899 193.146 196.975 192.919 196.965 192.611L196.814 187.402C196.79 187.063 196.706 186.74 196.57 186.458C196.433 186.177 196.248 185.945 196.029 185.781V185.781Z" fill="#80D3FA"/>
<path d="M195.245 186.495C195.467 186.659 195.654 186.892 195.792 187.174C195.93 187.456 196.015 187.78 196.039 188.12L196.193 193.335C196.212 193.95 195.883 194.245 195.466 193.975C195.244 193.81 195.056 193.577 194.918 193.294C194.78 193.012 194.695 192.687 194.67 192.347L194.517 187.132C194.498 186.509 194.828 186.221 195.245 186.495Z" fill="#145075"/>
<path d="M198.368 187.442C198.159 187.309 197.973 187.309 197.842 187.427L197.033 188.158C197.164 188.04 197.35 188.035 197.559 188.172C197.777 188.336 197.962 188.568 198.099 188.85C198.235 189.132 198.319 189.455 198.344 189.794L198.496 195.001C198.505 195.308 198.428 195.538 198.3 195.653L199.109 194.923C199.238 194.808 199.313 194.58 199.304 194.272L199.153 189.064C199.128 188.725 199.045 188.402 198.908 188.12C198.772 187.838 198.587 187.606 198.368 187.442Z" fill="#80D3FA"/>
<path d="M197.583 188.154C197.805 188.319 197.992 188.551 198.13 188.834C198.268 189.116 198.352 189.44 198.377 189.779L198.531 194.994C198.551 195.618 198.221 195.906 197.803 195.634C197.581 195.47 197.394 195.237 197.256 194.954C197.118 194.672 197.033 194.348 197.007 194.008L196.855 188.791C196.836 188.17 197.164 187.882 197.583 188.154Z" fill="#145075"/>
<path d="M276.62 241.889L226.97 209.115C226.194 208.601 225.509 208.586 225.083 208.978L224.576 209.44L224.45 209.557L223.816 210.135C224.249 209.742 224.928 209.757 225.703 210.271L275.353 243.038C276.698 243.929 277.839 245.996 277.886 247.632C277.908 248.328 277.726 248.837 277.41 249.124L278.677 247.968C278.994 247.681 279.172 247.164 279.152 246.477C279.109 244.847 277.966 242.78 276.62 241.889Z" fill="#80D3FA"/>
<path d="M275.369 243.039C276.714 243.931 277.855 245.997 277.902 247.633C277.949 249.268 276.886 249.88 275.54 248.99L225.892 216.219C224.546 215.33 223.405 213.261 223.358 211.623C223.311 209.984 224.375 209.377 225.72 210.269L275.369 243.039Z" fill="#145075"/>
<path d="M225.343 211.782L225.125 211.636L225.158 212.706L245.983 226.49L245.95 225.422L225.343 211.782Z" fill="#FF6462"/>
<path d="M275.581 246.128L245.874 226.585C245.831 226.551 245.783 226.534 245.733 226.537C245.683 226.539 245.634 226.561 245.592 226.599C245.55 226.637 245.516 226.69 245.495 226.752C245.474 226.814 245.466 226.883 245.472 226.949C245.479 227.076 245.51 227.198 245.56 227.303C245.611 227.409 245.68 227.495 245.761 227.555L275.468 247.098C275.518 247.133 275.574 247.149 275.631 247.144C275.667 247.14 275.701 247.125 275.733 247.101C275.765 247.078 275.793 247.046 275.815 247.007C275.838 246.968 275.854 246.924 275.864 246.877C275.873 246.83 275.876 246.781 275.87 246.733C275.863 246.607 275.832 246.485 275.782 246.38C275.731 246.274 275.662 246.188 275.581 246.128V246.128Z" fill="#E3F6FF"/>
<path d="M331.116 223.148L331.46 234.364C331.49 235.331 332.019 236.46 332.635 236.87L345.71 245.573C346.326 245.983 346.806 245.527 346.776 244.559L346.432 233.332L331.116 223.148Z" fill="#145075"/>
<path d="M345.552 227.743L343.037 227.108L342.292 226.926L340.464 226.464L339.723 226.277L337.893 225.816L337.149 225.631L335.324 225.168L334.579 224.984L332.752 224.523L332.008 224.334L331.12 224.113L330.713 221.944C330.522 220.92 330.843 220.205 331.423 220.354L332.349 220.59L333.093 220.774L334.921 221.236L335.666 221.424L337.49 221.882L338.234 222.067L340.065 222.529L340.809 222.719L342.64 223.181L343.385 223.365L343.751 223.46C344.331 223.606 344.964 224.557 345.155 225.581L345.552 227.743Z" fill="#145075"/>
<path d="M345.5 243.657L332.514 235.019L332.231 225.817L345.217 234.455L345.5 243.657Z" fill="#E3F6FF"/>
<path d="M343.379 223.48L343.029 227.348L342.262 227.16L342.613 223.29L343.379 223.48Z" fill="#E3F6FF"/>
<path d="M340.819 222.74L340.463 226.606L339.701 226.413L340.052 222.544L340.819 222.74Z" fill="#E3F6FF"/>
<path d="M338.25 221.989L337.899 225.859L337.133 225.668L337.483 221.799L338.25 221.989Z" fill="#E3F6FF"/>
<path d="M335.69 221.248L335.337 225.112L334.571 224.922L334.922 221.054L335.69 221.248Z" fill="#E3F6FF"/>
<path d="M333.124 220.5L332.774 224.368L332.007 224.174L332.358 220.31L333.124 220.5Z" fill="#E3F6FF"/>
</svg>
