<svg width="263" height="402" viewBox="0 0 263 402" fill="none" xmlns="http://www.w3.org/2000/svg">
<rect width="263" height="402" fill="#80DFDB"/>
<path d="M226.8 125.917L228.921 216.427C228.945 217.378 228.756 218.076 228.436 218.433L229.761 216.949L231.086 215.466C231.405 215.115 231.592 214.412 231.57 213.459L229.449 122.949L226.8 125.917Z" fill="#FF6462"/>
<path d="M227.296 115.555L154.617 49.3799C154.17 48.9746 153.773 48.9893 153.492 49.3405L151.2 52.2231C151.481 51.8705 151.879 51.8557 152.325 52.2624L225.004 118.438C225.892 119.246 226.65 121.426 226.689 123.281L228.98 120.399C228.942 118.54 228.184 116.364 227.296 115.555Z" fill="#E3F6FF"/>
<path d="M225.775 119.608C226.672 120.429 227.438 122.642 227.477 124.526L229.333 213.755C229.375 215.641 228.671 216.511 227.774 215.691L154.369 148.495C153.472 147.674 152.707 145.461 152.667 143.574L150.811 54.3453C150.769 52.4618 151.473 51.5915 152.37 52.4122L225.775 119.608Z" fill="#145075"/>
<path d="M220.406 128.313C220.448 130.17 221.195 132.323 222.075 133.135C222.956 133.946 223.635 133.087 223.593 131.237C223.552 129.388 222.806 127.227 221.925 126.416C221.045 125.604 220.365 126.456 220.406 128.313Z" fill="#FF6462"/>
<path d="M215.481 123.5C215.522 125.357 216.27 127.51 217.149 128.321C218.029 129.133 218.709 128.273 218.668 126.423C218.627 124.574 217.88 122.413 217 121.602C216.12 120.791 215.439 121.643 215.481 123.5Z" fill="#80D3FA"/>
<path d="M210.555 118.685C210.596 120.543 211.343 122.695 212.224 123.506C213.104 124.317 213.783 123.459 213.742 121.608C213.701 119.757 212.954 117.598 212.074 116.787C211.193 115.976 210.513 116.827 210.555 118.685Z" fill="#E3F6FF"/>
<path d="M204.494 114.422L153.491 67.9031L153.323 60.4349L204.327 106.954L204.494 114.422Z" fill="#E3F6FF"/>
<path d="M182.621 100.019L153.729 73.6942L153.683 71.623L182.574 97.9476L182.621 100.019Z" fill="#80D3FA"/>
<path d="M137.616 125.365C136.463 124.31 135.547 124.351 135.609 127.122C135.547 124.351 134.591 122.595 133.437 121.539C132.282 120.482 131.397 121.87 131.459 124.64C131.552 128.809 134.742 137.964 135.874 139.001C137.006 140.037 139.91 136.229 139.823 132.292C139.761 129.523 138.771 126.421 137.616 125.365Z" fill="#FF6462"/>
<path d="M229.522 162.451L229.96 182.506C229.985 183.571 229.787 184.353 229.453 184.754L230.93 182.978C231.267 182.577 231.459 181.798 231.436 180.733L230.998 160.675L229.522 162.451Z" fill="#FF6462"/>
<path d="M228.95 154.334L206.071 133.479C205.568 133.021 205.121 133.038 204.806 133.434L203.43 135.162C203.745 134.766 204.193 134.752 204.695 135.207L227.574 156.064C228.574 156.975 229.427 159.428 229.473 161.514L230.848 159.785C230.801 157.7 229.948 155.246 228.95 154.334Z" fill="#E3F6FF"/>
<path d="M227.764 156.338C228.77 157.26 229.629 159.741 229.676 161.851L230.087 181.616C230.134 183.729 229.343 184.706 228.338 183.786L205.302 162.692C204.296 161.771 203.437 159.29 203.39 157.18L202.979 137.413C202.932 135.301 203.723 134.324 204.727 135.245L227.764 156.338Z" fill="#80D3FA"/>
<path d="M215.53 168.349L204.947 158.681L204.507 138.981L215.09 148.65L215.53 168.349Z" fill="#0772B3"/>
<path d="M228.236 165.293L216.312 154.178L216.244 151.102L228.168 162.217L228.236 165.293Z" fill="#FF6462"/>
<path opacity="0.5" d="M226.41 167.994L216.469 158.876L216.435 157.342L226.376 166.458L226.41 167.994Z" fill="#2D80B3"/>
<path opacity="0.5" d="M223.842 173.184L216.707 166.674L216.673 165.136L223.807 171.648L223.842 173.184Z" fill="#2D80B3"/>
<path opacity="0.5" d="M223.726 169.377L216.592 162.866L216.558 161.329L223.692 167.841L223.726 169.377Z" fill="#2D80B3"/>
<path d="M228.178 180.81L226.679 177.472L225.27 178.155L225.136 172.179L228.044 174.836L228.178 180.81Z" fill="#FF6462"/>
<path d="M218.366 91.5877C218.44 94.8662 216.904 96.0961 214.954 94.3177L161.939 45.9849C159.989 44.208 158.333 40.0713 158.26 36.7928C158.186 33.5143 159.722 32.2844 161.672 34.0628L214.687 82.3941C216.637 84.1725 218.293 88.3092 218.366 91.5877Z" fill="#E3F6FF"/>
<path d="M193.812 126.682L195.5 198.979C195.528 200.092 195.308 200.907 194.935 201.326L196.481 199.588L196.996 199.009C197.37 198.589 197.587 197.774 197.561 196.662L195.873 124.364L193.812 126.682Z" fill="#FF6462"/>
<path d="M193.51 117.009L147.208 75.0383C146.685 74.5626 146.219 74.578 145.891 74.9919L144.097 77.2423C144.425 76.83 144.895 76.8126 145.415 77.2887L191.719 119.255C192.76 120.202 193.648 122.757 193.693 124.931L195.484 122.683C195.438 120.512 194.55 117.957 193.51 117.009Z" fill="#E3F6FF"/>
<path d="M192.329 120.061C193.382 121.024 194.281 123.621 194.327 125.831L195.813 197.225C195.862 199.436 195.035 200.457 193.984 199.493L147.118 156.834C146.065 155.871 145.167 153.274 145.121 151.064L143.635 79.6697C143.585 77.4601 144.412 76.438 145.463 77.4003L192.329 120.061Z" fill="#0772B3"/>
<path opacity="0.5" d="M181.172 149.821C181.471 163.206 176.572 169.351 170.229 163.546C163.886 157.741 158.504 142.186 158.205 128.802C157.905 115.419 162.805 109.268 169.147 115.077C175.489 120.887 180.874 136.436 181.172 149.821Z" fill="#E3F6FF"/>
<path d="M174.847 141.408L167.918 126.895C167.583 126.193 167.27 125.719 166.995 125.468C166.705 125.205 166.458 125.187 166.277 125.419L165.063 126.951C165.245 126.722 165.491 126.737 165.782 127C166.055 127.251 166.368 127.725 166.704 128.427L173.633 142.942C174.596 144.955 174.78 146.868 174.172 147.637L175.387 146.103C175.997 145.335 175.81 143.418 174.847 141.408Z" fill="#E3F6FF"/>
<path d="M165.803 126.983C166.077 127.234 166.39 127.708 166.726 128.412L173.668 142.945C174.815 145.344 174.862 147.6 173.772 147.955L167.178 150.098C166.869 150.199 166.554 150.116 166.278 149.859C165.612 149.252 165.135 147.719 165.095 145.794L164.746 128.998C164.706 127.067 165.139 126.371 165.803 126.983Z" fill="#FF6462"/>
<path d="M243.845 142.856L244.448 169.647L236.047 162.023L235.443 135.232L243.845 142.856Z" fill="#145075"/>
<path d="M243.198 161.339L236.964 155.645L236.693 143.538L242.926 149.231L243.198 161.339Z" fill="#E3F6FF"/>
<path d="M243.307 163.663L243.421 168.729L237.243 163.072L237.13 158.007L243.307 163.663Z" fill="#E3F6FF"/>
<path d="M242.647 141.806L242.76 146.861L236.582 141.205L236.469 136.15L242.647 141.806Z" fill="#E3F6FF"/>
<path d="M143.775 63.8099C143.795 64.6905 143.47 65.0988 143.053 64.7161L134.205 56.6123C133.789 56.231 133.43 55.1976 133.41 54.3185L133.183 44.1143C133.163 43.2337 133.489 42.8253 133.906 43.208L142.753 51.3073C143.169 51.6901 143.528 52.722 143.548 53.6027L143.775 63.8099Z" fill="#E3F6FF"/>
<path d="M137.662 50.3595C137.356 49.7174 137.118 49.7897 137.134 50.5192L137.235 55.0214C137.251 55.7509 137.502 56.2696 137.792 56.173L139.547 55.5897C139.838 55.493 139.824 54.8899 139.517 54.2479L137.662 50.3595Z" fill="#FF6462"/>
<path d="M141.847 66.6393C141.977 67.1022 141.913 67.3272 141.706 67.138L135.876 61.8166C135.669 61.6273 135.592 61.2762 135.705 61.0336L136.056 60.2832C136.169 60.0407 136.431 59.9972 136.638 60.1848L140.837 64.0192C141.044 64.2084 141.319 64.7425 141.448 65.2054L141.847 66.6393Z" fill="#145075"/>
<path d="M134.989 84.9411C134.897 84.4198 134.707 83.9855 134.452 83.7188L129.357 79.0557C129.302 78.9924 129.239 78.9564 129.173 78.9508C129.108 78.9453 129.042 78.9705 128.982 79.024C128.356 79.7245 128.159 82.9864 127.932 87.8878C127.877 89.0637 127.813 90.4684 127.733 91.5973C127.557 91.2978 127.359 91.0443 127.146 90.8434C126.369 90.1335 125.763 90.657 125.794 92.016C125.824 93.3751 126.479 95.0522 127.256 95.7621C127.638 96.1119 127.978 96.1608 128.222 95.9609C128.264 95.9619 128.306 95.9448 128.344 95.911C128.383 95.8771 128.417 95.8274 128.444 95.7657C128.762 95.0162 128.88 92.7932 129.046 89.2273C129.161 86.7313 129.349 82.7074 129.68 81.6645L133.573 85.2283C133.314 86.7662 133.174 89.2993 133.026 92.5512C132.97 93.7271 132.906 95.1317 132.827 96.2622C132.651 95.9618 132.453 95.7083 132.239 95.5083C131.462 94.7969 130.857 95.3219 130.887 96.6794C130.918 98.0369 131.572 99.714 132.349 100.426C132.732 100.777 133.073 100.825 133.318 100.622C133.359 100.625 133.4 100.609 133.438 100.577C133.476 100.546 133.51 100.498 133.538 100.438C133.857 99.6886 133.974 97.4642 134.14 93.8998C134.267 91.1548 134.481 86.5606 134.877 86.1191C135.04 85.9323 135.083 85.4696 134.989 84.9411Z" fill="#145075"/>
<path d="M214.092 99.052C212.118 97.2447 210.441 92.4028 210.355 88.2603C210.309 86.1995 210.67 84.7006 211.282 83.9206L210.413 85.0171C209.801 85.7895 209.444 87.2954 209.486 89.3552C209.572 93.4992 211.248 98.3412 213.223 100.148C214.216 101.057 215.099 101.027 215.72 100.249L216.589 99.1538C215.968 99.9305 215.085 99.9608 214.092 99.052Z" fill="#80D3FA"/>
<path d="M216.798 101.951L217.669 100.855L221.095 110.756L220.225 111.853L216.798 101.951Z" fill="#80D3FA"/>
<path d="M209.704 83.0975L210.573 82.0013C211.352 81.0186 212.461 80.9803 213.708 82.1214C216.187 84.3906 218.292 90.478 218.401 95.6799C218.448 97.7754 218.158 99.4166 217.637 100.478L216.769 101.573C217.289 100.513 217.576 98.8721 217.532 96.7762C217.424 91.5682 215.32 85.4821 212.84 83.2192C211.591 82.0736 210.484 82.1148 209.704 83.0975Z" fill="#80D3FA"/>
<path d="M216.824 101.671L220.252 111.574L219.419 112.612L216.001 102.739C215.262 103.287 214.319 103.158 213.28 102.211C210.794 99.9382 208.684 93.8414 208.576 88.6313C208.467 83.4212 210.401 81.0249 212.886 83.2946C215.371 85.5642 217.481 91.6641 217.59 96.8727C217.634 98.9657 217.346 100.603 216.824 101.671ZM213.239 100.273C215.218 102.082 216.756 100.175 216.671 96.0266C216.585 91.8782 214.905 87.0281 212.926 85.2154C210.946 83.4026 209.409 85.3138 209.494 89.4652C209.58 93.6166 211.26 98.4636 213.239 100.273Z" fill="#0772B3"/>
<path d="M228.803 193.45L201.179 168.185L199.799 169.925L227.423 195.189C230.126 197.661 231.843 203.162 231.919 206.821C231.98 209.758 231.982 209.832 231.982 209.843L232.087 214.891L233.466 213.152L233.361 208.102C233.361 208.102 233.359 208.024 233.298 205.08C233.222 201.422 231.507 195.924 228.803 193.45Z" fill="#80D3FA"/>
<path d="M227.442 195.182C230.146 197.655 231.862 203.158 231.939 206.817C232 209.755 232.002 209.829 232.002 209.84L232.107 214.89C232.036 214.577 230.702 208.65 226.756 205.045L204.372 184.571C201.552 181.99 199.978 177.789 199.877 172.936C199.812 170.001 199.81 169.929 199.81 169.926L227.442 195.182Z" fill="#E3F6FF"/>
<path d="M204.225 178.162C204.261 179.762 203.676 180.497 202.917 179.802C202.158 179.108 201.516 177.254 201.48 175.648C201.444 174.043 202.03 173.314 202.788 174.009C203.546 174.703 204.189 176.561 204.225 178.162Z" fill="#FF6462"/>
<path d="M213.79 185.879L204.826 177.706L204.801 176.598L213.765 184.769L213.79 185.879Z" fill="#0772B3"/>
<path opacity="0.5" d="M229.133 204.056L204.939 182.016L204.902 180.403L229.097 202.445L229.133 204.056Z" fill="#2D80B3"/>
<path d="M233.385 238.841L205.761 213.576L204.382 215.315L232.006 240.58C234.709 243.052 236.425 248.552 236.502 252.212C236.562 255.148 236.564 255.223 236.564 255.234L236.67 260.284L238.049 258.543L237.944 253.495C237.944 253.495 237.942 253.416 237.881 250.473C237.805 246.813 236.088 241.313 233.385 238.841Z" fill="#80D3FA"/>
<path d="M232.025 240.573C234.728 243.046 236.444 248.548 236.521 252.208C236.582 255.145 236.583 255.221 236.584 255.231L236.689 260.283C236.618 259.97 235.283 254.043 231.338 250.438L208.954 229.962C206.133 227.383 204.56 223.181 204.459 218.327C204.398 215.39 204.397 215.318 204.396 215.315L232.025 240.573Z" fill="#E3F6FF"/>
<path d="M208.807 223.552C208.843 225.152 208.257 225.886 207.5 225.193C206.742 224.5 206.098 222.646 206.062 221.04C206.027 219.434 206.612 218.705 207.369 219.398C208.127 220.091 208.772 221.952 208.807 223.552Z" fill="#FF6462"/>
<path d="M218.373 231.27L209.409 223.097L209.384 221.988L218.349 230.162L218.373 231.27Z" fill="#0772B3"/>
<path opacity="0.5" d="M233.715 249.447L209.521 227.407L209.485 225.794L233.679 247.835L233.715 249.447Z" fill="#2D80B3"/>
<path d="M205.895 194.363C204.475 193.068 203.374 193.147 202.662 194.044L201.286 195.774C201.999 194.878 203.099 194.799 204.518 196.095L229.597 218.973C229.597 218.973 229.598 219.051 229.664 221.979C229.713 224.176 229.433 225.669 228.853 226.4L230.228 224.668C230.809 223.938 231.085 222.447 231.039 220.249C230.979 217.327 230.977 217.252 230.977 217.242L205.895 194.363Z" fill="#80D3FA"/>
<path d="M204.545 196.085C201.85 193.626 200.304 196.125 200.38 199.763C200.445 202.682 200.442 202.757 200.442 202.769L200.548 207.785L200.56 207.748L200.548 207.785L201.857 206.137C202.65 205.769 203.865 205.889 205.672 207.537L225.517 225.637C228.328 228.201 229.781 226.779 229.68 221.956C229.614 219.037 229.613 218.963 229.613 218.951L204.545 196.085ZM200.756 207.267C200.731 207.313 200.708 207.359 200.688 207.403C200.71 207.36 200.732 207.314 200.756 207.267ZM200.58 207.666L200.558 207.729L200.58 207.666ZM200.675 207.435L200.632 207.532L200.675 207.435ZM200.623 207.555C200.609 207.591 200.596 207.624 200.585 207.653C200.602 207.623 200.61 207.59 200.626 207.555L200.623 207.555ZM200.959 206.924C200.993 206.872 201.031 206.822 201.07 206.773C201.033 206.822 200.996 206.872 200.961 206.924L200.959 206.924ZM200.762 207.254C200.783 207.21 200.808 207.164 200.835 207.12C200.811 207.165 200.786 207.211 200.764 207.255L200.762 207.254ZM200.86 207.078C200.885 207.037 200.912 206.993 200.938 206.95C200.911 206.994 200.887 207.038 200.862 207.08L200.86 207.078Z" fill="#E3F6FF"/>
<path d="M204.812 201.072C204.847 202.634 204.276 203.35 203.537 202.672C202.798 201.995 202.171 200.183 202.136 198.623C202.101 197.063 202.671 196.346 203.411 197.023C204.15 197.7 204.777 199.512 204.812 201.072Z" fill="#FF6462"/>
<path d="M215.171 209.127L205.385 200.222L205.361 199.14L215.147 208.045L215.171 209.127Z" fill="#0772B3"/>
<path opacity="0.5" d="M226.106 223.053L205.494 204.29L205.458 202.717L226.07 221.48L226.106 223.053Z" fill="#2D80B3"/>
<path d="M145.438 163.949C145.532 168.143 143.996 170.069 142.01 168.259C140.023 166.448 138.334 161.564 138.242 157.37C138.149 153.177 139.683 151.249 141.671 153.068C143.658 154.888 145.345 159.754 145.438 163.949Z" fill="#E3F6FF"/>
<path d="M158.53 175.632L157.056 172.543C157 172.42 156.934 172.317 156.859 172.238C156.836 172.211 156.81 172.196 156.783 172.194C156.756 172.192 156.729 172.204 156.705 172.228L156.131 172.95C156.156 172.926 156.183 172.915 156.21 172.917C156.237 172.919 156.263 172.935 156.286 172.963C156.361 173.041 156.428 173.144 156.483 173.267L157.958 176.355C158.162 176.783 158.201 177.192 158.072 177.357L158.644 176.633C158.779 176.471 158.735 176.059 158.53 175.632Z" fill="#80D3FA"/>
<path d="M156.294 172.957C156.369 173.034 156.436 173.137 156.491 173.261L157.971 176.357C158.214 176.87 158.224 177.349 157.995 177.423L156.589 177.878C156.523 177.9 156.455 177.882 156.397 177.826C156.317 177.738 156.253 177.611 156.208 177.46C156.164 177.308 156.142 177.136 156.144 176.961L156.07 173.378C156.059 172.973 156.152 172.827 156.294 172.957Z" fill="#145075"/>
<path d="M159.499 174.271C159.475 174.243 159.447 174.228 159.418 174.227C159.39 174.226 159.361 174.239 159.335 174.265L158.742 174.997C158.768 174.971 158.797 174.957 158.826 174.958C158.855 174.959 158.883 174.974 158.907 175.002C158.975 175.072 159.033 175.171 159.076 175.292C159.119 175.413 159.145 175.551 159.152 175.696L159.257 180.614C159.26 180.666 159.256 180.719 159.246 180.768C159.235 180.817 159.218 180.86 159.196 180.894L159.788 180.162C159.81 180.129 159.828 180.085 159.839 180.036C159.849 179.987 159.853 179.934 159.849 179.882L159.744 174.964C159.737 174.819 159.711 174.681 159.668 174.561C159.626 174.44 159.568 174.341 159.499 174.271V174.271Z" fill="#80D3FA"/>
<path d="M158.925 174.983C158.996 175.053 159.056 175.153 159.101 175.274C159.145 175.395 159.172 175.534 159.18 175.679L159.288 180.611C159.295 180.877 159.189 181.001 159.054 180.885C158.983 180.815 158.922 180.715 158.878 180.594C158.834 180.473 158.807 180.333 158.799 180.187L158.691 175.256C158.685 174.989 158.79 174.867 158.925 174.983Z" fill="#145075"/>
<path d="M151.303 166.257C151.279 166.229 151.251 166.214 151.222 166.214C151.194 166.213 151.165 166.226 151.139 166.252L150.548 166.983C150.573 166.957 150.602 166.944 150.631 166.945C150.659 166.946 150.687 166.962 150.711 166.99C150.779 167.06 150.837 167.16 150.879 167.28C150.922 167.4 150.947 167.538 150.955 167.682L151.06 172.6C151.064 172.652 151.06 172.705 151.049 172.755C151.039 172.804 151.021 172.848 150.999 172.882L151.591 172.149C151.614 172.116 151.631 172.072 151.642 172.022C151.653 171.973 151.656 171.92 151.652 171.868L151.548 166.95C151.54 166.805 151.514 166.667 151.472 166.546C151.429 166.426 151.371 166.327 151.303 166.257V166.257Z" fill="#80D3FA"/>
<path d="M150.727 166.974C150.797 167.044 150.857 167.143 150.901 167.264C150.945 167.384 150.972 167.522 150.98 167.667L151.088 172.598C151.095 172.865 150.991 172.989 150.856 172.873C150.785 172.803 150.724 172.703 150.68 172.582C150.636 172.461 150.608 172.322 150.601 172.176L150.492 167.245C150.487 166.978 150.592 166.856 150.727 166.974Z" fill="#145075"/>
<path d="M153.948 169.313C153.888 169.258 153.821 169.24 153.755 169.261L152.353 169.715C152.321 169.725 152.289 169.748 152.261 169.782L151.688 170.506C151.716 170.473 151.747 170.45 151.779 170.44L153.182 169.985C153.248 169.964 153.315 169.982 153.374 170.037C153.453 170.126 153.517 170.251 153.561 170.403C153.605 170.554 153.627 170.725 153.625 170.9L153.7 174.476C153.705 174.706 153.677 174.855 153.628 174.917L154.202 174.192C154.251 174.13 154.278 173.982 154.273 173.752L154.199 170.175C154.201 170 154.179 169.829 154.135 169.678C154.091 169.527 154.026 169.401 153.948 169.313Z" fill="#80D3FA"/>
<path d="M153.385 170.026C153.464 170.115 153.528 170.241 153.572 170.392C153.616 170.544 153.638 170.715 153.636 170.89L153.711 174.473C153.72 174.882 153.628 175.031 153.486 174.902C153.411 174.824 153.343 174.72 153.289 174.596L151.809 171.507C151.566 170.996 151.556 170.516 151.785 170.441L153.191 169.985C153.257 169.96 153.325 169.974 153.385 170.026V170.026Z" fill="#145075"/>
<path d="M148.562 164.042L147.15 162.751C147.103 162.696 147.049 162.666 146.993 162.663C146.937 162.661 146.881 162.687 146.831 162.739L146.256 163.465C146.306 163.413 146.362 163.387 146.418 163.39C146.474 163.392 146.528 163.422 146.575 163.477L147.987 164.769C148.12 164.907 148.232 165.104 148.315 165.343C148.397 165.581 148.448 165.855 148.462 166.142L148.524 169.107C148.532 169.208 148.525 169.313 148.504 169.41C148.483 169.506 148.45 169.592 148.406 169.657L148.981 168.931C149.025 168.866 149.059 168.781 149.08 168.684C149.1 168.587 149.107 168.482 149.099 168.381L149.038 165.416C149.023 165.129 148.972 164.856 148.889 164.617C148.807 164.379 148.695 164.182 148.562 164.042V164.042Z" fill="#80D3FA"/>
<path d="M147.999 164.758C148.132 164.897 148.245 165.094 148.327 165.333C148.41 165.572 148.461 165.846 148.476 166.133L148.538 169.102C148.55 169.627 148.352 169.871 148.101 169.642L146.686 168.349C146.553 168.21 146.44 168.013 146.357 167.773C146.274 167.534 146.223 167.26 146.208 166.972L146.146 164.004C146.135 163.477 146.332 163.233 146.584 163.465L147.999 164.758Z" fill="#145075"/>
<path d="M141.457 155.871C141.306 155.738 141.17 155.737 141.075 155.856L140.487 156.585C140.582 156.467 140.717 156.464 140.869 156.601C141.028 156.765 141.163 156.997 141.262 157.279C141.361 157.561 141.422 157.884 141.439 158.223L141.55 163.43C141.557 163.737 141.501 163.965 141.408 164.082L141.996 163.352C142.089 163.235 142.144 163.009 142.137 162.7L142.027 157.492C142.01 157.153 141.949 156.83 141.85 156.548C141.751 156.267 141.616 156.034 141.457 155.871V155.871Z" fill="#80D3FA"/>
<path d="M140.888 156.585C141.048 156.749 141.184 156.982 141.285 157.264C141.385 157.546 141.446 157.87 141.464 158.209L141.576 163.425C141.59 164.039 141.351 164.335 141.048 164.065C140.887 163.9 140.75 163.667 140.65 163.384C140.549 163.101 140.487 162.777 140.469 162.437L140.358 157.222C140.345 156.599 140.584 156.311 140.888 156.585Z" fill="#145075"/>
<path d="M143.156 157.532C143.005 157.399 142.869 157.398 142.774 157.516L142.187 158.248C142.282 158.13 142.417 158.124 142.568 158.261C142.727 158.426 142.862 158.658 142.961 158.94C143.06 159.222 143.121 159.545 143.139 159.884L143.249 165.091C143.256 165.398 143.2 165.628 143.107 165.742L143.695 165.012C143.788 164.898 143.843 164.67 143.836 164.361L143.727 159.154C143.709 158.815 143.648 158.492 143.549 158.21C143.45 157.928 143.315 157.696 143.156 157.532Z" fill="#80D3FA"/>
<path d="M142.586 158.244C142.747 158.408 142.883 158.641 142.983 158.923C143.084 159.206 143.145 159.529 143.163 159.869L143.275 165.084C143.289 165.708 143.05 165.996 142.746 165.724C142.585 165.559 142.449 165.326 142.348 165.044C142.248 164.761 142.186 164.437 142.168 164.098L142.057 158.881C142.044 158.26 142.282 157.972 142.586 158.244Z" fill="#145075"/>
<path d="M200.008 211.978L163.937 179.205C163.373 178.691 162.875 178.676 162.566 179.068L162.197 179.53L162.105 179.647L161.645 180.224C161.959 179.832 162.453 179.847 163.016 180.361L199.087 213.127C200.065 214.019 200.894 216.086 200.928 217.721C200.944 218.417 200.811 218.927 200.582 219.214L201.503 218.058C201.733 217.77 201.862 217.254 201.848 216.566C201.816 214.936 200.986 212.87 200.008 211.978Z" fill="#80D3FA"/>
<path d="M199.099 213.129C200.077 214.02 200.906 216.087 200.94 217.722C200.974 219.358 200.201 219.969 199.224 219.08L163.153 186.309C162.176 185.419 161.347 183.351 161.313 181.713C161.278 180.074 162.051 179.467 163.029 180.358L199.099 213.129Z" fill="#145075"/>
<path d="M162.755 181.872L162.596 181.726L162.62 182.795L177.75 196.579L177.726 195.512L162.755 181.872Z" fill="#FF6462"/>
<path d="M199.253 216.217L177.67 196.674C177.639 196.64 177.604 196.624 177.568 196.626C177.531 196.629 177.496 196.651 177.465 196.689C177.435 196.727 177.41 196.78 177.395 196.842C177.379 196.904 177.374 196.972 177.378 197.039C177.383 197.166 177.405 197.288 177.442 197.393C177.479 197.499 177.529 197.585 177.588 197.645L199.171 217.188C199.207 217.223 199.248 217.239 199.289 217.234C199.315 217.229 199.34 217.215 199.363 217.191C199.386 217.167 199.407 217.135 199.423 217.097C199.439 217.058 199.451 217.014 199.458 216.967C199.465 216.92 199.467 216.871 199.463 216.823C199.457 216.696 199.435 216.575 199.399 216.469C199.362 216.364 199.312 216.277 199.253 216.217V216.217Z" fill="#E3F6FF"/>
<path d="M239.6 193.238L239.85 204.454C239.872 205.421 240.256 206.549 240.704 206.96L250.203 215.662C250.651 216.072 251 215.617 250.978 214.648L250.727 203.421L239.6 193.238Z" fill="#145075"/>
<path d="M250.089 197.832L248.261 197.198L247.72 197.015L246.392 196.554L245.854 196.367L244.523 195.906L243.983 195.72L242.658 195.257L242.116 195.074L240.789 194.612L240.248 194.424L239.603 194.203L239.307 192.033C239.168 191.01 239.402 190.294 239.823 190.443L240.496 190.68L241.036 190.864L242.364 191.325L242.906 191.514L244.231 191.972L244.771 192.156L246.102 192.619L246.642 192.808L247.972 193.271L248.514 193.455L248.78 193.55C249.201 193.695 249.661 194.646 249.8 195.671L250.089 197.832Z" fill="#145075"/>
<path d="M250.05 213.747L240.616 205.109L240.411 195.906L249.845 204.545L250.05 213.747Z" fill="#E3F6FF"/>
<path d="M248.51 193.57L248.255 197.438L247.697 197.249L247.953 193.38L248.51 193.57Z" fill="#E3F6FF"/>
<path d="M246.649 192.83L246.391 196.696L245.837 196.502L246.092 192.634L246.649 192.83Z" fill="#E3F6FF"/>
<path d="M244.783 192.079L244.528 195.949L243.971 195.757L244.226 191.889L244.783 192.079Z" fill="#E3F6FF"/>
<path d="M242.924 191.338L242.667 195.202L242.11 195.012L242.366 191.143L242.924 191.338Z" fill="#E3F6FF"/>
<path d="M241.059 190.589L240.805 194.458L240.247 194.263L240.503 190.399L241.059 190.589Z" fill="#E3F6FF"/>
</svg>
