<svg xmlns="http://www.w3.org/2000/svg" xmlns:xlink="http://www.w3.org/1999/xlink" viewBox="0 0 5526.39 2333.33"><defs><style>.cls-1{fill:url(#linear-gradient);}.cls-2{fill:url(#linear-gradient-2);}.cls-3{fill:#ff6462;}.cls-4,.cls-9{fill:#e3f6ff;}.cls-5{fill:#145075;}.cls-6{fill:#80d3fa;}.cls-7{fill:#0772b3;}.cls-8{fill:#2d80b3;}.cls-8,.cls-9{opacity:0.5;}</style><linearGradient id="linear-gradient" x1="4982.05" y1="46.04" x2="-227.92" y2="2349.4" gradientUnits="userSpaceOnUse"><stop offset="0" stop-color="#70b6ff"/><stop offset="1" stop-color="#3361b0"/></linearGradient><linearGradient id="linear-gradient-2" x1="5754.09" y1="423.63" x2="2615.94" y2="1811.02" gradientUnits="userSpaceOnUse"><stop offset="0" stop-color="#abd4ff"/><stop offset="1" stop-color="#52a1f7"/></linearGradient></defs><title>home4</title><g id="Layer_2" data-name="Layer 2"><g id="Layer_3" data-name="Layer 3"><rect class="cls-1" width="4894.6" height="2333.33"/><path class="cls-2" d="M5526.39,0V2333.33H4037.73l-1139.8-515c-152.61-69-277.5-238.23-277.5-376.13V0Z"/></g><g id="Layer_1-2" data-name="Layer 1"><path class="cls-3" d="M4191,1201.37l-1.66,586.38c0,6.16-2.21,10.51-5.74,12.55l14.6-8.48,14.6-8.48c3.52-2,5.71-6.39,5.73-12.56l1.66-586.38Z"/><path class="cls-4" d="M4200.71,1150.58,3318.63,641.31c-5.42-3.12-10.35-3.4-13.92-1.33l-29.2,17c3.57-2.08,8.51-1.8,13.93,1.33l882.07,509.27c10.78,6.22,19.56,21.44,19.53,33.82l29.19-17C4220.27,1172,4211.49,1156.8,4200.71,1150.58Z"/><path class="cls-5" d="M4171.51,1167.55c10.78,6.22,19.56,21.44,19.53,33.82l-1.66,586.38c0,12.4-8.88,17.44-19.66,11.22L3287.65,1289.7c-10.78-6.22-19.56-21.44-19.53-33.84l1.66-586.38c0-12.38,8.88-17.42,19.66-11.2Z"/><path class="cls-3" d="M4111.41,1212.45c0,12.2,8.57,27,19.14,33.14s19.13,1.15,19.13-11-8.56-27-19.13-33.14S4111.41,1200.25,4111.41,1212.45Z"/><path class="cls-6" d="M4051.62,1177.93c0,12.2,8.57,27,19.13,33.14s19.14,1.15,19.14-11-8.56-27-19.13-33.14S4051.62,1165.73,4051.62,1177.93Z"/><path class="cls-4" d="M3991.83,1143.4c0,12.21,8.57,27,19.14,33.14s19.13,1.16,19.13-11-8.56-27-19.13-33.14S3991.83,1131.2,3991.83,1143.4Z"/><polygon class="cls-4" points="3916.78 1123.38 3298.38 766.34 3298.38 716.63 3916.78 1073.67 3916.78 1123.38"/><polygon class="cls-6" points="3648.91 1010.16 3298.38 807.77 3298.38 793.96 3648.91 996.35 3648.91 1010.16"/><path class="cls-3" d="M3075.82,1135.63c-13.87-8-25.12-8.59-25.12,9.63,0-18.22-11.25-30.63-25.13-38.64s-25.12.25-25.12,18.47c0,27.41,36.64,90.42,50.25,98.28S3101,1209,3101,1183.11C3101,1164.9,3089.7,1143.64,3075.82,1135.63Z"/><path class="cls-3" d="M4211.85,1439.26l-.37,130.18c0,6.92-2.49,11.8-6.45,14.1l17.51-10.18c4-2.3,6.42-7.17,6.44-14.08l.37-130.2Z"/><path class="cls-4" d="M4207.4,1391.06l-277.5-160.21c-6.1-3.52-11.64-3.83-15.65-1.5l-17.51,10.17c4-2.33,9.56-2,15.65,1.5l277.5,160.22c12.12,7,22,24.1,22,38l17.5-10.18C4229.39,1415.17,4219.51,1398.06,4207.4,1391.06Z"/><path class="cls-6" d="M4189.89,1401.24c12.12,7,22,24.1,22,38l-.37,130.18c0,13.92-10,19.59-22.1,12.6l-277.5-160.22c-12.11-7-22-24.1-22-38l.37-130.19c0-13.91,10-19.58,22.09-12.59Z"/><polygon class="cls-7" points="4034.9 1470.24 3908.39 1397.21 3908.39 1268.15 4034.9 1341.19 4034.9 1470.24"/><polygon class="cls-3" points="4194.97 1459.68 4050.62 1374.82 4050.62 1354.4 4194.98 1439.26 4194.97 1459.68"/><polygon class="cls-8" points="4171.13 1475.36 4050.62 1405.45 4050.62 1395.24 4171.13 1465.14 4171.13 1475.36"/><polygon class="cls-8" points="4137.07 1506.42 4050.62 1456.52 4050.62 1446.3 4137.07 1496.21 4137.07 1506.42"/><polygon class="cls-8" points="4137.07 1481.78 4050.62 1431.88 4050.62 1421.66 4137.07 1471.57 4137.07 1481.78"/><polygon class="cls-3" points="4188.48 1557.76 4171.12 1534.58 4153.77 1537.72 4153.77 1498.6 4188.48 1518.65 4188.48 1557.76"/><path class="cls-4" d="M4098.51,987.17c0,21.84-19.35,28.55-43,14.89l-643-371.26c-23.65-13.65-43-42.69-43-64.53s19.35-28.55,43-14.89l643,371.25C4079.16,936.29,4098.51,965.33,4098.51,987.17Z"/><path class="cls-3" d="M3778,1183.2l-1.33,468.41c0,7.21-2.59,12.29-6.71,14.69l17.1-9.94,5.7-3.31c4.13-2.4,6.69-7.48,6.71-14.69l1.33-468.41Z"/><path class="cls-4" d="M3777.9,1130.33,3216,807.3c-6.35-3.66-12.13-4-16.31-1.56L3176.85,819c4.18-2.43,10-2.1,16.31,1.56l561.93,323c12.63,7.29,22.92,25.12,22.88,39.62l22.8-13.25C3800.81,1155.45,3790.52,1137.62,3777.9,1130.33Z"/><path class="cls-7" d="M3755.09,1143.58c12.63,7.29,22.92,25.12,22.88,39.62l-1.33,468.41c0,14.51-10.4,20.41-23,13.12l-561.94-323c-12.62-7.29-22.91-25.12-22.87-39.62l1.33-468.41c0-14.5,10.4-20.41,23-13.13Z"/><path class="cls-9" d="M3610.53,1327.81c0,87.93-61.74,123.57-137.9,79.6s-137.88-150.89-137.89-238.81S3396.48,1045,3472.63,1089,3610.53,1239.88,3610.53,1327.81Z"/><path class="cls-4" d="M3535.84,1266.92l-81.06-101.63c-3.92-4.92-7.63-8.32-10.93-10.22-3.49-2-6.51-2.35-8.8-1l-15.32,8.9c2.3-1.33,5.31-1,8.81,1,3.29,1.9,7,5.3,10.92,10.22l81.06,101.64c11.26,14.1,13,26.81,5.33,31.28l15.33-8.91C3548.87,1293.74,3547.1,1281,3535.84,1266.92Z"/><path class="cls-3" d="M3428.54,1164c3.29,1.9,7,5.3,10.92,10.22l81.06,101.64c13.4,16.78,13.36,31.59-.09,32.89l-81.37,7.84a18.18,18.18,0,0,1-10.95-2.41c-8-4.6-13.42-15.08-13.38-27.72l.31-110.26C3415.08,1163.52,3420.58,1159.37,3428.54,1164Z"/><polygon class="cls-5" points="4396.12 1323.62 4396.12 1498.48 4296.73 1441.1 4296.72 1266.24 4396.12 1323.62"/><polygon class="cls-4" points="4383.66 1443.5 4309.19 1400.5 4309.19 1321.21 4383.65 1364.2 4383.66 1443.5"/><polygon class="cls-4" points="4383.65 1457.89 4383.66 1491.29 4309.18 1448.29 4309.18 1414.89 4383.65 1457.89"/><polygon class="cls-4" points="4383.66 1316.43 4383.66 1349.76 4309.18 1306.76 4309.18 1273.43 4383.66 1316.43"/><path class="cls-4" d="M3176.85,745.17c0,5.79-4.1,8.16-9.11,5.26L3061.38,689c-5-2.89-9.12-10-9.12-15.78V606.13c0-5.79,4.11-8.16,9.12-5.26l106.35,61.4c5,2.9,9.12,10,9.12,15.79Z"/><path class="cls-3" d="M3105.64,651.41c-3.58-4.49-6.51-4.24-6.51.55v29.56c0,4.79,2.93,8.42,6.51,8.06l21.66-2.17c3.58-.36,3.58-4.32,0-8.81Z"/><path class="cls-5" d="M3151.77,761.07c1.47,3.19.62,4.62-1.89,3.17l-70.65-40.79c-2.5-1.45-3.36-3.85-1.89-5.35l4.54-4.64c1.47-1.5,4.72-1.54,7.23-.1L3140,742.75c2.51,1.45,5.76,5.25,7.23,8.44Z"/><path class="cls-5" d="M3057.55,873.61a15,15,0,0,0-6.25-8.51l-61.2-35.33a4.87,4.87,0,0,0-4.59-.56c-7.87,4-11.17,25.18-15.3,57.07-1,7.65-2.17,16.79-3.45,24.11a34.08,34.08,0,0,0-7-5.49c-9.33-5.38-16.9-2.52-16.9,6.41s7.57,20.53,16.9,25.91c4.59,2.65,8.75,3.29,11.8,2.21a3.36,3.36,0,0,0,2.77-1.07c4.11-4.61,6.16-19.06,9.17-42.26,2.1-16.24,5.5-42.42,9.84-48.94l46.76,27c-3.59,9.83-6,26.29-8.71,47.45-1,7.65-2.17,16.79-3.45,24.12a33.48,33.48,0,0,0-7-5.49c-9.34-5.39-16.9-2.52-16.9,6.4s7.57,20.52,16.9,25.91c4.6,2.66,8.77,3.3,11.82,2.2a3.33,3.33,0,0,0,2.75-1c4.12-4.61,6.16-19.07,9.17-42.26,2.31-17.86,6.19-47.75,11.17-50.27C3057.9,880.15,3058.56,877.16,3057.55,873.61Z"/><path class="cls-6" d="M4043.66,1020.64c-23.68-13.68-42.89-46.94-42.81-74.13,0-13.53,4.83-23,12.54-27.53l-10.94,6.36c-7.71,4.48-12.5,14-12.54,27.52-.08,27.2,19.12,60.46,42.81,74.14,11.92,6.88,22.74,7.51,30.56,3l10.94-6.35C4066.4,1028.15,4055.58,1027.52,4043.66,1020.64Z"/><polygon class="cls-6" points="4076.14 1039.49 4087.09 1033.14 4126.27 1101.07 4115.33 1107.42 4076.14 1039.49"/><path class="cls-6" d="M3994.66,911.93l10.94-6.36c9.82-5.7,23.41-4.91,38.38,3.73,29.75,17.18,53.87,59,53.78,93.15,0,13.76-4,24.23-10.67,30.69l-10.94,6.35c6.66-6.45,10.63-16.92,10.66-30.68.1-34.19-24-76-53.77-93.14C4018.06,907,4004.48,906.23,3994.66,911.93Z"/><path class="cls-7" d="M4076.15,1039.49l39.18,67.93-10.46,6-39.07-67.72c-9.18,2.89-20.67,1.16-33.11-6-29.76-17.18-53.88-59-53.78-93.15s24.38-48,54.13-30.84,53.87,59,53.77,93.14C4086.78,1022.57,4082.81,1033,4076.15,1039.49ZM4032.72,1027c23.69,13.67,43,2.65,43.09-24.54S4056.69,942,4033,928.3s-43-2.65-43.09,24.56,19.12,60.46,42.81,74.14Z"/><path class="cls-6" d="M4189.74,1642.29l-334-192.83-17.51,10.18,334,192.82c32.68,18.87,52.35,56.79,52.28,81-.05,19.44-.05,19.93-.05,20l-.1,33.41,17.5-10.17.1-33.42s0-.52.05-20C4242.09,1699.07,4222.43,1661.17,4189.74,1642.29Z"/><path class="cls-4" d="M4172.24,1652.46c32.68,18.87,52.35,56.79,52.28,81-.05,19.44-.05,19.93-.05,20l-.1,33.41c-.78-2.13-15.62-42.49-63.32-70l-270.6-156.22c-34.09-19.69-52.35-48.89-52.26-81,0-19.42,0-19.9,0-19.92Z"/><path class="cls-3" d="M3889.7,1523.59c0,10.51-7.37,14.77-16.48,9.51s-16.48-18-16.48-28.55,7.38-14.77,16.48-9.51S3889.7,1513.07,3889.7,1523.59Z"/><polygon class="cls-7" points="4006.53 1581.63 3897.82 1518.87 3897.82 1511.49 4006.53 1574.24 4006.53 1581.63"/><polygon class="cls-8" points="4191.37 1713.01 3897.82 1543.54 3897.82 1532.78 4191.37 1702.27 4191.37 1713.01"/><path class="cls-6" d="M4229.89,1938.33l-334-192.83-17.5,10.17,334,192.83c32.68,18.87,52.34,56.78,52.28,81-.06,19.43-.06,19.93-.06,20l-.09,33.42,17.5-10.18.1-33.41s0-.52.05-20C4282.24,1995.11,4262.57,1957.2,4229.89,1938.33Z"/><path class="cls-4" d="M4212.39,1948.5c32.68,18.87,52.34,56.78,52.28,81-.06,19.43-.06,19.93-.06,20l-.09,33.42c-.79-2.13-15.63-42.49-63.32-70l-270.6-156.23c-34.1-19.68-52.36-48.89-52.27-81,.06-19.43.06-19.91.06-19.93Z"/><path class="cls-3" d="M3929.85,1819.62c0,10.51-7.38,14.77-16.48,9.52s-16.48-18-16.48-28.55,7.37-14.77,16.47-9.52S3929.85,1809.11,3929.85,1819.62Z"/><polygon class="cls-7" points="4046.68 1877.67 3937.97 1814.91 3937.97 1807.52 4046.68 1870.29 4046.68 1877.67"/><polygon class="cls-8" points="4231.52 2009.05 3937.97 1839.58 3937.97 1828.82 4231.52 1998.3 4231.52 2009.05"/><path class="cls-6" d="M3904.47,1623.5c-17.21-9.93-30.85-10.45-39.92-5.18l-17.5,10.17c9.07-5.27,22.71-4.75,39.91,5.19l304,175.5s0,.52,0,20c0,14.62-3.88,24.25-11.26,28.55l17.5-10.18c7.39-4.29,11.22-13.92,11.26-28.54.06-19.43.06-19.93.06-20Z"/><path class="cls-4" d="M3887,1633.68c-32.68-18.87-52.5-3.76-52.57,20.45,0,19.43-.06,19.92-.06,20l-.09,33.38.16-.23-.16.23,16.67-9.69c9.91-1.69,24.92.26,46.83,12.91l240.6,138.91c34.09,19.68,52.46,11.62,52.55-20.47,0-19.43,0-19.92,0-20ZM3837,1704.27q-.48.43-.87.84Q3836.55,1704.71,3837,1704.27Zm-2.28,2.48-.29.4Zm1.23-1.44-.55.6Zm-.67.75c-.19.22-.36.43-.5.61C3835,1706.49,3835.11,1706.28,3835.31,1706.06Zm4.33-3.87c.44-.31.92-.61,1.42-.9C3840.56,1701.58,3840.08,1701.88,3839.64,1702.19Zm-2.53,2c.28-.27.6-.55.94-.82C3837.71,1703.65,3837.39,1703.93,3837.11,1704.2Zm1.26-1.07c.32-.25.67-.52,1-.78C3839,1702.61,3838.69,1702.88,3838.37,1703.13Z"/><path class="cls-3" d="M3888.39,1671.78c0,10.26-7.2,14.41-16.07,9.28s-16.07-17.58-16.07-27.83,7.19-14.41,16.07-9.28S3888.39,1661.53,3888.39,1671.78Z"/><polygon class="cls-7" points="4015 1732.75 3896.3 1664.33 3896.3 1657.12 4015 1725.54 4015 1732.75"/><polygon class="cls-8" points="4146.37 1832.65 3896.3 1688.39 3896.3 1677.9 4146.37 1822.16 4146.37 1832.65"/><path class="cls-4" d="M3159.45,1391.23c0,27.55-19.35,38.72-43.21,25s-43.22-47.29-43.21-74.84,19.34-38.73,43.21-24.95S3159.45,1363.67,3159.45,1391.23Z"/><path class="cls-6" d="M3319.18,1475l-17.27-21.65a9.32,9.32,0,0,0-2.34-2.19,1.9,1.9,0,0,0-1.89-.21l-7.24,4.2a1.87,1.87,0,0,1,1.89.23,8.9,8.9,0,0,1,2.34,2.18l17.28,21.65c2.39,3,2.76,5.72,1.12,6.68l7.23-4.21C3322,1480.74,3321.58,1478,3319.18,1475Z"/><path class="cls-5" d="M3292.33,1455.4a8.9,8.9,0,0,1,2.34,2.18l17.28,21.65c2.84,3.59,2.83,6.73,0,7l-17.35,1.66a3.79,3.79,0,0,1-2.34-.52,6.66,6.66,0,0,1-2.86-5.9l.07-23.52C3289.45,1455.29,3290.63,1454.42,3292.33,1455.4Z"/><path class="cls-6" d="M3331.49,1466.47a1.93,1.93,0,0,0-1.95-.19l-7.24,4.21a1.93,1.93,0,0,1,1.95.18,6,6,0,0,1,2.73,4.73l-.09,32a2,2,0,0,1-.8,1.76l7.23-4.21a1.92,1.92,0,0,0,.8-1.76l.09-32A6,6,0,0,0,3331.49,1466.47Z"/><path class="cls-5" d="M3324.25,1470.67a6,6,0,0,1,2.73,4.73l-.09,32c0,1.73-1.24,2.44-2.75,1.57a6,6,0,0,1-2.73-4.74l.09-32C3321.51,1470.5,3322.74,1469.8,3324.25,1470.67Z"/><path class="cls-6" d="M3232,1409a1.93,1.93,0,0,0-1.94-.18l-7.23,4.2a1.9,1.9,0,0,1,1.94.2,6,6,0,0,1,2.71,4.71l-.09,32a1.94,1.94,0,0,1-.8,1.77l7.24-4.21a1.94,1.94,0,0,0,.8-1.77l.09-32A6,6,0,0,0,3232,1409Z"/><path class="cls-5" d="M3224.74,1413.23a6,6,0,0,1,2.71,4.71l-.09,32c0,1.73-1.22,2.44-2.73,1.57a6,6,0,0,1-2.73-4.73l.09-32C3222,1413.05,3223.23,1412.35,3224.74,1413.23Z"/><path class="cls-6" d="M3263.88,1430.58a4,4,0,0,0-2.35-.52l-17.33,1.66a2.89,2.89,0,0,0-1.15.35l-7.24,4.21a2.89,2.89,0,0,1,1.14-.35l17.35-1.66a3.86,3.86,0,0,1,2.34.52,6.65,6.65,0,0,1,2.84,5.89l-.06,23.52c0,1.51-.38,2.46-1,2.82l7.24-4.21c.62-.36,1-1.31,1-2.82l.07-23.52A6.65,6.65,0,0,0,3263.88,1430.58Z"/><path class="cls-5" d="M3256.64,1434.79a6.65,6.65,0,0,1,2.84,5.89l-.06,23.52c0,2.69-1.17,3.58-2.87,2.6a8.79,8.79,0,0,1-2.34-2.19L3236.93,1443c-2.84-3.57-2.83-6.72,0-7l17.35-1.66A3.86,3.86,0,0,1,3256.64,1434.79Z"/><path class="cls-6" d="M3198.58,1392.88l-16.93-9.77a3.86,3.86,0,0,0-3.9-.38l-7.24,4.21a3.86,3.86,0,0,1,3.9.38l16.93,9.77a12,12,0,0,1,5.44,9.43l-.05,19.45a3.82,3.82,0,0,1-1.6,3.49l7.23-4.21a3.76,3.76,0,0,0,1.6-3.49l.06-19.45A12.06,12.06,0,0,0,3198.58,1392.88Z"/><path class="cls-5" d="M3191.34,1397.09a12,12,0,0,1,5.44,9.43l-.05,19.45c0,3.44-2.48,4.85-5.48,3.12l-16.93-9.77a12.06,12.06,0,0,1-5.46-9.44l.06-19.45c0-3.45,2.47-4.86,5.49-3.11Z"/><path class="cls-6" d="M3112.76,1335c-1.78-1-3.4-1.13-4.57-.45l-7.24,4.2c1.17-.68,2.79-.58,4.57.45a14.11,14.11,0,0,1,6.39,11.06l-.09,33.92c0,2-.73,3.43-1.88,4.1l7.24-4.2c1.15-.67,1.87-2.09,1.87-4.1l.1-33.93A14.09,14.09,0,0,0,3112.76,1335Z"/><path class="cls-5" d="M3105.52,1339.21a14.11,14.11,0,0,1,6.39,11.06l-.09,33.92c0,4-2.91,5.7-6.43,3.67a14.17,14.17,0,0,1-6.41-11.08l.1-33.92C3099.09,1338.81,3102,1337.16,3105.52,1339.21Z"/><path class="cls-6" d="M3133.38,1346.91c-1.78-1-3.4-1.13-4.57-.45l-7.24,4.21c1.17-.68,2.79-.59,4.57.44a14.12,14.12,0,0,1,6.39,11.06l-.09,33.92c0,2-.73,3.44-1.88,4.1l7.24-4.2c1.15-.66,1.87-2.09,1.87-4.1l.1-33.92A14.11,14.11,0,0,0,3133.38,1346.91Z"/><path class="cls-5" d="M3126.14,1351.11a14.12,14.12,0,0,1,6.39,11.06l-.09,33.92c0,4.06-2.91,5.71-6.44,3.67a14.17,14.17,0,0,1-6.4-11.07l.1-33.93C3119.71,1350.72,3122.61,1349.07,3126.14,1351.11Z"/><path class="cls-6" d="M3823.43,1745.3l-437.62-252c-6.84-3.95-13-4.52-16.94-2.21l-4.69,2.72-1.17.69-5.86,3.4c4-2.31,10.11-1.74,16.94,2.21l437.62,251.95c11.86,6.85,21.55,21.37,21.52,32.27,0,4.64-1.78,7.9-4.7,9.59l11.72-6.81c2.93-1.69,4.68-5,4.69-9.58C3845,1766.67,3835.29,1752.15,3823.43,1745.3Z"/><path class="cls-5" d="M3811.71,1752.11c11.86,6.85,21.55,21.37,21.52,32.27s-9.77,14.23-21.63,7.39l-437.62-252c-11.86-6.84-21.55-21.37-21.52-32.29s9.77-14.22,21.63-7.37Z"/><polygon class="cls-3" points="3369.98 1514.63 3368.05 1513.51 3368.05 1520.64 3551.62 1626.62 3551.62 1619.5 3369.98 1514.63"/><path class="cls-4" d="M3813,1769.69l-262-150.56a2.38,2.38,0,0,0-3.72,2.15,5.24,5.24,0,0,0,2.44,4.23l262,150.56a2.84,2.84,0,0,0,1.45.42,2.33,2.33,0,0,0,2.27-2.57A5.26,5.26,0,0,0,3813,1769.69Z"/><path class="cls-5" d="M4326.81,1642.76v73.78c0,6.36,4.41,14.12,9.79,17.23l114.25,66c5.38,3.11,9.79.45,9.79-5.92V1720Z"/><path class="cls-5" d="M4456,1684.63l-22.52-6-6.67-1.74-16.36-4.36-6.63-1.77-16.39-4.36-6.66-1.76-16.33-4.37-6.67-1.75-16.36-4.36-6.66-1.78-7.95-2.1-3.06-14.84c-1.44-7,1.66-11.58,6.85-10.18l8.29,2.23,6.66,1.75,16.36,4.36,6.67,1.78,16.33,4.34,6.66,1.75,16.39,4.37,6.66,1.79L4431,1652l6.67,1.75,3.28.89c5.19,1.38,10.63,8.2,12.07,15.21Z"/><polygon class="cls-4" points="4449.51 1787.11 4335.92 1721.53 4335.92 1660.94 4449.51 1726.52 4449.51 1787.11"/><polygon class="cls-4" points="4437.61 1653.71 4433.49 1678.63 4426.82 1676.89 4430.95 1651.96 4437.61 1653.71"/><polygon class="cls-4" points="4414.62 1647.63 4410.46 1672.53 4403.83 1670.76 4407.96 1645.84 4414.62 1647.63"/><polygon class="cls-4" points="4391.57 1641.47 4387.44 1666.4 4380.78 1664.64 4384.9 1639.72 4391.57 1641.47"/><polygon class="cls-4" points="4368.58 1635.38 4364.44 1660.27 4357.78 1658.52 4361.91 1633.6 4368.58 1635.38"/><polygon class="cls-4" points="4345.55 1629.24 4341.43 1654.16 4334.76 1652.38 4338.89 1627.49 4345.55 1629.24"/></g></g></svg>