<svg width="1440" height="720" viewBox="0 0 1440 720" fill="none" xmlns="http://www.w3.org/2000/svg">
<rect width="1440" height="720" fill="#FBF6F0"/>
<path d="M962.453 526.3C1075.76 526.3 1167.62 434.443 1167.62 321.131C1167.62 207.819 1075.76 115.962 962.453 115.962C849.141 115.962 757.284 207.819 757.284 321.131C757.284 434.443 849.141 526.3 962.453 526.3Z" fill="#F9D8AD"/>
<path d="M1174.15 563.247H750.756V565.861H1174.15V563.247Z" fill="#F9D8AD"/>
<path d="M1123.14 436.358H997.317V445.856H1123.14V436.358Z" fill="#99583F"/>
<path d="M968.553 221.757L944.395 227.856C943.067 228.191 942.263 229.539 942.598 230.867L948.698 255.024C949.033 256.352 950.381 257.157 951.708 256.821L975.866 250.722C977.194 250.387 977.998 249.039 977.663 247.711L971.564 223.554C971.228 222.226 969.88 221.421 968.553 221.757Z" fill="#E8C395"/>
<path d="M963.997 230.601C963.119 230.32 962.167 230.389 961.34 230.793C960.332 231.342 959.331 232.481 958.622 233.336C957.583 232.923 956.166 232.392 955.021 232.389C954.1 232.424 953.228 232.816 952.591 233.482C951.061 234.997 950.869 237.37 951.672 239.238C952.476 241.106 954.111 242.538 955.87 243.692C957.629 244.845 960.387 245.893 962.097 247.107C963.024 245.224 964.967 242.997 965.957 241.147C966.947 239.296 967.716 237.258 967.538 235.233C967.36 233.207 966.063 231.21 963.997 230.601Z" fill="#F9D8AD"/>
<path d="M966.817 398.639L951.134 401.039C950.272 401.171 949.681 401.976 949.812 402.838L952.212 418.518C952.344 419.38 953.149 419.971 954.011 419.839L969.693 417.44C970.555 417.308 971.147 416.502 971.015 415.641L968.615 399.961C968.484 399.099 967.678 398.508 966.817 398.639Z" fill="#E8C395"/>
<path d="M963.403 403.95C962.864 403.718 962.256 403.703 961.707 403.91C961.035 404.197 960.335 404.857 959.827 405.345C959.193 405.018 958.329 404.596 957.603 404.524C957.017 404.49 956.441 404.685 955.997 405.069C954.935 405.93 954.671 407.428 955.067 408.662C955.463 409.896 956.413 410.903 957.457 411.738C958.502 412.573 960.186 413.408 961.187 414.28C961.89 413.132 963.248 411.85 963.994 410.736C964.74 409.623 965.345 408.381 965.354 407.086C965.363 405.792 964.674 404.461 963.403 403.95Z" fill="#F9D8AD"/>
<path d="M1091.61 119.064L1076.04 116.042C1075.18 115.876 1074.36 116.435 1074.19 117.291L1071.17 132.863C1071 133.719 1071.56 134.547 1072.42 134.713L1087.99 137.734C1088.85 137.9 1089.67 137.341 1089.84 136.486L1092.86 120.914C1093.03 120.058 1092.47 119.23 1091.61 119.064Z" fill="#E8C395"/>
<path d="M1086.6 122.938C1086.17 122.537 1085.6 122.319 1085.01 122.33C1084.29 122.37 1083.4 122.757 1082.76 123.058C1082.27 122.539 1081.61 121.85 1080.94 121.538C1080.4 121.31 1079.79 121.301 1079.24 121.512C1077.95 121.971 1077.2 123.285 1077.16 124.579C1077.11 125.873 1077.67 127.142 1078.37 128.281C1079.07 129.42 1080.38 130.772 1081.03 131.934C1082.08 131.102 1083.79 130.338 1084.87 129.543C1085.95 128.749 1086.94 127.779 1087.38 126.565C1087.83 125.351 1087.62 123.847 1086.6 122.938Z" fill="white"/>
<path d="M759.906 330.09L740.061 333.614C738.97 333.808 738.243 334.849 738.437 335.94L741.961 355.784C742.155 356.875 743.196 357.602 744.286 357.409L764.131 353.884C765.222 353.691 765.949 352.65 765.755 351.559L762.231 331.714C762.038 330.623 760.996 329.896 759.906 330.09Z" fill="#F9D8AD"/>
<path d="M755.726 336.948C755.035 336.669 754.262 336.669 753.571 336.948C752.728 337.332 751.849 338.193 751.23 338.844C750.415 338.448 749.304 337.94 748.377 337.871C747.637 337.85 746.918 338.115 746.369 338.612C745.046 339.76 744.756 341.651 745.296 343.203C745.835 344.755 747.072 346.006 748.426 347.04C749.781 348.073 751.941 349.077 753.253 350.156C754.113 348.689 755.795 346.999 756.696 345.565C757.597 344.13 758.34 342.532 758.314 340.884C758.289 339.237 757.359 337.556 755.726 336.948Z" fill="white"/>
<path d="M956.249 346.91L921.124 337.467C920.197 337.217 919.407 336.61 918.927 335.778C918.448 334.946 918.318 333.958 918.567 333.031L928.011 297.905C928.134 297.446 928.346 297.016 928.636 296.639C928.925 296.262 929.286 295.946 929.698 295.709C930.11 295.471 930.564 295.317 931.035 295.255C931.506 295.194 931.985 295.225 932.444 295.348L967.57 304.792C968.497 305.041 969.287 305.649 969.766 306.481C970.246 307.313 970.375 308.301 970.126 309.228L960.686 344.354C960.436 345.281 959.829 346.071 958.997 346.551C958.165 347.03 957.177 347.159 956.249 346.91V346.91Z" fill="#E8C395"/>
<path d="M955.48 312.795C954.565 311.862 953.291 311.165 951.959 311.148C950.286 311.125 948.209 311.868 946.682 312.451C945.652 311.182 944.226 309.495 942.768 308.677C941.62 308.023 940.157 307.989 938.894 308.339C935.864 309.177 933.93 312.069 933.626 315.016C933.322 317.963 934.381 320.962 935.801 323.685C937.222 326.408 939.985 329.711 941.299 332.471C943.824 330.749 947.87 329.269 950.464 327.625C953.058 325.98 955.474 323.929 956.705 321.217C957.936 318.505 957.681 315.033 955.48 312.795Z" fill="white"/>
<path d="M1005.36 173.341L950.172 187.131C949.45 187.312 948.701 187.348 947.966 187.239C947.23 187.13 946.524 186.877 945.887 186.494C945.249 186.112 944.693 185.608 944.251 185.011C943.808 184.413 943.488 183.735 943.308 183.014L929.517 127.819C929.336 127.098 929.3 126.349 929.409 125.614C929.518 124.879 929.772 124.172 930.154 123.535C930.536 122.898 931.041 122.342 931.638 121.9C932.235 121.458 932.914 121.138 933.635 120.958L988.844 107.164C990.3 106.805 991.839 107.039 993.123 107.815C994.407 108.59 995.33 109.843 995.69 111.299L1009.48 166.491C1009.84 167.946 1009.61 169.483 1008.84 170.767C1008.07 172.051 1006.82 172.976 1005.36 173.341V173.341Z" fill="#E8C395"/>
<path d="M978.381 127.297C976.419 126.723 974.149 126.723 972.315 127.718C970.02 128.961 967.724 131.555 966.091 133.509C963.721 132.559 960.49 131.34 957.876 131.325C955.793 131.325 953.781 132.37 952.324 133.807C948.82 137.251 948.369 142.674 950.194 146.944C952.019 151.214 955.744 154.494 959.756 157.136C963.767 159.779 970.054 162.184 973.951 164.959C976.083 160.669 980.499 155.59 982.795 151.372C985.09 147.153 986.835 142.505 986.439 137.885C986.043 133.265 983.105 128.694 978.381 127.297Z" fill="white"/>
<path d="M850.101 156.083C848.425 150.404 848.612 144.338 850.633 138.773C852.655 133.208 856.405 128.436 861.335 125.156C866.264 121.876 872.115 120.261 878.029 120.547C883.943 120.833 889.61 123.006 894.2 126.746C898.791 130.486 902.063 135.597 903.538 141.332C905.013 147.066 904.613 153.122 902.397 158.613C900.181 164.103 896.265 168.74 891.223 171.844C886.181 174.949 880.277 176.357 874.377 175.863L867.651 186.23L868.727 174.787C864.311 173.466 860.294 171.064 857.041 167.798C853.789 164.532 851.403 160.505 850.101 156.083V156.083Z" fill="#FFE9D2"/>
<path d="M1104.94 166.511H1038.11C1034.26 166.511 1031.14 169.632 1031.14 173.481V188.385C1031.14 192.235 1034.26 195.355 1038.11 195.355H1104.94C1108.79 195.355 1111.91 192.235 1111.91 188.385V173.481C1111.91 169.632 1108.79 166.511 1104.94 166.511Z" fill="#FFE9D2"/>
<path d="M1071.53 185.019C1073.78 185.019 1075.61 183.19 1075.61 180.933C1075.61 178.677 1073.78 176.847 1071.53 176.847C1069.27 176.847 1067.44 178.677 1067.44 180.933C1067.44 183.19 1069.27 185.019 1071.53 185.019Z" fill="#E8C395"/>
<path d="M1053.17 185.019C1055.43 185.019 1057.26 183.19 1057.26 180.933C1057.26 178.677 1055.43 176.847 1053.17 176.847C1050.92 176.847 1049.09 178.677 1049.09 180.933C1049.09 183.19 1050.92 185.019 1053.17 185.019Z" fill="#E8C395"/>
<path d="M1089.88 185.019C1092.14 185.019 1093.96 183.19 1093.96 180.933C1093.96 178.677 1092.14 176.847 1089.88 176.847C1087.62 176.847 1085.79 178.677 1085.79 180.933C1085.79 183.19 1087.62 185.019 1089.88 185.019Z" fill="#E8C395"/>
<path d="M792.094 512.351C796.245 481.565 802.303 451.067 810.232 421.032C810.729 419.153 811.257 417.227 812.419 415.666C814.536 412.823 818.258 411.798 821.701 410.952C821.498 411.778 821.337 412.464 821.128 413.29C818.832 412.817 816.516 413.913 814.815 415.549C813.113 417.184 812.077 419.374 811.317 421.6C810.433 424.183 809.896 426.883 809.36 429.566C807.512 438.812 805.663 448.058 803.813 457.305C800.143 475.67 796.461 494.095 794.952 512.767C794.186 512.664 792.88 512.454 792.094 512.351Z" fill="#357092"/>
<path d="M788.407 515.8C788.068 515.884 787.715 515.895 787.372 515.832C787.029 515.769 786.703 515.634 786.415 515.436C787.598 473.618 788.106 431.789 787.942 389.95C788.278 389.554 788.705 388.974 789.159 389.224C789.474 431.632 789.535 473.406 788.407 515.8Z" fill="#357092"/>
<path d="M781.724 517.2L771.107 437.288C770.82 435.182 770.507 432.984 769.25 431.262C767.993 429.54 765.465 428.57 763.678 429.712C763.264 429.664 762.326 429.804 761.993 430.054C761.855 429.25 761.706 428.45 761.577 427.649C764.518 425.775 768.662 427.402 770.714 430.232C772.765 433.061 773.265 436.677 773.701 440.134C776.978 466.042 780.253 491.951 783.526 517.86C782.763 518.124 782.355 517.7 781.724 517.2Z" fill="#357092"/>
<path d="M805.741 414.223C808.063 415.514 809.558 417.979 810.232 420.536C810.907 423.093 810.858 425.807 810.74 428.461C810.64 430.705 810.424 433.13 808.932 434.812C808.1 431.414 805.446 428.786 802.826 426.49C801.437 425.262 799.982 424.039 798.235 423.394C796.487 422.748 794.395 422.777 792.941 423.925C793.824 425.408 795.988 425.144 797.675 425.509C800.318 426.083 802.112 428.464 803.661 430.674C805.211 432.883 806.817 435.265 806.947 437.942C806.977 439.217 806.777 440.488 806.358 441.693C805.513 444.353 804.122 446.808 802.275 448.901C801.667 443.363 798.433 439.242 793.839 436.094L798.639 448.473C799.325 450.247 800.025 452.103 799.839 453.994C799.529 457.151 796.923 459.495 794.496 461.518C794.24 456.64 792.682 451.842 790.479 447.495C787.735 450.843 787.922 456.229 790.889 459.38C791.75 460.307 792.935 461.389 792.519 462.603C792.306 463.217 791.721 463.616 791.17 463.966C790.214 464.58 789.257 465.192 788.301 465.802C787.912 466.096 787.462 466.299 786.984 466.396C786.369 466.474 785.773 466.21 785.213 465.948C782.344 464.609 779.474 463.254 776.605 461.882C776.204 461.726 775.847 461.476 775.563 461.154C775.078 460.496 775.313 459.532 775.804 458.875C776.295 458.218 776.995 457.753 777.549 457.153C779.509 455.013 778.998 451.128 776.55 449.572C776.441 449.483 776.312 449.419 776.174 449.387C776.037 449.354 775.893 449.354 775.755 449.386C775.58 449.473 775.435 449.61 775.336 449.779C773.932 451.747 772.77 453.876 771.873 456.12C770.447 455.56 769.154 454.709 768.076 453.621C767.652 453.253 767.352 452.763 767.216 452.218C767.173 451.747 767.25 451.273 767.439 450.841C769.48 445.185 775.035 441.42 777.359 435.876C774.541 436.384 771.643 437.233 769.586 439.222C766.688 442.023 766.094 446.378 765.666 450.384C763.152 447.557 761.377 444.151 760.501 440.47C760.352 439.833 760.228 439.153 760.441 438.533C760.676 437.845 761.276 437.354 761.85 436.903L777.204 424.817C776.917 424.157 776.343 423.445 775.661 423.669L767.56 426.387C766.51 426.74 765.442 427.101 764.527 427.724C762.441 429.141 761.459 431.649 760.194 433.833C760.114 434.005 759.984 434.148 759.821 434.243C759.347 434.456 758.96 433.839 758.791 433.342C758.093 431.144 757.39 428.849 757.729 426.567C757.976 424.909 758.759 423.385 759.551 421.907C761.675 417.93 763.936 414.033 766.335 410.214C766.926 409.273 767.546 408.318 768.449 407.675C769.298 407.126 770.261 406.78 771.264 406.662C775.988 405.927 781.44 408.384 782.78 412.975C783.331 411.177 784.102 409.453 785.075 407.844C785.532 407.081 786.108 406.3 786.961 406.039C787.404 405.932 787.862 405.901 788.315 405.947L792.539 406.137C795.434 406.269 798.642 406.536 800.622 408.653C801.922 410.033 804.089 413.305 805.741 414.223Z" fill="#8BC3C0"/>
<path d="M798.332 384.4C798.356 386.57 797.906 388.719 797.014 390.697C796.122 392.675 794.809 394.434 793.167 395.853C791.526 397.272 789.594 398.315 787.508 398.911C785.421 399.506 783.23 399.64 781.087 399.302C783.158 397.636 784.992 395.696 786.539 393.534C783.853 394.004 782.039 396.475 779.692 397.864C779.269 398.155 778.771 398.317 778.257 398.329C777.64 398.297 777.109 397.907 776.607 397.554C773.488 395.39 769.813 394.168 766.019 394.033C769.933 392.003 773.455 389.293 776.421 386.03C775.141 385.551 773.683 385.976 772.524 386.699C771.365 387.422 770.401 388.42 769.299 389.224C767.034 390.876 764.27 391.699 761.471 391.554C759.198 391.428 756.88 389.517 755.623 387.628C754.366 385.74 753.663 383.531 752.988 381.356C754.733 381.965 756.589 382.19 758.429 382.014C760.268 381.838 762.048 381.266 763.646 380.337C761.387 379.166 758.702 381.006 756.168 380.802C753.921 380.624 752.079 378.793 751.198 376.733C750.317 374.673 750.222 372.351 750.136 370.102C750.102 369.241 750.07 368.38 750.039 367.519C753.96 367.592 757.873 367.888 761.761 368.406C762.34 368.447 762.905 368.604 763.422 368.868C764.191 369.324 764.604 370.188 764.974 371L767.368 376.257C767.689 376.957 768.484 377.468 769.201 377.746C769.327 376.805 769.454 375.866 769.583 374.925C769.729 373.826 769.844 372.598 769.172 371.717C768.69 371.086 767.798 370.552 767.97 369.774C770.662 369.904 773.233 370.865 775.755 371.818C776.616 372.148 777.528 372.503 778.111 373.224C778.502 373.778 778.783 374.402 778.937 375.063C779.305 376.287 779.674 377.512 780.045 378.736C780.246 379.404 780.498 380.136 781.11 380.458C782.154 378.351 782.774 375.849 781.97 373.64C785.493 374.496 788.904 375.757 792.137 377.396C793.342 377.961 794.455 378.702 795.44 379.597C796.823 380.922 798.309 382.483 798.332 384.4Z" fill="#8BC3C0"/>
<path d="M769.327 434.037C767.224 431.586 764.952 429.021 761.867 428.088C759.459 427.362 756.871 427.735 754.406 428.203C750.386 428.965 746.416 429.97 742.518 431.213C744.027 431.555 745.41 432.84 745.419 434.387C745.427 435.934 743.605 437.314 742.262 436.571C741.244 435.997 740.928 434.665 740.01 433.957C738.862 433.061 737.203 433.449 735.806 433.876C732.265 434.961 728.259 436.476 727.031 439.968C729.832 439.727 732.652 439.793 735.439 440.163C736.569 440.312 737.958 440.783 738.05 441.919C738.15 443.116 736.653 443.81 735.467 443.739C732.661 443.575 730.211 441.317 727.41 441.515C726.928 441.516 726.462 441.689 726.096 442.003C725.705 442.39 725.605 442.972 725.522 443.515C724.982 447.262 724.626 451.03 724.451 454.818C724.434 455.182 724.546 455.575 724.911 455.598C726.555 455.702 728.17 455.159 729.812 455.024C731.453 454.889 733.35 455.285 734.185 456.709C734.356 456.961 734.433 457.266 734.403 457.57C734.331 458.009 733.941 458.316 733.559 458.542C732.52 459.15 731.352 459.506 730.151 459.582C728.949 459.658 727.746 459.452 726.638 458.981C725.72 458.583 724.873 457.997 723.898 457.765C723.768 457.717 723.629 457.699 723.491 457.713C723.353 457.727 723.221 457.772 723.103 457.845C722.914 458.045 722.811 458.311 722.816 458.585C722.414 462.231 721.546 465.809 720.233 469.234C720.009 469.808 719.817 470.58 720.302 470.973C727.869 477.099 739.671 476.787 747.91 471.599C746.402 465.679 744.449 459.883 742.067 454.258C744.808 454.565 746.945 456.689 748.842 458.692C749.677 459.572 750.527 460.474 751.06 461.561C752.243 463.989 751.671 466.864 751.075 469.495C752.894 467.71 755.646 466.944 757.075 464.835C758.245 463.113 758.251 460.849 758.085 458.763C757.75 454.575 756.901 450.443 755.557 446.462C757.055 446.006 758.283 447.701 758.822 449.173C760.176 452.871 760.674 456.828 760.28 460.746C764.291 458.188 767.724 454.82 770.358 450.858C771.108 449.804 771.694 448.643 772.097 447.414C772.754 445.176 772.383 442.766 771.79 440.51C771.284 438.574 770.627 435.552 769.327 434.037Z" fill="#8BC3C0"/>
<path d="M801.753 451.816C801.024 451.308 800.2 450.818 799.314 450.884C798.599 450.938 797.965 451.351 797.397 451.788C793.869 454.488 791.546 458.47 790.933 462.871C790.319 467.272 791.463 471.737 794.117 475.3C797.236 479.49 802.066 481.977 806.195 485.171C809.814 487.973 812.937 491.362 815.434 495.197C815.69 495.587 815.971 496.009 816.413 496.153C817.036 496.356 817.676 495.926 818.149 495.476C820.037 493.679 821.136 491.229 822.189 488.847L826.453 479.188C827.515 476.784 828.6 474.267 828.462 471.642C828.373 469.759 827.664 467.966 826.927 466.23C824.166 459.719 820.78 453.274 815.521 448.542C815.044 448.112 814.516 447.681 813.882 447.578C812.407 447.34 811.32 448.889 810.7 450.247C810.014 451.75 809.119 456.68 807.357 456.56C805.919 456.456 803.07 452.726 801.753 451.816Z" fill="#8BC3C0"/>
<path d="M823.888 405.388C821.472 409.672 816.757 412.409 814.792 416.92C813.736 419.342 813.581 422.048 813.44 424.685C813.337 426.671 813.371 428.989 814.938 430.212C816.327 428.306 816.235 425.747 816.287 423.388C816.338 421.029 816.757 418.364 818.7 417.026C819.472 419.437 818.881 422.06 818.086 424.461C817.291 426.863 816.281 429.256 816.212 431.784C816.143 434.312 817.288 437.09 819.633 438.037C820.11 434.392 820.857 430.788 821.865 427.253C822.08 426.504 822.321 425.727 822.852 425.156C823.383 424.585 824.287 424.295 824.967 424.674C824.802 426.343 824.416 427.984 823.819 429.552C822.72 432.421 820.918 435.058 820.23 438.066C819.541 441.073 820.413 444.815 823.251 446.028C823.737 443.733 824.221 441.437 824.703 439.142C826.032 441.437 825.375 444.307 825.194 446.941C825.013 449.575 825.816 452.844 828.376 453.541C828.054 449.535 828.512 445.504 829.725 441.673C831.446 445.191 832.098 448.789 830.784 452.479C830.359 453.676 829.768 454.864 829.802 456.132C829.874 458.626 832.233 460.356 834.347 461.682C835.398 460.29 836.789 459.182 837.868 457.811C838.947 456.439 839.716 454.634 839.223 452.961C838.962 452.075 838.376 451.32 838.075 450.447C837.682 449.3 837.802 448.072 837.874 446.872C838.09 443.263 837.833 439.64 837.111 436.097C838.15 437.647 839.04 439.292 839.768 441.01C840.31 442.295 840.766 443.701 840.474 445.064C840.325 445.762 839.983 446.407 839.825 447.105C839.409 448.921 840.267 450.763 841.105 452.43C843.224 449.065 844.69 445.331 845.427 441.423C845.788 439.492 844.87 437.119 843.739 435.518L835.705 424.111C839.148 423.974 842.48 426.588 843.165 429.954C843.323 430.72 843.36 431.512 843.57 432.249C844.049 433.971 845.375 435.299 846.649 436.553C847.739 433.012 848.83 429.202 847.711 425.672C846.746 422.622 844.224 420.26 841.383 418.785C838.543 417.311 835.38 416.605 832.256 415.916C834.52 414.002 838.029 414.671 840.577 416.183C843.125 417.695 845.234 419.913 847.932 421.147C846.874 417.523 845.438 414.02 843.647 410.696C843.389 410.22 843.091 409.712 842.589 409.508C842.169 409.38 841.723 409.367 841.297 409.471L831.421 410.989C831.67 409.161 833.444 407.833 835.269 407.546C837.094 407.259 838.936 407.864 840.62 408.61C839.911 406.602 838.161 405.13 836.23 404.263C834.299 403.396 832.175 403.066 830.08 402.748C829.294 402.625 828.109 402.894 828.299 403.672C827.283 405.434 826.433 407.79 826.666 409.813C826.786 410.871 827.085 411.91 827.111 412.969C827.136 414.028 826.824 415.184 825.991 415.839C825.667 414.025 825.343 412.2 825.389 410.358C825.412 409.477 825.518 408.593 825.389 407.721C825.217 406.775 824.678 405.936 823.888 405.388V405.388Z" fill="#8BC3C0"/>
<path d="M827.343 505.975H757.654V520.322H827.343V505.975Z" fill="#99583F"/>
<path d="M823.328 520.323H761.672L769.669 563.939H815.331L823.328 520.323Z" fill="#99583F"/>
<path d="M761.672 520.323L822.689 523.806L823.328 520.323H761.672Z" fill="#5F130D"/>
<path d="M1115.42 481.536C1114.92 479.98 1116.88 475.923 1117.43 474.382C1118.29 471.92 1119.23 469.502 1120.25 467.128C1121.28 464.71 1122.39 462.343 1123.58 460.029C1124.58 458.063 1126.59 455.696 1127.19 453.535C1125.81 458.515 1124.11 463.402 1122.12 468.169C1120.22 472.666 1118.15 477.748 1115.42 481.536Z" fill="#357092"/>
<path d="M1108.76 470.993C1108.62 471.71 1104.88 471.478 1104.24 471.512C1096.82 471.924 1089.41 472.498 1082.01 473.234C1085.94 472.841 1089.89 471.274 1093.85 470.766C1097.48 470.299 1101.14 470.09 1104.8 470.141C1105.4 470.158 1108.98 469.771 1108.76 470.993Z" fill="#357092"/>
<path d="M1071.58 424.912C1074.81 426.336 1077.8 428.262 1080.43 430.619C1081.75 431.79 1083.4 433.136 1084.4 434.74C1084.48 434.863 1084.55 434.991 1084.61 435.122C1084.65 435.1 1084.7 435.092 1084.75 435.1C1084.79 435.107 1084.84 435.13 1084.87 435.165C1085.55 435.738 1086.22 436.333 1086.88 436.949L1086.62 436.226L1086.9 436.757L1086.98 437.044L1087.12 437.176L1086.9 436.766L1082.93 421.807C1085.68 426.702 1087.32 432.141 1087.73 437.739C1089.07 438.988 1090.37 440.286 1091.63 441.632C1091.05 438.995 1090.94 436.057 1090.6 433.354C1090.27 430.708 1090.27 427.362 1089.51 424.866C1090.36 427.666 1090.97 430.532 1091.35 433.434C1091.66 435.902 1092.21 439.251 1091.71 441.724C1093.02 443.119 1094.29 444.562 1095.53 446.054C1095.53 445.587 1095.63 445.107 1095.68 444.657C1095.68 444.638 1095.68 444.619 1095.68 444.599C1094.61 443.222 1096.09 429.032 1095.85 427.509C1096.12 429.23 1097.59 443.549 1096.05 444.643C1096.05 444.749 1096.04 444.858 1096.03 444.964C1096.03 445.478 1095.98 445.99 1095.89 446.496C1096.77 447.569 1097.64 448.666 1098.48 449.788C1098.5 449.661 1098.52 449.535 1098.54 449.409C1098.58 449.053 1098.62 448.7 1098.68 448.347C1098.73 442.565 1099.84 436.375 1100.36 430.657C1100.59 434.067 1100.52 437.491 1100.15 440.889C1099.95 442.955 1099.98 447.234 1098.95 449.182L1098.93 449.469C1098.91 449.756 1098.9 450.043 1098.87 450.33C1099.98 451.807 1101.04 453.321 1102.07 454.872C1102.12 454.697 1102.17 454.528 1102.21 454.361C1102.23 454.255 1102.26 454.149 1102.28 454.046C1101.99 450.927 1103.06 446.754 1103.6 443.782C1103.95 441.911 1104.35 440.059 1104.8 438.226C1105.13 436.901 1106.24 434.596 1106.18 433.268C1106.32 437.142 1106.01 441.02 1105.24 444.82C1104.92 446.511 1104.05 453.366 1102.6 454.407L1102.58 454.491C1102.53 454.778 1102.49 455.099 1102.43 455.406C1103.55 457.099 1104.62 458.83 1105.66 460.6C1105.71 460.419 1105.76 460.241 1105.8 460.069C1105.87 459.805 1105.94 459.541 1106.01 459.28C1106.01 455.423 1107.05 451.105 1107.74 447.369C1108.13 445.251 1108.56 443.147 1109.04 441.056C1109.43 439.397 1110.48 437.007 1110.48 435.317C1110.5 439.771 1110.11 444.218 1109.33 448.602C1108.95 450.783 1108.46 452.931 1107.87 455.047C1107.54 456.232 1107.19 458.519 1106.29 459.374C1106.24 459.661 1106.19 459.92 1106.13 460.192C1106.07 460.465 1106.01 460.798 1105.94 461.102C1106.72 462.441 1107.47 463.808 1108.2 465.202L1108.3 465.389C1108.36 465.211 1108.42 465.033 1108.47 464.861C1108.51 464.732 1108.54 464.603 1108.58 464.476C1109.78 455.475 1112.4 446.502 1115.55 438.295C1114.83 440.158 1114.84 443.076 1114.45 445.113C1114 447.42 1113.48 449.703 1112.89 451.963C1111.86 455.888 1110.67 459.925 1109.12 463.616C1109.01 464.126 1108.88 464.631 1108.75 465.134C1108.68 465.38 1108.62 465.636 1108.56 465.894C1109.22 467.162 1109.85 468.446 1110.47 469.745C1110.52 469.586 1110.57 469.431 1110.62 469.28C1110.66 469.128 1110.71 468.976 1110.75 468.827C1110.83 466.944 1111.69 464.669 1112.17 462.864C1112.76 460.66 1113.39 458.474 1114.06 456.307C1114.73 454.14 1115.45 451.994 1116.21 449.871C1116.88 447.985 1118.22 445.724 1118.54 443.727C1117.76 448.454 1116.68 453.129 1115.33 457.725C1114.66 459.98 1113.93 462.202 1113.14 464.39C1112.67 465.659 1112.18 467.934 1111.13 468.775C1111.07 469.039 1111 469.303 1110.93 469.567C1110.87 469.831 1110.81 470.086 1110.75 470.347C1111.5 471.956 1112.23 473.588 1112.92 475.243C1112.9 475.2 1112.89 475.157 1112.89 475.114C1112.6 473.84 1113.93 470.586 1114.27 469.323C1115.3 465.521 1116.56 461.783 1118.04 458.132C1118.77 456.324 1119.55 454.552 1120.39 452.815C1121.06 451.42 1122.58 449.518 1122.89 447.98C1121.98 452.463 1120.8 456.888 1119.36 461.231C1118.11 465.004 1116.66 468.707 1115.01 472.322C1114.72 472.944 1113.72 475.733 1113.16 475.587C1113.16 475.642 1113.14 475.696 1113.13 475.748C1114.5 479.069 1115.74 482.463 1116.86 485.932C1118.94 481.134 1121.08 476.408 1123.48 471.845C1124.72 469.487 1126.01 467.169 1127.35 464.893C1128.54 462.884 1130.51 460.703 1131.35 458.462C1127.76 467.974 1123.15 477.346 1117.49 485.22C1117.43 485.372 1117.39 485.533 1117.33 485.682C1117.25 485.883 1117.15 486.078 1117.05 486.273L1117 486.385C1117.65 488.457 1118.26 490.552 1118.82 492.669C1118.92 492.468 1119.03 492.27 1119.14 492.069C1119.24 491.869 1119.31 491.734 1119.39 491.564C1118.88 490.727 1121.22 487.728 1121.67 487.005C1123.85 483.546 1126.13 480.198 1128.52 476.962C1129.72 475.343 1130.93 473.754 1132.18 472.195C1133.19 470.918 1135.11 469.389 1135.79 467.834C1134.04 471.851 1131.99 475.729 1129.66 479.435C1127.65 482.629 1125.41 485.674 1122.96 488.549C1122.47 489.123 1120.57 491.88 1119.67 491.751C1119.58 491.926 1119.49 492.098 1119.4 492.27C1119.25 492.557 1119.11 492.876 1118.94 493.166C1119.33 494.618 1119.68 496.077 1120.01 497.544C1120.17 497.384 1120.33 497.229 1120.48 497.071C1120.64 496.913 1120.81 496.724 1120.98 496.552C1120.95 496.527 1120.92 496.498 1120.89 496.466C1120.45 495.814 1123.54 493.794 1124.05 493.372C1126.81 491.075 1129.45 488.627 1131.95 486.041C1134.33 483.579 1137.23 480.91 1139.09 477.822C1137.04 481.237 1134.66 484.451 1132.01 487.424C1129.75 489.95 1127.28 492.272 1124.61 494.362C1124.13 494.738 1122.32 496.457 1121.37 496.618C1121.14 496.905 1120.87 497.151 1120.63 497.404C1120.46 497.588 1120.28 497.786 1120.1 497.978C1120.54 499.96 1120.94 501.955 1121.3 503.964C1122.67 511.665 1123.52 519.645 1123.02 527.539C1122.99 528.082 1122.39 528.073 1122.35 527.539C1121.86 520.635 1121.36 513.731 1120.28 506.919C1119.82 503.986 1119.26 501.08 1118.61 498.199C1118.32 498.038 1118.02 497.834 1117.75 497.659L1117.59 497.559C1112.89 497.694 1108.03 496.747 1103.33 496.48C1100.88 496.338 1098.43 496.227 1095.97 496.147C1093.88 496.078 1091.1 495.427 1089.05 495.989C1094.03 494.615 1099.19 494.034 1104.35 494.268C1106.07 494.345 1116.66 495.062 1117.68 497.166L1117.81 497.235C1118.03 497.346 1118.25 497.456 1118.48 497.573C1118.12 496.026 1117.74 494.488 1117.33 492.962C1117.14 492.836 1116.94 492.712 1116.76 492.6C1116.69 494.052 1113.38 492.537 1112.78 492.377C1108.87 491.324 1104.96 490.352 1101.03 489.458C1097.43 488.638 1093.3 487.054 1089.64 487.091C1093.73 487.051 1097.84 487.034 1101.92 487.47C1105.45 487.846 1108.96 488.549 1112.33 489.903C1113.02 490.19 1115.77 491.011 1116.54 491.955C1116.76 492.031 1116.96 492.127 1117.15 492.242C1116.68 490.52 1116.18 488.807 1115.65 487.102C1115.49 486.595 1115.32 486.092 1115.16 485.59C1114.65 485.498 1114.14 485.303 1113.65 485.177L1113.19 485.054C1103.61 484.296 1093.65 485.289 1084.1 485.303C1094.09 480.264 1104.11 482.721 1114.23 484.953C1114.49 484.993 1114.75 485.033 1115 485.088C1114.55 483.749 1114.08 482.41 1113.59 481.071C1113.23 480.922 1112.85 480.809 1112.46 480.735C1112.4 480.735 1112.34 480.735 1112.28 480.735C1112.28 480.812 1112.26 480.888 1112.24 480.962C1111.95 481.777 1107.86 481.223 1107.12 481.217C1099.28 481.151 1091.43 481.045 1083.59 481.025C1091.67 479.148 1100 478.624 1108.25 479.472C1108.8 479.53 1111.5 479.432 1112.15 480.267C1112.57 480.265 1112.99 480.337 1113.38 480.48C1112.79 478.911 1112.18 477.356 1111.54 475.814C1111.36 475.782 1111.18 475.742 1111.02 475.716C1110.78 475.679 1110.54 475.647 1110.31 475.604C1106.21 476.465 1101.41 476 1097.32 476.241L1082.66 477.102C1091.71 473.616 1101.99 472.603 1111.29 475.223C1110.18 472.613 1109 470.057 1107.75 467.553C1106.8 467.301 1105.83 467.119 1104.85 467.007C1104.69 467.007 1104.52 466.99 1104.36 466.99C1104.05 469.458 1097.41 468.755 1096.07 468.85C1092.4 469.108 1088.67 469.642 1085 469.633C1087.18 468.551 1103.01 462.715 1104.29 466.301C1105.4 466.364 1106.5 466.631 1107.51 467.088C1106.49 465.064 1105.41 463.078 1104.3 461.131C1103.68 461.063 1103.07 461.032 1102.45 461.036C1102.33 461.036 1102.21 461.036 1102.09 461.053C1102.56 462.551 1099.46 462.706 1098.78 462.87C1096.82 463.34 1094.85 463.788 1092.88 464.212C1088.8 465.091 1084.7 465.864 1080.6 466.534C1082.25 466.264 1084.22 464.746 1085.84 464.098C1087.61 463.388 1089.41 462.775 1091.24 462.261C1092.75 461.839 1100.89 459.105 1101.92 460.683H1102.29C1102.9 460.685 1103.52 460.736 1104.13 460.835C1103.21 459.251 1102.27 457.696 1101.29 456.169C1100.5 455.969 1099.68 455.945 1098.88 456.1C1098.33 459.352 1080.68 462.032 1079.22 463.093C1082.34 460.813 1085.73 458.937 1089.32 457.509C1090.69 456.97 1098.07 453.779 1098.82 455.567C1098.82 455.595 1098.84 455.621 1098.85 455.647C1099.59 455.537 1100.35 455.598 1101.07 455.825C1100.19 454.442 1099.28 453.084 1098.34 451.75C1098.11 451.426 1097.88 451.102 1097.65 450.78C1097.34 450.749 1097.02 450.709 1096.71 450.686C1091.03 455.331 1082.94 457.595 1076.35 458.993C1079.64 456.542 1082.95 454.083 1086.53 452.367C1089.42 450.981 1093.2 449.592 1096.39 450.224C1096.7 450.224 1097.01 450.257 1097.32 450.324C1096.12 448.675 1094.88 447.073 1093.59 445.518C1093.4 445.641 1093.19 445.767 1092.98 445.879C1092.64 448.149 1077.82 454.092 1076.91 455.151C1079.07 452.584 1081.64 450.392 1084.52 448.663C1085.67 447.98 1091.72 444.327 1092.84 445.483V445.5C1093.05 445.446 1093.25 445.4 1093.44 445.366C1092.74 444.516 1092.03 443.681 1091.3 442.861C1090.66 443.104 1089.99 443.271 1089.33 443.46L1089.18 443.503C1089.32 444.307 1086.69 445.274 1085.85 445.644C1083.48 446.7 1081.12 447.798 1078.77 448.938C1077.26 449.673 1073.13 450.729 1072.15 452.29C1074.31 448.826 1077.48 446.493 1080.8 445.024C1082.58 444.241 1086.21 442.321 1088.09 442.82C1088.38 442.886 1088.67 443.001 1088.93 443.162C1089.09 443.124 1089.25 443.083 1089.41 443.041C1089.96 442.892 1090.52 442.726 1091.08 442.611C1090.21 441.626 1089.32 440.662 1088.42 439.718C1087.92 439.82 1087.42 439.892 1086.92 439.934L1086.6 439.982C1085.76 440.708 1084.59 440.906 1083.61 441.09C1077.76 442.178 1071.88 443.268 1065.97 443.147C1069.2 441.115 1072.8 439.717 1076.55 439.027C1078.95 438.594 1085.16 437.305 1087.04 439.472C1087.38 439.423 1087.73 439.374 1088.07 439.354C1086.93 438.162 1085.76 437.001 1084.58 435.87C1083.99 436.066 1081.92 434.832 1081.26 434.53C1077.61 432.843 1074.02 430.982 1070.49 428.946C1068.77 427.954 1067.07 426.92 1065.37 425.844C1064.49 425.282 1063.61 424.708 1062.73 424.123C1062.21 423.778 1060.93 422.504 1060.35 422.501C1064.22 422.534 1068.04 423.354 1071.58 424.912V424.912Z" fill="#357092"/>
<path d="M1137.94 470.815C1138.36 468.52 1134.81 463.125 1133.76 461.039C1132.07 457.708 1130.28 454.456 1128.39 451.282C1126.48 448.046 1124.46 444.897 1122.33 441.836C1120.53 439.236 1117.24 436.255 1115.98 433.302C1118.88 440.113 1122.21 446.733 1125.94 453.125C1129.45 459.131 1133.35 465.969 1137.94 470.815Z" fill="#8BC3C0"/>
<path d="M1145.41 454.597C1145.74 455.587 1151.01 454.551 1151.93 454.482C1162.53 453.667 1173.15 453.093 1183.8 452.76C1178.15 452.941 1172.24 451.466 1166.52 451.489C1161.28 451.511 1156.05 451.905 1150.87 452.668C1150.02 452.769 1144.86 452.904 1145.41 454.597Z" fill="#8BC3C0"/>
<path d="M1189.49 382.179C1185.18 384.808 1181.3 388.1 1178.02 391.935C1176.37 393.847 1174.28 396.068 1173.16 398.535C1173.07 398.722 1173 398.914 1172.93 399.109C1172.87 399.086 1172.8 399.084 1172.73 399.103C1172.67 399.123 1172.61 399.162 1172.57 399.215C1171.72 400.172 1170.88 401.144 1170.05 402.131L1170.28 401.055L1170 401.861L1169.95 402.271L1169.76 402.487L1170 401.861L1172.81 379.884C1169.89 387.017 1168.57 395.212 1169.01 403.399C1167.36 405.419 1165.76 407.505 1164.21 409.657C1164.5 405.809 1164.14 401.623 1164.11 397.717C1164.08 393.901 1163.44 389.149 1164.05 385.465C1163.37 389.598 1163.04 393.781 1163.06 397.97C1163.06 401.534 1162.95 406.389 1164.1 409.81C1162.51 412.031 1160.98 414.317 1159.51 416.67C1159.4 416.01 1159.19 415.348 1159.04 414.716L1159.02 414.636C1160.27 412.481 1155.5 392.621 1155.55 390.412C1155.5 392.897 1156.1 413.508 1158.5 414.768C1158.53 414.92 1158.56 415.055 1158.59 415.221C1158.69 415.951 1158.85 416.67 1159.08 417.371C1158.03 419.06 1157.01 420.782 1156.02 422.536C1155.97 422.36 1155.91 422.185 1155.87 422.011C1155.73 421.517 1155.6 421.021 1155.46 420.53C1154.29 412.335 1151.55 403.761 1149.72 395.74C1150.04 400.625 1150.79 405.472 1151.95 410.226C1152.63 413.118 1153.39 419.193 1155.22 421.77C1155.25 421.904 1155.28 422.057 1155.31 422.18C1155.4 422.57 1155.46 422.975 1155.55 423.371C1154.26 425.666 1153.04 428.028 1151.86 430.418C1151.77 430.183 1151.66 429.948 1151.58 429.718C1151.52 429.575 1151.47 429.431 1151.41 429.285C1151.21 424.808 1148.94 419.084 1147.6 414.966C1146.76 412.378 1145.84 409.825 1144.85 407.307C1144.14 405.488 1142.12 402.429 1141.96 400.532C1142.42 406.082 1143.74 411.523 1145.47 416.751C1146.24 419.089 1148.78 428.656 1151.03 429.859C1151.04 429.896 1151.05 429.936 1151.06 429.973C1151.2 430.378 1151.31 430.834 1151.45 431.245C1150.19 433.86 1148.99 436.519 1147.85 439.222C1147.75 438.978 1147.64 438.734 1147.55 438.499C1147.4 438.137 1147.26 437.776 1147.1 437.42C1146.38 431.945 1144.09 426.011 1142.4 420.84C1141.44 417.907 1140.43 415 1139.35 412.119C1138.49 409.824 1136.54 406.644 1136.24 404.24C1137.04 410.569 1138.43 416.812 1140.36 422.892C1141.33 425.91 1142.43 428.874 1143.65 431.761C1144.34 433.385 1145.27 436.562 1146.7 437.606C1146.83 437.985 1146.96 438.361 1147.1 438.734C1147.23 439.107 1147.39 439.575 1147.54 439.991C1146.69 442.051 1145.87 444.133 1145.1 446.238L1144.99 446.525C1144.88 446.281 1144.76 446.04 1144.65 445.804C1144.58 445.629 1144.5 445.457 1144.42 445.282C1141.02 432.731 1135.61 420.493 1129.6 409.436C1130.97 411.947 1131.5 416.091 1132.45 418.906C1133.52 422.097 1134.69 425.24 1135.95 428.335C1138.16 433.71 1140.6 439.216 1143.5 444.16C1143.75 444.863 1144.03 445.558 1144.31 446.246C1144.45 446.582 1144.58 446.935 1144.72 447.288C1144.03 449.212 1143.37 451.155 1142.73 453.116C1142.63 452.904 1142.53 452.691 1142.45 452.482C1142.36 452.272 1142.26 452.069 1142.16 451.862C1141.7 449.208 1140.05 446.137 1139.03 443.667C1137.78 440.65 1136.47 437.668 1135.1 434.72C1133.74 431.772 1132.32 428.862 1130.84 425.991C1129.53 423.44 1127.22 420.484 1126.37 417.712C1128.38 424.273 1130.78 430.705 1133.57 436.972C1134.94 440.046 1136.4 443.062 1137.94 446.02C1138.84 447.741 1139.97 450.869 1141.62 451.862C1141.75 452.226 1141.9 452.591 1142.04 452.952C1142.17 453.314 1142.3 453.664 1142.44 454.026C1141.68 456.449 1140.96 458.901 1140.29 461.38C1140.29 461.323 1140.31 461.262 1140.32 461.191C1140.48 459.328 1137.98 454.961 1137.25 453.234C1135.07 448.035 1132.58 442.972 1129.79 438.071C1128.41 435.647 1126.97 433.28 1125.45 430.969C1124.24 429.115 1121.72 426.702 1120.99 424.579C1123.13 430.771 1125.64 436.829 1128.5 442.723C1130.98 447.843 1133.74 452.824 1136.77 457.644C1137.29 458.473 1139.24 462.235 1140.01 461.928C1140.02 462.005 1140.05 462.079 1140.07 462.152C1138.76 467.119 1137.64 472.195 1136.72 477.306C1132.87 470.89 1128.94 464.582 1124.67 458.559C1122.46 455.445 1120.19 452.4 1117.86 449.426C1115.79 446.786 1112.6 444.071 1110.97 441.05C1117.86 453.876 1126.18 466.301 1135.69 476.416C1135.8 476.62 1135.88 476.841 1135.98 477.039C1136.14 477.326 1136.31 477.57 1136.49 477.828L1136.58 477.974C1136.04 481.035 1135.58 484.124 1135.18 487.24C1135 486.973 1134.8 486.712 1134.61 486.448C1134.45 486.23 1134.3 486.003 1134.15 485.777C1134.72 484.491 1130.83 480.677 1130.05 479.751C1126.31 475.253 1122.44 470.931 1118.44 466.783C1116.44 464.712 1114.41 462.686 1112.35 460.706C1110.67 459.087 1107.66 457.262 1106.4 455.193C1109.64 460.567 1113.28 465.685 1117.29 470.505C1120.74 474.659 1124.5 478.559 1128.51 482.175C1129.32 482.901 1132.53 486.454 1133.79 486.101C1133.95 486.333 1134.11 486.56 1134.27 486.789C1134.54 487.183 1134.8 487.593 1135.08 487.975C1134.82 490.104 1134.59 492.241 1134.4 494.388C1134.14 494.19 1133.89 494.003 1133.64 493.814C1133.39 493.625 1133.11 493.378 1132.84 493.168C1132.88 493.128 1132.91 493.08 1132.94 493.028C1133.45 492.021 1128.67 489.736 1127.88 489.237C1123.52 486.499 1119.31 483.522 1115.28 480.319C1111.44 477.277 1106.82 474.035 1103.59 469.989C1107.15 474.446 1111.13 478.561 1115.45 482.279C1119.13 485.44 1123.08 488.269 1127.26 490.732C1128.01 491.174 1130.91 493.274 1132.29 493.315C1132.67 493.679 1133.1 493.977 1133.49 494.29C1133.77 494.52 1134.06 494.764 1134.35 494.988C1134.09 497.886 1133.9 500.794 1133.77 503.711C1133.29 514.902 1133.59 526.38 1135.78 537.496C1135.93 538.257 1136.79 538.133 1136.74 537.367C1136.13 527.473 1135.54 517.568 1135.79 507.708C1135.89 503.459 1136.14 499.229 1136.52 495.016C1136.91 494.729 1137.29 494.391 1137.66 494.089L1137.87 493.914C1144.56 493.22 1151.29 490.959 1157.91 489.693C1161.35 489.033 1164.81 488.414 1168.29 487.834C1171.24 487.34 1175.09 485.891 1178.09 486.304C1170.76 485.288 1163.32 485.434 1156.04 486.735C1153.62 487.168 1138.72 490.178 1137.67 493.363L1137.5 493.484C1137.21 493.685 1136.92 493.88 1136.62 494.092C1136.83 491.827 1137.08 489.573 1137.37 487.329C1137.62 487.114 1137.88 486.904 1138.13 486.706C1138.5 488.752 1142.92 485.98 1143.74 485.636C1149.08 483.409 1154.45 481.291 1159.86 479.28C1164.82 477.438 1170.37 474.402 1175.58 473.773C1169.76 474.488 1163.93 475.237 1158.22 476.626C1153.29 477.825 1148.43 479.495 1143.91 482.043C1142.98 482.566 1139.23 484.261 1138.31 485.748C1138.03 485.904 1137.76 486.085 1137.51 486.29C1137.85 483.752 1138.24 481.225 1138.68 478.712C1138.81 477.966 1138.95 477.22 1139.08 476.476C1139.79 476.247 1140.48 475.882 1141.15 475.616L1141.78 475.352C1155.23 472.482 1169.56 472.003 1183.1 470.224C1167.98 464.955 1154.23 470.341 1140.28 475.406C1139.93 475.512 1139.57 475.618 1139.22 475.745C1139.61 473.749 1140.02 471.767 1140.46 469.796C1140.95 469.516 1141.47 469.286 1142 469.11C1142.09 469.088 1142.17 469.07 1142.26 469.056C1142.28 469.165 1142.31 469.27 1142.36 469.369C1142.91 470.476 1148.62 468.915 1149.67 468.766C1160.8 467.197 1171.91 465.564 1183.05 464.054C1176.78 463.454 1170.48 463.402 1164.21 463.899C1158.66 464.338 1153.16 465.21 1147.75 466.505C1146.99 466.686 1143.14 467.056 1142.36 468.367C1141.77 468.442 1141.19 468.623 1140.66 468.901C1141.2 466.559 1141.78 464.236 1142.4 461.931C1142.65 461.851 1142.89 461.762 1143.13 461.693C1143.45 461.598 1143.78 461.509 1144.1 461.406C1150.08 461.842 1156.79 460.293 1162.66 459.862L1183.63 458.318C1170.12 455.082 1155.35 455.581 1142.64 461.053C1143.71 457.143 1144.91 453.291 1146.22 449.497C1147.55 449.015 1148.85 448.464 1150.24 448.178C1150.47 448.129 1150.7 448.091 1150.94 448.063C1151.84 451.506 1161.13 449.254 1163.06 449.136C1168.31 448.812 1173.7 448.849 1178.91 448.157C1175.61 447.035 1152.05 441.738 1150.91 447.07C1149.34 447.367 1147.84 447.951 1146.48 448.792C1147.55 445.731 1148.7 442.711 1149.92 439.733C1150.78 439.522 1151.65 439.359 1152.52 439.245C1152.69 439.225 1152.86 439.213 1153.03 439.205C1152.65 441.42 1157.08 441.053 1158.08 441.156C1160.94 441.456 1163.82 441.722 1166.7 441.954C1172.66 442.43 1178.62 442.754 1184.58 442.926C1182.18 442.857 1179.09 441.076 1176.68 440.459C1174.04 439.786 1171.36 439.256 1168.66 438.872C1166.45 438.556 1154.38 436.209 1153.21 438.645L1152.69 438.717C1151.82 438.84 1150.95 439.032 1150.11 439.291C1151.11 436.871 1152.15 434.485 1153.25 432.134C1154.33 431.7 1155.49 431.511 1156.66 431.58C1158.05 436.094 1183.61 436.568 1185.88 437.801C1181.02 435.15 1175.85 433.126 1170.49 431.775C1168.45 431.268 1157.37 428.143 1156.65 430.808C1156.64 430.847 1156.63 430.886 1156.63 430.926C1155.55 430.91 1154.48 431.141 1153.5 431.6C1154.5 429.471 1155.53 427.367 1156.61 425.288C1156.87 424.783 1157.13 424.28 1157.4 423.778C1157.84 423.675 1158.28 423.56 1158.72 423.468C1167.66 428.989 1179.58 430.674 1189.17 431.417C1184.05 428.562 1178.89 425.692 1173.49 423.936C1169.12 422.501 1163.49 421.253 1159.09 422.751C1158.65 422.811 1158.21 422.916 1157.79 423.067C1159.18 420.501 1160.64 417.994 1162.16 415.546C1162.45 415.683 1162.77 415.833 1163.1 415.945C1164.01 419.101 1186.16 424.739 1187.64 426.071C1184.08 422.838 1180.02 420.214 1175.61 418.303C1173.85 417.549 1164.58 413.505 1163.21 415.356C1163.2 415.365 1163.19 415.375 1163.19 415.385C1162.88 415.345 1162.59 415.322 1162.33 415.307C1163.16 413.968 1164.02 412.648 1164.89 411.348C1165.85 411.574 1166.84 411.683 1167.81 411.827L1168.02 411.861C1167.98 413.009 1171.9 413.904 1173.15 414.272C1176.72 415.322 1180.28 416.435 1183.83 417.612C1186.12 418.366 1192.17 419.087 1193.85 421.118C1190.12 416.61 1185.2 413.896 1180.2 412.438C1177.53 411.66 1172.03 409.62 1169.44 410.685C1169.04 410.836 1168.66 411.053 1168.32 411.327C1168.08 411.305 1167.85 411.279 1167.61 411.247C1166.8 411.138 1165.98 411.009 1165.16 410.96C1166.21 409.397 1167.29 407.861 1168.39 406.352C1169.11 406.403 1169.84 406.412 1170.56 406.378H1171.03C1172.35 407.238 1174.04 407.316 1175.48 407.391C1183.98 407.83 1192.53 408.269 1200.9 406.986C1195.93 404.713 1190.57 403.404 1185.12 403.129C1181.63 402.966 1172.57 402.291 1170.31 405.741C1169.82 405.741 1169.32 405.741 1168.83 405.769C1170.23 403.856 1171.66 401.988 1173.13 400.165C1174.01 400.332 1176.72 398.188 1177.59 397.637C1182.45 394.555 1187.19 391.236 1191.82 387.68C1194.08 385.947 1196.31 384.157 1198.5 382.311C1199.65 381.355 1200.79 380.374 1201.93 379.37C1202.6 378.796 1204.18 376.736 1205 376.621C1199.51 377.401 1194.23 379.292 1189.49 382.179V382.179Z" fill="#8BC3C0"/>
<path d="M1162.02 505.975H1092.33V520.322H1162.02V505.975Z" fill="#99583F"/>
<path d="M1158 520.323H1096.35L1104.34 563.939H1150.01L1158 520.323Z" fill="#99583F"/>
<path d="M1096.35 520.323L1157.36 523.806L1158 520.323H1096.35Z" fill="#5F130D"/>
<path d="M939.807 463.231H822.462C818.984 463.231 815.647 460.014 815.001 456.057L773.138 197.708C772.495 193.743 774.794 190.534 778.269 190.534H895.614C899.092 190.534 902.429 193.751 903.075 197.708L944.94 456.046C945.58 460.014 943.282 463.231 939.807 463.231Z" fill="#357092"/>
<path d="M874.652 199.143L871.415 205.949C871.057 206.747 870.475 207.423 869.739 207.894C869.003 208.366 868.146 208.614 867.272 208.607H812.464C810.657 208.607 808.794 207.617 807.46 205.949L802.008 199.143H785.864C782.277 199.143 779.907 202.463 780.57 206.558L819.566 447.199C820.229 451.294 823.676 454.614 827.265 454.614H932.211C935.798 454.614 938.168 451.294 937.505 447.199L898.509 206.566C897.846 202.472 894.4 199.152 890.81 199.152L874.652 199.143Z" fill="#8BC3C0"/>
<path d="M816.575 203.195C817.776 202.534 818.084 200.789 817.264 199.296C816.443 197.803 814.804 197.128 813.602 197.788C812.401 198.449 812.093 200.194 812.913 201.687C813.734 203.18 815.373 203.855 816.575 203.195Z" fill="#113C54"/>
<path d="M865.995 201.688H824.829C824.218 201.688 823.627 201.114 823.515 200.423C823.4 199.723 823.802 199.154 824.419 199.154H865.585C866.196 199.154 866.787 199.728 866.899 200.423C867.014 201.114 866.603 201.688 865.995 201.688Z" fill="#113C54"/>
<path d="M920.346 403.672H822.617L797.73 250.085H895.456L920.346 403.672Z" fill="#FFE9D2"/>
<path d="M884.767 325.289H883.413V347.152H884.767V325.289Z" fill="white"/>
<path d="M857.631 400.372L921.838 402.955C923.985 403.041 926.209 403.115 928.191 402.289C928.527 402.18 928.818 401.967 929.024 401.68C929.163 401.381 929.216 401.048 929.176 400.719C929.078 398.561 928.533 396.452 927.988 394.363C925.738 385.717 923.592 376.905 921.342 368.251L915.457 369.519C915.339 368.83 915.221 368.139 915.101 367.45L912.86 369.459C912.219 368.885 911.58 368.311 910.943 367.737L911.193 369.459C909.74 369.22 908.328 368.782 906.995 368.159L907.637 369.267L903.62 368.033C903.66 368.423 903.703 368.81 903.746 369.201C902.14 369.355 900.518 369.178 898.983 368.681C897.707 368.901 896.472 369.314 895.321 369.907C895.746 369.259 895.966 368.5 895.953 367.726C893.963 368.202 892.014 368.836 890.125 369.62C890.532 368.883 890.941 368.146 891.35 367.407C888.969 368.321 886.787 369.685 884.922 371.425C875.353 371.08 865.143 371.559 855.728 373.318L857.631 400.372Z" fill="#357092"/>
<path d="M883.189 363.769C887.787 372.087 890.169 381.447 890.104 390.951C890.104 392.223 890.033 393.52 889.591 394.713C888.526 397.583 885.49 399.253 882.523 400.048C880.664 400.547 878.672 400.802 876.824 400.266C874.457 399.58 872.6 397.663 871.438 395.491C870.276 393.319 869.717 390.9 869.16 388.484C867.53 381.386 865.904 374.29 864.282 367.195C864.181 366.753 864.092 366.239 864.374 365.884L883.189 363.769Z" fill="#FF966C"/>
<path d="M802.401 329.415C806.247 325.982 810.667 323.251 815.458 321.346C821.882 318.792 828.964 317.728 834.804 314.035C840.402 317.926 847.513 320.531 854.141 322.118C857.057 322.815 860.081 323.292 862.721 324.715C866.285 326.64 868.747 330.069 870.974 333.455C877.246 342.997 882.625 353.096 887.043 363.625C880.977 367.18 874.856 370.064 868.159 372.202C867.263 384.277 865.837 396.527 864.503 408.564C863.468 408.589 862.44 408.737 861.441 409.006C848.316 411.932 834.888 413.28 821.443 413.023C820.714 413.023 819.891 412.943 819.435 412.378L802.401 329.415Z" fill="#FFBA55"/>
<path d="M846.371 316.356C846.749 320.089 846.876 323.843 846.749 327.593C846.704 328.959 846.463 330.568 845.26 331.197C844.457 331.616 843.475 331.438 842.629 331.119C840.861 330.454 839.349 329.231 838.069 327.845C836.683 326.342 835.541 324.634 834.405 322.936L831.36 318.382C831.096 318.04 830.901 317.65 830.786 317.234C830.646 316.519 830.987 315.799 831.3 315.154C833.005 311.544 834.1 307.677 834.54 303.71C836.19 305.168 837.983 306.496 839.625 307.951L841.538 309.638C842.468 310.517 843.485 311.296 844.574 311.966L846.371 316.356Z" fill="#FF966C"/>
<path d="M834.752 369.083C829.818 359.667 825.001 350.198 820.298 340.675C824.169 345.006 827.35 349.907 829.73 355.206C830.95 357.918 832.368 361.097 835.266 361.754C836.987 362.144 838.746 361.496 840.365 360.81C844.202 359.189 847.92 357.301 851.493 355.16L834.752 369.083Z" fill="#C27D56"/>
<path d="M846.371 316.356L844.58 311.957C843.491 311.288 842.473 310.508 841.544 309.63L839.63 307.943C838.21 306.692 836.695 305.527 835.248 304.301C835.784 307.263 836.498 310.189 837.386 313.065C838.382 316.29 839.647 319.527 841.903 322.04C843.221 323.527 844.901 324.646 846.781 325.289C846.803 322.306 846.666 319.324 846.371 316.356V316.356Z" fill="#C27D56"/>
<path d="M859.395 298.832C861.715 303.94 862.978 309.465 863.108 315.073C863.137 316.347 863.06 317.745 862.204 318.689C861.438 319.55 860.236 319.805 859.114 320.029C854.999 320.85 850.833 321.673 846.64 321.464C845.702 321.418 844.724 321.306 843.937 320.787C843.206 320.302 842.732 319.521 842.29 318.761C838.618 312.453 835.417 305.882 832.715 299.102C831.989 298.78 831.246 298.7 830.52 298.379C828.838 294.169 827.076 290.272 825.395 286.063C824.717 284.364 824.034 282.462 824.706 280.763C825.352 279.127 827.047 278.203 828.617 277.411C834.322 274.542 840.035 271.649 845.977 269.299C846.798 268.972 847.659 268.651 848.54 268.705C849.278 268.788 849.993 269.017 850.643 269.377C853.669 270.848 856.418 272.83 858.77 275.236C859.504 275.988 860.222 276.826 860.471 277.847C860.701 278.789 860.503 279.781 860.219 280.717C859.536 282.935 858.365 284.967 857.203 286.978L854.704 291.305L859.395 298.832Z" fill="#5F130D"/>
<path d="M833.03 284.186C834.357 286.531 836.064 288.64 838.08 290.427C837.22 292.846 836.178 295.219 834.511 297.174C835.427 300.016 836.93 302.635 838.922 304.859C840.915 307.083 843.353 308.864 846.078 310.086C845.392 308.278 845.148 306.101 844.858 304.192C849.593 303.111 854.597 303.443 859.438 303.811C859.96 305.507 860.632 307.068 861.16 308.763C860.932 300.065 858.879 291.512 855.134 283.658C848.063 280.025 840.158 280.637 833.03 284.186Z" fill="#FF966C"/>
<path d="M830.215 295.701C829.7 295.157 829.061 294.745 828.353 294.502C827.633 294.301 826.769 294.459 826.316 295.05C826.054 295.443 825.91 295.903 825.9 296.376C825.785 297.687 825.978 299.008 826.462 300.232C826.946 301.457 827.709 302.552 828.689 303.431C829.67 304.31 830.841 304.949 832.111 305.297C833.381 305.646 834.714 305.694 836.006 305.437C835.88 305.463 833.788 300.786 833.578 300.301C832.772 298.561 831.629 296.997 830.215 295.701Z" fill="#FF966C"/>
<path d="M828.594 300.686C828.502 299.921 828.412 299.155 828.324 298.39C828.65 298.848 829.079 299.224 829.576 299.486C829.521 299.96 829.108 300.347 829.145 300.835C829.182 301.323 829.63 301.618 830.032 301.859C830.741 302.29 831.524 302.737 832.347 302.628L830.161 300.772C830.116 300.74 830.081 300.696 830.06 300.646C830.029 300.548 830.104 300.448 830.172 300.359L831.094 299.351C831.016 299.438 828.683 297.535 827.937 297.948C826.964 298.493 827.908 300.296 828.594 300.686Z" fill="#FC571E"/>
<path d="M847.229 294.39C847.398 294.083 847.636 293.756 847.986 293.73C848.274 293.746 848.544 293.875 848.738 294.089C849.427 294.683 850.084 295.391 850.287 296.278C850.257 296.331 850.216 296.378 850.167 296.414C850.117 296.451 850.061 296.477 850.001 296.491C849.942 296.505 849.88 296.507 849.819 296.496C849.759 296.485 849.701 296.461 849.65 296.427C849.453 296.273 849.291 296.077 849.177 295.853C848.928 295.475 848.61 295.148 848.239 294.889C848.189 294.844 848.131 294.81 848.066 294.791C848.002 294.771 847.935 294.767 847.868 294.777C847.811 294.806 847.759 294.847 847.717 294.896C847.675 294.945 847.644 295.002 847.625 295.064C847.409 295.558 847.243 297.506 846.689 297.073C845.963 296.516 846.93 294.929 847.229 294.39Z" fill="#5F130D"/>
<path d="M856.56 293.681C856.592 293.502 856.662 293.333 856.766 293.184C856.87 293.035 857.006 292.911 857.163 292.82C857.321 292.768 857.49 292.762 857.652 292.802C857.813 292.842 857.96 292.927 858.075 293.047C858.302 293.29 858.464 293.586 858.546 293.908C858.709 294.395 858.772 294.911 858.73 295.423C858.728 295.451 858.722 295.478 858.712 295.503C858.664 295.63 858.474 295.638 858.371 295.555C858.275 295.459 858.21 295.336 858.187 295.202L857.946 294.315C857.902 294.036 857.764 293.779 857.556 293.587C857.494 293.533 857.414 293.507 857.332 293.512C857.125 293.535 857.068 293.799 857.045 294.006C857.045 294.344 857.171 296.218 856.609 296.014C856.018 295.808 856.46 294.086 856.56 293.681Z" fill="#5F130D"/>
<path d="M856.075 302.803C855.727 300.64 855.258 298.498 854.669 296.387C855.554 297.398 856.269 298.547 856.784 299.788C857.032 300.328 857.16 300.915 857.16 301.509C857.134 302.089 856.597 302.534 856.075 302.803Z" fill="#FC571E"/>
<path d="M858.282 305.745L851.249 306.318C852.009 307.033 852.683 307.725 853.584 308.247C854.026 308.524 854.511 308.727 855.019 308.846C855.534 308.967 856.074 308.889 856.534 308.628C857.016 308.341 857.306 307.805 857.576 307.303C857.802 306.898 858.055 306.164 858.282 305.745Z" fill="#B62C43"/>
<path d="M842.815 287.265C844.147 286.656 845.605 286.377 847.068 286.45C847.155 286.255 847.163 286.034 847.091 285.833C846.973 285.581 846.637 285.546 846.359 285.546C845.045 285.612 843.776 286.364 842.815 287.265Z" fill="#5F130D"/>
<path d="M856.893 286.252C855.934 285.917 854.901 285.853 853.909 286.069C853.913 285.836 853.945 285.605 854.003 285.38C854.015 285.321 854.047 285.267 854.095 285.231C854.143 285.207 854.197 285.199 854.25 285.208C855.011 285.256 856.227 285.879 856.893 286.252Z" fill="#5F130D"/>
<path d="M887.318 376.747C889.173 381.11 890.192 385.782 890.32 390.521C890.363 392.111 890.297 393.735 889.746 395.224C888.601 398.248 885.542 400.257 882.386 400.983C879.229 401.709 875.918 401.422 872.681 401.147C853.949 399.551 835.143 399 816.35 399.497C817.242 396.002 815.71 391.904 817.716 388.905C819.073 386.877 821.633 386.067 824.029 385.58C827.983 384.776 832.02 384.469 836.035 384.062C850.099 382.63 864.006 379.935 877.588 376.01L887.318 376.747Z" fill="#FF966C"/>
<path d="M867.464 336.445C868.336 333.507 869.331 330.61 870.448 327.754C870.778 326.893 871.137 326.032 871.783 325.392C872.289 324.927 872.861 324.54 873.481 324.244L878.85 321.395C879.01 321.285 879.202 321.233 879.395 321.246C879.711 321.303 879.857 321.67 879.878 321.989C879.949 323.231 878.942 324.261 877.929 324.985C876.916 325.708 875.757 326.379 875.246 327.515C874.913 328.25 874.905 329.088 874.712 329.871C874.488 330.784 874.018 331.618 873.352 332.282L867.464 336.445Z" fill="#FF966C"/>
<path d="M884.185 328.85C882.708 328.85 881.252 328.506 879.93 327.846C878.609 327.187 877.46 326.229 876.572 325.049C875.685 323.868 875.084 322.498 874.817 321.046C874.55 319.593 874.624 318.099 875.034 316.68L877.14 309.392H891.229L893.335 316.68C893.745 318.099 893.819 319.593 893.552 321.046C893.285 322.498 892.684 323.868 891.797 325.049C890.909 326.229 889.76 327.187 888.439 327.846C887.117 328.506 885.661 328.85 884.185 328.85V328.85Z" fill="white"/>
<path d="M890.104 321.501L892.033 321.036C892.383 320.201 892.652 319.194 892.007 318.563C891.508 318.078 890.713 318.144 890.024 318.244L878.546 319.911L890.104 321.501Z" fill="#B62C43"/>
<path d="M881.826 318.207C880.054 317.694 878.218 317.441 876.374 317.455C876.097 318.634 876.09 319.861 876.353 321.044C876.617 322.226 877.145 323.334 877.897 324.284C878.65 325.233 879.607 326 880.698 326.528C881.789 327.055 882.985 327.329 884.196 327.329C886.025 327.33 887.8 326.707 889.227 325.563C890.654 324.419 891.648 322.822 892.044 321.036C891.488 320.97 890.937 320.875 890.394 320.764C887.467 320.152 884.701 318.984 881.826 318.207Z" fill="#F83B4F"/>
<path d="M878.044 347.154C878.044 346.027 880.75 345.117 884.09 345.117C887.43 345.117 890.133 346.024 890.133 347.154C890.133 348.285 887.427 349.192 884.09 349.192C880.753 349.192 878.044 348.279 878.044 347.154Z" fill="white"/>
<path d="M819.294 397.167H923.543L924.725 406.119H821.154L819.294 397.167Z" fill="#C27D56"/>
<path d="M830.281 261.661L800.152 293.512C798.332 292.063 797.018 290.075 796.398 287.833C801.391 282.616 806.625 276.929 807.802 269.818C808.089 268.16 808.126 266.438 808.775 264.892C809.392 264.653 810.293 264.94 810.881 265.236C809.733 269.479 808.578 273.723 807.414 277.968C811.19 275.589 814.706 272.82 817.902 269.707C819.159 268.484 820.396 267.158 820.993 265.511C821.443 264.269 821.65 262.705 822.849 262.148L830.281 261.661Z" fill="#C27D56"/>
<path d="M797.557 264.55C799.985 266.137 802.602 267.543 805.463 268.025C808.324 268.507 811.469 267.953 813.621 266.016C813.898 265.708 814.24 265.465 814.622 265.305C814.982 265.226 815.356 265.232 815.713 265.322C819.257 265.959 823.173 266.958 826.247 265.072C826.637 264.78 827.072 264.553 827.535 264.401C828.126 264.269 828.735 264.467 829.311 264.651C831.914 265.471 834.692 266.011 837.369 265.48C840.046 264.949 842.6 263.164 843.423 260.561C846.093 260.548 848.724 259.916 851.108 258.714C852.804 257.853 854.526 256.398 854.462 254.498C854.445 253.95 854.302 253.316 854.683 252.923C854.949 252.709 855.273 252.582 855.613 252.558C856.841 252.329 858.052 251.812 858.887 250.886C859.722 249.959 860.107 248.567 859.633 247.413C858.772 245.293 855.886 245.101 853.607 245.233C837.783 246.149 821.919 246.149 806.094 245.233C801.216 244.946 796.183 244.599 791.56 246.194L797.557 264.55Z" fill="#357092"/>
<path d="M872.514 277.905C871.522 277.793 870.517 277.925 869.587 278.29C868.657 278.654 867.83 279.24 867.177 279.997C867.177 279.693 866.781 280.404 867.085 280.413C868.12 280.428 869.145 280.21 870.085 279.776C871.025 279.342 871.855 278.703 872.514 277.905Z" fill="#8BC3C0"/>
<path d="M872.707 271.939C872.099 271.429 871.702 270.712 871.592 269.927C871.483 269.141 871.668 268.343 872.113 267.686C872.761 267.95 873.068 268.869 873.008 269.569C872.948 270.269 872.718 271.236 872.707 271.939Z" fill="#357092"/>
<path d="M889.387 273.664C889.214 273.115 889.202 272.528 889.352 271.973C889.503 271.418 889.81 270.918 890.237 270.533C890.664 270.147 891.193 269.893 891.761 269.8C892.329 269.707 892.911 269.779 893.439 270.008C892.564 271.704 891.066 272.771 889.387 273.664Z" fill="#8BC3C0"/>
<path d="M879.619 255.79C878.796 255.698 877.944 255.626 877.154 255.881C876.365 256.137 875.651 256.797 875.588 257.623C876.647 257.615 878.707 256.341 879.619 255.79Z" fill="#357092"/>
<path d="M893.947 294.66C893.199 294.343 892.365 294.293 891.584 294.517C890.803 294.741 890.123 295.226 889.657 295.891C891.02 296.255 892.716 295.366 893.947 294.66Z" fill="#357092"/>
<path d="M817.931 308.465C817.663 307.711 817.666 306.887 817.939 306.135C818.213 305.384 818.739 304.75 819.429 304.344C819.567 305.905 818.95 307.286 817.931 308.465Z" fill="#357092"/>
<path d="M868.351 302.149C867.89 301.652 867.608 301.014 867.551 300.338C867.493 299.662 867.664 298.986 868.035 298.419C868.965 299.63 868.675 300.668 868.351 302.149Z" fill="#357092"/>
<path d="M821.948 287.899C821.39 287.4 820.663 287.131 819.914 287.149C819.165 287.167 818.451 287.469 817.917 287.994C818.818 288.683 820.866 288.241 821.948 287.899Z" fill="#8BC3C0"/>
<path d="M815.724 378.578C833.136 366.001 852.454 352.968 866.77 336.953C867.682 335.932 867.803 334.589 868.474 333.389C869.393 331.751 870.374 330.041 871.969 329.048C874.362 327.559 877.421 328.069 880.231 327.742C884.271 327.272 887.846 325.008 891.301 322.864C894.171 321.082 891.301 325.427 890.515 326.233C888.966 327.85 887.001 329.008 884.836 329.582C885.826 329.668 886.5 329.966 887.488 330.049C887.685 330.052 887.881 330.095 888.061 330.176C888.489 330.402 888.575 331.005 888.406 331.458C888.193 331.892 887.924 332.297 887.605 332.661C886.457 334.259 886.426 336.422 885.439 338.127C884.291 340.09 882.099 341.128 880.027 342.052L873.427 344.999C870.695 349.912 851.203 383.382 842.399 390.541C840.617 391.976 838.617 393.345 836.333 393.623C834.677 393.827 833.004 393.442 831.423 392.908C824.892 390.702 818.66 384.794 815.724 378.578Z" fill="#FF966C"/>
<path d="M804.775 241.692C806.706 240.63 807.203 237.824 805.884 235.424C804.564 233.024 801.929 231.94 799.997 233.002C798.065 234.064 797.569 236.87 798.888 239.27C800.207 241.67 802.843 242.754 804.775 241.692Z" fill="#FFBA55"/>
<path d="M819.287 241.689C821.219 240.627 821.715 237.82 820.396 235.421C819.077 233.021 816.441 231.936 814.509 232.998C812.578 234.06 812.081 236.867 813.4 239.267C814.72 241.666 817.355 242.751 819.287 241.689Z" fill="#F83B4F"/>
<path d="M833.797 241.691C835.728 240.629 836.225 237.823 834.906 235.423C833.586 233.023 830.951 231.939 829.019 233C827.087 234.062 826.591 236.869 827.91 239.269C829.229 241.668 831.865 242.753 833.797 241.691Z" fill="#357092"/>
<path d="M881.163 437.765C885.915 435.152 887.136 428.247 883.89 422.342C880.643 416.437 874.159 413.768 869.407 416.381C864.655 418.994 863.434 425.899 866.68 431.803C869.926 437.708 876.41 440.377 881.163 437.765Z" fill="#357092"/>
<path d="M845.101 437.767C849.853 435.154 851.074 428.25 847.828 422.345C844.581 416.44 838.097 413.771 833.345 416.383C828.593 418.996 827.372 425.901 830.618 431.806C833.864 437.711 840.349 440.38 845.101 437.767Z" fill="#FFBA55"/>
<path d="M917.225 437.764C921.978 435.152 923.199 428.247 919.952 422.342C916.706 416.437 910.222 413.768 905.47 416.381C900.717 418.993 899.496 425.898 902.743 431.803C905.989 437.708 912.473 440.377 917.225 437.764Z" fill="#F83B4F"/>
<path d="M946.177 563.939H1096.54C1100.99 563.939 1105.27 559.818 1106.09 554.734L1159.73 223.715C1160.56 218.63 1157.62 214.509 1153.16 214.509H1002.8C998.345 214.509 994.066 218.63 993.243 223.715L939.603 554.734C938.78 559.818 941.721 563.939 946.177 563.939Z" fill="#8BC3C0"/>
<path d="M1029.66 225.551L1033.81 234.271C1034.27 235.293 1035.01 236.159 1035.96 236.763C1036.9 237.367 1038 237.684 1039.12 237.675H1109.34C1111.66 237.675 1114.04 236.409 1115.75 234.271L1122.72 225.551H1143.43C1148.02 225.551 1151.06 229.803 1150.21 235.052L1100.25 543.396C1099.39 548.644 1094.98 552.897 1090.38 552.897H955.908C951.316 552.897 948.275 548.644 949.124 543.396L999.091 235.052C999.951 229.803 1004.36 225.551 1008.96 225.551H1029.66Z" fill="#357092"/>
<path d="M1108.78 228.827C1109.84 226.914 1109.44 224.676 1107.9 223.829C1106.36 222.983 1104.26 223.848 1103.21 225.761C1102.15 227.675 1102.55 229.913 1104.09 230.759C1105.63 231.606 1107.73 230.741 1108.78 228.827Z" fill="#113C54"/>
<path d="M1040.76 228.799H1093.5C1094.29 228.799 1095.04 228.073 1095.19 227.175C1095.33 226.28 1094.81 225.551 1094.04 225.551H1041.28C1040.49 225.551 1039.74 226.28 1039.59 227.175C1039.45 228.088 1039.97 228.799 1040.76 228.799Z" fill="#113C54"/>
<path d="M971.111 487.622H1096.34L1128.23 290.826H1003L971.111 487.622Z" fill="#8BC3C0"/>
<path d="M1040.1 416.008L1037.99 411.262C1037.32 409.761 1036.65 408.26 1035.93 406.78C1034.65 404.111 1033.18 401.471 1031.04 399.425C1030.06 398.492 1028.96 397.703 1027.95 396.797C1025.67 394.754 1023.9 392.196 1022.81 389.336C1022.64 388.888 1022.41 388.366 1021.93 388.291C1021.38 388.205 1020.98 388.816 1020.78 389.35C1020.24 390.999 1020.28 392.786 1020.9 394.409C1021.35 395.583 1022.11 396.722 1021.99 397.973C1021.92 398.696 1021.56 399.353 1021.25 400.01C1020.63 401.333 1020.2 402.831 1020.55 404.249C1021.27 407.244 1020.41 410.275 1020.09 413.331C1019.16 413.044 1018.18 412.953 1017.22 413.064C1017.98 414.134 1019.04 414.955 1020.11 415.709C1024.25 418.62 1028.84 420.836 1033.7 422.269L1040.1 416.008Z" fill="#C27D56"/>
<path d="M1032.03 408.082H1025.4C1023.65 408.082 1021.96 407.384 1020.72 406.141C1019.47 404.898 1018.78 403.212 1018.78 401.454C1018.78 399.696 1019.47 398.01 1020.72 396.767C1021.96 395.523 1023.65 394.825 1025.4 394.825H1032.03V408.082ZM1025.4 396.449C1024.08 396.449 1022.8 396.977 1021.87 397.915C1020.93 398.854 1020.4 400.126 1020.4 401.454C1020.4 402.781 1020.93 404.054 1021.87 404.992C1022.8 405.931 1024.08 406.458 1025.4 406.458H1030.41V396.449H1025.4Z" fill="white"/>
<path d="M1098.61 341.41C1100.33 339.456 1102.74 338.285 1105.17 337.375C1107.3 336.575 1109.54 335.94 1111.82 335.94C1114.09 335.94 1116.44 336.661 1118.06 338.265C1118.96 339.227 1119.68 340.346 1120.18 341.568C1121.39 344.262 1122.1 347.152 1122.27 350.099C1122.64 355.972 1120.88 361.743 1119.96 367.557C1118.45 377.112 1119.29 387.304 1123.98 395.761C1124.35 396.426 1124.75 397.112 1124.79 397.87C1124.78 398.494 1124.64 399.108 1124.38 399.678C1121.65 407.072 1118.84 414.599 1113.89 420.743C1112.74 422.177 1110.95 423.669 1109.22 423.007C1108.31 422.657 1107.72 421.796 1107.18 420.981L1102.03 413.19C1099.69 409.635 1097.31 406.016 1096.06 401.939C1093.71 394.24 1095.67 385.944 1097.9 378.211C1100.14 370.478 1102.67 362.483 1101.44 354.529L1098.61 341.41Z" fill="#5F130D"/>
<path d="M1099.77 381.674C1109.57 394.765 1116.02 410.062 1118.53 426.223C1119.53 432.671 1119.89 439.202 1120.08 445.736C1120.25 451.684 1120.29 457.641 1119.9 463.578C1119.45 470.51 1118.42 477.392 1116.82 484.153C1112.21 481.607 1106.62 481.817 1101.53 480.451C1098.29 479.59 1095.26 478.075 1092.3 476.511C1088.92 474.723 1085.53 472.809 1082.88 470.046C1079.6 466.62 1077.67 462.08 1076.63 457.452C1075.19 451.065 1075.31 444.426 1076.97 438.094L1099.77 381.674Z" fill="#F83B4F"/>
<path d="M1100.75 439.569C1107.05 422.565 1106.02 404.34 1102.7 385.783C1101.76 384.395 1100.79 383.023 1099.78 381.683L1076.99 438.094C1075.32 444.426 1075.21 451.065 1076.64 457.452C1077.69 462.08 1079.61 466.634 1082.89 470.046C1085.54 472.809 1088.92 474.723 1092.31 476.511C1095.28 478.075 1098.3 479.581 1101.54 480.451C1105.98 481.642 1110.81 481.636 1115.03 483.32C1107.57 472.465 1100.68 461.836 1094.25 450.298C1098.46 448.327 1099.44 443.457 1100.75 439.569Z" fill="#B62C43"/>
<path d="M973.764 437.937H1061.12L1116.98 472.195L1106.29 482.879H968.404L973.764 437.937Z" fill="#C27D56"/>
<path d="M1074.33 394.019C1066.76 405.116 1060.16 416.844 1054.6 429.073C1048.83 424.08 1043.53 418.579 1038.74 412.636C1036.89 416.631 1033.71 419.859 1029.74 421.773C1032.37 427.153 1034.48 432.493 1037.11 437.873C1040.61 445.047 1044.57 452.686 1051.73 456.238C1053.5 457.119 1055.46 457.716 1057.44 457.595C1060.66 457.4 1063.49 455.357 1065.67 452.987C1070.13 448.158 1072.61 441.85 1074.52 435.563C1076.42 429.276 1077.85 422.8 1080.63 416.846L1074.33 394.019Z" fill="#B62C43"/>
<path d="M1086.02 379.41C1088.34 375.459 1091.48 372.064 1094.46 368.598C1097.43 365.132 1100.35 361.496 1102.11 357.269C1103.87 353.042 1104.37 348.087 1102.5 343.923C1100.16 338.718 1094.61 335.602 1089.04 334.405C1080.26 332.503 1065.68 337.166 1062.31 342.153C1065.56 346.524 1067.54 351.705 1068.04 357.129C1068.31 360.228 1068.08 363.413 1068.98 366.388C1070.09 370.024 1072.77 372.937 1075.37 375.711L1086.02 379.41Z" fill="#5F130D"/>
<path d="M1082.72 373.445C1083.98 373.927 1085.34 373.109 1086.35 372.22C1087.64 371.072 1088.82 369.651 1089.07 367.944C1089.32 366.237 1088.3 364.265 1086.6 363.975C1085.85 363.897 1085.09 364 1084.38 364.277C1082.67 364.823 1081.03 365.571 1079.5 366.503C1078.74 364.954 1077.25 363.634 1075.99 362.466C1074.96 361.569 1074.12 360.478 1073.51 359.255C1072.65 357.364 1072.69 355.16 1073.22 353.149C1073.75 351.137 1074.72 349.278 1075.68 347.436L1077.28 344.362C1072.29 343.358 1067.35 342.773 1062.3 342.147C1060.57 344.107 1059.27 346.404 1058.47 348.893C1057.65 351.439 1057.38 354.142 1056.46 356.641C1055.74 358.566 1054.66 360.332 1053.26 361.838C1052.45 362.699 1051.47 363.777 1051.87 364.888C1052.29 366.036 1053.88 366.245 1054.67 367.184C1054.58 367.91 1054.49 368.664 1054.41 369.427C1055.45 369.767 1056.52 370.012 1057.61 370.162C1058.36 370.268 1059.11 370.312 1059.86 370.294C1059.65 370.997 1058.93 371.405 1058.24 371.666C1056.91 372.166 1055.49 372.394 1054.07 372.334C1054.04 372.601 1054.01 372.865 1053.98 373.123C1053.74 374.989 1053.53 376.997 1054.42 378.65C1055.11 379.915 1056.38 380.794 1057.74 381.256C1059.1 381.718 1060.57 381.804 1062 381.795C1064.71 381.773 1067.41 381.427 1070.04 380.765C1071.21 382.294 1072.46 383.652 1073.63 385.181C1073.69 385.282 1073.79 385.361 1073.9 385.405C1073.97 385.413 1074.05 385.406 1074.13 385.383C1074.2 385.361 1074.27 385.323 1074.33 385.273C1078.5 382.584 1083.61 381.749 1087.96 379.365L1082.72 373.445Z" fill="#FF966C"/>
<path d="M1059.85 370.314C1059.1 370.332 1058.35 370.288 1057.6 370.182C1056.51 370.032 1055.44 369.786 1054.4 369.447C1054.29 370.423 1054.04 372.512 1053.93 373.465C1055.34 373.563 1056.76 373.301 1058.05 372.704C1059.1 372.176 1059.64 371.017 1059.85 370.314Z" fill="#B62C43"/>
<path d="M1087.03 376.185C1080.91 378.592 1074.66 381.063 1069.63 385.324C1068.77 386.05 1067.94 386.845 1067.4 387.838C1066.87 388.831 1066.69 390.065 1067.16 391.089C1067.77 392.452 1069.39 393.201 1069.88 394.616C1070.29 395.807 1069.82 397.244 1070.51 398.303C1071.14 399.287 1072.56 399.491 1073.66 399.098C1074.76 398.705 1075.65 397.864 1076.53 397.089C1079.96 394.058 1083.91 391.675 1088.19 390.056C1090.75 389.089 1093.42 388.4 1095.89 387.224C1097.33 386.535 1098.89 385.344 1098.76 383.749C1098.68 382.719 1097.9 381.895 1097.08 381.25C1096.3 380.623 1095.46 380.076 1094.57 379.617C1094.04 379.344 1093.47 379.075 1093.16 378.561C1092.99 378.211 1092.86 377.846 1092.77 377.471C1091.84 374.931 1088.97 375.422 1087.03 376.185Z" fill="#FFBA55"/>
<path d="M1062.13 435.44C1061.38 434.809 1060.25 435.055 1059.34 435.44C1055.89 436.862 1053.12 439.579 1051.64 443.01C1050.16 446.441 1050.08 450.315 1051.42 453.805C1051.89 455.033 1052.76 456.353 1054.08 456.405C1055.02 456.442 1055.84 455.796 1056.56 455.173C1058.64 453.352 1060.62 451.418 1062.49 449.38L1062.13 435.44Z" fill="#FF966C"/>
<path d="M1019.51 394.412C1018.51 393.814 1017.43 393.357 1016.3 393.052C1015.75 392.895 1015.17 392.895 1014.62 393.052C1013.63 393.393 1013.07 394.544 1013.2 395.58C1013.33 396.616 1014.04 397.511 1014.89 398.111C1015.77 398.673 1016.73 399.101 1017.74 399.382C1019.7 400.056 1021.71 400.583 1023.75 400.957C1024.43 401.072 1025.25 401.107 1025.67 400.564C1027.52 398.205 1020.83 395.144 1019.51 394.412Z" fill="#FF966C"/>
<path d="M1016.45 401.213C1015.31 401.213 1013.91 401.537 1013.53 402.647C1013.44 402.97 1013.43 403.309 1013.5 403.636C1013.56 403.963 1013.71 404.27 1013.92 404.53C1014.34 405.048 1014.85 405.49 1015.42 405.838C1015.04 406.077 1014.72 406.414 1014.52 406.816C1014.31 407.217 1014.21 407.668 1014.24 408.119C1014.27 408.57 1014.42 409.006 1014.67 409.379C1014.93 409.752 1015.28 410.05 1015.69 410.24C1015.89 410.301 1016.06 410.42 1016.19 410.582C1016.34 410.823 1016.22 411.13 1016.15 411.405C1015.96 412.203 1016.32 413.052 1016.88 413.655C1017.46 414.227 1018.14 414.695 1018.88 415.038C1020.49 415.879 1022.17 416.682 1023.97 416.866C1024.39 416.935 1024.81 416.887 1025.2 416.725C1025.87 416.389 1026.12 415.5 1025.93 414.771C1025.75 414.042 1025.22 413.448 1024.66 412.94C1024.07 412.47 1023.53 411.943 1023.04 411.365C1023.42 411.58 1023.85 411.682 1024.29 411.658C1024.72 411.634 1025.14 411.485 1025.49 411.23C1025.84 410.975 1026.11 410.623 1026.27 410.218C1026.42 409.813 1026.46 409.371 1026.37 408.946C1026.08 407.511 1024.51 406.734 1023.12 406.226C1024.27 406.645 1024.72 405.873 1024.59 404.825C1024.41 403.485 1023.58 402.544 1022.34 402.045C1020.63 401.33 1018.3 401.201 1016.45 401.213Z" fill="#FF966C"/>
<path d="M1027.35 393.528H1051.97V401.506C1051.97 404.773 1050.67 407.906 1048.36 410.216C1046.05 412.526 1042.92 413.824 1039.65 413.824C1036.39 413.824 1033.25 412.526 1030.94 410.216C1028.63 407.906 1027.33 404.773 1027.33 401.506V393.528H1027.35Z" fill="#F9D8AD"/>
<path d="M1021.83 465.214C1033.84 465.214 1043.58 461.434 1043.58 456.772C1043.58 452.109 1033.84 448.33 1021.83 448.33C1009.81 448.33 1000.07 452.109 1000.07 456.772C1000.07 461.434 1009.81 465.214 1021.83 465.214Z" fill="#E8C395"/>
<path d="M1021.83 460.344C1026.91 460.344 1031.03 458.745 1031.03 456.772C1031.03 454.799 1026.91 453.199 1021.83 453.199C1016.74 453.199 1012.62 454.799 1012.62 456.772C1012.62 458.745 1016.74 460.344 1021.83 460.344Z" fill="#F9D8AD"/>
<path d="M1035.14 284.298H973.437V362.145H1035.14V284.298Z" fill="#99583F"/>
<path d="M1028.67 284.298H973.437V353.984H1028.67V284.298Z" fill="#8BC3C0"/>
<path d="M1028.67 296.955V307.171H1011.11C1012.83 306.054 1015.72 306.651 1017.65 305.971C1018.47 305.684 1019.23 305.09 1020.1 305.11C1020.91 305.11 1021.63 305.656 1022.43 305.765C1022.93 305.82 1023.44 305.71 1023.87 305.451C1024.3 305.192 1024.64 304.798 1024.83 304.33C1024.91 304.009 1025.04 303.704 1025.22 303.429C1025.58 303.013 1026.24 303.03 1026.72 302.752C1027.63 302.229 1027.6 300.941 1027.56 299.882C1027.52 298.823 1027.63 297.099 1028.67 296.955Z" fill="white"/>
<path d="M1028.67 307.171H972.355V311.068H1028.67V307.171Z" fill="#99583F"/>
<path d="M1028.67 338.718V353.984H997.785C998.617 353.146 1000.05 352.681 1001.23 352.69C1001.98 352.69 1002.75 352.89 1003.47 352.675C1004.08 352.492 1004.57 352.035 1005.15 351.757C1006.01 351.344 1006.98 351.338 1007.92 351.393C1009.77 351.505 1011.59 351.821 1013.37 352.337C1014.44 352.649 1015.56 353.037 1016.65 352.81C1017.62 352.609 1018.49 351.949 1019.48 351.975C1020.15 352.004 1020.8 352.368 1021.47 352.242C1022.13 352.116 1022.61 351.525 1023.03 350.971C1023.71 350.102 1024.32 349.187 1024.88 348.233C1025.46 347.091 1025.95 345.904 1026.34 344.684C1026.72 343.61 1027.1 342.506 1027.05 341.369C1027.03 340.896 1026.94 340.411 1027.05 339.952C1027.17 339.493 1028.21 338.597 1028.67 338.718Z" fill="white"/>
<path d="M1009.74 295.277C1009.74 295.188 1009.72 295.099 1009.7 295.01C1009.69 294.921 1009.64 294.852 1009.6 294.772C1009.54 294.656 1009.45 294.557 1009.35 294.485C1009.28 294.425 1009.21 294.382 1009.13 294.359C1009.05 294.313 1008.96 294.289 1008.87 294.29C1008.79 294.264 1008.69 294.264 1008.61 294.29C1008.52 294.29 1008.43 294.314 1008.35 294.359C1008.23 294.399 1008.12 294.47 1008.03 294.565L1007.88 294.766L1007.78 295.004C1007.78 295.093 1007.75 295.182 1007.74 295.271C1007.72 295.36 1007.77 295.446 1007.78 295.535C1007.79 295.624 1007.84 295.696 1007.88 295.773C1007.94 295.89 1008.03 295.989 1008.14 296.06C1008.19 296.122 1008.27 296.167 1008.35 296.189C1008.47 296.252 1008.61 296.282 1008.74 296.275H1008.84C1008.96 296.28 1009.08 296.252 1009.19 296.195C1009.3 296.157 1009.4 296.092 1009.48 296.006L1009.62 295.822C1009.7 295.682 1009.74 295.522 1009.74 295.36L1009.74 295.277Z" fill="white"/>
<path d="M1015.8 289.021L1015.66 288.947C1015.53 288.877 1015.4 288.84 1015.26 288.84C1015.12 288.84 1014.98 288.877 1014.86 288.947C1014.74 289.017 1014.64 289.118 1014.57 289.239C1014.5 289.359 1014.46 289.496 1014.46 289.635C1014.46 289.774 1014.5 289.911 1014.57 290.031C1014.64 290.151 1014.74 290.251 1014.86 290.321C1014.98 290.393 1015.11 290.43 1015.26 290.43C1015.4 290.43 1015.53 290.393 1015.66 290.321L1015.8 290.249C1015.9 290.187 1015.99 290.097 1016.05 289.989C1016.12 289.881 1016.15 289.759 1016.15 289.635C1016.15 289.511 1016.12 289.389 1016.05 289.281C1015.99 289.174 1015.9 289.084 1015.8 289.021Z" fill="white"/>
<path d="M1019.08 295.521C1017.21 295.521 1017.21 298.422 1019.08 298.422C1020.95 298.422 1020.95 295.521 1019.08 295.521Z" fill="white"/>
<path d="M999.202 299.724C999.064 299.724 998.932 299.779 998.835 299.877C998.737 299.974 998.683 300.106 998.683 300.244C998.683 300.382 998.737 300.514 998.835 300.611C998.932 300.708 999.064 300.763 999.202 300.763C999.34 300.763 999.472 300.708 999.569 300.611C999.667 300.514 999.721 300.382 999.721 300.244C999.721 300.106 999.667 299.974 999.569 299.877C999.472 299.779 999.34 299.724 999.202 299.724V299.724Z" fill="white"/>
<path d="M996.712 293.971C996.712 293.928 996.68 293.882 996.663 293.836C996.646 293.791 996.614 293.719 996.588 293.661C996.544 293.577 996.479 293.506 996.399 293.455C996.355 293.41 996.299 293.377 996.238 293.36C996.15 293.314 996.051 293.293 995.951 293.297L995.756 293.323L995.581 293.397C995.497 293.442 995.426 293.507 995.375 293.587C995.31 293.657 995.264 293.743 995.243 293.836C995.225 293.882 995.208 293.928 995.194 293.971C995.157 294.108 995.157 294.253 995.194 294.39C995.229 294.522 995.298 294.642 995.395 294.737C995.545 294.882 995.744 294.964 995.951 294.967C996.159 294.96 996.356 294.878 996.508 294.737C996.605 294.642 996.674 294.522 996.709 294.39C996.747 294.253 996.748 294.109 996.712 293.971V293.971Z" fill="white"/>
<path d="M991.552 297.122L991.506 297.064C991.48 297.024 991.452 296.987 991.423 296.95C991.377 296.872 991.312 296.807 991.233 296.761C991.155 296.716 991.066 296.692 990.975 296.691C990.837 296.692 990.705 296.747 990.607 296.845C990.509 296.943 990.454 297.075 990.453 297.214C990.455 297.305 990.48 297.395 990.525 297.475C990.57 297.552 990.634 297.616 990.711 297.661L990.826 297.745L990.878 297.785C990.962 297.842 991.063 297.87 991.165 297.865C991.289 297.862 991.408 297.811 991.495 297.723C991.583 297.635 991.633 297.516 991.635 297.392C991.634 297.296 991.605 297.202 991.552 297.122V297.122Z" fill="white"/>
<path d="M1011.88 302.628C1011.84 302.495 1011.77 302.373 1011.67 302.275C1011.52 302.126 1011.31 302.043 1011.1 302.043C1010.99 302.037 1010.89 302.061 1010.79 302.112C1010.69 302.144 1010.61 302.2 1010.53 302.275C1010.46 302.346 1010.4 302.435 1010.37 302.534C1010.32 302.628 1010.3 302.734 1010.3 302.841C1010.3 302.913 1010.32 302.984 1010.33 303.053C1010.37 303.186 1010.44 303.308 1010.53 303.406C1010.69 303.555 1010.89 303.639 1011.11 303.641C1011.22 303.645 1011.32 303.621 1011.42 303.572C1011.51 303.535 1011.6 303.479 1011.67 303.406C1011.75 303.334 1011.8 303.246 1011.84 303.151C1011.89 303.055 1011.91 302.948 1011.91 302.841L1011.88 302.628Z" fill="white"/>
<path d="M1025.83 288.849C1024.82 288.849 1024.82 290.422 1025.83 290.422C1026.84 290.422 1026.84 288.849 1025.83 288.849Z" fill="white"/>
<path d="M1007.36 284.952C1007.33 284.883 1007.3 284.815 1007.27 284.749C1007.22 284.677 1007.17 284.608 1007.11 284.542C1007.04 284.467 1006.96 284.412 1006.86 284.381C1006.77 284.335 1006.67 284.312 1006.57 284.315L1006.35 284.33C1006.22 284.366 1006.1 284.435 1006.01 284.53C1005.95 284.594 1005.89 284.663 1005.85 284.737C1005.77 284.866 1005.73 285.011 1005.73 285.159C1005.73 285.176 1005.73 285.193 1005.73 285.211C1005.73 285.32 1005.75 285.429 1005.8 285.526C1005.83 285.629 1005.89 285.721 1005.97 285.793C1006.04 285.871 1006.13 285.929 1006.24 285.962C1006.33 286.013 1006.44 286.038 1006.55 286.034L1006.77 286.003C1006.91 285.966 1007.04 285.893 1007.14 285.793L1007.27 285.627C1007.34 285.5 1007.38 285.357 1007.38 285.211V285.159C1007.38 285.099 1007.37 285.027 1007.36 284.952Z" fill="white"/>
<path d="M1024.14 322.055C1024.05 321.748 1023.89 321.468 1023.66 321.243L1023.29 320.956C1023.01 320.792 1022.69 320.706 1022.36 320.706C1022.12 320.695 1021.87 320.75 1021.66 320.864C1021.43 320.937 1021.22 321.069 1021.06 321.246C1020.89 321.407 1020.76 321.611 1020.68 321.837C1020.57 322.055 1020.51 322.299 1020.53 322.546C1020.55 322.709 1020.57 322.873 1020.59 323.033C1020.67 323.34 1020.84 323.62 1021.06 323.845L1021.44 324.132C1021.72 324.298 1022.04 324.386 1022.36 324.385C1022.61 324.395 1022.86 324.341 1023.07 324.227C1023.4 324.082 1023.68 323.847 1023.88 323.549C1024.08 323.252 1024.19 322.904 1024.2 322.546L1024.14 322.055Z" fill="white"/>
<path d="M1007.49 316.399C1007.46 316.304 1007.41 316.218 1007.33 316.149C1007.27 316.075 1007.18 316.019 1007.08 315.989C1007 315.944 1006.9 315.921 1006.8 315.923C1006.59 315.923 1006.4 316.005 1006.25 316.149C1006.18 316.221 1006.12 316.306 1006.08 316.4C1006.04 316.495 1006.03 316.596 1006.03 316.697C1006.03 316.758 1006.03 316.818 1006.03 316.881C1006.02 316.981 1006.05 317.08 1006.09 317.168C1006.15 317.304 1006.25 317.42 1006.37 317.502C1006.49 317.585 1006.64 317.631 1006.79 317.636C1006.89 317.636 1006.99 317.616 1007.08 317.578C1007.17 317.539 1007.25 317.483 1007.33 317.412L1007.45 317.26C1007.51 317.143 1007.55 317.01 1007.55 316.875C1007.55 316.812 1007.55 316.752 1007.55 316.692C1007.56 316.591 1007.54 316.49 1007.49 316.399V316.399Z" fill="white"/>
<path d="M1018.45 314.081C1018.41 313.935 1018.33 313.803 1018.22 313.696C1018.11 313.589 1017.98 313.511 1017.84 313.469C1017.63 313.425 1017.43 313.43 1017.23 313.484C1017.02 313.547 1016.84 313.659 1016.69 313.808C1016.57 313.933 1016.48 314.088 1016.43 314.258C1016.39 314.429 1016.39 314.608 1016.43 314.778V314.795C1016.48 314.96 1016.57 315.11 1016.69 315.23C1016.81 315.351 1016.96 315.438 1017.12 315.484C1017.29 315.53 1017.48 315.53 1017.65 315.484C1017.81 315.438 1017.96 315.351 1018.08 315.231C1018.21 315.112 1018.31 314.953 1018.34 314.778C1018.41 314.674 1018.45 314.559 1018.47 314.44C1018.48 314.32 1018.48 314.198 1018.45 314.081V314.081Z" fill="white"/>
<path d="M1026.58 312.921C1026.44 312.783 1026.25 312.704 1026.05 312.7C1025.95 312.696 1025.85 312.719 1025.76 312.766C1025.67 312.794 1025.58 312.848 1025.52 312.921C1025.43 313.015 1025.36 313.132 1025.32 313.26C1025.29 313.388 1025.29 313.523 1025.33 313.65C1025.33 313.705 1025.36 313.762 1025.37 313.819L1025.44 313.986C1025.48 314.066 1025.55 314.134 1025.62 314.184C1025.67 314.225 1025.72 314.256 1025.78 314.273C1025.86 314.316 1025.95 314.336 1026.05 314.333L1026.23 314.307L1026.4 314.238C1026.48 314.196 1026.55 314.134 1026.6 314.058C1026.66 313.99 1026.7 313.908 1026.72 313.819C1026.72 313.762 1026.75 313.705 1026.77 313.65C1026.81 313.523 1026.81 313.388 1026.77 313.26C1026.74 313.132 1026.67 313.015 1026.58 312.921V312.921Z" fill="white"/>
<path d="M1014.01 326.322C1014.01 326.136 1013.96 325.954 1013.86 325.794C1013.78 325.535 1013.63 325.303 1013.43 325.12L1013.01 324.792L1012.51 324.58L1011.95 324.505L1011.39 324.58L1010.89 324.792C1010.66 324.92 1010.46 325.106 1010.32 325.332C1010.19 325.459 1010.1 325.618 1010.05 325.794C1009.92 326.041 1009.86 326.32 1009.87 326.6C1009.86 326.99 1009.96 327.375 1010.16 327.714C1010.28 327.946 1010.46 328.143 1010.67 328.287C1010.87 328.465 1011.1 328.588 1011.36 328.646L1011.9 328.721C1012.1 328.719 1012.3 328.687 1012.49 328.626H1012.51L1012.56 328.606C1012.64 328.578 1012.72 328.545 1012.79 328.508L1013.01 328.417C1013.25 328.288 1013.44 328.102 1013.59 327.877C1013.72 327.749 1013.81 327.59 1013.86 327.415C1013.95 327.255 1014 327.073 1014 326.887C1014.05 326.703 1014.05 326.507 1014.01 326.322V326.322Z" fill="white"/>
<path d="M993.782 338.276V338.245C993.734 338.069 993.641 337.908 993.512 337.779C993.383 337.65 993.223 337.556 993.047 337.507H993.016C992.822 337.453 992.616 337.453 992.422 337.507C992.257 337.552 992.105 337.635 991.976 337.748C991.848 337.861 991.748 338.003 991.683 338.161C991.619 338.319 991.591 338.49 991.603 338.661C991.615 338.831 991.666 338.997 991.752 339.145C991.837 339.293 991.956 339.419 992.099 339.514C992.241 339.608 992.403 339.669 992.573 339.691C992.743 339.713 992.915 339.695 993.077 339.64C993.239 339.585 993.386 339.493 993.507 339.372C993.644 339.237 993.743 339.068 993.793 338.882C993.846 338.683 993.842 338.473 993.782 338.276V338.276Z" fill="white"/>
<path d="M997.239 322.098L997.127 321.834C997.059 321.707 996.961 321.6 996.84 321.521C996.771 321.454 996.686 321.406 996.594 321.381C996.463 321.309 996.315 321.276 996.166 321.283L995.879 321.323L995.612 321.435C995.372 321.592 995.193 321.825 995.104 322.098C995.088 322.151 995.08 322.206 995.078 322.262C995.046 322.409 995.053 322.562 995.099 322.706C995.1 322.719 995.1 322.731 995.099 322.744L995.122 322.83L995.231 323.088C995.301 323.206 995.4 323.305 995.518 323.375C995.584 323.441 995.666 323.488 995.756 323.513C995.882 323.581 996.025 323.614 996.169 323.607L996.456 323.567L996.714 323.458C996.839 323.391 996.944 323.292 997.018 323.171C997.112 323.067 997.178 322.94 997.211 322.804L997.233 322.718C997.232 322.705 997.232 322.693 997.233 322.68C997.233 322.58 997.259 322.483 997.271 322.394C997.273 322.294 997.263 322.195 997.239 322.098V322.098Z" fill="white"/>
<path d="M998.852 315.197C998.818 315.069 998.751 314.954 998.657 314.861C998.564 314.767 998.449 314.699 998.321 314.663C998.189 314.629 998.05 314.629 997.917 314.663H997.851H997.816C997.71 314.689 997.611 314.741 997.53 314.815C997.468 314.851 997.416 314.903 997.38 314.964C997.352 314.99 997.328 315.022 997.311 315.056C997.273 315.126 997.242 315.2 997.22 315.277L997.194 315.346C997.156 315.483 997.156 315.628 997.194 315.765C997.231 315.896 997.301 316.016 997.397 316.112C997.494 316.209 997.613 316.279 997.745 316.316C997.882 316.353 998.027 316.353 998.164 316.316L998.224 316.293C998.299 316.267 998.373 316.236 998.445 316.201C998.545 316.148 998.631 316.071 998.695 315.977C998.746 315.927 998.782 315.863 998.801 315.794C998.822 315.761 998.838 315.725 998.847 315.687C998.845 315.675 998.845 315.663 998.847 315.65C998.848 315.626 998.848 315.602 998.847 315.578C998.882 315.454 998.884 315.322 998.852 315.197Z" fill="white"/>
<path d="M1004.63 327.062C1004.59 326.99 1004.57 326.919 1004.53 326.844C1004.48 326.74 1004.4 326.652 1004.3 326.589C1004.21 326.509 1004.1 326.453 1003.99 326.425L1003.8 326.391C1003.63 326.346 1003.46 326.345 1003.3 326.388C1003.14 326.431 1002.99 326.516 1002.87 326.635L1002.73 326.827C1002.64 326.972 1002.6 327.138 1002.59 327.306C1002.59 327.433 1002.62 327.558 1002.68 327.67C1002.71 327.788 1002.78 327.894 1002.87 327.977C1002.99 328.093 1003.13 328.177 1003.29 328.221C1003.46 328.267 1003.63 328.267 1003.8 328.221L1003.99 328.187L1004.21 328.095C1004.31 328.04 1004.4 327.959 1004.46 327.86C1004.52 327.803 1004.56 327.733 1004.58 327.656C1004.64 327.549 1004.66 327.428 1004.66 327.306C1004.65 327.226 1004.64 327.142 1004.63 327.062Z" fill="white"/>
<path d="M1000.47 334.181C1000.38 334.035 1000.26 333.914 1000.12 333.83C999.97 333.746 999.804 333.701 999.636 333.701C999.467 333.701 999.301 333.746 999.155 333.83C999.009 333.914 998.888 334.035 998.803 334.181C998.716 334.328 998.67 334.496 998.671 334.666C998.67 334.838 998.716 335.007 998.803 335.154L998.841 335.223C998.889 335.307 998.947 335.385 999.013 335.455C999.091 335.54 999.19 335.602 999.3 335.636C999.404 335.691 999.521 335.718 999.639 335.714L999.871 335.682C1000.02 335.641 1000.15 335.563 1000.26 335.455C1000.32 335.384 1000.38 335.306 1000.43 335.223C1000.43 335.2 1000.46 335.177 1000.47 335.154C1000.56 335.006 1000.6 334.838 1000.6 334.666C1000.6 334.496 1000.55 334.329 1000.47 334.181V334.181Z" fill="white"/>
<path d="M1015.44 337.206C1014.25 337.206 1014.24 339.057 1015.44 339.057C1016.63 339.057 1016.63 337.206 1015.44 337.206Z" fill="white"/>
<path d="M1025.37 330.262C1025.31 330.079 1025.22 329.914 1025.08 329.782L1024.86 329.61C1024.69 329.515 1024.5 329.464 1024.31 329.461C1024.16 329.454 1024.02 329.487 1023.89 329.556C1023.75 329.599 1023.63 329.677 1023.54 329.782C1023.43 329.878 1023.35 329.998 1023.31 330.133C1023.24 330.262 1023.21 330.408 1023.22 330.554C1023.22 330.649 1023.24 330.747 1023.25 330.841C1023.31 331.023 1023.41 331.189 1023.54 331.32L1023.76 331.493C1023.93 331.591 1024.12 331.642 1024.31 331.642C1024.46 331.648 1024.6 331.616 1024.73 331.547C1024.87 331.503 1024.99 331.425 1025.09 331.32C1025.19 331.226 1025.27 331.105 1025.31 330.97C1025.38 330.842 1025.41 330.697 1025.4 330.551L1025.37 330.262Z" fill="white"/>
<path d="M1023.45 340.922C1023.41 340.772 1023.33 340.635 1023.22 340.526C1023.05 340.359 1022.82 340.265 1022.58 340.262C1022.46 340.255 1022.34 340.282 1022.24 340.339C1022.13 340.375 1022.03 340.439 1021.95 340.526C1021.84 340.635 1021.76 340.772 1021.72 340.922C1021.68 341.079 1021.68 341.244 1021.72 341.401C1021.72 341.449 1021.73 341.497 1021.74 341.544L1021.83 341.751C1021.88 341.852 1021.96 341.937 1022.06 341.998C1022.11 342.052 1022.18 342.09 1022.25 342.11C1022.35 342.165 1022.47 342.19 1022.59 342.184L1022.82 342.153L1023.03 342.067C1023.13 342.013 1023.21 341.935 1023.27 341.84C1023.35 341.759 1023.4 341.66 1023.43 341.553C1023.43 341.507 1023.45 341.455 1023.46 341.41C1023.5 341.25 1023.5 341.081 1023.45 340.922V340.922Z" fill="white"/>
<path d="M1008.23 344.537C1008.1 344.148 1007.85 343.814 1007.5 343.591C1007.26 343.448 1006.98 343.374 1006.7 343.375C1006.54 343.368 1006.38 343.391 1006.22 343.441C1006.02 343.489 1005.84 343.588 1005.69 343.728C1005.52 343.838 1005.38 343.99 1005.28 344.17C1005.23 344.296 1005.18 344.42 1005.12 344.546C1005.06 344.749 1005.05 344.966 1005.1 345.174C1005.1 345.313 1005.13 345.45 1005.2 345.57C1005.27 345.765 1005.38 345.94 1005.53 346.078L1005.85 346.322C1006 346.411 1006.16 346.473 1006.33 346.506C1006.59 346.572 1006.87 346.572 1007.13 346.506L1007.5 346.345C1007.74 346.207 1007.94 346.009 1008.08 345.771C1008.19 345.595 1008.26 345.392 1008.26 345.183C1008.31 344.969 1008.3 344.746 1008.23 344.537V344.537Z" fill="white"/>
<path d="M1010.16 334.546C1010.11 334.444 1010.02 334.36 1009.92 334.301C1009.82 334.243 1009.71 334.212 1009.59 334.212C1009.47 334.212 1009.36 334.243 1009.26 334.301C1009.16 334.36 1009.07 334.444 1009.02 334.546C1008.96 334.646 1008.92 334.761 1008.92 334.879C1008.92 334.996 1008.96 335.111 1009.02 335.212C1009.02 335.232 1009.04 335.255 1009.06 335.275C1009.09 335.32 1009.12 335.363 1009.16 335.404L1009.28 335.498C1009.37 335.552 1009.48 335.579 1009.58 335.579L1009.74 335.559C1009.77 335.554 1009.79 335.543 1009.82 335.527C1009.89 335.504 1009.96 335.461 1010.01 335.404L1010.1 335.28L1010.16 335.212C1010.21 335.111 1010.24 334.996 1010.24 334.879C1010.25 334.762 1010.22 334.647 1010.16 334.546V334.546Z" fill="white"/>
<path d="M998.631 347.358L998.519 347.091C998.452 346.964 998.353 346.857 998.232 346.778C998.127 346.679 997.996 346.609 997.854 346.578L997.776 346.555C997.582 346.501 997.378 346.499 997.183 346.549C996.988 346.6 996.809 346.701 996.666 346.842C996.605 346.916 996.545 346.994 996.488 347.071C996.385 347.245 996.33 347.443 996.33 347.645C996.324 347.798 996.359 347.949 996.43 348.084C996.475 348.225 996.556 348.352 996.666 348.451C996.809 348.592 996.988 348.693 997.183 348.743C997.378 348.794 997.582 348.792 997.776 348.738L997.854 348.715L998.121 348.603C998.248 348.536 998.355 348.437 998.433 348.316C998.503 348.248 998.553 348.163 998.58 348.07C998.648 347.937 998.681 347.789 998.674 347.639L998.631 347.358Z" fill="white"/>
<path d="M988.094 347.771L987.974 347.484C987.901 347.349 987.795 347.233 987.667 347.149C987.552 347.045 987.413 346.972 987.262 346.936L987.185 346.913C986.977 346.854 986.758 346.852 986.549 346.907C986.341 346.962 986.151 347.072 986 347.226L985.81 347.473C985.7 347.658 985.642 347.871 985.644 348.087C985.637 348.249 985.673 348.41 985.747 348.555C985.796 348.705 985.883 348.841 986 348.948C986.152 349.1 986.342 349.209 986.55 349.264C986.758 349.319 986.977 349.318 987.185 349.261L987.262 349.238L987.549 349.117C987.685 349.044 987.8 348.938 987.885 348.81C987.957 348.736 988.009 348.645 988.037 348.546C988.111 348.405 988.147 348.246 988.14 348.087L988.094 347.771Z" fill="white"/>
<path d="M1019.55 349.126C1018.37 349.126 1018.37 350.951 1019.55 350.951C1020.72 350.951 1020.73 349.126 1019.55 349.126Z" fill="white"/>
<path d="M1095.22 283.466H1057.51V322.218H1095.22V283.466Z" fill="#C27D56"/>
<path d="M1089.94 288.884H1062.78V316.801H1089.94V288.884Z" fill="#F9D8AD"/>
<path d="M1082.27 296.775H1070.46V308.907H1082.27V296.775Z" fill="#8BC3C0"/>
<path d="M1080.22 348.15C1080.9 347.692 1081.61 347.285 1082.35 346.93C1082.72 346.747 1083.27 346.643 1083.47 346.994C1083.65 347.306 1083.39 347.682 1083.4 348.038C1083.42 348.612 1084.12 348.913 1084.68 348.816C1085.23 348.718 1085.71 348.365 1086.24 348.179C1088.95 347.22 1091.85 350.615 1094.52 349.559C1095.36 349.232 1096.21 348.48 1097.02 348.847C1097.37 349.005 1097.65 349.355 1098.03 349.361C1098.95 349.361 1098.8 347.699 1099.62 347.286C1099.84 347.203 1100.08 347.196 1100.3 347.267C1100.52 347.338 1100.71 347.483 1100.84 347.676C1101.09 348.072 1101.23 348.527 1101.24 348.994C1101.4 350.681 1101.24 352.383 1100.78 354.012C1100.56 354.75 1100.08 355.611 1099.31 355.53C1099.48 355.115 1099.54 354.663 1099.48 354.218C1099.42 353.773 1099.25 353.352 1098.98 352.994C1098.71 352.637 1098.35 352.356 1097.94 352.18C1097.52 352.004 1097.07 351.938 1096.63 351.989C1095.74 352.081 1094.93 352.623 1094.05 352.623C1093.01 352.623 1092.14 351.906 1091.21 351.458C1089.96 350.858 1088.54 350.725 1087.2 351.083C1086.22 351.349 1085.29 351.875 1084.28 351.92C1083.27 351.966 1082.1 351.252 1082.19 350.242L1078.95 352.555C1078.75 352.738 1078.5 352.841 1078.23 352.842C1077.68 352.761 1077.64 351.981 1077.78 351.438C1078.38 349.12 1079.44 346.948 1080.91 345.057C1080.53 346.05 1080.3 347.092 1080.22 348.15V348.15Z" fill="#99583F"/>
<path d="M1059.8 357.961C1059.65 358.724 1059.15 359.267 1058.68 359.175C1058.21 359.083 1057.95 358.388 1058.1 357.625C1058.26 356.862 1058.76 356.32 1059.23 356.414C1059.7 356.509 1059.95 357.215 1059.8 357.961Z" fill="#5F130D"/>
<path d="M1062.68 348.974C1061.63 348.564 1060.56 348.205 1059.47 347.895C1059.63 347.635 1059.88 347.443 1060.17 347.354C1060.46 347.265 1060.77 347.284 1061.05 347.41C1061.67 347.656 1062.22 348.48 1062.68 348.974Z" fill="#5F130D"/>
<path d="M1079.57 386.18C1075.11 390.401 1072.19 395.99 1069.82 401.652C1066.89 408.615 1064.63 415.845 1063.09 423.242C1062.08 428.103 1061.33 433.176 1058.68 437.38C1057.43 439.368 1055.81 441.084 1054.43 442.993C1051.98 446.404 1050.36 450.519 1050.44 454.72C1050.51 458.921 1052.42 463.171 1055.86 465.581C1058.58 467.489 1061.98 468.138 1065.28 468.451C1067.09 468.617 1068.95 468.692 1070.71 468.256C1073.84 467.481 1076.37 465.177 1078.32 462.608C1079.93 460.471 1081.23 458.112 1082.48 455.745C1090.55 440.486 1097.07 424.462 1101.96 407.91C1103.4 403.006 1104.72 397.944 1104.33 392.848C1104 388.386 1101.47 380.581 1096.13 380.053C1090.04 379.442 1083.93 382.062 1079.57 386.18Z" fill="#F83B4F"/>
<path d="M1085.75 365.651C1085.82 365.612 1085.91 365.597 1085.99 365.608C1086.08 365.643 1086.15 365.708 1086.2 365.792C1086.55 366.328 1086.78 366.937 1086.87 367.574C1086.54 367.176 1086.11 366.873 1085.63 366.695C1085.09 367.332 1084.51 367.929 1083.89 368.483C1084.01 369 1084.54 369.358 1084.62 369.883C1084.63 370.081 1084.6 370.28 1084.52 370.461C1084.44 370.643 1084.31 370.801 1084.16 370.922C1083.84 371.161 1083.49 371.344 1083.11 371.465C1082.95 371.361 1082.99 371.109 1083.11 370.957C1083.23 370.805 1083.4 370.704 1083.5 370.541C1083.78 370.079 1083.35 369.51 1082.94 369.143C1082.72 368.951 1082.51 368.756 1082.29 368.569C1082.18 368.492 1082.11 368.374 1082.08 368.242C1082.02 367.146 1085.02 365.952 1085.75 365.651Z" fill="#FC571E"/>
<path d="M1083.15 373.482C1083.08 373.865 1082.89 374.218 1082.61 374.495C1082.34 374.772 1081.99 374.961 1081.6 375.038C1081.22 375.115 1080.82 375.077 1080.46 374.928C1080.1 374.779 1079.79 374.526 1079.57 374.202C1079.36 373.877 1079.24 373.495 1079.24 373.105C1079.24 372.714 1079.36 372.332 1079.57 372.007C1079.79 371.682 1080.1 371.429 1080.46 371.279C1080.82 371.129 1081.22 371.09 1081.6 371.166C1082.11 371.267 1082.56 371.568 1082.86 372.003C1083.15 372.437 1083.25 372.969 1083.15 373.482Z" fill="white"/>
<path d="M1126.75 276.987C1128.45 273.912 1127.81 270.316 1125.33 268.956C1122.86 267.595 1119.48 268.985 1117.79 272.06C1116.1 275.134 1116.74 278.73 1119.21 280.09C1121.69 281.451 1125.06 280.061 1126.75 276.987Z" fill="#F83B4F"/>
<path d="M1108.16 276.988C1109.85 273.913 1109.21 270.318 1106.74 268.957C1104.26 267.597 1100.89 268.986 1099.2 272.061C1097.51 275.136 1098.14 278.731 1100.62 280.092C1103.09 281.452 1106.47 280.063 1108.16 276.988Z" fill="#8BC3C0"/>
<path d="M1079.74 274.507C1079.19 277.87 1081.14 280.596 1084.09 280.596C1087.04 280.596 1089.86 277.87 1090.4 274.507C1090.94 271.144 1089 268.418 1086.05 268.418C1083.1 268.418 1080.28 271.144 1079.74 274.507Z" fill="#FFBA55"/>
<path d="M1039.89 523.701C1044.05 516.134 1042.49 507.286 1036.4 503.939C1030.31 500.592 1022 504.013 1017.84 511.581C1013.68 519.148 1015.24 527.996 1021.33 531.343C1027.42 534.69 1035.73 531.269 1039.89 523.701Z" fill="#FFBA55"/>
<path d="M1086.1 523.704C1090.26 516.137 1088.7 507.289 1082.61 503.942C1076.52 500.595 1068.21 504.016 1064.05 511.583C1059.89 519.15 1061.45 527.998 1067.54 531.345C1073.63 534.692 1081.94 531.271 1086.1 523.704Z" fill="#F83B4F"/>
<path d="M993.675 523.702C997.835 516.134 996.272 507.286 990.184 503.939C984.096 500.592 975.788 504.013 971.627 511.581C967.467 519.148 969.03 527.996 975.119 531.343C981.207 534.69 989.515 531.269 993.675 523.702Z" fill="#8BC3C0"/>
</svg>
