<svg width="515" height="402" viewBox="0 0 515 402" fill="none" xmlns="http://www.w3.org/2000/svg">
<rect width="515" height="402" fill="#80DFDB"/>
<path d="M445.997 155.827L450.151 246.338C450.198 247.288 449.828 247.986 449.201 248.343L451.795 246.86L454.39 245.376C455.015 245.026 455.381 244.322 455.338 243.369L451.184 152.859L445.997 155.827Z" fill="#FF6462"/>
<path d="M446.968 145.466L304.65 79.2902C303.775 78.885 302.997 78.8996 302.448 79.2508L297.96 82.1335C298.508 81.7808 299.288 81.766 300.163 82.1728L442.48 148.348C444.219 149.157 445.703 151.336 445.779 153.192L450.266 150.309C450.191 148.451 448.708 146.274 446.968 145.466Z" fill="#E3F6FF"/>
<path d="M443.991 149.518C445.748 150.339 447.246 152.552 447.324 154.436L450.958 243.665C451.041 245.552 449.661 246.422 447.905 245.601L304.165 178.405C302.408 177.585 300.91 175.371 300.832 173.485L297.198 84.2556C297.115 82.3721 298.495 81.5019 300.251 82.3225L443.991 149.518Z" fill="#145075"/>
<path d="M433.478 158.224C433.559 160.081 435.022 162.234 436.746 163.045C438.47 163.856 439.8 162.997 439.719 161.147C439.638 159.298 438.176 157.137 436.452 156.326C434.729 155.515 433.397 156.366 433.478 158.224Z" fill="#FF6462"/>
<path d="M423.833 153.41C423.914 155.267 425.377 157.42 427.1 158.231C428.822 159.043 430.155 158.183 430.074 156.334C429.993 154.484 428.531 152.324 426.808 151.512C425.084 150.701 423.752 151.553 423.833 153.41Z" fill="#80D3FA"/>
<path d="M414.187 148.595C414.268 150.454 415.731 152.605 417.455 153.416C419.179 154.228 420.509 153.37 420.428 151.519C420.347 149.668 418.885 147.509 417.162 146.697C415.438 145.886 414.106 146.738 414.187 148.595Z" fill="#E3F6FF"/>
<path d="M402.318 144.333L302.445 97.8135L302.117 90.3452L401.991 136.864L402.318 144.333Z" fill="#E3F6FF"/>
<path d="M359.487 129.929L302.912 103.605L302.821 101.533L359.396 127.858L359.487 129.929Z" fill="#80D3FA"/>
<path d="M271.36 155.275C269.101 154.22 267.308 154.262 267.429 157.032C267.308 154.262 265.437 152.506 263.176 151.449C260.915 150.393 259.183 151.78 259.304 154.551C259.486 158.719 265.732 167.874 267.948 168.911C270.165 169.948 275.853 166.139 275.68 162.202C275.559 159.433 273.621 156.332 271.36 155.275Z" fill="#FF6462"/>
<path d="M451.329 192.361L452.186 212.416C452.235 213.482 451.848 214.263 451.194 214.664L454.086 212.889C454.746 212.487 455.121 211.708 455.076 210.644L454.218 190.586L451.329 192.361Z" fill="#FF6462"/>
<path d="M450.208 184.245L405.406 163.39C404.422 162.931 403.546 162.949 402.929 163.345L400.236 165.073C400.851 164.677 401.73 164.662 402.713 165.118L447.514 185.974C449.471 186.885 451.141 189.338 451.233 191.425L453.925 189.695C453.833 187.61 452.163 185.156 450.208 184.245Z" fill="#E3F6FF"/>
<path d="M447.885 186.249C449.855 187.17 451.536 189.651 451.629 191.761L452.433 211.526C452.526 213.639 450.976 214.616 449.009 213.696L403.9 192.603C401.931 191.681 400.248 189.2 400.156 187.09L399.351 167.323C399.259 165.212 400.808 164.235 402.774 165.155L447.885 186.249Z" fill="#80D3FA"/>
<path d="M423.93 198.259L403.206 188.592L402.344 168.892L423.067 178.561L423.93 198.259Z" fill="#0772B3"/>
<path d="M448.811 195.204L425.461 184.088L425.327 181.013L448.677 192.128L448.811 195.204Z" fill="#FF6462"/>
<path opacity="0.5" d="M445.235 197.904L425.767 188.786L425.7 187.252L445.167 196.368L445.235 197.904Z" fill="#2D80B3"/>
<path opacity="0.5" d="M440.204 203.094L426.234 196.584L426.167 195.046L440.137 201.558L440.204 203.094Z" fill="#2D80B3"/>
<path opacity="0.5" d="M439.979 199.287L426.009 192.777L425.941 191.239L439.912 197.751L439.979 199.287Z" fill="#2D80B3"/>
<path d="M448.697 210.72L445.761 207.382L443.002 208.065L442.74 202.09L448.435 204.746L448.697 210.72Z" fill="#FF6462"/>
<path d="M429.483 121.498C429.627 124.777 426.621 126.006 422.802 124.228L318.989 75.8952C315.17 74.1183 311.929 69.9816 311.785 66.7031C311.641 63.4246 314.647 62.1947 318.466 63.9731L422.279 112.304C426.098 114.083 429.339 118.22 429.483 121.498Z" fill="#E3F6FF"/>
<path d="M381.402 156.592L384.707 228.889C384.761 230.002 384.33 230.817 383.601 231.237L386.628 229.498L387.637 228.919C388.368 228.499 388.794 227.685 388.743 226.572L385.438 154.275L381.402 156.592Z" fill="#FF6462"/>
<path d="M380.811 146.919L290.144 104.949C289.119 104.473 288.206 104.488 287.563 104.902L284.052 107.153C284.694 106.74 285.614 106.723 286.632 107.199L377.304 149.165C379.342 150.113 381.081 152.667 381.17 154.842L384.675 152.593C384.586 150.422 382.847 147.867 380.811 146.919Z" fill="#E3F6FF"/>
<path d="M378.497 149.971C380.56 150.934 382.319 153.531 382.41 155.741L385.319 227.136C385.416 229.347 383.796 230.367 381.738 229.403L289.966 186.745C287.905 185.781 286.145 183.184 286.054 180.974L283.145 109.58C283.048 107.37 284.668 106.348 286.726 107.311L378.497 149.971Z" fill="#0772B3"/>
<path opacity="0.5" d="M356.651 179.731C357.236 193.116 347.642 199.261 335.222 193.457C322.802 187.652 312.263 172.096 311.676 158.713C311.089 145.329 320.685 139.178 333.103 144.987C345.522 150.797 356.066 166.346 356.651 179.731Z" fill="#E3F6FF"/>
<path d="M344.266 171.318L330.696 156.806C330.04 156.103 329.427 155.629 328.89 155.379C328.321 155.115 327.839 155.097 327.483 155.329L325.106 156.861C325.463 156.632 325.944 156.647 326.514 156.911C327.05 157.161 327.662 157.635 328.318 158.338L341.888 172.852C343.773 174.865 344.134 176.778 342.944 177.548L345.323 176.014C346.517 175.246 346.15 173.329 344.266 171.318Z" fill="#E3F6FF"/>
<path d="M326.555 156.893C327.092 157.144 327.706 157.619 328.363 158.322L341.956 172.855C344.202 175.254 344.295 177.51 342.16 177.865L329.247 180.009C328.642 180.11 328.026 180.026 327.486 179.77C326.181 179.162 325.248 177.63 325.17 175.704L324.485 158.909C324.407 156.977 325.256 156.281 326.555 156.893Z" fill="#FF6462"/>
<path d="M479.374 172.766L480.555 199.557L464.105 191.933L462.922 165.143L479.374 172.766Z" fill="#145075"/>
<path d="M478.107 191.249L465.9 185.555L465.37 173.448L477.575 179.141L478.107 191.249Z" fill="#E3F6FF"/>
<path d="M478.322 193.573L478.545 198.639L466.447 192.983L466.226 187.917L478.322 193.573Z" fill="#E3F6FF"/>
<path d="M477.029 171.717L477.25 176.772L465.153 171.115L464.932 166.06L477.029 171.717Z" fill="#E3F6FF"/>
<path d="M283.421 93.7202C283.459 94.6009 282.823 95.0091 282.007 94.6264L264.68 86.5226C263.865 86.1414 263.163 85.108 263.124 84.2288L262.678 74.0247C262.64 73.144 263.278 72.7356 264.094 73.1183L281.419 81.2177C282.234 81.6005 282.936 82.6324 282.975 83.513L283.421 93.7202Z" fill="#E3F6FF"/>
<path d="M271.45 80.2698C270.85 79.6278 270.385 79.7 270.417 80.4296L270.613 84.9317C270.645 85.6612 271.136 86.1799 271.705 86.0833L275.142 85.5C275.71 85.4034 275.684 84.8003 275.083 84.1582L271.45 80.2698Z" fill="#FF6462"/>
<path d="M279.645 96.5497C279.898 97.0126 279.773 97.2375 279.368 97.0483L267.951 91.7269C267.547 91.5376 267.396 91.1865 267.618 90.9439L268.304 90.1936C268.526 89.951 269.038 89.9075 269.444 90.0952L277.667 93.9295C278.073 94.1187 278.611 94.6529 278.864 95.1158L279.645 96.5497Z" fill="#145075"/>
<path d="M266.217 114.851C266.037 114.33 265.663 113.896 265.165 113.629L255.188 108.966C255.08 108.903 254.956 108.867 254.828 108.861C254.7 108.856 254.571 108.881 254.453 108.934C253.227 109.635 252.843 112.897 252.397 117.798C252.289 118.974 252.164 120.379 252.008 121.508C251.663 121.208 251.276 120.955 250.858 120.754C249.337 120.044 248.151 120.567 248.21 121.926C248.269 123.285 249.552 124.963 251.073 125.672C251.821 126.022 252.487 126.071 252.966 125.871C253.048 125.872 253.129 125.855 253.205 125.821C253.28 125.787 253.347 125.738 253.4 125.676C254.023 124.927 254.253 122.704 254.578 119.138C254.804 116.642 255.172 112.618 255.819 111.575L263.442 115.139C262.936 116.676 262.662 119.21 262.371 122.462C262.263 123.637 262.138 125.042 261.983 126.173C261.638 125.872 261.251 125.619 260.832 125.419C259.309 124.707 258.125 125.232 258.184 126.59C258.243 127.947 259.526 129.624 261.047 130.336C261.797 130.687 262.465 130.736 262.943 130.533C263.024 130.535 263.104 130.52 263.179 130.488C263.254 130.456 263.321 130.408 263.374 130.349C263.999 129.599 264.228 127.375 264.553 123.81C264.802 121.065 265.221 116.471 265.997 116.029C266.316 115.843 266.401 115.38 266.217 114.851Z" fill="#145075"/>
<path d="M421.112 128.962C417.247 127.155 413.964 122.313 413.796 118.171C413.706 116.11 414.412 114.611 415.611 113.831L413.91 114.927C412.711 115.7 412.011 117.206 412.094 119.266C412.263 123.41 415.544 128.252 419.411 130.059C421.357 130.968 423.085 130.937 424.302 130.159L426.003 129.064C424.786 129.841 423.058 129.871 421.112 128.962Z" fill="#80D3FA"/>
<path d="M426.411 131.861L428.117 130.765L434.827 140.667L433.122 141.763L426.411 131.861Z" fill="#80D3FA"/>
<path d="M412.521 113.008L414.222 111.912C415.748 110.929 417.919 110.891 420.362 112.032C425.216 114.301 429.338 120.388 429.551 125.59C429.643 127.686 429.075 129.327 428.055 130.389L426.354 131.483C427.373 130.423 427.936 128.782 427.849 126.687C427.637 121.479 423.519 115.392 418.661 113.13C416.216 111.984 414.047 112.025 412.521 113.008Z" fill="#80D3FA"/>
<path d="M426.464 131.581L433.175 141.484L431.545 142.522L424.852 132.649C423.405 133.197 421.558 133.068 419.523 132.121C414.655 129.849 410.523 123.752 410.311 118.542C410.099 113.332 413.885 110.935 418.751 113.205C423.618 115.475 427.75 121.574 427.962 126.783C428.049 128.876 427.484 130.513 426.464 131.581ZM419.443 130.184C423.318 131.992 426.329 130.085 426.162 125.937C425.995 121.789 422.704 116.938 418.829 115.126C414.953 113.313 411.943 115.224 412.11 119.376C412.277 123.527 415.568 128.374 419.443 130.184Z" fill="#0772B3"/>
<path d="M449.92 223.36L395.828 198.095L393.126 199.836L447.218 225.099C452.511 227.572 455.872 233.073 456.021 236.731C456.141 239.669 456.145 239.743 456.145 239.753L456.35 244.802L459.05 243.063L458.845 238.013C458.845 238.013 458.842 237.934 458.721 234.991C458.574 231.332 455.214 225.834 449.92 223.36Z" fill="#80D3FA"/>
<path d="M447.255 225.092C452.549 227.565 455.91 233.068 456.059 236.727C456.18 239.666 456.183 239.74 456.183 239.75L456.388 244.8C456.251 244.487 453.637 238.56 445.911 234.955L402.079 214.481C396.557 211.901 393.476 207.7 393.278 202.846C393.149 199.911 393.146 199.839 393.146 199.836L447.255 225.092Z" fill="#E3F6FF"/>
<path d="M401.791 208.073C401.861 209.673 400.716 210.407 399.23 209.713C397.745 209.018 396.486 207.165 396.416 205.559C396.346 203.953 397.493 203.224 398.977 203.919C400.461 204.614 401.721 206.471 401.791 208.073Z" fill="#FF6462"/>
<path d="M420.523 215.79L402.969 207.617L402.92 206.508L420.474 214.68L420.523 215.79Z" fill="#0772B3"/>
<path opacity="0.5" d="M450.565 233.966L403.189 211.927L403.118 210.313L450.494 232.356L450.565 233.966Z" fill="#2D80B3"/>
<path d="M458.893 268.751L404.801 243.486L402.1 245.225L456.193 270.49C461.485 272.963 464.845 278.462 464.995 282.122C465.114 285.058 465.118 285.134 465.118 285.144L465.325 290.194L468.025 288.454L467.82 283.405C467.82 283.405 467.816 283.327 467.696 280.383C467.547 276.723 464.186 271.224 458.893 268.751Z" fill="#80D3FA"/>
<path d="M456.229 270.484C461.522 272.957 464.882 278.458 465.033 282.119C465.152 285.055 465.155 285.131 465.156 285.142L465.362 290.193C465.223 289.88 462.609 283.953 454.885 280.348L411.053 259.873C405.529 257.294 402.448 253.091 402.25 248.237C402.131 245.301 402.128 245.228 402.128 245.225L456.229 270.484Z" fill="#E3F6FF"/>
<path d="M410.765 253.462C410.835 255.062 409.688 255.797 408.204 255.104C406.72 254.411 405.46 252.556 405.39 250.95C405.32 249.344 406.465 248.616 407.949 249.309C409.433 250.002 410.695 251.862 410.765 253.462Z" fill="#FF6462"/>
<path d="M429.497 261.181L411.943 253.008L411.895 251.898L429.448 260.072L429.497 261.181Z" fill="#0772B3"/>
<path opacity="0.5" d="M459.538 279.357L412.162 257.318L412.091 255.704L459.468 277.745L459.538 279.357Z" fill="#2D80B3"/>
<path d="M405.062 224.273C402.282 222.979 400.127 223.058 398.731 223.954L396.038 225.685C397.433 224.788 399.588 224.709 402.367 226.005L451.474 248.883C451.474 248.883 451.478 248.961 451.606 251.889C451.703 254.087 451.154 255.579 450.018 256.31L452.712 254.579C453.849 253.849 454.39 252.357 454.299 250.159C454.181 247.238 454.178 247.162 454.177 247.152L405.062 224.273Z" fill="#80D3FA"/>
<path d="M402.419 225.995C397.141 223.537 394.115 226.035 394.263 229.673C394.391 232.593 394.385 232.667 394.386 232.679L394.591 237.695L394.615 237.659L394.591 237.695L397.156 236.047C398.708 235.679 401.088 235.799 404.627 237.448L443.485 255.547C448.991 258.112 451.835 256.689 451.637 251.867C451.509 248.947 451.506 248.874 451.506 248.862L402.419 225.995ZM394.999 237.177C394.95 237.224 394.906 237.269 394.867 237.313C394.91 237.27 394.953 237.225 394.999 237.177ZM394.656 237.576L394.613 237.639L394.656 237.576ZM394.84 237.345L394.757 237.442L394.84 237.345ZM394.739 237.466C394.711 237.501 394.685 237.535 394.665 237.563C394.698 237.534 394.714 237.501 394.744 237.465L394.739 237.466ZM395.397 236.834C395.464 236.783 395.538 236.732 395.615 236.683C395.543 236.732 395.469 236.782 395.401 236.834L395.397 236.834ZM395.011 237.164C395.053 237.12 395.102 237.075 395.154 237.03C395.107 237.076 395.058 237.121 395.016 237.165L395.011 237.164ZM395.203 236.989C395.251 236.948 395.305 236.903 395.355 236.86C395.303 236.905 395.256 236.949 395.207 236.99L395.203 236.989Z" fill="#E3F6FF"/>
<path d="M402.942 230.982C403.01 232.544 401.892 233.26 400.445 232.582C398.998 231.905 397.769 230.094 397.701 228.533C397.633 226.973 398.75 226.256 400.198 226.933C401.646 227.611 402.874 229.422 402.942 230.982Z" fill="#FF6462"/>
<path d="M423.227 239.037L404.063 230.133L404.016 229.05L423.179 237.955L423.227 239.037Z" fill="#0772B3"/>
<path opacity="0.5" d="M444.638 252.964L404.277 234.201L404.208 232.627L444.569 251.39L444.638 252.964Z" fill="#2D80B3"/>
<path d="M286.678 193.859C286.861 198.053 283.854 199.979 279.964 198.169C276.073 196.359 272.767 191.475 272.585 187.281C272.403 183.087 275.407 181.16 279.3 182.979C283.192 184.798 286.494 189.664 286.678 193.859Z" fill="#E3F6FF"/>
<path d="M312.314 205.542L309.427 202.454C309.318 202.331 309.187 202.227 309.04 202.148C308.996 202.121 308.945 202.106 308.892 202.104C308.839 202.103 308.786 202.114 308.739 202.138L307.616 202.861C307.664 202.837 307.717 202.825 307.771 202.828C307.824 202.83 307.875 202.846 307.918 202.874C308.066 202.951 308.197 203.054 308.304 203.178L311.193 206.266C311.593 206.694 311.67 207.103 311.416 207.268L312.536 206.544C312.8 206.381 312.715 205.97 312.314 205.542Z" fill="#80D3FA"/>
<path d="M307.934 202.867C308.082 202.945 308.213 203.048 308.321 203.172L311.218 206.267C311.695 206.781 311.714 207.259 311.265 207.333L308.512 207.788C308.382 207.811 308.25 207.792 308.135 207.736C307.98 207.648 307.853 207.522 307.767 207.37C307.68 207.219 307.636 207.047 307.64 206.871L307.495 203.289C307.474 202.884 307.656 202.738 307.934 202.867Z" fill="#145075"/>
<path d="M314.211 204.181C314.164 204.153 314.11 204.138 314.053 204.137C313.997 204.136 313.94 204.149 313.89 204.175L312.729 204.907C312.78 204.881 312.836 204.868 312.892 204.869C312.949 204.869 313.004 204.884 313.051 204.912C313.185 204.982 313.299 205.081 313.383 205.202C313.466 205.323 313.517 205.461 313.532 205.607L313.737 210.525C313.743 210.576 313.736 210.629 313.715 210.678C313.694 210.727 313.661 210.77 313.617 210.805L314.776 210.072C314.82 210.039 314.855 209.995 314.876 209.946C314.897 209.897 314.904 209.844 314.896 209.793L314.691 204.874C314.676 204.73 314.625 204.591 314.542 204.471C314.459 204.35 314.345 204.251 314.211 204.181V204.181Z" fill="#80D3FA"/>
<path d="M313.086 204.893C313.225 204.963 313.344 205.063 313.43 205.184C313.517 205.305 313.57 205.444 313.585 205.59L313.798 210.521C313.81 210.787 313.603 210.912 313.339 210.796C313.199 210.725 313.081 210.625 312.994 210.504C312.907 210.383 312.854 210.244 312.839 210.098L312.627 205.166C312.617 204.9 312.822 204.777 313.086 204.893Z" fill="#145075"/>
<path d="M298.161 196.167C298.114 196.14 298.059 196.125 298.003 196.124C297.947 196.123 297.891 196.136 297.841 196.162L296.682 196.893C296.732 196.867 296.788 196.854 296.845 196.855C296.901 196.857 296.955 196.872 297.002 196.901C297.135 196.971 297.248 197.07 297.331 197.19C297.414 197.31 297.465 197.448 297.48 197.592L297.684 202.511C297.692 202.562 297.685 202.616 297.665 202.665C297.644 202.715 297.609 202.758 297.565 202.792L298.726 202.06C298.77 202.026 298.804 201.982 298.825 201.933C298.846 201.883 298.853 201.83 298.845 201.778L298.64 196.86C298.626 196.715 298.575 196.577 298.491 196.457C298.408 196.336 298.295 196.237 298.161 196.167V196.167Z" fill="#80D3FA"/>
<path d="M297.033 196.884C297.171 196.954 297.289 197.053 297.375 197.174C297.461 197.294 297.514 197.433 297.529 197.577L297.741 202.509C297.754 202.775 297.55 202.899 297.286 202.783C297.146 202.713 297.028 202.613 296.941 202.492C296.854 202.371 296.801 202.232 296.786 202.087L296.574 197.155C296.563 196.889 296.769 196.766 297.033 196.884Z" fill="#145075"/>
<path d="M303.34 199.223C303.224 199.169 303.092 199.151 302.963 199.171L300.218 199.626C300.154 199.636 300.093 199.658 300.038 199.692L298.914 200.417C298.969 200.383 299.03 200.36 299.093 200.35L301.841 199.896C301.97 199.874 302.102 199.892 302.217 199.947C302.371 200.036 302.497 200.162 302.583 200.313C302.669 200.464 302.712 200.635 302.707 200.81L302.854 204.387C302.864 204.616 302.81 204.765 302.714 204.827L303.837 204.103C303.933 204.041 303.987 203.892 303.977 203.662L303.832 200.085C303.836 199.91 303.793 199.739 303.707 199.588C303.621 199.437 303.494 199.311 303.34 199.223Z" fill="#80D3FA"/>
<path d="M302.238 199.937C302.392 200.025 302.518 200.151 302.604 200.303C302.691 200.454 302.734 200.625 302.73 200.8L302.877 204.383C302.894 204.793 302.714 204.942 302.437 204.812C302.288 204.735 302.157 204.631 302.049 204.506L299.152 201.417C298.676 200.906 298.656 200.427 299.105 200.351L301.859 199.896C301.988 199.87 302.121 199.884 302.238 199.937V199.937Z" fill="#145075"/>
<path d="M292.794 193.953L290.029 192.662C289.937 192.606 289.831 192.576 289.721 192.574C289.611 192.572 289.502 192.598 289.404 192.649L288.278 193.375C288.375 193.324 288.485 193.298 288.595 193.3C288.704 193.302 288.811 193.332 288.902 193.388L291.668 194.679C291.928 194.818 292.147 195.014 292.309 195.253C292.471 195.492 292.57 195.766 292.598 196.053L292.72 199.017C292.735 199.119 292.721 199.223 292.68 199.32C292.64 199.417 292.573 199.502 292.488 199.568L293.613 198.842C293.699 198.777 293.766 198.691 293.807 198.594C293.848 198.497 293.861 198.393 293.845 198.291L293.725 195.326C293.696 195.04 293.596 194.766 293.435 194.528C293.273 194.289 293.054 194.092 292.794 193.953V193.953Z" fill="#80D3FA"/>
<path d="M291.692 194.668C291.952 194.807 292.172 195.004 292.334 195.243C292.497 195.482 292.596 195.756 292.624 196.044L292.746 199.012C292.769 199.537 292.382 199.781 291.891 199.552L289.12 198.259C288.859 198.12 288.639 197.923 288.476 197.684C288.313 197.445 288.213 197.17 288.184 196.883L288.064 193.914C288.041 193.388 288.426 193.144 288.92 193.375L291.692 194.668Z" fill="#145075"/>
<path d="M278.882 185.781C278.585 185.649 278.32 185.648 278.134 185.766L276.983 186.496C277.169 186.378 277.433 186.374 277.731 186.511C278.042 186.675 278.305 186.907 278.499 187.189C278.693 187.471 278.813 187.795 278.847 188.133L279.064 193.341C279.077 193.648 278.968 193.876 278.785 193.992L279.936 193.262C280.119 193.146 280.227 192.919 280.213 192.611L279.999 187.402C279.964 187.063 279.845 186.74 279.651 186.458C279.457 186.177 279.193 185.945 278.882 185.781V185.781Z" fill="#80D3FA"/>
<path d="M277.767 186.495C278.082 186.659 278.348 186.892 278.544 187.174C278.741 187.456 278.861 187.78 278.896 188.12L279.115 193.335C279.142 193.95 278.674 194.245 278.08 193.975C277.765 193.81 277.498 193.577 277.301 193.294C277.104 193.012 276.983 192.687 276.947 192.347L276.73 187.132C276.704 186.509 277.172 186.221 277.767 186.495Z" fill="#145075"/>
<path d="M282.209 187.442C281.912 187.309 281.647 187.309 281.461 187.427L280.309 188.158C280.495 188.04 280.76 188.035 281.057 188.172C281.368 188.336 281.632 188.568 281.826 188.85C282.02 189.132 282.139 189.455 282.174 189.794L282.39 195.001C282.404 195.308 282.295 195.538 282.112 195.653L283.263 194.923C283.446 194.808 283.554 194.58 283.54 194.272L283.325 189.064C283.291 188.725 283.171 188.402 282.977 188.12C282.783 187.838 282.52 187.606 282.209 187.442Z" fill="#80D3FA"/>
<path d="M281.093 188.154C281.408 188.319 281.674 188.551 281.87 188.834C282.067 189.116 282.187 189.44 282.222 189.779L282.441 194.994C282.469 195.618 282.001 195.906 281.405 195.634C281.09 195.47 280.823 195.237 280.627 194.954C280.43 194.672 280.309 194.348 280.274 194.008L280.056 188.791C280.03 188.17 280.497 187.882 281.093 188.154Z" fill="#145075"/>
<path d="M393.535 241.889L322.9 209.115C321.796 208.601 320.821 208.586 320.216 208.978L319.494 209.44L319.314 209.557L318.413 210.135C319.028 209.742 319.995 209.757 321.098 210.271L391.732 243.038C393.646 243.929 395.269 245.996 395.336 247.632C395.367 248.328 395.108 248.837 394.659 249.124L396.461 247.968C396.912 247.681 397.166 247.164 397.137 246.477C397.075 244.847 395.449 242.78 393.535 241.889Z" fill="#80D3FA"/>
<path d="M391.754 243.039C393.668 243.931 395.291 245.997 395.358 247.633C395.425 249.268 393.912 249.88 391.998 248.99L321.366 216.219C319.452 215.33 317.829 213.261 317.762 211.623C317.694 209.984 319.208 209.377 321.122 210.269L391.754 243.039Z" fill="#145075"/>
<path d="M320.585 211.782L320.274 211.636L320.321 212.706L349.948 226.49L349.902 225.422L320.585 211.782Z" fill="#FF6462"/>
<path d="M392.055 246.128L349.793 226.585C349.733 226.551 349.663 226.534 349.592 226.537C349.521 226.539 349.452 226.561 349.392 226.599C349.332 226.637 349.284 226.69 349.254 226.752C349.224 226.814 349.212 226.883 349.221 226.949C349.231 227.076 349.275 227.198 349.346 227.303C349.418 227.409 349.517 227.495 349.633 227.555L391.896 247.098C391.966 247.133 392.046 247.149 392.127 247.144C392.177 247.14 392.227 247.125 392.272 247.101C392.317 247.078 392.357 247.046 392.389 247.007C392.421 246.968 392.445 246.924 392.458 246.877C392.472 246.83 392.475 246.781 392.467 246.733C392.456 246.607 392.413 246.485 392.341 246.38C392.27 246.274 392.171 246.188 392.055 246.128V246.128Z" fill="#E3F6FF"/>
<path d="M471.062 223.148L471.553 234.364C471.595 235.331 472.348 236.46 473.223 236.87L491.825 245.573C492.701 245.983 493.385 245.527 493.342 244.559L492.852 233.332L471.062 223.148Z" fill="#145075"/>
<path d="M491.601 227.743L488.022 227.108L486.962 226.926L484.362 226.464L483.308 226.277L480.704 225.816L479.645 225.631L477.05 225.168L475.99 224.984L473.39 224.523L472.331 224.334L471.068 224.113L470.49 221.944C470.217 220.92 470.675 220.205 471.499 220.354L472.817 220.59L473.875 220.774L476.475 221.236L477.536 221.424L480.131 221.882L481.189 222.067L483.794 222.529L484.852 222.719L487.457 223.181L488.517 223.365L489.039 223.46C489.863 223.606 490.763 224.557 491.035 225.581L491.601 227.743Z" fill="#145075"/>
<path d="M491.526 243.657L473.052 235.019L472.65 225.817L491.124 234.455L491.526 243.657Z" fill="#E3F6FF"/>
<path d="M488.509 223.48L488.011 227.348L486.919 227.16L487.419 223.29L488.509 223.48Z" fill="#E3F6FF"/>
<path d="M484.867 222.74L484.361 226.606L483.276 226.413L483.776 222.544L484.867 222.74Z" fill="#E3F6FF"/>
<path d="M481.213 221.989L480.713 225.859L479.623 225.668L480.121 221.799L481.213 221.989Z" fill="#E3F6FF"/>
<path d="M477.57 221.248L477.068 225.112L475.978 224.922L476.478 221.054L477.57 221.248Z" fill="#E3F6FF"/>
<path d="M473.92 220.5L473.422 224.368L472.33 224.174L472.83 220.31L473.92 220.5Z" fill="#E3F6FF"/>
</svg>
