<svg xmlns="http://www.w3.org/2000/svg" xmlns:xlink="http://www.w3.org/1999/xlink" viewBox="0 0 4000 2333.33"><defs><style>.cls-1{fill:url(#linear-gradient);}.cls-2{fill:url(#linear-gradient-2);}.cls-3{fill:#ff6462;}.cls-4,.cls-9{fill:#e3f6ff;}.cls-5{fill:#145075;}.cls-6{fill:#80d3fa;}.cls-7{fill:#0772b3;}.cls-8{fill:#2d80b3;}.cls-8,.cls-9{opacity:0.5;}</style><linearGradient id="linear-gradient" x1="4152.11" y1="215.21" x2="-271.38" y2="2170.86" gradientUnits="userSpaceOnUse"><stop offset="0" stop-color="#70b6ff"/><stop offset="1" stop-color="#3361b0"/></linearGradient><linearGradient id="linear-gradient-2" x1="4273.44" y1="543.06" x2="1683.55" y2="1688.07" gradientUnits="userSpaceOnUse"><stop offset="0" stop-color="#abd4ff"/><stop offset="1" stop-color="#52a1f7"/></linearGradient></defs><title>home3</title><g id="Layer_2" data-name="Layer 2"><g id="Layer_3" data-name="Layer 3"><rect class="cls-1" width="4000" height="2333.33"/><path class="cls-2" d="M4000,0V2333.33H2835l-892-515c-119.43-69-217.16-238.23-217.16-376.13V0Z"/></g><g id="Layer_1-2" data-name="Layer 1"><path class="cls-3" d="M3296.43,1201.37l-1.66,586.38c0,6.16-2.21,10.51-5.74,12.55l14.6-8.48,14.6-8.48c3.53-2,5.72-6.39,5.73-12.56l1.67-586.38Z"/><path class="cls-4" d="M3306.1,1150.58,2424,641.31c-5.42-3.12-10.36-3.4-13.92-1.33q-14.61,8.47-29.2,17c3.57-2.08,8.5-1.8,13.92,1.33l882.08,509.27c10.77,6.22,19.56,21.44,19.52,33.82l29.2-17C3325.66,1172,3316.88,1156.8,3306.1,1150.58Z"/><path class="cls-5" d="M3276.91,1167.55c10.77,6.22,19.56,21.44,19.52,33.82l-1.66,586.38c0,12.4-8.88,17.44-19.65,11.22L2393,1289.7c-10.77-6.22-19.56-21.44-19.52-33.84l1.66-586.38c0-12.38,8.88-17.42,19.65-11.2Z"/><path class="cls-3" d="M3216.81,1212.45c0,12.2,8.56,27,19.13,33.14s19.14,1.15,19.14-11-8.57-27-19.14-33.14S3216.81,1200.25,3216.81,1212.45Z"/><path class="cls-6" d="M3157,1177.93c0,12.2,8.56,27,19.13,33.14s19.14,1.15,19.14-11-8.57-27-19.14-33.14S3157,1165.73,3157,1177.93Z"/><path class="cls-4" d="M3097.23,1143.4c0,12.21,8.56,27,19.13,33.14s19.14,1.16,19.13-11-8.56-27-19.13-33.14S3097.23,1131.2,3097.23,1143.4Z"/><polygon class="cls-4" points="3022.17 1123.38 2403.77 766.34 2403.77 716.63 3022.17 1073.67 3022.17 1123.38"/><polygon class="cls-6" points="2754.31 1010.16 2403.77 807.77 2403.77 793.96 2754.31 996.35 2754.31 1010.16"/><path class="cls-3" d="M2181.22,1135.63c-13.87-8-25.12-8.59-25.12,9.63,0-18.22-11.26-30.63-25.13-38.64s-25.12.25-25.12,18.47c0,27.41,36.64,90.42,50.25,98.28s50.24-14.42,50.24-40.26C2206.34,1164.9,2195.1,1143.64,2181.22,1135.63Z"/><path class="cls-3" d="M3317.24,1439.26l-.37,130.18c0,6.92-2.48,11.8-6.44,14.1l17.5-10.18c4-2.3,6.43-7.17,6.44-14.08l.37-130.2Z"/><path class="cls-4" d="M3312.8,1391.06l-277.51-160.21c-6.09-3.52-11.64-3.83-15.65-1.5l-17.5,10.17c4-2.33,9.55-2,15.65,1.5l277.5,160.22c12.11,7,22,24.1,21.95,38l17.5-10.18C3334.79,1415.17,3324.9,1398.06,3312.8,1391.06Z"/><path class="cls-6" d="M3295.29,1401.24c12.11,7,22,24.1,21.95,38l-.37,130.18c0,13.92-10,19.59-22.09,12.6l-277.51-160.22c-12.1-7-22-24.1-21.94-38l.37-130.19c0-13.91,10-19.58,22.09-12.59Z"/><polygon class="cls-7" points="3140.3 1470.24 3013.79 1397.21 3013.79 1268.15 3140.3 1341.19 3140.3 1470.24"/><polygon class="cls-3" points="3300.37 1459.68 3156.01 1374.82 3156.02 1354.4 3300.37 1439.26 3300.37 1459.68"/><polygon class="cls-8" points="3276.52 1475.36 3156.01 1405.45 3156.01 1395.24 3276.52 1465.14 3276.52 1475.36"/><polygon class="cls-8" points="3242.47 1506.42 3156.02 1456.52 3156.01 1446.3 3242.46 1496.21 3242.47 1506.42"/><polygon class="cls-8" points="3242.47 1481.78 3156.02 1431.88 3156.01 1421.66 3242.46 1471.57 3242.47 1481.78"/><polygon class="cls-3" points="3293.87 1557.76 3276.52 1534.58 3259.16 1537.72 3259.16 1498.6 3293.87 1518.65 3293.87 1557.76"/><path class="cls-4" d="M3203.9,987.17c0,21.84-19.34,28.55-43,14.89l-643-371.26c-23.64-13.65-43-42.69-43-64.53s19.35-28.55,43-14.89l643,371.25C3184.56,936.29,3203.9,965.33,3203.9,987.17Z"/><path class="cls-3" d="M2883.36,1183.2,2882,1651.61c0,7.21-2.59,12.29-6.72,14.69l17.11-9.94,5.7-3.31c4.12-2.4,6.69-7.48,6.71-14.69l1.33-468.41Z"/><path class="cls-4" d="M2883.29,1130.33l-561.93-323c-6.35-3.66-12.13-4-16.31-1.56L2282.24,819c4.18-2.43,10-2.1,16.31,1.56l561.94,323c12.62,7.29,22.92,25.12,22.87,39.62l22.81-13.25C2906.21,1155.45,2895.91,1137.62,2883.29,1130.33Z"/><path class="cls-7" d="M2860.49,1143.58c12.62,7.29,22.92,25.12,22.87,39.62L2882,1651.61c0,14.51-10.4,20.41-23,13.12l-561.93-323c-12.62-7.29-22.92-25.12-22.88-39.62l1.33-468.41c0-14.5,10.4-20.41,23-13.13Z"/><path class="cls-9" d="M2715.92,1327.81c0,87.93-61.73,123.57-137.89,79.6s-137.89-150.89-137.89-238.81S2501.88,1045,2578,1089,2715.92,1239.88,2715.92,1327.81Z"/><path class="cls-4" d="M2641.24,1266.92l-81.06-101.63c-3.92-4.92-7.64-8.32-10.93-10.22-3.5-2-6.52-2.35-8.81-1l-15.31,8.9c2.29-1.33,5.31-1,8.8,1,3.29,1.9,7,5.3,10.93,10.22l81.06,101.64c11.25,14.1,13,26.81,5.33,31.28l15.32-8.91C2654.26,1293.74,2652.49,1281,2641.24,1266.92Z"/><path class="cls-3" d="M2533.93,1164c3.29,1.9,7,5.3,10.93,10.22l81.06,101.64c13.4,16.78,13.36,31.59-.1,32.89l-81.36,7.84a18.15,18.15,0,0,1-10.95-2.41c-8-4.6-13.42-15.08-13.39-27.72l.32-110.26C2520.47,1163.52,2526,1159.37,2533.93,1164Z"/><polygon class="cls-5" points="3501.51 1323.62 3501.51 1498.48 3402.12 1441.1 3402.12 1266.24 3501.51 1323.62"/><polygon class="cls-4" points="3489.05 1443.5 3414.59 1400.5 3414.59 1321.21 3489.05 1364.2 3489.05 1443.5"/><polygon class="cls-4" points="3489.05 1457.89 3489.05 1491.29 3414.58 1448.29 3414.58 1414.89 3489.05 1457.89"/><polygon class="cls-4" points="3489.05 1316.43 3489.05 1349.76 3414.58 1306.76 3414.58 1273.43 3489.05 1316.43"/><path class="cls-4" d="M2282.25,745.17c0,5.79-4.11,8.16-9.12,5.26L2166.78,689c-5-2.89-9.12-10-9.12-15.78V606.13c0-5.79,4.1-8.16,9.12-5.26l106.35,61.4c5,2.9,9.12,10,9.12,15.79Z"/><path class="cls-3" d="M2211,651.41c-3.57-4.49-6.5-4.24-6.5.55v29.56c0,4.79,2.93,8.42,6.5,8.06l21.67-2.17c3.58-.36,3.57-4.32,0-8.81Z"/><path class="cls-5" d="M2257.17,761.07c1.46,3.19.61,4.62-1.89,3.17l-70.65-40.79c-2.51-1.45-3.36-3.85-1.89-5.35l4.54-4.64c1.47-1.5,4.72-1.54,7.22-.1l50.9,29.39c2.51,1.45,5.76,5.25,7.23,8.44Z"/><path class="cls-5" d="M2162.94,873.61a15,15,0,0,0-6.24-8.51l-61.2-35.33a4.88,4.88,0,0,0-4.6-.56c-7.86,4-11.16,25.18-15.29,57.07-1,7.65-2.18,16.79-3.46,24.11a33.81,33.81,0,0,0-7-5.49c-9.33-5.38-16.9-2.52-16.9,6.41s7.57,20.53,16.9,25.91c4.6,2.65,8.75,3.29,11.8,2.21a3.35,3.35,0,0,0,2.77-1.07c4.12-4.61,6.17-19.06,9.17-42.26,2.11-16.24,5.5-42.42,9.85-48.94l46.75,27c-3.58,9.83-6,26.29-8.7,47.45-1,7.65-2.18,16.79-3.46,24.12a33.22,33.22,0,0,0-7-5.49c-9.33-5.39-16.89-2.52-16.89,6.4s7.56,20.52,16.89,25.91c4.61,2.66,8.77,3.3,11.82,2.2a3.33,3.33,0,0,0,2.75-1c4.12-4.61,6.17-19.07,9.18-42.26,2.31-17.86,6.18-47.75,11.17-50.27C2163.3,880.15,2164,877.16,2162.94,873.61Z"/><path class="cls-6" d="M3149.06,1020.64c-23.69-13.68-42.89-46.94-42.82-74.13,0-13.53,4.83-23,12.55-27.53l-10.94,6.36c-7.72,4.48-12.51,14-12.54,27.52-.08,27.2,19.12,60.46,42.81,74.14,11.92,6.88,22.74,7.51,30.55,3l10.94-6.35C3171.8,1028.15,3161,1027.52,3149.06,1020.64Z"/><polygon class="cls-6" points="3181.54 1039.49 3192.48 1033.14 3231.66 1101.07 3220.72 1107.42 3181.54 1039.49"/><path class="cls-6" d="M3100.06,911.93l10.94-6.36c9.82-5.7,23.4-4.91,38.38,3.73,29.74,17.18,53.87,59,53.77,93.15,0,13.76-4,24.23-10.67,30.69l-10.94,6.35c6.67-6.45,10.63-16.92,10.67-30.68.1-34.19-24-76-53.78-93.14C3123.46,907,3109.88,906.23,3100.06,911.93Z"/><path class="cls-7" d="M3181.54,1039.49l39.18,67.93-10.46,6-39.06-67.72c-9.18,2.89-20.67,1.16-33.12-6-29.75-17.18-53.87-59-53.78-93.15s24.38-48,54.13-30.84,53.88,59,53.78,93.14C3192.17,1022.57,3188.21,1033,3181.54,1039.49ZM3138.12,1027c23.69,13.67,43,2.65,43.09-24.54S3162.08,942,3138.4,928.3s-43-2.65-43.09,24.56,19.12,60.46,42.81,74.14Z"/><path class="cls-6" d="M3295.14,1642.29l-334-192.83-17.5,10.18,334,192.82c32.68,18.87,52.35,56.79,52.29,81-.06,19.44-.06,19.93-.06,20l-.09,33.41,17.5-10.17.09-33.42s0-.52.06-20C3347.49,1699.07,3327.82,1661.17,3295.14,1642.29Z"/><path class="cls-4" d="M3277.63,1652.46c32.68,18.87,52.35,56.79,52.29,81-.06,19.44-.06,19.93-.06,20l-.09,33.41c-.79-2.13-15.63-42.49-63.32-70l-270.6-156.22c-34.1-19.69-52.36-48.89-52.27-81,.06-19.42.06-19.9.06-19.92Z"/><path class="cls-3" d="M2995.1,1523.59c0,10.51-7.38,14.77-16.48,9.51s-16.48-18-16.48-28.55,7.37-14.77,16.47-9.51S2995.1,1513.07,2995.1,1523.59Z"/><polygon class="cls-7" points="3111.93 1581.63 3003.21 1518.87 3003.21 1511.49 3111.93 1574.24 3111.93 1581.63"/><polygon class="cls-8" points="3296.76 1713.01 3003.21 1543.54 3003.22 1532.78 3296.76 1702.27 3296.76 1713.01"/><path class="cls-6" d="M3335.28,1938.33l-334-192.83-17.5,10.17,334,192.83c32.68,18.87,52.35,56.78,52.28,81-.06,19.43-.06,19.93-.06,20l-.09,33.42,17.5-10.18.1-33.41s0-.52.06-20C3387.64,1995.11,3368,1957.2,3335.28,1938.33Z"/><path class="cls-4" d="M3317.78,1948.5c32.68,18.87,52.35,56.78,52.28,81-.06,19.43-.06,19.93-.06,20l-.09,33.42c-.78-2.13-15.62-42.49-63.31-70L3036,1856.58c-34.09-19.68-52.35-48.89-52.26-81,.05-19.43.06-19.91.06-19.93Z"/><path class="cls-3" d="M3035.24,1819.62c0,10.51-7.37,14.77-16.48,9.52s-16.47-18-16.48-28.55,7.38-14.77,16.48-9.52S3035.24,1809.11,3035.24,1819.62Z"/><polygon class="cls-7" points="3152.07 1877.67 3043.36 1814.91 3043.36 1807.52 3152.07 1870.29 3152.07 1877.67"/><polygon class="cls-8" points="3336.91 2009.05 3043.36 1839.58 3043.36 1828.82 3336.91 1998.3 3336.91 2009.05"/><path class="cls-6" d="M3009.87,1623.5c-17.21-9.93-30.85-10.45-39.93-5.18l-17.5,10.17c9.07-5.27,22.71-4.75,39.92,5.19l304,175.5s0,.52-.06,20c0,14.62-3.87,24.25-11.26,28.55l17.5-10.18c7.39-4.29,11.23-13.92,11.27-28.54.05-19.43.05-19.93.05-20Z"/><path class="cls-4" d="M2992.36,1633.68c-32.69-18.87-52.5-3.76-52.57,20.45-.05,19.43-.06,19.92-.06,20l-.09,33.38.15-.23-.15.23,16.67-9.69c9.91-1.69,24.91.26,46.83,12.91l240.59,138.91c34.1,19.68,52.46,11.62,52.55-20.47.06-19.43.06-19.92.06-20Zm-49.94,70.59c-.32.29-.6.57-.87.84C2941.82,1704.84,2942.1,1704.56,2942.42,1704.27Zm-2.28,2.48c-.11.15-.21.29-.28.4C2939.93,1707,2940,1706.91,2940.14,1706.75Zm1.23-1.44-.55.6Zm-.67.75c-.19.22-.35.43-.49.61C2940.35,1706.49,2940.51,1706.28,2940.7,1706.06Zm4.34-3.87c.43-.31.92-.61,1.41-.9C2946,1701.58,2945.47,1701.88,2945,1702.19Zm-2.54,2c.29-.27.61-.55.95-.82C2943.11,1703.65,2942.79,1703.93,2942.5,1704.2Zm1.26-1.07c.33-.25.67-.52,1-.78C2944.43,1702.61,2944.09,1702.88,2943.76,1703.13Z"/><path class="cls-3" d="M2993.78,1671.78c0,10.26-7.19,14.41-16.07,9.28s-16.07-17.58-16.07-27.83,7.2-14.41,16.07-9.28S2993.78,1661.53,2993.78,1671.78Z"/><polygon class="cls-7" points="3120.4 1732.75 3001.7 1664.33 3001.7 1657.12 3120.4 1725.54 3120.4 1732.75"/><polygon class="cls-8" points="3251.76 1832.65 3001.7 1688.39 3001.7 1677.9 3251.77 1822.16 3251.76 1832.65"/><path class="cls-4" d="M2264.84,1391.23c0,27.55-19.34,38.72-43.21,25s-43.21-47.29-43.21-74.84,19.35-38.73,43.21-24.95S2264.84,1363.67,2264.84,1391.23Z"/><path class="cls-6" d="M2424.58,1475l-17.28-21.65a9.16,9.16,0,0,0-2.34-2.19,1.89,1.89,0,0,0-1.88-.21l-7.24,4.2a1.85,1.85,0,0,1,1.88.23,8.74,8.74,0,0,1,2.34,2.18l17.28,21.65c2.39,3,2.77,5.72,1.13,6.68l7.23-4.21C2427.35,1480.74,2427,1478,2424.58,1475Z"/><path class="cls-5" d="M2397.72,1455.4a8.74,8.74,0,0,1,2.34,2.18l17.28,21.65c2.85,3.59,2.84,6.73,0,7l-17.34,1.66a3.84,3.84,0,0,1-2.35-.52,6.68,6.68,0,0,1-2.86-5.9l.07-23.52C2394.85,1455.29,2396,1454.42,2397.72,1455.4Z"/><path class="cls-6" d="M2436.88,1466.47a1.91,1.91,0,0,0-1.94-.19l-7.24,4.21a1.91,1.91,0,0,1,1.94.18,6,6,0,0,1,2.73,4.73l-.09,32a1.93,1.93,0,0,1-.8,1.76l7.24-4.21a1.92,1.92,0,0,0,.8-1.76l.09-32A6,6,0,0,0,2436.88,1466.47Z"/><path class="cls-5" d="M2429.64,1470.67a6,6,0,0,1,2.73,4.73l-.09,32c0,1.73-1.24,2.44-2.74,1.57a6,6,0,0,1-2.73-4.74l.09-32C2426.9,1470.5,2428.14,1469.8,2429.64,1470.67Z"/><path class="cls-6" d="M2337.37,1409a1.93,1.93,0,0,0-1.94-.18l-7.24,4.2a1.89,1.89,0,0,1,1.94.2,6,6,0,0,1,2.72,4.71l-.09,32a2,2,0,0,1-.8,1.77l7.23-4.21a1.92,1.92,0,0,0,.8-1.77l.09-32A6,6,0,0,0,2337.37,1409Z"/><path class="cls-5" d="M2330.13,1413.23a6,6,0,0,1,2.72,4.71l-.09,32c0,1.73-1.22,2.44-2.73,1.57a6,6,0,0,1-2.73-4.73l.09-32C2327.39,1413.05,2328.62,1412.35,2330.13,1413.23Z"/><path class="cls-6" d="M2369.27,1430.58a4,4,0,0,0-2.34-.52l-17.34,1.66a2.79,2.79,0,0,0-1.14.35l-7.24,4.21a2.89,2.89,0,0,1,1.14-.35l17.34-1.66a3.89,3.89,0,0,1,2.35.52,6.65,6.65,0,0,1,2.84,5.89l-.07,23.52c0,1.51-.37,2.46-1,2.82l7.23-4.21c.63-.36,1-1.31,1-2.82l.07-23.52A6.68,6.68,0,0,0,2369.27,1430.58Z"/><path class="cls-5" d="M2362,1434.79a6.65,6.65,0,0,1,2.84,5.89l-.07,23.52c0,2.69-1.17,3.58-2.86,2.6a8.65,8.65,0,0,1-2.34-2.19L2342.33,1443c-2.84-3.57-2.84-6.72,0-7l17.34-1.66A3.89,3.89,0,0,1,2362,1434.79Z"/><path class="cls-6" d="M2304,1392.88l-16.93-9.77a3.86,3.86,0,0,0-3.9-.38l-7.23,4.21a3.84,3.84,0,0,1,3.89.38l16.94,9.77a12,12,0,0,1,5.43,9.43l-.05,19.45a3.81,3.81,0,0,1-1.59,3.49l7.23-4.21a3.78,3.78,0,0,0,1.6-3.49l0-19.45A12.06,12.06,0,0,0,2304,1392.88Z"/><path class="cls-5" d="M2296.74,1397.09a12,12,0,0,1,5.43,9.43l-.05,19.45c0,3.44-2.48,4.85-5.47,3.12l-16.94-9.77a12.08,12.08,0,0,1-5.45-9.44l0-19.45c0-3.45,2.48-4.86,5.49-3.11Z"/><path class="cls-6" d="M2218.16,1335c-1.79-1-3.41-1.13-4.57-.45l-7.25,4.2c1.18-.68,2.8-.58,4.58.45a14.13,14.13,0,0,1,6.39,11.06l-.1,33.92c0,2-.72,3.43-1.87,4.1l7.24-4.2c1.14-.67,1.86-2.09,1.87-4.1l.09-33.93A14.08,14.08,0,0,0,2218.16,1335Z"/><path class="cls-5" d="M2210.92,1339.21a14.13,14.13,0,0,1,6.39,11.06l-.1,33.92c0,4-2.9,5.7-6.43,3.67a14.16,14.16,0,0,1-6.4-11.08l.09-33.92C2204.48,1338.81,2207.38,1337.16,2210.92,1339.21Z"/><path class="cls-6" d="M2238.78,1346.91c-1.79-1-3.41-1.13-4.58-.45l-7.23,4.21c1.17-.68,2.79-.59,4.57.44a14.15,14.15,0,0,1,6.39,11.06l-.1,33.92c0,2-.72,3.44-1.87,4.1l7.24-4.2c1.15-.66,1.86-2.09,1.87-4.1l.1-33.92A14.13,14.13,0,0,0,2238.78,1346.91Z"/><path class="cls-5" d="M2231.54,1351.11a14.15,14.15,0,0,1,6.39,11.06l-.1,33.92c0,4.06-2.91,5.71-6.43,3.67a14.14,14.14,0,0,1-6.4-11.07l.09-33.93C2225.11,1350.72,2228,1349.07,2231.54,1351.11Z"/><path class="cls-6" d="M2928.83,1745.3l-437.62-252c-6.84-3.95-13-4.52-16.94-2.21l-4.69,2.72-1.17.69-5.86,3.4c4-2.31,10.1-1.74,16.94,2.21l437.62,251.95c11.86,6.85,21.55,21.37,21.51,32.27,0,4.64-1.77,7.9-4.7,9.59l11.72-6.81c2.93-1.69,4.69-5,4.7-9.58C2950.37,1766.67,2940.68,1752.15,2928.83,1745.3Z"/><path class="cls-5" d="M2917.11,1752.11c11.86,6.85,21.55,21.37,21.51,32.27s-9.76,14.23-21.63,7.39l-437.61-252c-11.86-6.84-21.55-21.37-21.52-32.29s9.77-14.22,21.63-7.37Z"/><polygon class="cls-3" points="2475.37 1514.63 2473.45 1513.51 2473.45 1520.64 2657.01 1626.62 2657.01 1619.5 2475.37 1514.63"/><path class="cls-4" d="M2918.38,1769.69l-262-150.56a2.39,2.39,0,0,0-3.73,2.15,5.28,5.28,0,0,0,2.45,4.23l262,150.56a2.87,2.87,0,0,0,1.45.42,2.33,2.33,0,0,0,2.28-2.57A5.24,5.24,0,0,0,2918.38,1769.69Z"/><path class="cls-5" d="M3432.21,1642.76v73.78c0,6.36,4.4,14.12,9.79,17.23l114.24,66c5.39,3.11,9.79.45,9.79-5.92V1720Z"/><path class="cls-5" d="M3561.41,1684.63l-22.53-6-6.66-1.74-16.36-4.36-6.63-1.77-16.4-4.36-6.66-1.76-16.33-4.37-6.66-1.75-16.36-4.36-6.66-1.78-7.95-2.1-3.06-14.84c-1.44-7,1.65-11.58,6.84-10.18l8.29,2.23,6.67,1.75,16.36,4.36,6.66,1.78,16.33,4.34,6.66,1.75,16.4,4.37,6.66,1.79,16.32,4.33,6.67,1.75,3.28.89c5.2,1.38,10.64,8.2,12.08,15.21Z"/><polygon class="cls-4" points="3554.91 1787.11 3441.32 1721.53 3441.32 1660.94 3554.91 1726.52 3554.91 1787.11"/><polygon class="cls-4" points="3543.01 1653.71 3538.88 1678.63 3532.22 1676.89 3536.34 1651.96 3543.01 1653.71"/><polygon class="cls-4" points="3520.02 1647.63 3515.86 1672.53 3509.23 1670.76 3513.36 1645.84 3520.02 1647.63"/><polygon class="cls-4" points="3496.97 1641.47 3492.83 1666.4 3486.17 1664.64 3490.3 1639.72 3496.97 1641.47"/><polygon class="cls-4" points="3473.97 1635.38 3469.84 1660.27 3463.18 1658.52 3467.31 1633.6 3473.97 1635.38"/><polygon class="cls-4" points="3450.95 1629.24 3446.82 1654.16 3440.16 1652.38 3444.28 1627.49 3450.95 1629.24"/></g></g></svg>