<svg width="1336" height="720" viewBox="0 0 1336 720" fill="none" xmlns="http://www.w3.org/2000/svg">
<rect width="1336" height="720" fill="#FBF6F0"/>
<path d="M709.966 517.587C791.737 517.587 858.026 451.299 858.026 369.527C858.026 287.756 791.737 221.468 709.966 221.468C628.195 221.468 561.906 287.756 561.906 369.527C561.906 451.299 628.195 517.587 709.966 517.587Z" fill="#F9D8AD"/>
<path d="M862.737 544.251H557.195V546.137H862.737V544.251Z" fill="#F9D8AD"/>
<path d="M825.929 452.681H735.126V459.535H825.929V452.681Z" fill="#99583F"/>
<path d="M714.368 297.814L696.935 302.216C695.977 302.458 695.396 303.43 695.638 304.388L700.039 321.822C700.281 322.78 701.254 323.36 702.212 323.119L719.646 318.717C720.604 318.475 721.184 317.502 720.942 316.544L716.541 299.111C716.299 298.153 715.326 297.572 714.368 297.814Z" fill="#E8C395"/>
<path d="M711.08 304.197C710.447 303.994 709.76 304.043 709.163 304.336C708.436 304.731 707.713 305.553 707.202 306.17C706.452 305.872 705.429 305.489 704.603 305.487C703.938 305.513 703.309 305.795 702.849 306.276C701.745 307.369 701.606 309.082 702.186 310.43C702.766 311.778 703.946 312.811 705.216 313.644C706.485 314.476 708.475 315.232 709.709 316.108C710.378 314.749 711.78 313.143 712.495 311.807C713.209 310.471 713.764 309.001 713.636 307.539C713.507 306.077 712.571 304.636 711.08 304.197Z" fill="#F9D8AD"/>
<path d="M713.115 425.461L701.797 427.193C701.176 427.288 700.749 427.87 700.844 428.491L702.575 439.807C702.671 440.429 703.252 440.856 703.874 440.76L715.191 439.029C715.813 438.933 716.24 438.352 716.145 437.73L714.413 426.415C714.318 425.793 713.737 425.366 713.115 425.461Z" fill="#E8C395"/>
<path d="M710.651 429.294C710.263 429.126 709.824 429.116 709.428 429.265C708.943 429.472 708.438 429.948 708.071 430.3C707.614 430.064 706.99 429.76 706.466 429.708C706.043 429.683 705.627 429.825 705.307 430.101C704.541 430.723 704.35 431.804 704.636 432.694C704.922 433.584 705.607 434.311 706.361 434.914C707.115 435.517 708.33 436.119 709.053 436.749C709.56 435.92 710.54 434.995 711.078 434.191C711.616 433.388 712.053 432.491 712.06 431.557C712.066 430.623 711.569 429.662 710.651 429.294Z" fill="#F9D8AD"/>
<path d="M803.174 223.706L791.936 221.525C791.319 221.406 790.721 221.809 790.601 222.427L788.421 233.664C788.301 234.282 788.705 234.879 789.322 234.999L800.56 237.179C801.177 237.299 801.775 236.896 801.895 236.278L804.075 225.041C804.195 224.423 803.792 223.825 803.174 223.706Z" fill="#E8C395"/>
<path d="M799.554 226.502C799.244 226.212 798.834 226.055 798.411 226.063C797.887 226.092 797.249 226.371 796.783 226.589C796.433 226.214 795.955 225.717 795.47 225.491C795.08 225.327 794.641 225.32 794.246 225.472C793.315 225.804 792.772 226.752 792.741 227.686C792.71 228.62 793.112 229.535 793.617 230.357C794.122 231.179 795.066 232.155 795.541 232.993C796.294 232.393 797.531 231.842 798.309 231.268C799.088 230.695 799.8 229.995 800.121 229.119C800.442 228.243 800.295 227.158 799.554 226.502Z" fill="white"/>
<path d="M563.798 375.993L549.477 378.536C548.69 378.676 548.165 379.427 548.305 380.214L550.848 394.535C550.988 395.322 551.739 395.847 552.526 395.707L566.847 393.164C567.634 393.024 568.159 392.273 568.019 391.486L565.476 377.165C565.336 376.378 564.585 375.853 563.798 375.993Z" fill="#F9D8AD"/>
<path d="M560.782 380.942C560.283 380.741 559.725 380.741 559.227 380.942C558.618 381.219 557.984 381.84 557.537 382.31C556.949 382.025 556.147 381.658 555.479 381.608C554.944 381.593 554.425 381.784 554.029 382.143C553.074 382.971 552.865 384.336 553.254 385.456C553.644 386.576 554.536 387.479 555.514 388.224C556.491 388.97 558.05 389.695 558.997 390.473C559.618 389.415 560.831 388.195 561.482 387.16C562.132 386.125 562.668 384.971 562.65 383.783C562.631 382.594 561.96 381.381 560.782 380.942Z" fill="white"/>
<path d="M705.489 388.131L680.141 381.316C679.472 381.136 678.902 380.698 678.556 380.098C678.21 379.497 678.116 378.784 678.296 378.115L685.111 352.767C685.2 352.435 685.353 352.125 685.562 351.853C685.771 351.581 686.031 351.353 686.328 351.181C686.625 351.01 686.953 350.899 687.293 350.854C687.633 350.81 687.979 350.833 688.31 350.922L713.658 357.736C714.328 357.916 714.898 358.355 715.244 358.955C715.59 359.556 715.683 360.269 715.504 360.938L708.691 386.286C708.511 386.955 708.072 387.526 707.472 387.872C706.872 388.218 706.158 388.311 705.489 388.131V388.131Z" fill="#E8C395"/>
<path d="M704.934 363.512C704.274 362.839 703.354 362.336 702.393 362.323C701.186 362.307 699.687 362.843 698.585 363.263C697.842 362.348 696.813 361.13 695.761 360.54C694.932 360.068 693.876 360.043 692.965 360.296C690.778 360.901 689.383 362.988 689.163 365.115C688.944 367.241 689.708 369.405 690.733 371.37C691.758 373.336 693.752 375.719 694.7 377.711C696.523 376.469 699.442 375.4 701.314 374.214C703.186 373.027 704.93 371.546 705.818 369.59C706.707 367.633 706.522 365.127 704.934 363.512Z" fill="white"/>
<path d="M740.932 262.875L701.103 272.827C700.583 272.957 700.042 272.983 699.511 272.905C698.981 272.826 698.471 272.643 698.011 272.367C697.551 272.091 697.15 271.727 696.831 271.296C696.511 270.865 696.28 270.376 696.15 269.855L686.198 230.024C686.068 229.504 686.041 228.963 686.12 228.432C686.199 227.902 686.382 227.392 686.658 226.933C686.933 226.473 687.297 226.072 687.728 225.753C688.159 225.434 688.649 225.203 689.169 225.073L729.011 215.119C730.062 214.86 731.172 215.028 732.099 215.588C733.025 216.148 733.692 217.052 733.952 218.103L743.906 257.932C744.165 258.981 743.998 260.091 743.44 261.018C742.883 261.944 741.981 262.612 740.932 262.875V262.875Z" fill="#E8C395"/>
<path d="M721.461 229.647C720.044 229.233 718.406 229.233 717.083 229.951C715.427 230.848 713.77 232.72 712.592 234.13C710.881 233.445 708.55 232.565 706.663 232.554C705.16 232.554 703.708 233.308 702.656 234.346C700.128 236.831 699.803 240.744 701.12 243.826C702.437 246.907 705.124 249.274 708.019 251.181C710.914 253.088 715.451 254.823 718.263 256.826C719.802 253.73 722.989 250.065 724.646 247.021C726.302 243.977 727.561 240.622 727.275 237.288C726.99 233.954 724.869 230.655 721.461 229.647Z" fill="white"/>
<path d="M628.887 250.421C627.678 246.323 627.812 241.945 629.271 237.929C630.73 233.913 633.436 230.469 636.994 228.102C640.552 225.736 644.774 224.57 649.041 224.777C653.309 224.983 657.399 226.55 660.712 229.249C664.024 231.948 666.386 235.637 667.45 239.775C668.514 243.914 668.226 248.284 666.627 252.246C665.027 256.209 662.202 259.555 658.563 261.795C654.924 264.035 650.664 265.051 646.406 264.695L641.552 272.176L642.329 263.918C639.142 262.965 636.243 261.232 633.896 258.875C631.549 256.518 629.827 253.612 628.887 250.421V250.421Z" fill="#FFE9D2"/>
<path d="M812.792 257.946H764.566C761.788 257.946 759.536 260.198 759.536 262.976V273.732C759.536 276.51 761.788 278.761 764.566 278.761H812.792C815.57 278.761 817.822 276.51 817.822 273.732V262.976C817.822 260.198 815.57 257.946 812.792 257.946Z" fill="#FFE9D2"/>
<path d="M788.678 271.303C790.307 271.303 791.627 269.982 791.627 268.354C791.627 266.725 790.307 265.405 788.678 265.405C787.05 265.405 785.729 266.725 785.729 268.354C785.729 269.982 787.05 271.303 788.678 271.303Z" fill="#E8C395"/>
<path d="M775.433 271.303C777.062 271.303 778.382 269.982 778.382 268.354C778.382 266.725 777.062 265.405 775.433 265.405C773.805 265.405 772.485 266.725 772.485 268.354C772.485 269.982 773.805 271.303 775.433 271.303Z" fill="#E8C395"/>
<path d="M801.923 271.303C803.551 271.303 804.871 269.982 804.871 268.354C804.871 266.725 803.551 265.405 801.923 265.405C800.294 265.405 798.974 266.725 798.974 268.354C798.974 269.982 800.294 271.303 801.923 271.303Z" fill="#E8C395"/>
<path d="M587.027 507.521C590.022 485.305 594.394 463.296 600.116 441.621C600.474 440.265 600.855 438.875 601.694 437.749C603.222 435.697 605.908 434.957 608.393 434.347C608.246 434.943 608.13 435.438 607.979 436.034C606.322 435.693 604.651 436.484 603.423 437.664C602.195 438.844 601.447 440.424 600.899 442.031C600.261 443.895 599.874 445.844 599.486 447.78C598.153 454.452 596.819 461.124 595.484 467.798C592.835 481.051 590.178 494.347 589.089 507.822C588.536 507.747 587.594 507.596 587.027 507.521Z" fill="#357092"/>
<path d="M584.366 510.01C584.121 510.071 583.867 510.079 583.619 510.034C583.371 509.988 583.136 509.891 582.929 509.747C583.782 479.569 584.149 449.384 584.03 419.191C584.273 418.905 584.581 418.487 584.908 418.667C585.136 449.271 585.18 479.417 584.366 510.01Z" fill="#357092"/>
<path d="M579.543 511.021L571.881 453.352C571.674 451.832 571.448 450.246 570.541 449.004C569.634 447.761 567.81 447.061 566.52 447.885C566.222 447.85 565.545 447.952 565.304 448.132C565.205 447.552 565.097 446.974 565.004 446.396C567.127 445.044 570.117 446.218 571.597 448.26C573.078 450.302 573.438 452.911 573.753 455.406C576.118 474.103 578.481 492.8 580.843 511.497C580.293 511.688 579.999 511.381 579.543 511.021Z" fill="#357092"/>
<path d="M596.875 436.707C598.55 437.639 599.629 439.418 600.116 441.263C600.603 443.108 600.567 445.067 600.482 446.982C600.41 448.602 600.255 450.352 599.178 451.565C598.577 449.113 596.662 447.216 594.771 445.56C593.769 444.674 592.719 443.791 591.458 443.325C590.197 442.86 588.687 442.88 587.638 443.709C588.275 444.779 589.837 444.589 591.054 444.852C592.961 445.266 594.256 446.985 595.374 448.579C596.492 450.173 597.652 451.892 597.745 453.824C597.767 454.745 597.623 455.661 597.32 456.531C596.71 458.451 595.707 460.222 594.374 461.733C593.935 457.736 591.601 454.762 588.286 452.491L591.75 461.424C592.245 462.704 592.75 464.044 592.616 465.408C592.392 467.686 590.512 469.378 588.76 470.838C588.576 467.317 587.451 463.855 585.861 460.718C583.881 463.134 584.016 467.021 586.157 469.295C586.778 469.964 587.633 470.745 587.333 471.62C587.18 472.064 586.757 472.351 586.36 472.604C585.67 473.047 584.979 473.489 584.289 473.929C584.008 474.142 583.684 474.288 583.339 474.358C582.895 474.414 582.465 474.223 582.061 474.035C579.99 473.069 577.919 472.091 575.849 471.101C575.56 470.988 575.302 470.808 575.097 470.575C574.747 470.1 574.917 469.405 575.271 468.931C575.625 468.456 576.13 468.121 576.53 467.688C577.944 466.143 577.576 463.339 575.809 462.217C575.73 462.152 575.638 462.107 575.538 462.083C575.439 462.06 575.335 462.06 575.236 462.082C575.109 462.145 575.004 462.244 574.933 462.366C573.92 463.786 573.081 465.323 572.434 466.943C571.405 466.538 570.472 465.924 569.694 465.139C569.388 464.873 569.171 464.52 569.073 464.126C569.042 463.787 569.098 463.445 569.235 463.132C570.707 459.051 574.716 456.334 576.393 452.333C574.36 452.7 572.268 453.313 570.784 454.748C568.692 456.769 568.263 459.912 567.955 462.803C566.14 460.763 564.86 458.305 564.227 455.649C564.12 455.189 564.031 454.698 564.184 454.251C564.354 453.754 564.787 453.4 565.201 453.075L576.281 444.353C576.074 443.876 575.66 443.363 575.167 443.524L569.322 445.485C568.564 445.74 567.793 446.001 567.133 446.45C565.627 447.473 564.919 449.283 564.006 450.859C563.948 450.983 563.855 451.086 563.737 451.155C563.395 451.308 563.115 450.863 562.993 450.505C562.49 448.919 561.983 447.262 562.227 445.616C562.405 444.419 562.971 443.319 563.542 442.253C565.074 439.383 566.706 436.57 568.437 433.814C568.864 433.135 569.311 432.446 569.964 431.982C570.576 431.586 571.271 431.336 571.995 431.251C575.403 430.721 579.338 432.493 580.305 435.806C580.703 434.509 581.259 433.265 581.962 432.104C582.291 431.553 582.707 430.99 583.322 430.801C583.642 430.724 583.972 430.702 584.299 430.735L587.348 430.872C589.437 430.967 591.752 431.16 593.181 432.688C594.119 433.684 595.682 436.045 596.875 436.707Z" fill="#8BC3C0"/>
<path d="M591.528 415.186C591.545 416.752 591.221 418.302 590.577 419.73C589.933 421.157 588.986 422.427 587.801 423.451C586.616 424.474 585.223 425.227 583.717 425.657C582.211 426.087 580.63 426.183 579.083 425.939C580.578 424.737 581.902 423.337 583.018 421.777C581.079 422.117 579.771 423.9 578.077 424.902C577.772 425.112 577.412 425.229 577.041 425.237C576.596 425.214 576.213 424.933 575.851 424.678C573.6 423.117 570.947 422.235 568.209 422.137C571.034 420.672 573.576 418.717 575.716 416.362C574.792 416.016 573.741 416.323 572.904 416.844C572.067 417.366 571.372 418.087 570.576 418.667C568.942 419.859 566.948 420.453 564.927 420.348C563.287 420.257 561.614 418.878 560.707 417.515C559.8 416.153 559.293 414.558 558.806 412.989C560.065 413.429 561.404 413.591 562.732 413.464C564.06 413.337 565.344 412.924 566.497 412.254C564.867 411.409 562.929 412.736 561.101 412.589C559.479 412.461 558.15 411.139 557.514 409.653C556.878 408.166 556.81 406.491 556.748 404.867C556.723 404.246 556.7 403.625 556.677 403.003C559.507 403.056 562.331 403.269 565.136 403.643C565.554 403.673 565.962 403.786 566.335 403.977C566.89 404.306 567.189 404.929 567.456 405.515L569.183 409.309C569.415 409.814 569.988 410.183 570.506 410.384C570.597 409.704 570.688 409.027 570.781 408.348C570.887 407.555 570.97 406.669 570.485 406.033C570.137 405.577 569.493 405.192 569.618 404.631C571.56 404.724 573.415 405.418 575.236 406.105C575.857 406.344 576.515 406.6 576.936 407.12C577.218 407.52 577.421 407.971 577.532 408.447C577.797 409.331 578.064 410.215 578.331 411.098C578.476 411.581 578.659 412.109 579.1 412.341C579.853 410.821 580.301 409.015 579.721 407.42C582.263 408.039 584.725 408.948 587.058 410.131C587.927 410.539 588.73 411.074 589.441 411.719C590.439 412.676 591.512 413.802 591.528 415.186Z" fill="#8BC3C0"/>
<path d="M570.597 451.006C569.079 449.238 567.439 447.386 565.213 446.713C563.476 446.189 561.608 446.459 559.829 446.796C556.928 447.346 554.063 448.071 551.25 448.968C552.339 449.215 553.337 450.142 553.344 451.259C553.35 452.375 552.035 453.371 551.066 452.835C550.331 452.42 550.103 451.459 549.44 450.948C548.612 450.302 547.415 450.582 546.406 450.89C543.851 451.673 540.96 452.766 540.074 455.286C542.096 455.113 544.13 455.16 546.141 455.427C546.957 455.535 547.96 455.874 548.026 456.694C548.098 457.558 547.017 458.059 546.162 458.007C544.137 457.889 542.368 456.26 540.347 456.402C539.999 456.403 539.663 456.528 539.399 456.754C539.117 457.034 539.045 457.454 538.985 457.846C538.595 460.55 538.338 463.269 538.212 466.003C538.2 466.266 538.281 466.549 538.544 466.566C539.73 466.64 540.896 466.249 542.081 466.152C543.265 466.054 544.634 466.34 545.236 467.367C545.36 467.549 545.416 467.769 545.394 467.988C545.342 468.305 545.06 468.527 544.785 468.69C544.035 469.129 543.192 469.386 542.325 469.441C541.458 469.496 540.59 469.347 539.79 469.007C539.128 468.719 538.517 468.297 537.813 468.129C537.719 468.095 537.619 468.082 537.519 468.092C537.42 468.102 537.324 468.135 537.239 468.187C537.103 468.331 537.028 468.523 537.032 468.721C536.742 471.352 536.115 473.935 535.168 476.406C535.007 476.82 534.868 477.377 535.218 477.661C540.679 482.082 549.196 481.856 555.141 478.112C554.053 473.841 552.644 469.658 550.925 465.599C552.902 465.82 554.445 467.353 555.814 468.798C556.417 469.434 557.029 470.084 557.415 470.869C558.268 472.621 557.856 474.696 557.425 476.595C558.738 475.306 560.724 474.754 561.755 473.232C562.6 471.989 562.604 470.355 562.484 468.85C562.242 465.827 561.63 462.845 560.66 459.972C561.74 459.643 562.627 460.867 563.016 461.929C563.993 464.598 564.352 467.453 564.068 470.281C566.963 468.434 569.44 466.004 571.341 463.145C571.882 462.385 572.305 461.547 572.595 460.66C573.07 459.045 572.803 457.305 572.374 455.678C572.009 454.28 571.535 452.099 570.597 451.006Z" fill="#8BC3C0"/>
<path d="M593.997 463.836C593.471 463.47 592.876 463.116 592.237 463.163C591.721 463.203 591.263 463.501 590.853 463.816C588.307 465.765 586.631 468.638 586.188 471.814C585.745 474.99 586.571 478.212 588.486 480.784C590.737 483.807 594.222 485.602 597.202 487.907C599.814 489.929 602.068 492.375 603.87 495.142C604.055 495.424 604.257 495.728 604.576 495.832C605.026 495.979 605.487 495.668 605.829 495.343C607.192 494.047 607.985 492.278 608.745 490.56L611.822 483.59C612.588 481.854 613.371 480.038 613.271 478.143C613.207 476.785 612.696 475.491 612.164 474.238C610.172 469.539 607.728 464.888 603.932 461.474C603.589 461.163 603.208 460.852 602.75 460.778C601.686 460.606 600.901 461.724 600.453 462.704C599.959 463.789 599.312 467.346 598.041 467.259C597.004 467.185 594.947 464.493 593.997 463.836Z" fill="#8BC3C0"/>
<path d="M609.971 430.332C608.227 433.423 604.825 435.399 603.406 438.654C602.644 440.402 602.533 442.354 602.431 444.257C602.357 445.69 602.381 447.364 603.512 448.246C604.514 446.871 604.448 445.024 604.485 443.321C604.523 441.619 604.825 439.696 606.227 438.731C606.784 440.47 606.357 442.363 605.784 444.096C605.21 445.829 604.481 447.556 604.431 449.381C604.382 451.205 605.208 453.209 606.9 453.893C607.245 451.263 607.783 448.662 608.511 446.111C608.666 445.57 608.84 445.009 609.223 444.597C609.606 444.185 610.259 443.976 610.749 444.249C610.63 445.454 610.352 446.638 609.921 447.769C609.128 449.84 607.828 451.743 607.331 453.913C606.834 456.084 607.463 458.784 609.511 459.66C609.862 458.003 610.211 456.347 610.559 454.69C611.518 456.347 611.043 458.417 610.913 460.318C610.783 462.219 611.362 464.578 613.209 465.081C612.977 462.19 613.308 459.281 614.183 456.516C615.425 459.055 615.895 461.652 614.947 464.315C614.64 465.178 614.214 466.036 614.239 466.951C614.29 468.75 615.993 469.999 617.519 470.956C618.277 469.952 619.281 469.152 620.06 468.162C620.838 467.173 621.393 465.87 621.037 464.663C620.849 464.023 620.426 463.478 620.209 462.849C619.925 462.02 620.012 461.134 620.064 460.269C620.219 457.664 620.034 455.05 619.513 452.493C620.263 453.611 620.905 454.798 621.43 456.038C621.822 456.966 622.151 457.98 621.94 458.964C621.832 459.467 621.586 459.933 621.472 460.436C621.172 461.747 621.791 463.077 622.395 464.28C623.925 461.851 624.983 459.156 625.514 456.336C625.775 454.943 625.112 453.23 624.296 452.075L618.498 443.843C620.983 443.744 623.387 445.63 623.882 448.059C623.996 448.612 624.023 449.184 624.174 449.716C624.52 450.958 625.477 451.917 626.396 452.822C627.183 450.267 627.97 447.517 627.162 444.97C626.467 442.769 624.646 441.064 622.596 440C620.546 438.936 618.264 438.426 616.009 437.929C617.643 436.548 620.176 437.03 622.014 438.122C623.853 439.213 625.375 440.814 627.322 441.704C626.559 439.089 625.522 436.561 624.23 434.162C624.044 433.819 623.828 433.452 623.466 433.305C623.164 433.212 622.842 433.203 622.534 433.278L615.407 434.374C615.587 433.055 616.866 432.096 618.183 431.889C619.5 431.682 620.83 432.119 622.045 432.657C621.534 431.207 620.271 430.145 618.877 429.52C617.484 428.894 615.951 428.656 614.44 428.426C613.872 428.337 613.017 428.532 613.154 429.093C612.421 430.365 611.808 432.065 611.975 433.525C612.062 434.289 612.278 435.038 612.296 435.802C612.315 436.567 612.089 437.401 611.489 437.873C611.255 436.565 611.021 435.248 611.054 433.918C611.07 433.282 611.147 432.645 611.054 432.015C610.93 431.333 610.541 430.727 609.971 430.332V430.332Z" fill="#8BC3C0"/>
<path d="M612.464 502.92H562.173V513.274H612.464V502.92Z" fill="#99583F"/>
<path d="M609.567 513.274H565.072L570.843 544.75H603.796L609.567 513.274Z" fill="#99583F"/>
<path d="M565.072 513.274L609.105 515.788L609.567 513.274H565.072Z" fill="#5F130D"/>
<path d="M820.357 485.283C819.994 484.161 821.409 481.233 821.806 480.121C822.429 478.344 823.106 476.599 823.838 474.886C824.585 473.141 825.385 471.433 826.24 469.763C826.967 468.345 828.412 466.636 828.847 465.077C827.85 468.67 826.627 472.198 825.188 475.638C823.821 478.883 822.326 482.55 820.357 485.283Z" fill="#357092"/>
<path d="M815.546 477.675C815.449 478.193 812.749 478.025 812.285 478.05C806.931 478.347 801.585 478.761 796.245 479.293C799.082 479.009 801.933 477.878 804.791 477.512C807.41 477.174 810.05 477.023 812.691 477.06C813.124 477.073 815.71 476.793 815.546 477.675Z" fill="#357092"/>
<path d="M788.715 444.421C791.049 445.448 793.206 446.839 795.106 448.54C796.058 449.385 797.247 450.356 797.969 451.513C798.025 451.602 798.076 451.694 798.123 451.789C798.152 451.773 798.187 451.767 798.22 451.773C798.253 451.779 798.284 451.795 798.307 451.82C798.797 452.234 799.28 452.663 799.756 453.108L799.568 452.586L799.775 452.969L799.829 453.176L799.935 453.271L799.775 452.975L796.911 442.18C798.893 445.713 800.074 449.638 800.369 453.677C801.336 454.579 802.274 455.515 803.184 456.487C802.769 454.584 802.687 452.464 802.442 450.513C802.204 448.604 802.206 446.189 801.657 444.388C802.27 446.409 802.714 448.477 802.983 450.571C803.21 452.352 803.604 454.769 803.248 456.554C804.191 457.56 805.109 458.602 806.002 459.678C806.002 459.341 806.074 458.995 806.108 458.67C806.109 458.656 806.109 458.642 806.108 458.628C805.339 457.635 806.406 447.395 806.234 446.295C806.426 447.537 807.491 457.871 806.379 458.66C806.379 458.736 806.368 458.815 806.364 458.891C806.362 459.262 806.328 459.632 806.263 459.997C806.899 460.772 807.52 461.563 808.127 462.372C808.143 462.281 808.158 462.19 808.17 462.099C808.203 461.842 808.234 461.588 808.271 461.333C808.313 457.16 809.114 452.694 809.489 448.567C809.655 451.028 809.605 453.499 809.338 455.951C809.191 457.442 809.21 460.529 808.472 461.935L808.454 462.143C808.437 462.35 808.431 462.557 808.414 462.764C809.209 463.83 809.979 464.922 810.723 466.042C810.756 465.916 810.792 465.793 810.819 465.673C810.837 465.597 810.856 465.52 810.872 465.445C810.665 463.195 811.431 460.184 811.827 458.038C812.075 456.688 812.364 455.352 812.693 454.029C812.929 453.073 813.728 451.41 813.687 450.451C813.79 453.247 813.562 456.045 813.009 458.788C812.78 460.008 812.146 464.955 811.102 465.706L811.09 465.766C811.05 465.973 811.023 466.205 810.982 466.427C811.787 467.649 812.563 468.898 813.31 470.175C813.345 470.045 813.382 469.916 813.415 469.792C813.465 469.601 813.515 469.411 813.566 469.223C813.566 466.439 814.314 463.323 814.809 460.627C815.092 459.099 815.407 457.58 815.753 456.071C816.029 454.874 816.789 453.149 816.789 451.93C816.803 455.144 816.526 458.353 815.96 461.517C815.684 463.091 815.333 464.641 814.906 466.168C814.67 467.023 814.418 468.674 813.769 469.291C813.732 469.498 813.691 469.684 813.647 469.881C813.604 470.078 813.564 470.318 813.511 470.537C814.074 471.504 814.619 472.49 815.146 473.497L815.217 473.631C815.258 473.503 815.3 473.374 815.337 473.25C815.366 473.157 815.393 473.064 815.422 472.973C816.285 466.477 818.176 460.001 820.446 454.079C819.93 455.423 819.936 457.529 819.652 458.999C819.329 460.664 818.954 462.312 818.526 463.942C817.782 466.775 816.927 469.688 815.807 472.351C815.726 472.72 815.633 473.085 815.54 473.447C815.492 473.625 815.451 473.809 815.405 473.996C815.879 474.911 816.338 475.837 816.782 476.775C816.82 476.66 816.855 476.548 816.888 476.439C816.919 476.329 816.952 476.22 816.987 476.112C817.039 474.754 817.66 473.111 818.008 471.809C818.433 470.219 818.888 468.641 819.373 467.077C819.857 465.513 820.374 463.965 820.924 462.432C821.408 461.072 822.373 459.44 822.609 457.999C822.043 461.41 821.267 464.784 820.288 468.1C819.808 469.728 819.28 471.331 818.706 472.911C818.373 473.826 818.014 475.468 817.257 476.075C817.213 476.265 817.167 476.456 817.118 476.646C817.068 476.837 817.031 477.021 816.985 477.209C817.529 478.37 818.05 479.548 818.549 480.742C818.539 480.712 818.532 480.68 818.526 480.649C818.319 479.73 819.28 477.381 819.528 476.47C820.27 473.726 821.177 471.029 822.243 468.394C822.772 467.09 823.337 465.811 823.939 464.557C824.421 463.551 825.519 462.178 825.743 461.068C825.087 464.303 824.237 467.497 823.2 470.631C822.298 473.354 821.249 476.025 820.056 478.634C819.849 479.084 819.128 481.096 818.725 480.991C818.725 481.03 818.712 481.069 818.704 481.107C819.69 483.503 820.587 485.953 821.396 488.456C822.893 484.993 824.438 481.583 826.171 478.29C827.067 476.588 827.999 474.916 828.967 473.273C829.824 471.823 831.245 470.25 831.849 468.632C829.263 475.497 825.933 482.26 821.845 487.942C821.808 488.052 821.779 488.168 821.736 488.276C821.673 488.421 821.603 488.561 821.529 488.702L821.491 488.783C821.963 490.278 822.402 491.79 822.806 493.318C822.881 493.173 822.959 493.03 823.036 492.885C823.113 492.74 823.158 492.643 823.222 492.521C822.85 491.916 824.539 489.752 824.867 489.23C826.438 486.734 828.085 484.318 829.81 481.983C830.671 480.815 831.55 479.668 832.448 478.543C833.181 477.622 834.564 476.518 835.053 475.395C833.793 478.294 832.314 481.093 830.63 483.768C829.177 486.072 827.562 488.27 825.796 490.344C825.442 490.759 824.073 492.749 823.421 492.655C823.357 492.782 823.291 492.906 823.227 493.03C823.119 493.237 823.019 493.467 822.897 493.676C823.173 494.724 823.43 495.777 823.668 496.836C823.779 496.72 823.897 496.608 824.009 496.495C824.121 496.381 824.243 496.244 824.365 496.12C824.342 496.102 824.321 496.081 824.303 496.058C823.982 495.588 826.217 494.13 826.581 493.825C828.578 492.168 830.481 490.401 832.284 488.535C833.999 486.758 836.09 484.832 837.438 482.604C835.954 485.068 834.242 487.387 832.326 489.533C830.697 491.356 828.911 493.032 826.987 494.54C826.641 494.811 825.33 496.051 824.649 496.167C824.483 496.374 824.287 496.553 824.115 496.735C823.989 496.867 823.864 497.01 823.734 497.149C824.053 498.579 824.341 500.019 824.599 501.469C825.587 507.026 826.198 512.785 825.842 518.482C825.819 518.873 825.382 518.867 825.355 518.482C825.001 513.5 824.641 508.517 823.862 503.601C823.527 501.485 823.125 499.387 822.657 497.308C822.45 497.192 822.228 497.045 822.036 496.919L821.92 496.847C818.532 496.944 815.024 496.261 811.63 496.068C809.86 495.966 808.091 495.886 806.321 495.828C804.811 495.778 802.8 495.308 801.322 495.714C804.916 494.722 808.643 494.303 812.367 494.471C813.61 494.527 821.249 495.045 821.986 496.563L822.081 496.613C822.237 496.693 822.4 496.772 822.562 496.857C822.305 495.74 822.029 494.631 821.734 493.529C821.593 493.438 821.452 493.349 821.319 493.268C821.274 494.316 818.882 493.223 818.447 493.107C815.631 492.347 812.806 491.645 809.972 491.001C807.369 490.409 804.395 489.265 801.749 489.292C804.706 489.263 807.669 489.251 810.616 489.566C813.156 489.837 815.695 490.344 818.124 491.322C818.621 491.529 820.609 492.121 821.166 492.802C821.319 492.858 821.466 492.927 821.605 493.009C821.266 491.767 820.903 490.531 820.518 489.301C820.404 488.934 820.284 488.572 820.166 488.209C819.797 488.143 819.431 488.002 819.075 487.911L818.743 487.822C811.835 487.275 804.643 487.992 797.756 488.002C804.962 484.366 812.191 486.139 819.499 487.75C819.681 487.779 819.868 487.808 820.05 487.847C819.727 486.881 819.389 485.914 819.035 484.948C818.772 484.84 818.499 484.759 818.219 484.706C818.178 484.706 818.135 484.706 818.091 484.706C818.086 484.761 818.075 484.816 818.058 484.869C817.851 485.457 814.898 485.058 814.366 485.054C808.704 485.006 803.039 484.929 797.385 484.915C803.215 483.561 809.228 483.182 815.182 483.795C815.575 483.836 817.526 483.766 817.998 484.368C818.3 484.367 818.6 484.418 818.884 484.521C818.459 483.389 818.015 482.267 817.553 481.154C817.424 481.132 817.298 481.103 817.176 481.084C817.006 481.057 816.836 481.034 816.666 481.003C813.709 481.624 810.247 481.289 807.294 481.463L796.712 482.084C803.248 479.568 810.661 478.837 817.375 480.728C816.577 478.845 815.725 477 814.819 475.193C814.132 475.011 813.433 474.88 812.728 474.799C812.61 474.799 812.492 474.787 812.372 474.787C812.148 476.568 807.356 476.06 806.387 476.129C803.741 476.315 801.051 476.7 798.402 476.694C799.974 475.913 811.396 471.701 812.32 474.29C813.124 474.335 813.914 474.527 814.649 474.857C813.908 473.397 813.134 471.964 812.328 470.558C811.885 470.51 811.44 470.487 810.995 470.49C810.91 470.49 810.825 470.49 810.738 470.502C811.073 471.583 808.839 471.695 808.348 471.813C806.932 472.153 805.512 472.476 804.091 472.782C801.143 473.416 798.187 473.974 795.224 474.457C796.416 474.263 797.841 473.167 799.009 472.699C800.283 472.187 801.584 471.745 802.906 471.374C803.993 471.07 809.866 469.096 810.611 470.235H810.876C811.321 470.236 811.765 470.273 812.204 470.345C811.543 469.202 810.861 468.079 810.16 466.978C809.59 466.833 808.996 466.816 808.418 466.928C808.023 469.274 795.286 471.208 794.234 471.975C796.483 470.329 798.931 468.975 801.521 467.945C802.506 467.556 807.832 465.253 808.373 466.543C808.373 466.564 808.387 466.582 808.394 466.601C808.932 466.521 809.482 466.565 810.001 466.729C809.361 465.731 808.704 464.751 808.029 463.789C807.866 463.555 807.698 463.321 807.532 463.089C807.304 463.066 807.079 463.037 806.853 463.021C802.753 466.373 796.913 468.007 792.163 469.015C794.536 467.247 796.926 465.472 799.504 464.234C801.593 463.234 804.32 462.232 806.619 462.687C806.845 462.687 807.071 462.712 807.292 462.76C806.426 461.57 805.529 460.413 804.6 459.291C804.463 459.38 804.314 459.471 804.159 459.552C803.915 461.19 793.219 465.479 792.563 466.243C794.124 464.391 795.98 462.809 798.056 461.561C798.885 461.068 803.25 458.432 804.062 459.266V459.279C804.211 459.239 804.358 459.206 804.494 459.181C803.988 458.568 803.473 457.966 802.952 457.374C802.484 457.55 802.001 457.67 801.525 457.806L801.419 457.837C801.519 458.417 799.62 459.115 799.017 459.382C797.305 460.144 795.602 460.937 793.907 461.759C792.815 462.29 789.833 463.052 789.131 464.178C790.691 461.679 792.975 459.995 795.373 458.935C796.657 458.37 799.272 456.984 800.63 457.345C800.844 457.392 801.049 457.475 801.235 457.591C801.354 457.563 801.47 457.534 801.583 457.504C801.985 457.396 802.384 457.276 802.79 457.193C802.161 456.482 801.52 455.787 800.868 455.106C800.512 455.179 800.151 455.231 799.788 455.261L799.554 455.297C798.951 455.821 798.104 455.963 797.4 456.096C793.18 456.881 788.937 457.668 784.669 457.581C787.003 456.114 789.595 455.105 792.306 454.607C794.039 454.294 798.518 453.365 799.877 454.928C800.123 454.893 800.374 454.858 800.62 454.843C799.792 453.983 798.952 453.145 798.1 452.329C797.671 452.47 796.176 451.58 795.704 451.362C793.071 450.145 790.481 448.801 787.934 447.332C786.692 446.616 785.46 445.87 784.238 445.094C783.599 444.688 782.963 444.274 782.329 443.851C781.956 443.603 781.03 442.684 780.612 442.681C783.403 442.705 786.16 443.297 788.715 444.421V444.421Z" fill="#357092"/>
<path d="M836.606 477.547C836.908 475.89 834.351 471.997 833.587 470.492C832.369 468.088 831.079 465.742 829.716 463.451C828.336 461.115 826.878 458.843 825.343 456.634C824.044 454.758 821.667 452.607 820.76 450.476C822.852 455.391 825.252 460.168 827.946 464.781C830.478 469.115 833.297 474.05 836.606 477.547Z" fill="#8BC3C0"/>
<path d="M842 465.843C842.234 466.557 846.036 465.81 846.699 465.76C854.351 465.172 862.018 464.758 869.701 464.518C865.622 464.648 861.358 463.584 857.233 463.6C853.453 463.616 849.679 463.9 845.939 464.451C845.326 464.524 841.599 464.621 842 465.843Z" fill="#8BC3C0"/>
<path d="M873.809 413.583C870.695 415.48 867.9 417.856 865.526 420.624C864.336 422.003 862.834 423.605 862.023 425.386C861.96 425.521 861.904 425.66 861.855 425.801C861.81 425.784 861.761 425.783 861.715 425.796C861.669 425.81 861.629 425.839 861.6 425.877C860.983 426.567 860.375 427.269 859.776 427.981L859.948 427.204L859.741 427.786L859.703 428.083L859.571 428.238L859.741 427.786L861.772 411.926C859.662 417.074 858.712 422.988 859.028 428.896C857.838 430.354 856.684 431.86 855.566 433.413C855.773 430.636 855.512 427.615 855.491 424.796C855.471 422.042 855.011 418.613 855.45 415.954C854.96 418.937 854.721 421.956 854.736 424.978C854.736 427.55 854.655 431.054 855.487 433.522C854.337 435.125 853.233 436.776 852.174 438.474C852.095 437.997 851.942 437.519 851.832 437.063L851.82 437.005C852.723 435.45 849.279 421.119 849.316 419.524C849.275 421.317 849.714 436.192 851.441 437.101C851.464 437.21 851.485 437.308 851.505 437.428C851.578 437.954 851.696 438.473 851.859 438.979C851.101 440.198 850.366 441.44 849.654 442.706C849.614 442.579 849.577 442.453 849.542 442.327C849.447 441.971 849.354 441.613 849.252 441.259C848.407 435.345 846.43 429.157 845.111 423.369C845.34 426.894 845.879 430.392 846.72 433.823C847.208 435.91 847.755 440.294 849.076 442.153C849.097 442.251 849.12 442.36 849.14 442.449C849.203 442.731 849.25 443.023 849.312 443.309C848.387 444.965 847.502 446.67 846.653 448.395C846.583 448.225 846.511 448.055 846.446 447.889C846.407 447.786 846.368 447.682 846.326 447.577C846.185 444.346 844.543 440.215 843.576 437.244C842.969 435.376 842.308 433.533 841.592 431.717C841.077 430.404 839.621 428.196 839.507 426.828C839.839 430.832 840.793 434.759 842.04 438.532C842.595 440.219 844.429 447.123 846.051 447.991C846.061 448.018 846.069 448.047 846.078 448.074C846.175 448.366 846.256 448.695 846.357 448.991C845.445 450.878 844.579 452.797 843.761 454.748C843.684 454.572 843.607 454.396 843.539 454.226C843.433 453.965 843.332 453.704 843.216 453.447C842.696 449.496 841.044 445.214 839.824 441.482C839.134 439.366 838.4 437.268 837.623 435.189C837.002 433.533 835.598 431.238 835.376 429.503C835.96 434.071 836.957 438.576 838.356 442.963C839.052 445.141 839.845 447.281 840.729 449.364C841.224 450.536 841.895 452.828 842.93 453.582C843.021 453.855 843.119 454.127 843.216 454.396C843.313 454.665 843.423 455.002 843.533 455.303C842.917 456.79 842.33 458.292 841.771 459.811L841.696 460.018C841.613 459.842 841.528 459.668 841.452 459.498C841.396 459.372 841.338 459.248 841.28 459.121C838.83 450.064 834.925 441.232 830.588 433.253C831.574 435.065 831.961 438.055 832.643 440.087C833.416 442.389 834.259 444.658 835.173 446.891C836.761 450.77 838.524 454.744 840.615 458.312C840.801 458.819 841 459.32 841.203 459.817C841.303 460.059 841.398 460.314 841.497 460.569C840.999 461.958 840.522 463.359 840.066 464.774C839.994 464.621 839.921 464.468 839.859 464.317C839.797 464.166 839.725 464.019 839.652 463.87C839.323 461.954 838.13 459.738 837.391 457.955C836.488 455.778 835.544 453.626 834.56 451.499C833.576 449.371 832.551 447.272 831.485 445.199C830.539 443.359 828.87 441.226 828.257 439.225C829.704 443.96 831.44 448.602 833.454 453.124C834.441 455.343 835.493 457.519 836.608 459.653C837.252 460.896 838.07 463.153 839.259 463.87C839.358 464.132 839.466 464.395 839.563 464.656C839.66 464.917 839.756 465.17 839.857 465.431C839.305 467.18 838.787 468.949 838.304 470.738C838.304 470.697 838.317 470.653 838.321 470.602C838.437 469.258 836.633 466.106 836.111 464.859C834.537 461.108 832.739 457.454 830.727 453.917C829.73 452.168 828.687 450.46 827.596 448.792C826.722 447.455 824.904 445.713 824.376 444.181C825.919 448.649 827.727 453.021 829.791 457.274C831.584 460.969 833.577 464.564 835.761 468.042C836.138 468.641 837.542 471.355 838.097 471.134C838.109 471.189 838.126 471.243 838.147 471.295C837.198 474.88 836.389 478.543 835.724 482.231C832.945 477.601 830.11 473.049 827.027 468.703C825.434 466.455 823.796 464.258 822.115 462.111C820.624 460.206 818.319 458.247 817.145 456.067C822.115 465.323 828.12 474.29 834.985 481.589C835.059 481.736 835.119 481.896 835.192 482.038C835.308 482.246 835.432 482.422 835.558 482.608L835.627 482.713C835.237 484.922 834.9 487.151 834.616 489.4C834.481 489.207 834.343 489.019 834.202 488.828C834.09 488.671 833.98 488.508 833.869 488.344C834.283 487.416 831.477 484.664 830.911 483.995C828.213 480.75 825.419 477.63 822.531 474.638C821.088 473.142 819.624 471.68 818.139 470.252C816.923 469.084 814.753 467.767 813.848 466.274C816.182 470.151 818.807 473.845 821.703 477.323C824.197 480.321 826.904 483.136 829.802 485.745C830.383 486.269 832.701 488.833 833.61 488.578C833.726 488.746 833.844 488.909 833.955 489.075C834.15 489.359 834.339 489.655 834.546 489.93C834.355 491.467 834.189 493.009 834.049 494.558C833.866 494.415 833.68 494.281 833.5 494.144C833.32 494.007 833.121 493.829 832.922 493.678C832.953 493.649 832.979 493.615 832.999 493.577C833.365 492.85 829.92 491.202 829.344 490.841C826.196 488.865 823.161 486.717 820.251 484.405C817.483 482.21 814.151 479.87 811.819 476.951C814.39 480.167 817.256 483.137 820.38 485.82C823.034 488.101 825.886 490.143 828.901 491.92C829.443 492.239 831.531 493.755 832.527 493.784C832.8 494.047 833.113 494.262 833.392 494.488C833.599 494.654 833.806 494.83 834.013 494.991C833.83 497.083 833.692 499.181 833.599 501.286C833.249 509.362 833.465 517.645 835.049 525.667C835.159 526.216 835.776 526.127 835.74 525.574C835.304 518.434 834.875 511.286 835.053 504.171C835.13 501.105 835.306 498.052 835.579 495.012C835.865 494.805 836.136 494.56 836.407 494.343L836.558 494.217C841.385 493.716 846.237 492.084 851.019 491.171C853.504 490.694 856 490.247 858.507 489.829C860.639 489.472 863.418 488.427 865.58 488.725C860.292 487.992 854.922 488.096 849.666 489.036C847.921 489.348 837.169 491.52 836.413 493.819L836.287 493.906C836.08 494.051 835.873 494.192 835.651 494.345C835.807 492.71 835.988 491.084 836.194 489.464C836.378 489.309 836.561 489.158 836.745 489.015C837.01 490.491 840.199 488.491 840.793 488.242C844.646 486.636 848.524 485.107 852.427 483.656C856.007 482.326 860.012 480.135 863.772 479.682C859.571 480.198 855.363 480.738 851.238 481.74C847.685 482.606 844.179 483.811 840.915 485.65C840.246 486.027 837.54 487.251 836.875 488.323C836.67 488.436 836.475 488.567 836.293 488.715C836.54 486.883 836.822 485.06 837.138 483.246C837.231 482.707 837.333 482.169 837.432 481.633C837.942 481.467 838.439 481.204 838.925 481.011L839.379 480.821C849.08 478.75 859.422 478.404 869.198 477.12C858.287 473.318 848.362 477.205 838.296 480.86C838.041 480.937 837.784 481.013 837.532 481.105C837.808 479.665 838.105 478.234 838.424 476.812C838.778 476.609 839.151 476.444 839.538 476.317C839.598 476.301 839.659 476.287 839.721 476.278C839.736 476.356 839.763 476.432 839.799 476.503C840.195 477.303 844.316 476.176 845.071 476.068C853.1 474.936 861.124 473.757 869.159 472.668C864.638 472.235 860.089 472.197 855.562 472.556C851.561 472.873 847.591 473.502 843.688 474.437C843.137 474.567 840.356 474.834 839.799 475.781C839.37 475.835 838.954 475.965 838.571 476.166C838.958 474.476 839.376 472.799 839.826 471.136C840.002 471.078 840.178 471.014 840.348 470.964C840.584 470.896 840.82 470.831 841.054 470.757C845.37 471.072 850.209 469.953 854.444 469.643L869.579 468.529C859.828 466.193 849.169 466.553 839.998 470.502C840.772 467.68 841.634 464.901 842.582 462.163C843.539 461.815 844.477 461.418 845.481 461.211C845.649 461.175 845.815 461.149 845.985 461.128C846.639 463.613 853.342 461.987 854.732 461.902C858.523 461.668 862.412 461.695 866.173 461.196C863.793 460.386 846.788 456.564 845.966 460.411C844.832 460.626 843.748 461.047 842.767 461.654C843.541 459.445 844.369 457.266 845.252 455.116C845.871 454.964 846.498 454.847 847.13 454.764C847.252 454.75 847.374 454.742 847.498 454.735C847.225 456.334 850.418 456.069 851.137 456.143C853.207 456.36 855.283 456.552 857.363 456.719C861.662 457.063 865.962 457.297 870.262 457.421C868.531 457.371 866.303 456.085 864.559 455.64C862.654 455.155 860.724 454.772 858.778 454.495C857.177 454.267 848.472 452.573 847.625 454.332L847.252 454.383C846.621 454.472 845.998 454.611 845.388 454.797C846.109 453.051 846.864 451.33 847.654 449.633C848.434 449.32 849.274 449.183 850.114 449.233C851.12 452.491 869.56 452.832 871.2 453.723C867.698 451.81 863.967 450.348 860.097 449.374C858.625 449.008 850.631 446.753 850.107 448.676C850.1 448.704 850.094 448.733 850.091 448.761C849.311 448.75 848.539 448.916 847.834 449.248C848.554 447.711 849.302 446.193 850.076 444.692C850.265 444.328 850.457 443.965 850.65 443.603C850.967 443.528 851.284 443.446 851.603 443.379C858.053 447.363 866.653 448.579 873.58 449.115C869.879 447.055 866.156 444.984 862.261 443.717C859.105 442.681 855.046 441.781 851.872 442.862C851.55 442.905 851.234 442.981 850.928 443.089C851.934 441.238 852.987 439.429 854.087 437.662C854.295 437.761 854.524 437.869 854.76 437.95C855.417 440.228 871.405 444.297 872.47 445.257C869.904 442.925 866.971 441.031 863.789 439.652C862.518 439.107 855.829 436.19 854.839 437.525C854.834 437.532 854.83 437.539 854.827 437.546C854.607 437.517 854.394 437.5 854.206 437.49C854.807 436.524 855.424 435.571 856.055 434.632C856.751 434.796 857.461 434.875 858.161 434.978L858.316 435.003C858.285 435.831 861.112 436.477 862.016 436.742C864.59 437.5 867.157 438.304 869.72 439.153C871.376 439.697 875.742 440.217 876.951 441.683C874.259 438.43 870.71 436.471 867.104 435.419C865.176 434.858 861.205 433.386 859.341 434.154C859.047 434.263 858.774 434.42 858.531 434.618C858.359 434.601 858.188 434.583 858.02 434.56C857.432 434.481 856.84 434.388 856.249 434.353C857.01 433.225 857.788 432.116 858.583 431.027C859.103 431.064 859.626 431.071 860.147 431.046H860.484C861.439 431.667 862.658 431.723 863.694 431.777C869.832 432.094 876.002 432.41 882.041 431.485C878.455 429.844 874.59 428.9 870.652 428.702C868.134 428.584 861.596 428.097 859.966 430.586C859.61 430.586 859.25 430.586 858.896 430.607C859.906 429.226 860.942 427.878 862.002 426.563C862.636 426.683 864.59 425.136 865.22 424.738C868.724 422.514 872.146 420.119 875.487 417.553C877.117 416.302 878.726 415.01 880.312 413.678C881.14 412.988 881.964 412.28 882.784 411.556C883.269 411.142 884.41 409.655 885 409.572C881.036 410.135 877.228 411.499 873.809 413.583V413.583Z" fill="#8BC3C0"/>
<path d="M853.982 502.92H803.691V513.274H853.982V502.92Z" fill="#99583F"/>
<path d="M851.085 513.274H806.59L812.361 544.75H845.314L851.085 513.274Z" fill="#99583F"/>
<path d="M806.59 513.274L850.623 515.788L851.085 513.274H806.59Z" fill="#5F130D"/>
<path d="M693.624 472.074H608.942C606.432 472.074 604.023 469.753 603.558 466.897L573.347 280.46C572.883 277.598 574.542 275.283 577.05 275.283H661.732C664.241 275.283 666.65 277.604 667.116 280.46L697.328 466.889C697.79 469.753 696.131 472.074 693.624 472.074Z" fill="#357092"/>
<path d="M646.605 281.495L644.269 286.407C644.01 286.982 643.59 287.47 643.059 287.81C642.528 288.151 641.909 288.329 641.279 288.324H601.727C600.422 288.324 599.078 287.61 598.116 286.407L594.181 281.495H582.531C579.942 281.495 578.232 283.891 578.71 286.846L606.852 460.505C607.33 463.46 609.817 465.855 612.408 465.855H688.142C690.731 465.855 692.441 463.46 691.963 460.505L663.821 286.852C663.343 283.897 660.856 281.501 658.265 281.501L646.605 281.495Z" fill="#8BC3C0"/>
<path d="M604.693 284.419C605.56 283.942 605.782 282.682 605.19 281.605C604.598 280.528 603.415 280.041 602.548 280.517C601.681 280.994 601.459 282.254 602.051 283.331C602.643 284.408 603.826 284.895 604.693 284.419Z" fill="#113C54"/>
<path d="M640.357 283.332H610.65C610.209 283.332 609.782 282.918 609.701 282.418C609.619 281.913 609.909 281.503 610.354 281.503H640.061C640.502 281.503 640.929 281.917 641.009 282.418C641.092 282.918 640.796 283.332 640.357 283.332Z" fill="#113C54"/>
<path d="M679.58 429.093H609.053L591.094 318.257H661.618L679.58 429.093Z" fill="#FFE9D2"/>
<path d="M653.904 372.528H652.927V388.305H653.904V372.528Z" fill="white"/>
<path d="M634.321 426.712L680.657 428.575C682.205 428.638 683.81 428.691 685.241 428.095C685.483 428.017 685.694 427.863 685.842 427.656C685.943 427.44 685.981 427.199 685.952 426.962C685.881 425.405 685.488 423.883 685.094 422.376C683.471 416.136 681.922 409.777 680.298 403.532L676.051 404.447C675.966 403.95 675.881 403.451 675.794 402.954L674.177 404.403C673.715 403.989 673.254 403.575 672.794 403.161L672.974 404.403C671.926 404.231 670.907 403.915 669.944 403.465L670.408 404.265L667.509 403.374C667.538 403.656 667.569 403.935 667.6 404.217C666.441 404.328 665.271 404.201 664.163 403.842C663.242 404 662.351 404.299 661.521 404.726C661.827 404.259 661.985 403.711 661.976 403.153C660.54 403.497 659.134 403.954 657.77 404.519C658.064 403.988 658.359 403.456 658.655 402.923C656.937 403.582 655.362 404.566 654.016 405.822C647.11 405.573 639.742 405.919 632.948 407.189L634.321 426.712Z" fill="#357092"/>
<path d="M652.765 400.297C656.084 406.3 657.802 413.055 657.756 419.913C657.756 420.831 657.704 421.767 657.385 422.628C656.617 424.699 654.426 425.904 652.285 426.478C650.943 426.838 649.506 427.022 648.172 426.635C646.464 426.14 645.124 424.757 644.285 423.189C643.447 421.622 643.043 419.876 642.641 418.133C641.465 413.011 640.292 407.89 639.121 402.769C639.048 402.451 638.984 402.08 639.187 401.823L652.765 400.297Z" fill="#FF966C"/>
<path d="M594.465 375.506C597.24 373.028 600.429 371.057 603.887 369.683C608.523 367.84 613.634 367.072 617.848 364.406C621.888 367.214 627.019 369.095 631.803 370.24C633.907 370.743 636.089 371.087 637.994 372.114C640.566 373.503 642.343 375.978 643.95 378.421C648.476 385.307 652.358 392.595 655.546 400.193C651.169 402.759 646.752 404.84 641.919 406.383C641.272 415.097 640.243 423.937 639.28 432.624C638.534 432.641 637.792 432.748 637.071 432.943C627.599 435.054 617.909 436.027 608.206 435.842C607.68 435.842 607.086 435.784 606.757 435.376L594.465 375.506Z" fill="#FFBA55"/>
<path d="M626.195 366.082C626.469 368.775 626.56 371.485 626.469 374.191C626.436 375.176 626.262 376.338 625.394 376.792C624.814 377.094 624.106 376.966 623.495 376.736C622.219 376.255 621.128 375.373 620.205 374.373C619.204 373.288 618.38 372.056 617.56 370.83L615.363 367.544C615.173 367.297 615.032 367.016 614.949 366.715C614.848 366.2 615.094 365.68 615.32 365.214C616.55 362.609 617.34 359.819 617.658 356.956C618.848 358.008 620.142 358.966 621.327 360.016L622.708 361.234C623.379 361.868 624.113 362.43 624.899 362.913L626.195 366.082Z" fill="#FF966C"/>
<path d="M617.811 404.132C614.25 397.337 610.774 390.504 607.38 383.631C610.174 386.757 612.469 390.294 614.187 394.118C615.067 396.075 616.09 398.369 618.181 398.843C619.424 399.125 620.693 398.657 621.861 398.162C624.63 396.992 627.313 395.63 629.892 394.085L617.811 404.132Z" fill="#C27D56"/>
<path d="M626.195 366.082L624.903 362.907C624.117 362.424 623.383 361.862 622.712 361.228L621.331 360.01C620.306 359.107 619.213 358.267 618.169 357.382C618.555 359.52 619.071 361.631 619.712 363.707C620.43 366.034 621.343 368.37 622.971 370.184C623.922 371.256 625.135 372.064 626.491 372.528C626.508 370.375 626.409 368.224 626.195 366.082V366.082Z" fill="#C27D56"/>
<path d="M635.594 353.436C637.268 357.122 638.18 361.109 638.274 365.156C638.295 366.075 638.239 367.084 637.622 367.765C637.069 368.386 636.201 368.571 635.392 368.732C632.422 369.325 629.415 369.919 626.39 369.768C625.713 369.735 625.007 369.654 624.439 369.279C623.911 368.929 623.57 368.366 623.251 367.817C620.6 363.265 618.291 358.523 616.34 353.63C615.817 353.398 615.28 353.34 614.756 353.108C613.543 350.071 612.271 347.258 611.058 344.221C610.569 342.995 610.076 341.622 610.561 340.396C611.027 339.216 612.251 338.549 613.383 337.977C617.5 335.906 621.623 333.819 625.912 332.123C626.504 331.887 627.125 331.655 627.761 331.695C628.294 331.755 628.809 331.919 629.279 332.179C631.462 333.241 633.446 334.671 635.143 336.408C635.673 336.95 636.191 337.555 636.371 338.292C636.537 338.971 636.394 339.688 636.189 340.363C635.696 341.963 634.851 343.43 634.012 344.881L632.209 348.004L635.594 353.436Z" fill="#5F130D"/>
<path d="M616.568 342.866C617.526 344.559 618.757 346.081 620.213 347.37C619.591 349.116 618.84 350.828 617.637 352.239C618.298 354.29 619.382 356.18 620.82 357.785C622.258 359.39 624.017 360.675 625.984 361.557C625.489 360.253 625.313 358.681 625.104 357.304C628.521 356.523 632.132 356.763 635.625 357.028C636.002 358.252 636.487 359.379 636.868 360.602C636.704 354.325 635.222 348.153 632.519 342.485C627.417 339.864 621.712 340.305 616.568 342.866Z" fill="#FF966C"/>
<path d="M614.537 351.176C614.165 350.783 613.704 350.486 613.193 350.311C612.673 350.166 612.05 350.28 611.723 350.706C611.534 350.99 611.429 351.322 611.422 351.663C611.34 352.609 611.479 353.562 611.828 354.446C612.178 355.33 612.728 356.12 613.435 356.754C614.143 357.389 614.988 357.85 615.905 358.101C616.821 358.352 617.783 358.387 618.716 358.202C618.624 358.221 617.115 354.846 616.964 354.496C616.382 353.24 615.557 352.111 614.537 351.176Z" fill="#FF966C"/>
<path d="M613.367 354.773C613.301 354.221 613.236 353.669 613.172 353.117C613.407 353.447 613.716 353.718 614.075 353.908C614.036 354.249 613.738 354.529 613.764 354.881C613.791 355.233 614.114 355.446 614.404 355.62C614.916 355.931 615.481 356.254 616.075 356.175L614.498 354.835C614.465 354.813 614.44 354.781 614.425 354.744C614.402 354.674 614.456 354.601 614.506 354.537L615.171 353.81C615.115 353.872 613.431 352.5 612.893 352.798C612.191 353.191 612.872 354.492 613.367 354.773Z" fill="#FC571E"/>
<path d="M626.814 350.23C626.937 350.008 627.109 349.772 627.361 349.754C627.569 349.765 627.764 349.858 627.904 350.012C628.401 350.441 628.875 350.953 629.022 351.592C629 351.631 628.97 351.664 628.935 351.691C628.899 351.717 628.859 351.736 628.815 351.746C628.772 351.756 628.728 351.757 628.684 351.749C628.64 351.742 628.599 351.725 628.562 351.7C628.419 351.589 628.303 351.447 628.221 351.286C628.041 351.013 627.811 350.777 627.543 350.59C627.508 350.557 627.465 350.533 627.419 350.519C627.373 350.505 627.324 350.502 627.276 350.509C627.234 350.53 627.197 350.559 627.167 350.595C627.137 350.631 627.114 350.672 627.1 350.717C626.945 351.073 626.825 352.479 626.425 352.166C625.901 351.764 626.599 350.619 626.814 350.23Z" fill="#5F130D"/>
<path d="M633.549 349.719C633.571 349.589 633.622 349.467 633.697 349.36C633.772 349.252 633.87 349.163 633.983 349.097C634.097 349.06 634.22 349.055 634.336 349.084C634.453 349.113 634.559 349.174 634.642 349.261C634.806 349.436 634.922 349.65 634.982 349.882C635.1 350.234 635.145 350.606 635.114 350.975C635.113 350.995 635.109 351.015 635.102 351.033C635.066 351.125 634.93 351.131 634.855 351.071C634.786 351.002 634.739 350.913 634.723 350.816L634.549 350.176C634.517 349.974 634.417 349.789 634.267 349.65C634.222 349.612 634.164 349.593 634.106 349.596C633.957 349.613 633.915 349.803 633.899 349.953C633.899 350.197 633.99 351.549 633.584 351.402C633.157 351.253 633.476 350.01 633.549 349.719Z" fill="#5F130D"/>
<path d="M633.198 356.301C632.948 354.74 632.609 353.194 632.184 351.671C632.823 352.401 633.338 353.23 633.71 354.125C633.889 354.515 633.982 354.939 633.981 355.368C633.963 355.786 633.575 356.107 633.198 356.301Z" fill="#FC571E"/>
<path d="M634.791 358.424L629.715 358.838C630.264 359.354 630.751 359.853 631.401 360.23C631.72 360.43 632.07 360.576 632.436 360.662C632.808 360.749 633.198 360.693 633.53 360.505C633.878 360.298 634.087 359.911 634.281 359.548C634.445 359.256 634.627 358.726 634.791 358.424Z" fill="#B62C43"/>
<path d="M623.629 345.088C624.59 344.649 625.643 344.447 626.698 344.5C626.761 344.359 626.767 344.2 626.715 344.055C626.63 343.873 626.388 343.848 626.187 343.848C625.238 343.895 624.323 344.438 623.629 345.088Z" fill="#5F130D"/>
<path d="M633.789 344.357C633.097 344.115 632.352 344.069 631.635 344.225C631.638 344.057 631.661 343.89 631.704 343.728C631.712 343.685 631.735 343.647 631.77 343.62C631.804 343.603 631.844 343.597 631.882 343.603C632.43 343.639 633.308 344.088 633.789 344.357Z" fill="#5F130D"/>
<path d="M655.745 409.663C657.084 412.811 657.819 416.183 657.911 419.603C657.942 420.75 657.895 421.922 657.497 422.997C656.671 425.179 654.463 426.629 652.185 427.153C649.908 427.677 647.518 427.47 645.182 427.271C631.664 426.119 618.093 425.722 604.531 426.08C605.175 423.558 604.069 420.601 605.517 418.437C606.496 416.973 608.343 416.389 610.072 416.037C612.926 415.457 615.839 415.235 618.736 414.941C628.886 413.909 638.922 411.964 648.723 409.131L655.745 409.663Z" fill="#FF966C"/>
<path d="M641.417 380.579C642.047 378.459 642.765 376.368 643.571 374.307C643.809 373.686 644.068 373.064 644.534 372.602C644.899 372.267 645.312 371.988 645.76 371.774L649.634 369.718C649.749 369.639 649.888 369.601 650.028 369.61C650.255 369.652 650.361 369.917 650.376 370.147C650.427 371.043 649.7 371.787 648.969 372.308C648.238 372.83 647.402 373.315 647.033 374.135C646.793 374.665 646.787 375.27 646.648 375.835C646.486 376.494 646.147 377.095 645.667 377.574L641.417 380.579Z" fill="#FF966C"/>
<path d="M653.484 375.098C652.418 375.098 651.367 374.85 650.414 374.374C649.46 373.897 648.631 373.206 647.99 372.355C647.35 371.503 646.916 370.514 646.723 369.466C646.531 368.418 646.584 367.339 646.88 366.316L648.4 361.056H658.567L660.087 366.316C660.383 367.339 660.436 368.418 660.244 369.466C660.051 370.514 659.617 371.503 658.977 372.355C658.337 373.206 657.507 373.897 656.554 374.374C655.6 374.85 654.549 375.098 653.484 375.098V375.098Z" fill="white"/>
<path d="M657.756 369.795L659.147 369.459C659.4 368.856 659.595 368.13 659.129 367.674C658.768 367.324 658.195 367.372 657.698 367.444L649.415 368.647L657.756 369.795Z" fill="#B62C43"/>
<path d="M651.782 367.417C650.503 367.048 649.178 366.865 647.847 366.875C647.647 367.726 647.642 368.611 647.832 369.465C648.023 370.318 648.404 371.117 648.947 371.803C649.489 372.488 650.18 373.042 650.968 373.422C651.755 373.803 652.618 374 653.492 374C654.812 374.001 656.093 373.551 657.122 372.726C658.152 371.9 658.869 370.748 659.156 369.459C658.754 369.411 658.356 369.343 657.965 369.262C655.853 368.821 653.857 367.978 651.782 367.417Z" fill="#F83B4F"/>
<path d="M649.052 388.307C649.052 387.493 651.005 386.837 653.415 386.837C655.826 386.837 657.776 387.491 657.776 388.307C657.776 389.123 655.824 389.777 653.415 389.777C651.007 389.777 649.052 389.119 649.052 388.307Z" fill="white"/>
<path d="M606.656 424.399H681.887L682.74 430.859H607.997L606.656 424.399Z" fill="#C27D56"/>
<path d="M614.585 326.611L592.842 349.596C591.528 348.551 590.58 347.116 590.133 345.498C593.736 341.733 597.513 337.629 598.362 332.498C598.569 331.301 598.596 330.058 599.064 328.942C599.509 328.77 600.16 328.978 600.584 329.191C599.756 332.253 598.922 335.315 598.083 338.379C600.807 336.662 603.344 334.664 605.651 332.417C606.558 331.535 607.451 330.578 607.881 329.39C608.207 328.493 608.356 327.364 609.221 326.963L614.585 326.611Z" fill="#C27D56"/>
<path d="M590.969 328.696C592.721 329.841 594.61 330.856 596.674 331.204C598.739 331.552 601.008 331.152 602.561 329.754C602.761 329.532 603.008 329.356 603.284 329.241C603.544 329.184 603.813 329.188 604.071 329.253C606.628 329.713 609.455 330.433 611.673 329.073C611.954 328.862 612.268 328.698 612.603 328.588C613.029 328.493 613.468 328.636 613.884 328.768C615.763 329.361 617.767 329.75 619.699 329.367C621.631 328.984 623.474 327.696 624.068 325.818C625.995 325.808 627.893 325.352 629.614 324.484C630.838 323.863 632.08 322.813 632.035 321.442C632.022 321.047 631.919 320.589 632.194 320.305C632.386 320.151 632.62 320.059 632.865 320.042C633.751 319.877 634.625 319.504 635.228 318.835C635.83 318.166 636.108 317.162 635.766 316.329C635.145 314.799 633.062 314.66 631.418 314.756C619.998 315.417 608.549 315.417 597.13 314.756C593.609 314.548 589.977 314.298 586.641 315.449L590.969 328.696Z" fill="#357092"/>
<path d="M645.062 338.333C644.346 338.253 643.62 338.348 642.949 338.611C642.278 338.874 641.681 339.297 641.21 339.843C641.21 339.624 640.925 340.137 641.144 340.143C641.891 340.154 642.631 339.997 643.309 339.684C643.987 339.371 644.586 338.909 645.062 338.333Z" fill="#8BC3C0"/>
<path d="M645.201 334.028C644.762 333.66 644.476 333.143 644.396 332.576C644.317 332.009 644.451 331.433 644.772 330.959C645.24 331.15 645.462 331.813 645.418 332.318C645.375 332.823 645.209 333.521 645.201 334.028Z" fill="#357092"/>
<path d="M657.238 335.273C657.113 334.877 657.104 334.454 657.213 334.053C657.322 333.652 657.543 333.291 657.852 333.013C658.16 332.735 658.542 332.552 658.951 332.485C659.361 332.417 659.781 332.47 660.162 332.635C659.53 333.858 658.45 334.629 657.238 335.273Z" fill="#8BC3C0"/>
<path d="M650.189 322.374C649.595 322.308 648.98 322.256 648.41 322.44C647.841 322.625 647.325 323.101 647.28 323.697C648.044 323.691 649.531 322.772 650.189 322.374Z" fill="#357092"/>
<path d="M660.529 350.425C659.989 350.196 659.387 350.16 658.824 350.321C658.26 350.483 657.769 350.833 657.433 351.313C658.416 351.576 659.64 350.934 660.529 350.425Z" fill="#357092"/>
<path d="M605.672 360.387C605.479 359.843 605.481 359.249 605.678 358.706C605.875 358.163 606.255 357.706 606.753 357.413C606.852 358.54 606.407 359.536 605.672 360.387Z" fill="#357092"/>
<path d="M642.057 355.829C641.724 355.47 641.521 355.01 641.48 354.522C641.439 354.035 641.562 353.547 641.83 353.137C642.501 354.011 642.291 354.761 642.057 355.829Z" fill="#357092"/>
<path d="M608.571 345.546C608.168 345.185 607.643 344.992 607.103 345.004C606.562 345.017 606.047 345.235 605.661 345.614C606.312 346.111 607.79 345.792 608.571 345.546Z" fill="#8BC3C0"/>
<path d="M604.079 410.984C616.645 401.908 630.585 392.503 640.916 380.946C641.575 380.209 641.662 379.239 642.146 378.374C642.809 377.191 643.517 375.957 644.669 375.241C646.396 374.166 648.603 374.535 650.63 374.299C653.546 373.959 656.126 372.325 658.619 370.778C660.69 369.492 658.619 372.627 658.052 373.209C656.934 374.376 655.516 375.212 653.954 375.626C654.668 375.688 655.155 375.903 655.867 375.963C656.01 375.965 656.151 375.996 656.281 376.055C656.59 376.218 656.652 376.653 656.53 376.98C656.376 377.294 656.182 377.585 655.952 377.848C655.124 379.001 655.101 380.563 654.389 381.793C653.56 383.209 651.978 383.959 650.483 384.626L645.72 386.752C643.749 390.297 629.682 414.451 623.329 419.617C622.043 420.653 620.6 421.64 618.952 421.841C617.757 421.988 616.55 421.711 615.409 421.326C610.696 419.733 606.198 415.47 604.079 410.984Z" fill="#FF966C"/>
<path d="M596.178 312.201C597.572 311.434 597.93 309.409 596.978 307.677C596.026 305.945 594.124 305.163 592.73 305.929C591.336 306.696 590.978 308.721 591.93 310.453C592.882 312.184 594.784 312.967 596.178 312.201Z" fill="#FFBA55"/>
<path d="M606.65 312.198C608.044 311.432 608.403 309.407 607.451 307.675C606.499 305.943 604.597 305.16 603.203 305.927C601.809 306.693 601.45 308.718 602.402 310.45C603.354 312.182 605.256 312.965 606.65 312.198Z" fill="#F83B4F"/>
<path d="M617.121 312.2C618.515 311.433 618.874 309.408 617.922 307.676C616.97 305.944 615.068 305.162 613.674 305.928C612.28 306.695 611.921 308.72 612.873 310.452C613.825 312.183 615.727 312.966 617.121 312.2Z" fill="#357092"/>
<path d="M651.303 453.696C654.732 451.811 655.614 446.828 653.271 442.567C650.928 438.305 646.249 436.379 642.819 438.265C639.39 440.15 638.509 445.133 640.852 449.394C643.194 453.656 647.873 455.582 651.303 453.696Z" fill="#357092"/>
<path d="M625.279 453.698C628.708 451.812 629.589 446.829 627.247 442.568C624.904 438.307 620.225 436.381 616.795 438.266C613.366 440.152 612.485 445.134 614.827 449.396C617.17 453.657 621.849 455.583 625.279 453.698Z" fill="#FFBA55"/>
<path d="M677.328 453.696C680.757 451.811 681.638 446.828 679.296 442.566C676.953 438.305 672.274 436.379 668.844 438.264C665.415 440.15 664.534 445.133 666.876 449.394C669.219 453.655 673.898 455.581 677.328 453.696Z" fill="#F83B4F"/>
<path d="M698.221 544.75H806.729C809.943 544.75 813.03 541.776 813.625 538.107L852.333 299.227C852.928 295.558 850.805 292.584 847.589 292.584H739.081C735.867 292.584 732.78 295.558 732.185 299.227L693.477 538.107C692.882 541.776 695.005 544.75 698.221 544.75Z" fill="#8BC3C0"/>
<path d="M758.465 300.552L761.458 306.845C761.789 307.583 762.328 308.207 763.009 308.643C763.689 309.079 764.482 309.308 765.291 309.301H815.964C817.638 309.301 819.358 308.388 820.593 306.845L825.625 300.552H840.567C843.88 300.552 846.075 303.621 845.463 307.409L809.404 529.925C808.783 533.712 805.602 536.781 802.285 536.781H705.243C701.929 536.781 699.734 533.712 700.347 529.925L736.406 307.409C737.027 303.621 740.207 300.552 743.525 300.552H758.465Z" fill="#357092"/>
<path d="M815.565 302.917C816.324 301.536 816.039 299.921 814.927 299.31C813.816 298.699 812.299 299.323 811.54 300.704C810.781 302.085 811.066 303.7 812.178 304.311C813.289 304.922 814.806 304.298 815.565 302.917Z" fill="#113C54"/>
<path d="M766.473 302.896H804.536C805.103 302.896 805.648 302.372 805.754 301.724C805.857 301.078 805.482 300.552 804.925 300.552H766.852C766.285 300.552 765.74 301.078 765.634 301.724C765.531 302.383 765.906 302.896 766.473 302.896Z" fill="#113C54"/>
<path d="M716.214 489.676H806.582L829.597 347.658H739.228L716.214 489.676Z" fill="#8BC3C0"/>
<path d="M765.997 437.995L764.475 434.57C763.992 433.487 763.51 432.404 762.994 431.336C762.067 429.41 761.006 427.505 759.459 426.028C758.753 425.355 757.958 424.786 757.231 424.132C755.584 422.658 754.313 420.812 753.523 418.748C753.398 418.425 753.231 418.048 752.889 417.994C752.487 417.932 752.199 418.373 752.061 418.758C751.667 419.948 751.696 421.237 752.141 422.409C752.466 423.256 753.015 424.078 752.928 424.981C752.879 425.502 752.62 425.977 752.398 426.451C751.953 427.405 751.64 428.486 751.889 429.509C752.415 431.671 751.789 433.858 751.557 436.063C750.888 435.856 750.183 435.791 749.487 435.871C750.035 436.643 750.799 437.235 751.574 437.78C754.564 439.88 757.877 441.479 761.381 442.514L765.997 437.995Z" fill="#C27D56"/>
<path d="M760.178 432.276H755.394C754.126 432.276 752.909 431.772 752.012 430.875C751.115 429.978 750.611 428.761 750.611 427.492C750.611 426.224 751.115 425.007 752.012 424.11C752.909 423.213 754.126 422.709 755.394 422.709H760.178V432.276ZM755.394 423.881C754.437 423.881 753.518 424.261 752.841 424.939C752.163 425.616 751.783 426.535 751.783 427.492C751.783 428.45 752.163 429.369 752.841 430.046C753.518 430.723 754.437 431.104 755.394 431.104H759.006V423.881H755.394Z" fill="white"/>
<path d="M808.222 384.162C809.464 382.751 811.206 381.907 812.96 381.25C814.498 380.672 816.109 380.215 817.753 380.215C819.398 380.215 821.092 380.734 822.257 381.892C822.909 382.586 823.429 383.394 823.79 384.275C824.66 386.22 825.172 388.305 825.301 390.432C825.562 394.671 824.297 398.835 823.632 403.03C822.541 409.926 823.148 417.281 826.531 423.384C826.799 423.864 827.089 424.359 827.115 424.906C827.107 425.356 827.008 425.8 826.823 426.211C824.852 431.547 822.823 436.979 819.249 441.412C818.42 442.448 817.132 443.524 815.884 443.046C815.225 442.793 814.796 442.172 814.407 441.584L810.694 435.962C809 433.396 807.284 430.785 806.385 427.842C804.687 422.287 806.099 416.3 807.712 410.719C809.325 405.138 811.156 399.369 810.264 393.629L808.222 384.162Z" fill="#5F130D"/>
<path d="M809.058 413.219C816.135 422.665 820.785 433.704 822.601 445.367C823.32 450.02 823.579 454.733 823.717 459.449C823.844 463.741 823.87 468.04 823.591 472.325C823.263 477.327 822.519 482.293 821.365 487.172C818.037 485.335 814.001 485.486 810.328 484.501C807.992 483.879 805.809 482.786 803.67 481.658C801.229 480.367 798.781 478.986 796.872 476.992C794.503 474.52 793.113 471.244 792.36 467.903C791.323 463.294 791.408 458.504 792.608 453.934L809.058 413.219Z" fill="#F83B4F"/>
<path d="M809.771 454.998C814.314 442.727 813.573 429.576 811.173 416.184C810.496 415.182 809.796 414.192 809.069 413.225L792.619 453.934C791.419 458.504 791.334 463.294 792.37 467.903C793.124 471.244 794.513 474.53 796.882 476.992C798.792 478.986 801.231 480.367 803.681 481.658C805.82 482.786 808.002 483.873 810.338 484.501C813.544 485.36 817.025 485.356 820.071 486.571C814.687 478.738 809.717 471.068 805.081 462.741C808.114 461.318 808.822 457.804 809.771 454.998Z" fill="#B62C43"/>
<path d="M718.129 453.82H781.169L821.479 478.543L813.769 486.253H714.261L718.129 453.82Z" fill="#C27D56"/>
<path d="M790.699 422.127C785.237 430.135 780.475 438.599 776.465 447.423C772.303 443.82 768.473 439.851 765.022 435.562C763.682 438.445 761.386 440.774 758.523 442.155C760.422 446.038 761.942 449.892 763.841 453.774C766.37 458.951 769.225 464.464 774.39 467.027C775.669 467.663 777.082 468.094 778.517 468.007C780.838 467.866 782.88 466.392 784.456 464.681C787.67 461.196 789.463 456.645 790.836 452.108C792.209 447.57 793.244 442.897 795.249 438.6L790.699 422.127Z" fill="#B62C43"/>
<path d="M799.141 411.585C800.81 408.733 803.076 406.284 805.225 403.782C807.375 401.281 809.483 398.657 810.75 395.607C812.017 392.556 812.378 388.98 811.028 385.976C809.344 382.219 805.337 379.97 801.316 379.107C794.981 377.734 784.462 381.099 782.024 384.698C784.37 387.852 785.803 391.591 786.166 395.505C786.356 397.742 786.189 400.04 786.843 402.188C787.642 404.811 789.576 406.913 791.455 408.916L799.141 411.585Z" fill="#5F130D"/>
<path d="M796.758 407.28C797.665 407.628 798.649 407.037 799.378 406.396C800.309 405.567 801.161 404.542 801.339 403.31C801.517 402.078 800.786 400.655 799.56 400.446C799.015 400.389 798.465 400.464 797.955 400.664C796.722 401.058 795.54 401.598 794.435 402.271C793.886 401.152 792.809 400.2 791.898 399.357C791.155 398.71 790.548 397.922 790.111 397.04C789.49 395.675 789.521 394.085 789.904 392.633C790.287 391.182 790.981 389.84 791.674 388.51L792.83 386.292C789.229 385.568 785.667 385.145 782.022 384.694C780.774 386.108 779.831 387.766 779.254 389.562C778.664 391.399 778.469 393.35 777.804 395.153C777.288 396.543 776.504 397.817 775.495 398.903C774.916 399.525 774.207 400.303 774.495 401.105C774.793 401.933 775.945 402.084 776.516 402.761C776.448 403.285 776.386 403.83 776.324 404.381C777.078 404.625 777.852 404.803 778.637 404.911C779.175 404.987 779.719 405.019 780.262 405.006C780.109 405.513 779.585 405.807 779.088 405.996C778.129 406.357 777.107 406.521 776.083 406.478C776.061 406.671 776.036 406.861 776.013 407.048C775.843 408.394 775.69 409.843 776.336 411.036C776.831 411.949 777.746 412.583 778.73 412.916C779.714 413.25 780.77 413.312 781.807 413.306C783.763 413.29 785.709 413.04 787.605 412.562C788.452 413.666 789.353 414.645 790.198 415.749C790.242 415.822 790.309 415.879 790.388 415.911C790.444 415.917 790.501 415.912 790.555 415.895C790.608 415.879 790.658 415.852 790.701 415.815C793.71 413.875 797.4 413.273 800.539 411.552L796.758 407.28Z" fill="#FF966C"/>
<path d="M780.256 405.02C779.713 405.033 779.169 405.001 778.631 404.925C777.845 404.817 777.071 404.64 776.317 404.395C776.237 405.099 776.061 406.607 775.978 407.294C777.001 407.365 778.025 407.176 778.956 406.745C779.711 406.364 780.103 405.528 780.256 405.02Z" fill="#B62C43"/>
<path d="M799.868 409.257C795.447 410.995 790.937 412.778 787.309 415.853C786.688 416.377 786.087 416.95 785.704 417.667C785.321 418.383 785.189 419.274 785.524 420.013C785.971 420.996 787.135 421.537 787.491 422.558C787.79 423.417 787.45 424.455 787.943 425.219C788.4 425.929 789.428 426.076 790.221 425.792C791.014 425.509 791.652 424.902 792.291 424.343C794.764 422.155 797.613 420.435 800.701 419.267C802.55 418.569 804.478 418.072 806.263 417.223C807.298 416.726 808.427 415.867 808.334 414.716C808.272 413.972 807.712 413.378 807.12 412.912C806.558 412.46 805.951 412.065 805.31 411.734C804.927 411.537 804.511 411.342 804.287 410.972C804.168 410.719 804.073 410.456 804.006 410.185C803.339 408.352 801.268 408.706 799.868 409.257Z" fill="#FFBA55"/>
<path d="M781.898 452.019C781.358 451.563 780.538 451.741 779.886 452.019C777.392 453.045 775.398 455.005 774.329 457.481C773.261 459.957 773.203 462.753 774.168 465.271C774.508 466.158 775.137 467.11 776.086 467.148C776.769 467.174 777.361 466.709 777.875 466.259C779.377 464.945 780.807 463.549 782.157 462.078L781.898 452.019Z" fill="#FF966C"/>
<path d="M751.141 422.411C750.418 421.979 749.639 421.649 748.826 421.429C748.429 421.316 748.008 421.316 747.61 421.429C746.896 421.676 746.494 422.506 746.59 423.254C746.685 424.001 747.192 424.647 747.809 425.08C748.446 425.485 749.139 425.794 749.865 425.997C751.28 426.484 752.729 426.864 754.2 427.134C754.69 427.217 755.283 427.242 755.589 426.85C756.919 425.148 752.096 422.939 751.141 422.411Z" fill="#FF966C"/>
<path d="M748.936 427.318C748.107 427.318 747.099 427.552 746.826 428.354C746.761 428.586 746.753 428.831 746.802 429.067C746.851 429.303 746.955 429.525 747.107 429.712C747.412 430.086 747.778 430.405 748.19 430.656C747.913 430.828 747.687 431.072 747.537 431.362C747.387 431.652 747.319 431.977 747.338 432.302C747.358 432.628 747.466 432.942 747.65 433.212C747.833 433.481 748.087 433.696 748.383 433.833C748.526 433.877 748.653 433.963 748.747 434.079C748.851 434.253 748.764 434.475 748.716 434.674C748.582 435.249 748.838 435.862 749.24 436.297C749.663 436.71 750.153 437.048 750.69 437.295C751.849 437.902 753.059 438.482 754.361 438.614C754.659 438.665 754.966 438.63 755.245 438.513C755.732 438.271 755.914 437.629 755.777 437.103C755.641 436.577 755.262 436.148 754.86 435.782C754.434 435.442 754.043 435.062 753.692 434.645C753.964 434.8 754.276 434.874 754.589 434.856C754.901 434.839 755.203 434.732 755.456 434.547C755.71 434.363 755.904 434.109 756.017 433.817C756.13 433.525 756.156 433.206 756.092 432.899C755.885 431.864 754.75 431.303 753.748 430.936C754.576 431.238 754.902 430.681 754.804 429.926C754.68 428.958 754.077 428.279 753.187 427.919C751.947 427.403 750.265 427.31 748.936 427.318Z" fill="#FF966C"/>
<path d="M756.796 421.773H774.568V427.53C774.568 429.887 773.631 432.149 771.964 433.816C770.297 435.483 768.036 436.42 765.678 436.42C763.32 436.42 761.059 435.483 759.392 433.816C757.725 432.149 756.788 429.887 756.788 427.53V421.773H756.796Z" fill="#F9D8AD"/>
<path d="M752.812 473.505C761.485 473.505 768.515 470.777 768.515 467.413C768.515 464.048 761.485 461.32 752.812 461.32C744.14 461.32 737.11 464.048 737.11 467.413C737.11 470.777 744.14 473.505 752.812 473.505Z" fill="#E8C395"/>
<path d="M752.812 469.991C756.481 469.991 759.455 468.837 759.455 467.413C759.455 465.989 756.481 464.835 752.812 464.835C749.143 464.835 746.169 465.989 746.169 467.413C746.169 468.837 749.143 469.991 752.812 469.991Z" fill="#F9D8AD"/>
<path d="M762.42 342.947H717.893V399.125H762.42V342.947Z" fill="#99583F"/>
<path d="M757.751 342.947H717.893V393.236H757.751V342.947Z" fill="#8BC3C0"/>
<path d="M757.753 352.081V359.453H745.078C746.32 358.648 748.405 359.078 749.799 358.588C750.393 358.38 750.938 357.952 751.568 357.966C752.152 357.966 752.669 358.36 753.247 358.438C753.609 358.478 753.975 358.399 754.288 358.212C754.601 358.025 754.845 357.741 754.982 357.403C755.037 357.172 755.133 356.951 755.264 356.753C755.525 356.453 755.997 356.465 756.343 356.264C756.999 355.887 756.978 354.957 756.949 354.193C756.92 353.429 757.003 352.185 757.753 352.081Z" fill="white"/>
<path d="M757.751 359.453H717.112V362.265H757.751V359.453Z" fill="#99583F"/>
<path d="M757.753 382.219V393.236H735.463C736.064 392.631 737.095 392.296 737.948 392.302C738.491 392.302 739.048 392.447 739.565 392.291C740.008 392.159 740.36 391.83 740.777 391.629C741.398 391.331 742.098 391.326 742.777 391.366C744.11 391.447 745.429 391.675 746.711 392.047C747.486 392.273 748.287 392.552 749.076 392.389C749.776 392.244 750.404 391.768 751.118 391.786C751.603 391.807 752.075 392.07 752.553 391.979C753.031 391.888 753.381 391.461 753.68 391.061C754.169 390.434 754.614 389.774 755.013 389.086C755.434 388.262 755.788 387.405 756.071 386.524C756.345 385.75 756.62 384.953 756.583 384.133C756.568 383.791 756.5 383.441 756.583 383.11C756.666 382.778 757.419 382.132 757.753 382.219Z" fill="white"/>
<path d="M744.09 350.87C744.09 350.806 744.074 350.741 744.063 350.677C744.053 350.613 744.016 350.563 743.991 350.505C743.948 350.422 743.885 350.35 743.806 350.298C743.762 350.255 743.707 350.224 743.647 350.207C743.592 350.174 743.529 350.157 743.465 350.158C743.402 350.139 743.335 350.139 743.272 350.158C743.208 350.158 743.145 350.175 743.09 350.207C743.001 350.236 742.921 350.288 742.858 350.356L742.746 350.501L742.674 350.673C742.674 350.737 742.657 350.802 742.647 350.866C742.636 350.93 742.665 350.992 742.674 351.056C742.682 351.12 742.721 351.172 742.746 351.228C742.789 351.312 742.853 351.384 742.933 351.435C742.976 351.48 743.03 351.512 743.09 351.528C743.176 351.574 743.272 351.595 743.37 351.591H743.438C743.526 351.594 743.614 351.574 743.693 351.533C743.772 351.505 743.843 351.458 743.9 351.396L744.003 351.263C744.062 351.162 744.093 351.047 744.092 350.93L744.09 350.87Z" fill="white"/>
<path d="M748.461 346.356L748.36 346.302C748.272 346.251 748.172 346.225 748.071 346.225C747.97 346.225 747.87 346.251 747.782 346.302C747.695 346.353 747.624 346.425 747.573 346.512C747.523 346.6 747.497 346.698 747.496 346.799C747.497 346.899 747.523 346.997 747.573 347.084C747.623 347.171 747.695 347.243 747.782 347.294C747.87 347.345 747.969 347.372 748.071 347.372C748.173 347.372 748.272 347.345 748.36 347.294L748.461 347.242C748.539 347.197 748.603 347.132 748.647 347.054C748.692 346.976 748.715 346.888 748.715 346.799C748.715 346.709 748.692 346.621 748.647 346.543C748.603 346.466 748.539 346.401 748.461 346.356Z" fill="white"/>
<path d="M750.831 351.046C749.485 351.046 749.48 353.139 750.831 353.139C752.181 353.139 752.181 351.046 750.831 351.046Z" fill="white"/>
<path d="M736.486 354.079C736.387 354.079 736.291 354.119 736.221 354.189C736.151 354.26 736.111 354.355 736.111 354.454C736.111 354.554 736.151 354.649 736.221 354.719C736.291 354.79 736.387 354.829 736.486 354.829C736.585 354.829 736.681 354.79 736.751 354.719C736.821 354.649 736.861 354.554 736.861 354.454C736.861 354.355 736.821 354.26 736.751 354.189C736.681 354.119 736.585 354.079 736.486 354.079V354.079Z" fill="white"/>
<path d="M734.689 349.928C734.689 349.897 734.666 349.864 734.654 349.83C734.641 349.797 734.619 349.746 734.6 349.704C734.568 349.643 734.521 349.592 734.463 349.555C734.431 349.523 734.391 349.499 734.347 349.487C734.283 349.454 734.212 349.438 734.14 349.441L733.999 349.46L733.873 349.514C733.812 349.545 733.761 349.593 733.724 349.65C733.677 349.701 733.644 349.763 733.629 349.83C733.616 349.864 733.604 349.897 733.594 349.928C733.567 350.027 733.567 350.131 733.594 350.23C733.619 350.325 733.669 350.411 733.738 350.481C733.847 350.585 733.99 350.644 734.14 350.646C734.29 350.641 734.432 350.582 734.542 350.481C734.612 350.411 734.662 350.325 734.687 350.23C734.714 350.131 734.715 350.027 734.689 349.928V349.928Z" fill="white"/>
<path d="M730.965 352.201L730.932 352.16C730.914 352.131 730.893 352.104 730.872 352.077C730.839 352.021 730.792 351.974 730.735 351.941C730.679 351.909 730.615 351.891 730.549 351.891C730.449 351.891 730.354 351.931 730.283 352.002C730.213 352.072 730.173 352.168 730.172 352.268C730.174 352.334 730.192 352.399 730.224 352.456C730.257 352.512 730.303 352.558 730.359 352.591L730.441 352.651L730.479 352.68C730.54 352.721 730.612 352.741 730.686 352.738C730.776 352.736 730.861 352.699 730.924 352.635C730.988 352.572 731.024 352.486 731.025 352.396C731.025 352.327 731.004 352.259 730.965 352.201V352.201Z" fill="white"/>
<path d="M745.635 356.175C745.608 356.079 745.557 355.991 745.486 355.92C745.375 355.813 745.226 355.753 745.072 355.753C744.995 355.748 744.918 355.765 744.85 355.802C744.779 355.826 744.715 355.866 744.664 355.92C744.609 355.971 744.568 356.036 744.546 356.107C744.509 356.175 744.492 356.251 744.496 356.328C744.496 356.38 744.508 356.432 744.517 356.482C744.543 356.578 744.594 356.665 744.664 356.736C744.775 356.844 744.923 356.905 745.078 356.906C745.155 356.909 745.232 356.892 745.301 356.856C745.371 356.83 745.433 356.789 745.486 356.736C745.538 356.684 745.579 356.621 745.606 356.552C745.641 356.483 745.658 356.406 745.656 356.328L745.635 356.175Z" fill="white"/>
<path d="M755.703 346.231C754.972 346.231 754.972 347.366 755.703 347.366C756.434 347.366 756.434 346.231 755.703 346.231Z" fill="white"/>
<path d="M742.371 343.419C742.353 343.369 742.332 343.32 742.309 343.272C742.274 343.22 742.235 343.17 742.193 343.123C742.144 343.069 742.082 343.029 742.013 343.007C741.949 342.973 741.878 342.957 741.806 342.959L741.642 342.97C741.549 342.996 741.464 343.046 741.396 343.115C741.353 343.161 741.314 343.211 741.28 343.264C741.228 343.357 741.199 343.462 741.197 343.568C741.196 343.581 741.196 343.593 741.197 343.606C741.194 343.685 741.212 343.763 741.249 343.833C741.272 343.907 741.314 343.974 741.371 344.026C741.423 344.082 741.489 344.124 741.562 344.148C741.633 344.185 741.712 344.203 741.792 344.2L741.949 344.177C742.048 344.15 742.139 344.098 742.212 344.026L742.305 343.906C742.358 343.814 742.385 343.711 742.386 343.606V343.568C742.386 343.525 742.378 343.473 742.371 343.419Z" fill="white"/>
<path d="M754.481 370.194C754.419 369.973 754.302 369.771 754.139 369.608L753.87 369.401C753.667 369.283 753.436 369.221 753.201 369.221C753.024 369.213 752.847 369.252 752.69 369.335C752.525 369.388 752.378 369.483 752.261 369.61C752.135 369.727 752.041 369.874 751.988 370.037C751.905 370.194 751.865 370.371 751.874 370.548C751.889 370.666 751.905 370.784 751.922 370.9C751.982 371.122 752.099 371.324 752.261 371.486L752.53 371.693C752.734 371.813 752.965 371.876 753.201 371.876C753.379 371.883 753.555 371.844 753.713 371.762C753.949 371.657 754.151 371.487 754.295 371.273C754.44 371.058 754.521 370.807 754.529 370.548L754.481 370.194Z" fill="white"/>
<path d="M742.471 366.113C742.447 366.044 742.407 365.982 742.355 365.933C742.306 365.879 742.244 365.839 742.174 365.817C742.11 365.784 742.039 365.768 741.967 365.769C741.82 365.769 741.678 365.828 741.574 365.933C741.522 365.984 741.48 366.046 741.452 366.114C741.424 366.182 741.41 366.255 741.41 366.328C741.41 366.372 741.41 366.415 741.41 366.461C741.408 366.533 741.424 366.604 741.458 366.668C741.501 366.766 741.571 366.849 741.66 366.909C741.748 366.969 741.852 367.002 741.959 367.005C742.031 367.005 742.103 366.991 742.17 366.963C742.237 366.936 742.297 366.895 742.348 366.844L742.435 366.734C742.485 366.65 742.51 366.554 742.51 366.456C742.51 366.411 742.51 366.367 742.51 366.324C742.515 366.251 742.501 366.179 742.471 366.113V366.113Z" fill="white"/>
<path d="M750.375 364.44C750.345 364.335 750.288 364.239 750.211 364.162C750.134 364.085 750.039 364.029 749.934 363.998C749.788 363.967 749.637 363.97 749.493 364.009C749.347 364.055 749.215 364.135 749.108 364.243C749.018 364.333 748.953 364.445 748.92 364.568C748.888 364.691 748.888 364.82 748.921 364.943V364.955C748.954 365.074 749.017 365.182 749.104 365.269C749.191 365.356 749.299 365.419 749.418 365.452C749.542 365.485 749.673 365.485 749.797 365.452C749.915 365.419 750.023 365.357 750.11 365.27C750.207 365.184 750.273 365.069 750.3 364.943C750.345 364.868 750.375 364.785 750.388 364.699C750.401 364.612 750.396 364.524 750.375 364.44V364.44Z" fill="white"/>
<path d="M756.242 363.603C756.139 363.503 756.002 363.446 755.858 363.444C755.786 363.44 755.715 363.457 755.651 363.491C755.584 363.511 755.524 363.55 755.477 363.603C755.41 363.671 755.361 363.755 755.337 363.847C755.313 363.94 755.313 364.037 755.339 364.129C755.339 364.168 755.359 364.21 755.372 364.251L755.421 364.371C755.452 364.429 755.497 364.478 755.552 364.514C755.584 364.544 755.622 364.566 755.664 364.578C755.724 364.609 755.791 364.624 755.858 364.622L755.993 364.603L756.115 364.553C756.173 364.523 756.221 364.478 756.256 364.423C756.301 364.374 756.332 364.315 756.347 364.251C756.347 364.21 756.368 364.168 756.38 364.129C756.406 364.037 756.406 363.94 756.382 363.847C756.357 363.755 756.309 363.671 756.242 363.603V363.603Z" fill="white"/>
<path d="M747.17 373.274C747.17 373.14 747.134 373.008 747.066 372.892C747.006 372.706 746.898 372.538 746.753 372.406L746.449 372.17L746.087 372.017L745.685 371.963L745.283 372.017L744.923 372.17C744.754 372.262 744.611 372.396 744.509 372.559C744.415 372.651 744.348 372.766 744.314 372.892C744.219 373.071 744.174 373.272 744.184 373.474C744.179 373.756 744.251 374.033 744.391 374.278C744.478 374.445 744.607 374.588 744.765 374.692C744.905 374.82 745.076 374.909 745.26 374.951L745.648 375.005C745.793 375.003 745.937 374.98 746.076 374.936H746.091L746.128 374.922C746.184 374.901 746.238 374.878 746.292 374.851L746.453 374.785C746.622 374.692 746.764 374.558 746.867 374.396C746.96 374.303 747.027 374.189 747.062 374.062C747.13 373.947 747.166 373.815 747.165 373.681C747.203 373.548 747.205 373.407 747.17 373.274V373.274Z" fill="white"/>
<path d="M732.575 381.9V381.878C732.54 381.751 732.473 381.635 732.38 381.542C732.287 381.448 732.171 381.381 732.044 381.345H732.022C731.882 381.306 731.733 381.306 731.593 381.345C731.474 381.378 731.364 381.437 731.272 381.519C731.179 381.601 731.107 381.703 731.06 381.817C731.013 381.931 730.994 382.055 731.002 382.178C731.011 382.301 731.047 382.421 731.109 382.527C731.171 382.634 731.257 382.725 731.36 382.793C731.463 382.862 731.58 382.905 731.702 382.921C731.825 382.937 731.949 382.925 732.066 382.885C732.183 382.845 732.289 382.779 732.376 382.691C732.475 382.594 732.547 382.472 732.583 382.337C732.621 382.194 732.618 382.042 732.575 381.9V381.9Z" fill="white"/>
<path d="M735.07 370.225L734.989 370.035C734.94 369.944 734.869 369.866 734.782 369.809C734.732 369.761 734.671 369.726 734.604 369.708C734.509 369.656 734.402 369.632 734.295 369.637L734.088 369.666L733.895 369.747C733.722 369.86 733.593 370.029 733.529 370.225C733.517 370.264 733.511 370.303 733.51 370.343C733.487 370.45 733.492 370.56 733.525 370.664C733.526 370.673 733.526 370.682 733.525 370.691L733.541 370.753L733.62 370.94C733.671 371.025 733.742 371.096 733.827 371.147C733.875 371.194 733.934 371.229 733.999 371.246C734.09 371.296 734.193 371.319 734.297 371.315L734.504 371.286L734.691 371.207C734.781 371.158 734.857 371.087 734.91 371C734.978 370.924 735.026 370.833 735.049 370.735L735.065 370.673C735.065 370.664 735.065 370.655 735.065 370.646C735.065 370.573 735.084 370.503 735.092 370.439C735.094 370.367 735.087 370.295 735.07 370.225V370.225Z" fill="white"/>
<path d="M736.234 365.245C736.209 365.153 736.161 365.07 736.093 365.003C736.026 364.935 735.942 364.886 735.851 364.86C735.755 364.835 735.654 364.835 735.559 364.86H735.511H735.486C735.409 364.879 735.338 364.916 735.279 364.97C735.234 364.996 735.197 365.033 735.171 365.077C735.151 365.096 735.134 365.119 735.122 365.144C735.094 365.194 735.071 365.248 735.055 365.303L735.037 365.353C735.01 365.452 735.01 365.556 735.037 365.655C735.063 365.75 735.114 365.836 735.184 365.906C735.253 365.975 735.34 366.026 735.434 366.053C735.533 366.08 735.638 366.08 735.737 366.053L735.78 366.036C735.835 366.017 735.888 365.995 735.94 365.97C736.012 365.932 736.074 365.876 736.12 365.808C736.157 365.772 736.183 365.726 736.196 365.676C736.212 365.653 736.223 365.627 736.23 365.599C736.228 365.59 736.228 365.581 736.23 365.572C736.23 365.555 736.23 365.538 736.23 365.521C736.255 365.431 736.256 365.336 736.234 365.245Z" fill="white"/>
<path d="M740.4 373.808C740.377 373.756 740.356 373.704 740.334 373.65C740.294 373.575 740.236 373.512 740.164 373.466C740.1 373.409 740.023 373.368 739.94 373.348L739.801 373.323C739.685 373.291 739.561 373.29 739.444 373.321C739.327 373.352 739.22 373.414 739.135 373.499L739.029 373.638C738.967 373.743 738.935 373.862 738.934 373.984C738.93 374.075 738.951 374.166 738.994 374.247C739.021 374.332 739.069 374.408 739.135 374.468C739.219 374.552 739.323 374.612 739.437 374.644C739.556 374.677 739.682 374.677 739.801 374.644L739.94 374.62L740.098 374.553C740.172 374.513 740.236 374.455 740.282 374.383C740.322 374.342 740.351 374.292 740.367 374.236C740.408 374.159 740.428 374.072 740.423 373.984C740.418 373.926 740.41 373.866 740.4 373.808Z" fill="white"/>
<path d="M737.399 378.945C737.338 378.84 737.251 378.753 737.146 378.692C737.04 378.631 736.921 378.599 736.799 378.599C736.677 378.599 736.558 378.631 736.452 378.692C736.347 378.753 736.259 378.84 736.198 378.945C736.135 379.051 736.102 379.172 736.103 379.295C736.102 379.419 736.135 379.541 736.198 379.647L736.225 379.697C736.26 379.758 736.302 379.814 736.35 379.865C736.406 379.926 736.477 379.971 736.557 379.995C736.632 380.035 736.716 380.054 736.801 380.051L736.969 380.028C737.074 379.999 737.171 379.942 737.248 379.865C737.296 379.814 737.339 379.757 737.375 379.697C737.375 379.68 737.391 379.664 737.401 379.647C737.463 379.54 737.496 379.419 737.497 379.295C737.495 379.172 737.462 379.052 737.399 378.945V378.945Z" fill="white"/>
<path d="M748.203 381.128C747.343 381.128 747.341 382.463 748.203 382.463C749.064 382.463 749.064 381.128 748.203 381.128Z" fill="white"/>
<path d="M755.367 376.117C755.33 375.985 755.259 375.866 755.16 375.771L755.001 375.647C754.88 375.578 754.743 375.541 754.603 375.539C754.498 375.534 754.392 375.558 754.299 375.607C754.202 375.639 754.115 375.695 754.046 375.771C753.971 375.84 753.915 375.927 753.883 376.024C753.834 376.117 753.811 376.222 753.816 376.328C753.816 376.396 753.835 376.467 753.843 376.535C753.881 376.666 753.952 376.786 754.05 376.881L754.21 377.005C754.33 377.076 754.468 377.113 754.607 377.113C754.713 377.117 754.817 377.094 754.91 377.044C755.007 377.013 755.095 376.956 755.165 376.881C755.24 376.812 755.295 376.725 755.326 376.628C755.376 376.535 755.399 376.431 755.394 376.326L755.367 376.117Z" fill="white"/>
<path d="M753.986 383.81C753.956 383.701 753.898 383.603 753.818 383.524C753.695 383.404 753.531 383.335 753.359 383.333C753.272 383.329 753.185 383.348 753.108 383.389C753.028 383.415 752.957 383.461 752.901 383.524C752.821 383.603 752.763 383.701 752.733 383.81C752.704 383.923 752.704 384.042 752.733 384.155C752.738 384.19 752.745 384.225 752.754 384.259L752.816 384.408C752.854 384.481 752.911 384.542 752.98 384.586C753.018 384.625 753.066 384.653 753.119 384.667C753.193 384.706 753.277 384.725 753.361 384.721L753.529 384.698L753.68 384.636C753.751 384.597 753.812 384.541 753.856 384.472C753.91 384.414 753.949 384.343 753.97 384.265C753.97 384.232 753.982 384.195 753.988 384.162C754.02 384.046 754.019 383.925 753.986 383.81V383.81Z" fill="white"/>
<path d="M743.003 386.419C742.911 386.138 742.725 385.897 742.477 385.735C742.302 385.633 742.102 385.579 741.899 385.58C741.782 385.575 741.665 385.591 741.553 385.628C741.409 385.662 741.275 385.734 741.166 385.835C741.043 385.914 740.942 386.024 740.874 386.154C740.837 386.245 740.798 386.334 740.76 386.425C740.713 386.572 740.706 386.728 740.74 386.879C740.74 386.979 740.766 387.077 740.816 387.164C740.862 387.305 740.943 387.431 741.052 387.531L741.282 387.707C741.39 387.771 741.509 387.815 741.632 387.839C741.82 387.887 742.016 387.887 742.204 387.839L742.477 387.723C742.649 387.624 742.791 387.481 742.891 387.309C742.973 387.182 743.019 387.036 743.026 386.885C743.061 386.73 743.053 386.569 743.003 386.419V386.419Z" fill="white"/>
<path d="M744.396 379.208C744.355 379.135 744.295 379.074 744.222 379.032C744.149 378.99 744.066 378.967 743.982 378.967C743.898 378.967 743.815 378.99 743.743 379.032C743.67 379.074 743.61 379.135 743.568 379.208C743.524 379.281 743.501 379.364 743.502 379.449C743.502 379.533 743.525 379.616 743.568 379.689C743.568 379.703 743.589 379.72 743.601 379.734C743.623 379.767 743.646 379.798 743.672 379.827L743.759 379.896C743.825 379.934 743.901 379.954 743.978 379.954L744.092 379.939C744.111 379.936 744.13 379.928 744.146 379.917C744.2 379.899 744.248 379.869 744.287 379.827L744.353 379.738L744.39 379.689C744.433 379.616 744.455 379.533 744.454 379.449C744.457 379.365 744.437 379.282 744.396 379.208V379.208Z" fill="white"/>
<path d="M736.074 388.454L735.993 388.262C735.945 388.17 735.873 388.092 735.786 388.036C735.71 387.964 735.615 387.914 735.513 387.891L735.457 387.874C735.317 387.836 735.169 387.834 735.029 387.871C734.888 387.907 734.759 387.98 734.656 388.082C734.612 388.135 734.569 388.191 734.527 388.247C734.453 388.373 734.414 388.516 734.413 388.661C734.409 388.772 734.434 388.881 734.486 388.978C734.518 389.08 734.577 389.172 734.656 389.243C734.759 389.345 734.888 389.418 735.029 389.454C735.169 389.49 735.317 389.489 735.457 389.45L735.513 389.434L735.705 389.353C735.797 389.304 735.875 389.233 735.931 389.146C735.981 389.097 736.018 389.035 736.037 388.968C736.086 388.872 736.11 388.765 736.105 388.657L736.074 388.454Z" fill="white"/>
<path d="M728.47 388.752L728.383 388.545C728.33 388.448 728.254 388.364 728.162 388.303C728.079 388.228 727.978 388.176 727.87 388.15L727.814 388.133C727.664 388.091 727.506 388.089 727.355 388.129C727.205 388.169 727.068 388.248 726.959 388.359L726.822 388.537C726.742 388.671 726.701 388.824 726.702 388.98C726.697 389.097 726.722 389.214 726.776 389.318C726.811 389.427 726.874 389.524 726.959 389.601C727.068 389.711 727.205 389.79 727.356 389.83C727.506 389.87 727.664 389.869 727.814 389.827L727.87 389.811L728.077 389.724C728.175 389.671 728.258 389.595 728.319 389.502C728.371 389.449 728.408 389.383 728.429 389.312C728.482 389.21 728.508 389.095 728.503 388.98L728.47 388.752Z" fill="white"/>
<path d="M751.168 389.73C750.319 389.73 750.319 391.047 751.168 391.047C752.017 391.047 752.021 389.73 751.168 389.73Z" fill="white"/>
<path d="M805.776 342.346H778.562V370.312H805.776V342.346Z" fill="#C27D56"/>
<path d="M801.97 346.256H782.366V366.403H801.97V346.256Z" fill="#F9D8AD"/>
<path d="M796.429 351.951H787.91V360.706H796.429V351.951Z" fill="#8BC3C0"/>
<path d="M794.954 389.026C795.443 388.695 795.955 388.401 796.487 388.146C796.758 388.013 797.154 387.939 797.301 388.191C797.427 388.417 797.238 388.688 797.247 388.945C797.261 389.359 797.767 389.577 798.168 389.506C798.57 389.436 798.914 389.181 799.299 389.046C801.256 388.355 803.345 390.804 805.275 390.042C805.878 389.806 806.489 389.264 807.079 389.529C807.331 389.643 807.532 389.895 807.808 389.9C808.472 389.9 808.359 388.701 808.953 388.402C809.11 388.342 809.282 388.338 809.442 388.389C809.602 388.44 809.74 388.544 809.833 388.684C810.012 388.969 810.111 389.298 810.121 389.634C810.238 390.852 810.125 392.081 809.787 393.256C809.634 393.788 809.282 394.41 808.731 394.352C808.853 394.052 808.896 393.726 808.853 393.405C808.811 393.084 808.686 392.779 808.49 392.522C808.295 392.264 808.035 392.061 807.738 391.934C807.44 391.807 807.115 391.759 806.793 391.796C806.153 391.863 805.571 392.254 804.929 392.254C804.184 392.254 803.556 391.736 802.885 391.413C801.982 390.98 800.954 390.884 799.986 391.142C799.28 391.335 798.613 391.714 797.885 391.747C797.156 391.78 796.309 391.264 796.377 390.535L794.033 392.204C793.895 392.337 793.711 392.411 793.519 392.411C793.122 392.353 793.093 391.79 793.194 391.399C793.623 389.725 794.39 388.158 795.449 386.793C795.18 387.51 795.013 388.262 794.954 389.026V389.026Z" fill="#99583F"/>
<path d="M780.219 396.106C780.109 396.657 779.747 397.048 779.407 396.982C779.068 396.915 778.883 396.414 778.993 395.864C779.103 395.313 779.463 394.921 779.803 394.99C780.142 395.058 780.327 395.567 780.219 396.106Z" fill="#5F130D"/>
<path d="M782.294 389.62C781.536 389.325 780.765 389.065 779.981 388.841C780.095 388.654 780.274 388.516 780.484 388.451C780.694 388.387 780.92 388.401 781.12 388.492C781.569 388.67 781.964 389.264 782.294 389.62Z" fill="#5F130D"/>
<path d="M794.486 416.47C791.264 419.516 789.16 423.55 787.446 427.635C785.33 432.66 783.705 437.878 782.594 443.216C781.863 446.724 781.318 450.385 779.407 453.418C778.504 454.854 777.336 456.092 776.338 457.469C774.57 459.931 773.406 462.901 773.46 465.932C773.514 468.964 774.893 472.031 777.376 473.77C779.337 475.147 781.788 475.615 784.174 475.841C785.481 475.961 786.816 476.015 788.088 475.7C790.345 475.141 792.177 473.478 793.579 471.625C794.745 470.082 795.681 468.38 796.584 466.671C802.405 455.66 807.114 444.097 810.643 432.152C811.678 428.613 812.635 424.96 812.355 421.282C812.111 418.062 810.284 412.43 806.433 412.049C802.041 411.608 797.628 413.498 794.486 416.47Z" fill="#F83B4F"/>
<path d="M798.943 401.655C798.997 401.627 799.058 401.616 799.119 401.624C799.182 401.65 799.234 401.697 799.266 401.757C799.521 402.144 799.688 402.583 799.752 403.043C799.515 402.756 799.206 402.537 798.856 402.409C798.468 402.868 798.048 403.299 797.599 403.699C797.688 404.072 798.069 404.331 798.125 404.71C798.137 404.852 798.112 404.996 798.055 405.127C797.997 405.258 797.907 405.372 797.793 405.459C797.566 405.632 797.31 405.764 797.038 405.851C796.924 405.776 796.949 405.594 797.038 405.484C797.127 405.374 797.245 405.302 797.317 405.184C797.524 404.851 797.21 404.441 796.918 404.175C796.76 404.037 796.605 403.896 796.45 403.761C796.37 403.705 796.315 403.621 796.296 403.525C796.255 402.734 798.417 401.873 798.943 401.655Z" fill="#FC571E"/>
<path d="M797.069 407.307C797.014 407.583 796.879 407.838 796.68 408.038C796.482 408.237 796.228 408.374 795.952 408.429C795.675 408.485 795.388 408.457 795.128 408.35C794.867 408.243 794.644 408.06 794.487 407.826C794.33 407.592 794.246 407.316 794.246 407.034C794.245 406.752 794.329 406.477 794.485 406.242C794.642 406.008 794.864 405.825 795.125 405.717C795.385 405.609 795.672 405.58 795.948 405.635C796.318 405.708 796.644 405.926 796.855 406.239C797.065 406.552 797.142 406.936 797.069 407.307Z" fill="white"/>
<path d="M828.534 337.671C829.754 335.452 829.295 332.857 827.509 331.875C825.724 330.894 823.287 331.896 822.067 334.115C820.847 336.334 821.306 338.929 823.092 339.911C824.878 340.892 827.315 339.89 828.534 337.671Z" fill="#F83B4F"/>
<path d="M815.114 337.672C816.334 335.453 815.875 332.858 814.089 331.876C812.303 330.895 809.867 331.897 808.647 334.116C807.427 336.335 807.886 338.93 809.672 339.912C811.458 340.893 813.894 339.891 815.114 337.672Z" fill="#8BC3C0"/>
<path d="M794.604 335.882C794.211 338.308 795.615 340.276 797.744 340.276C799.872 340.276 801.912 338.308 802.299 335.882C802.687 333.455 801.287 331.487 799.16 331.487C797.033 331.487 794.998 333.455 794.604 335.882Z" fill="#FFBA55"/>
<path d="M765.848 515.712C768.85 510.251 767.722 503.866 763.328 501.451C758.935 499.036 752.939 501.504 749.937 506.965C746.935 512.426 748.063 518.811 752.456 521.227C756.85 523.642 762.845 521.173 765.848 515.712Z" fill="#FFBA55"/>
<path d="M799.195 515.714C802.197 510.253 801.069 503.868 796.675 501.453C792.282 499.037 786.286 501.506 783.284 506.967C780.282 512.428 781.41 518.813 785.803 521.229C790.197 523.644 796.192 521.175 799.195 515.714Z" fill="#F83B4F"/>
<path d="M732.498 515.712C735.5 510.252 734.372 503.866 729.978 501.451C725.585 499.036 719.589 501.505 716.587 506.965C713.585 512.426 714.713 518.811 719.106 521.227C723.5 523.642 729.495 521.173 732.498 515.712Z" fill="#8BC3C0"/>
</svg>
