<svg width="384" height="454" viewBox="0 0 384 454" fill="none" xmlns="http://www.w3.org/2000/svg">
<path d="M111.317 266.6C107.817 285.8 93.9175 375.3 89.8175 400.6C89.5175 402.4 88.8175 403.1 86.8175 403.1H12.2175C4.61747 403.1 -0.88253 396.5 0.11747 389.2L58.7175 17.3002C60.2175 7.70022 68.8175 0.400222 78.7175 0.400222C231.017 0.400222 243.817 -3.29978 282.717 11.8002C342.817 35.1002 348.317 91.3002 326.717 152.1C305.217 214.7 254.217 241.6 186.617 242.4C143.217 243.1 117.117 235.4 111.317 266.6ZM357.017 122.7C355.217 121.4 354.517 120.9 354.017 124C352.017 135.4 348.917 146.5 345.217 157.6C305.317 271.4 194.717 261.5 140.717 261.5C134.617 261.5 130.617 264.8 129.817 270.9C107.217 411.3 102.717 440.6 102.717 440.6C101.717 447.7 106.217 453.5 113.317 453.5H176.817C185.417 453.5 192.517 447.2 194.217 438.6C194.917 433.2 193.117 444.7 208.617 347.3C213.217 325.3 222.917 327.6 237.917 327.6C308.917 327.6 364.317 298.8 380.817 215.3C387.317 180.5 385.417 143.9 357.017 122.7Z" fill="white"/>
</svg>
