<svg width="49" height="28" viewBox="0 0 49 28" fill="none" xmlns="http://www.w3.org/2000/svg">
<path d="M35.776 20.932C35.3722 20.932 34.9774 20.8108 34.6417 20.5837C34.3059 20.3566 34.0442 20.0337 33.8897 19.6561C33.7352 19.2784 33.6947 18.8628 33.7735 18.4619C33.8523 18.0609 34.0467 17.6926 34.3323 17.4036C34.6178 17.1145 34.9816 16.9176 35.3776 16.8379C35.7737 16.7581 36.1842 16.7991 36.5573 16.9555C36.9303 17.1119 37.2492 17.3769 37.4735 17.7168C37.6979 18.0567 37.8176 18.4563 37.8176 18.8651C37.8176 19.4133 37.6025 19.939 37.2196 20.3266C36.8367 20.7142 36.3174 20.932 35.776 20.932ZM13.224 20.932C12.8202 20.932 12.4255 20.8108 12.0898 20.5837C11.754 20.3566 11.4923 20.0337 11.3378 19.6561C11.1833 19.2784 11.1428 18.8628 11.2216 18.4619C11.3004 18.0609 11.4948 17.6926 11.7804 17.4036C12.0659 17.1145 12.4297 16.9176 12.8257 16.8379C13.2218 16.7581 13.6323 16.7991 14.0054 16.9555C14.3784 17.1119 14.6973 17.3769 14.9216 17.7168C15.146 18.0567 15.2657 18.4563 15.2657 18.8651C15.2657 19.4133 15.0506 19.939 14.6677 20.3266C14.2848 20.7142 13.7655 20.932 13.224 20.932ZM36.5076 8.48917L40.5858 1.34108C40.6507 1.24318 40.695 1.13285 40.7161 1.0169C40.7371 0.900948 40.7344 0.781858 40.7082 0.667004C40.6819 0.55215 40.6326 0.443976 40.5634 0.349185C40.4942 0.254393 40.4064 0.175001 40.3057 0.115926C40.2049 0.0568518 40.0932 0.0193526 39.9775 0.00575112C39.8619 -0.00785036 39.7447 0.00273555 39.6332 0.0368535C39.5217 0.0709714 39.4184 0.127895 39.3295 0.204097C39.2407 0.2803 39.1682 0.37416 39.1166 0.479863L34.9874 7.7201C31.689 6.22247 28.1149 5.44823 24.5 5.44823C20.8851 5.44823 17.311 6.22247 14.0126 7.7201L9.88337 0.479863C9.8318 0.37416 9.75935 0.2803 9.6705 0.204097C9.58164 0.127895 9.47828 0.0709714 9.36681 0.0368535C9.25535 0.00273555 9.13815 -0.00785036 9.02247 0.00575112C8.9068 0.0193526 8.79512 0.0568518 8.69434 0.115926C8.59357 0.175001 8.50585 0.254393 8.43661 0.349185C8.36737 0.443976 8.3181 0.55215 8.29184 0.667004C8.26558 0.781858 8.26289 0.900948 8.28394 1.0169C8.30499 1.13285 8.34933 1.24318 8.41422 1.34108L12.4924 8.48917C5.48953 12.3448 0.700972 19.5213 0 28H49C48.299 19.5213 43.5096 12.3448 36.5076 8.48917Z" fill="white"/>
</svg>
