<svg width="33" height="39" viewBox="0 0 33 39" fill="none" xmlns="http://www.w3.org/2000/svg">
<path d="M27.5906 20.6093C27.5731 17.4139 29.0284 15.0021 31.9742 13.2258C30.326 10.8837 27.8361 9.59505 24.5484 9.34255C21.436 9.09875 18.0343 11.1449 16.7893 11.1449C15.4742 11.1449 12.4583 9.42962 10.0911 9.42962C5.19899 9.50798 0 13.3042 0 21.0273C0 23.3085 0.420829 25.6652 1.26249 28.0973C2.3847 31.2927 6.43517 39.129 10.661 38.9984C12.8704 38.9461 14.4309 37.4398 17.3066 37.4398C20.0946 37.4398 21.5412 38.9984 24.0048 38.9984C28.2657 38.9374 31.9304 31.8152 33 28.611C27.2837 25.938 27.5906 20.7748 27.5906 20.6093ZM22.6283 6.31253C25.0218 3.49148 24.8026 0.922936 24.7325 0C22.6196 0.121897 20.1735 1.42794 18.7795 3.03872C17.2452 4.7627 16.3422 6.8959 16.5351 9.29901C18.8233 9.47315 20.9099 8.30642 22.6283 6.31253Z" fill="#0772B3"/>
</svg>
